<?xml version="1.0" standalone="no"?>
<!DOCTYPE svg PUBLIC "-//W3C//DTD SVG 1.1//EN" "http://www.w3.org/Graphics/SVG/1.1/DTD/svg11.dtd" >
<svg xmlns="http://www.w3.org/2000/svg">
<metadata>Generated by IcoMoon</metadata>
<defs>
<font id="icomoon" horiz-adv-x="1024">
<font-face units-per-em="1024" ascent="960" descent="-64" />
<missing-glyph horiz-adv-x="1024" />
<glyph unicode="&#x20;" horiz-adv-x="512" d="" />
<glyph unicode="&#xe900;" glyph-name="medium" horiz-adv-x="1792" d="M0 447.283c0.512 280.73 225.28 508.416 501.248 507.75 277.709-0.666 502.118-229.069 501.76-510.618-0.307-279.91-225.792-507.699-502.067-507.392-278.323 0.205-501.453 227.43-500.941 510.208zM1558.272 447.232c2.304-125.696-18.637-246.221-80.896-356.864-23.194-41.267-52.224-77.978-94.31-101.683-57.19-32.256-118.938-26.624-169.114 15.77-75.213 63.642-109.466 150.579-131.379 243.046-14.925 59.596-23.488 128.013-23.488 198.43 0 70.34 8.545 138.684 24.653 204.051l-1.216-5.834c21.914 92.416 55.91 179.558 131.379 242.893 57.856 48.589 133.478 48.896 191.334 0.922 75.93-62.976 111.36-149.76 131.584-242.534 14.131-64.717 19.866-123.75 21.402-197.939-2.099-0.256 2.15 0 0.051-0.256zM1791.846 445.082c0-46.029-6.349-237.363-38.246-352.512-6.95-23.666-16.675-44.324-29.055-63.073l0.537 0.865c-12.288-19.2-29.542-19.507-41.472-0.154-13.517 22.016-26.726 46.49-31.232 71.475-13.722 76.8-28.058 153.958-33.382 231.629-9.421 138.24-4.198 276.634 22.733 413.133 6.81 34.355 18.79 68.096 32.102 100.506 4.762 11.469 20.173 24.576 31.488 25.293 9.37 0.614 23.296-13.926 29.235-24.986 28.928-53.914 37.222-113.869 43.52-173.568 7.936-76.032 13.824-182.63 13.824-228.608z" />
<glyph unicode="&#xe901;" glyph-name="youtube" horiz-adv-x="1479" d="M1448.22 738.020s-14.279 100.807-58.14 145.237c-55.637 58.254-117.988 58.539-146.489 61.895-204.8 14.848-511.886 14.848-511.886 14.848h-0.569s-307.143 0-511.886-14.791c-28.501-3.413-90.852-3.755-146.432-62.009-43.861-44.373-58.197-145.124-58.197-145.124s-14.62-118.386-14.62-236.772v-106.098c0-118.386 14.62-236.772 14.62-236.772s14.279-100.807 58.14-145.18c55.637-58.311 128.74-56.434 161.28-62.578 117.020-11.207 497.38-14.677 497.38-14.677s307.428 0.512 512.114 15.246c28.558 3.413 90.908 3.698 146.546 62.009 43.861 44.373 58.14 145.18 58.14 145.18s14.62 118.329 14.62 236.772v106.098c0 118.329-14.62 236.715-14.62 236.715zM580.437 255.829l-0.171 411.022 395.378-206.336-395.207-204.743z" />
<glyph unicode="&#xe904;" glyph-name="arrow-right-diagonal" d="M907.904 958.976h-736.384c-58.88 0-106.752-47.872-106.752-106.88s47.872-106.88 106.88-106.88h490.112l-609.92-609.92c-41.728-41.728-41.728-109.312 0-151.040 20.864-20.864 48.256-31.36 75.52-31.36 27.392 0 54.784 10.496 75.52 31.36l598.144 598.016v-466.304c0-59.008 47.744-106.88 106.88-106.88 58.88 0 106.752 47.872 106.752 106.88v736.128c0 59.008-47.744 106.88-106.752 106.88z" />
<glyph unicode="&#xea01;" glyph-name="arrow-down" d="M448 960v-778.98l-274.746 274.744-90.508-90.51 429.254-429.254 429.254 429.254-90.508 90.51-274.746-274.744v778.98z" />
<glyph unicode="&#xea02;" glyph-name="arrow-left" d="M1024 512h-778.98l274.744 274.746-90.51 90.508-429.254-429.254 429.254-429.254 90.51 90.508-274.744 274.746h778.98z" />
<glyph unicode="&#xea03;" glyph-name="arrow-loop" d="M384 704h-158.2c4.8 5.2 9.6 10.4 14.6 15.6 72.6 72.4 169 112.4 271.6 112.4s199-40 271.6-112.4c72.4-72.6 112.4-169 112.4-271.6h128c0 282.8-229.2 512-512 512-153 0-290.2-67-384-173.4v173.4h-128v-384h384v128zM640 192h158.2c-4.8-5.2-9.6-10.4-14.6-15.6-72.6-72.4-169-112.4-271.6-112.4s-199 40-271.6 112.4c-72.4 72.6-112.4 169-112.4 271.6h-128c0-282.8 229.2-512 512-512 153 0 290.2 67 384 173.4v-173.4h128v384h-384v-128z" />
<glyph unicode="&#xea04;" glyph-name="arrow-right" d="M0 384h778.98l-274.744-274.746 90.51-90.508 429.254 429.254-429.254 429.254-90.51-90.508 274.744-274.746h-778.98z" />
<glyph unicode="&#xea05;" glyph-name="arrow-spin-clockwise" d="M896 960v-173.4c-93.8 106.4-231 173.4-384 173.4-282.8 0-512-229.2-512-512s229.2-512 512-512 512 229.2 512 512h-128c0-102.6-40-199-112.4-271.6s-169-112.4-271.6-112.4-199 40-271.6 112.4c-72.4 72.6-112.4 169-112.4 271.6s40 199 112.4 271.6c72.6 72.4 169 112.4 271.6 112.4s199-40 271.6-112.4c5-5 10-10.2 14.6-15.6h-158.2v-128h384v384h-128z" />
<glyph unicode="&#xea06;" glyph-name="arrow-up" d="M576-64v778.98l274.746-274.744 90.508 90.51-429.254 429.254-429.254-429.254 90.508-90.51 274.746 274.744v-778.98z" />
<glyph unicode="&#xea07;" glyph-name="calendar" d="M384 512h-128v-128h128v128zM384 320h-128v-128h128v128zM576 512h-128v-128h128v128zM576 320h-128v-128h128v128zM768 512h-128v-128h128v128zM768 320h-128v-128h128v128zM960 832h-64v-128h-192v128h-384v-128h-192v128h-64c-35.4 0-64-28.6-64-64v-704c0-35.4 28.6-64 64-64h896c35.4 0 64 28.6 64 64v704c0 35.4-28.6 64-64 64zM896 128h-768v448h768v-448zM256 928.4c0 17.4-14.2 31.6-31.6 31.6h-0.6c-17.6 0-31.8-14.2-31.8-31.6v-160.4h64v160.4zM832 928.4c0 17.4-14.2 31.6-31.6 31.6h-0.6c-17.6 0-31.8-14.2-31.8-31.6v-160.4h64v160.4z" />
<glyph unicode="&#xea08;" glyph-name="cash-bag" d="M522.299 149.343c48.349 6.176 85.343 47.066 85.343 96.597 0 0.014 0 0.028 0 0.042v-0.002c0 52.487-43.535 95.378-97.104 95.378h-18.959c-18.373 0-33.265 14.277-33.265 31.773 0 17.701 14.921 32.183 33.265 32.183h62.727c17.701 0 32.007 14.336 32.007 32.007 0 17.73-14.307 32.007-32.007 32.007h-32.007v32.007c0 17.701-14.277 32.007-32.007 32.007-17.701 0-31.978-14.307-31.978-32.007v-37.742c-37.157-13.458-64.015-48.859-64.015-90.463 0-52.926 43.739-95.788 97.28-95.788h18.959c18.578 0 33.090-13.868 33.090-32.651 0-17.496-14.512-31.364-33.061-31.364h-62.932c-17.701 0-32.007-14.277-32.007-32.007 0-17.701 14.307-31.978 32.007-31.978h10.679v-32.007c0-17.677 14.33-32.007 32.007-32.007s32.007 14.33 32.007 32.007v0 32.007zM860.423 352.212c50.586-117.965 18.988-244.063-60.357-325.983-53.696-55.665-128.939-90.233-212.257-90.233-0.526 0-1.051 0.001-1.577 0.004h-170.605c-0.444-0.002-0.97-0.004-1.495-0.004-83.318 0-158.562 34.568-212.172 90.144l-0.085 0.089c-79.316 81.92-110.914 208.018-60.357 325.983l167.439 330.459h384l167.468-330.459zM308.897 725.328l-42.189 166.034c-0.322 1.389-0.506 2.984-0.506 4.623 0 11.788 9.551 21.346 21.336 21.358h115.187c20.012 0 37.303-13.897 41.662-33.412l35.167-158.574h-170.657zM607.612 725.328h-85.372l-42.277 209.51c-0.21 1.126-0.33 2.421-0.33 3.745 0 11.828 9.588 21.416 21.416 21.416 0.013 0 0.026 0 0.039 0h64.013c23.347 0 42.072-19.397 42.423-42.657 0.41 23.259 19.456 42.657 42.803 42.657h63.781c13.458 0 23.464-12.171 21.124-25.161l-42.306-209.481h-85.255z" />
<glyph unicode="&#xea09;" glyph-name="cash-notes" d="M1002.675 768c11.725 0 21.325-9.6 21.325-21.325v-405.35c-0.043-11.76-9.565-21.281-21.321-21.325h-42.679v234.675c0 35.2-28.8 64-64 64h-213.76c-25.083 38.702-68.045 63.957-116.909 64h-0.007c-49.050 0-92.16-25.6-116.89-64h-341.76v128c0 11.725 9.6 21.325 21.325 21.325h874.675zM789.325 288c0.023 0 0.050 0 0.077 0 35.304 0 63.923 28.619 63.923 63.923 0 0.027 0 0.054 0 0.081v-0.004c0 35.405-28.57 64-64 64-0.023 0-0.050 0-0.077 0-35.304 0-63.923-28.619-63.923-63.923 0-0.027 0-0.054 0-0.081v0.004c0-0.023 0-0.050 0-0.077 0-35.304 28.619-63.923 63.923-63.923 0.027 0 0.054 0 0.081 0h-0.004zM458.675 213.325c0.018 0 0.038 0 0.059 0 65.191 0 119.857 45.058 134.557 105.729l0.194 0.946c2.43 9.703 3.825 20.843 3.825 32.308 0 76.419-61.949 138.368-138.368 138.368-0.103 0-0.205 0-0.308 0h0.016c-0.351 0.004-0.765 0.006-1.18 0.006-6.893 0-13.641-0.626-20.188-1.825l0.683 0.104c-67.141-10.301-117.965-67.654-117.965-136.878 0-0.029 0-0.058 0-0.087v0.005c0-11.085 1.28-21.76 3.84-32 14.893-61.618 69.56-106.675 134.75-106.675 0.030 0 0.060 0 0.089 0h-0.005zM128 277.325c0.097-0.001 0.211-0.001 0.326-0.001 27.57 0 51.023 17.631 59.698 42.233l0.136 0.443c2.56 6.605 3.84 13.875 3.84 21.325 0 35.43-28.595 64-64 64-7.475 0-14.694-1.28-21.325-3.84-25.046-8.82-42.676-32.277-42.676-59.852 0-0.108 0-0.216 0.001-0.324v0.017c0-35.405 28.595-64 64-64zM896 576c11.725 0 21.325-9.6 21.325-21.325v-405.35c-0.043-11.76-9.565-21.281-21.321-21.325h-874.679c-11.76 0.043-21.281 9.565-21.325 21.321v405.354c0 11.725 9.6 21.325 21.325 21.325h874.675z" />
<glyph unicode="&#xea0a;" glyph-name="chevron-down" d="M915.2 712.2l-403.2-403.2-403.2 403.2-89.6-91.4 492.8-492.8 492.8 492.8z" />
<glyph unicode="&#xea0b;" glyph-name="chevron-left" d="M775.8 850.8l-90.6 90.4-493.2-493.2 493.2-493.2 90.6 90.4-402.8 402.8z" />
<glyph unicode="&#xea0c;" glyph-name="chevron-right" d="M402.8 941.2l-90.6-90.4 402.8-402.8-402.8-402.8 90.6-90.4 493.2 493.2z" />
<glyph unicode="&#xea0d;" glyph-name="chevron-step-backward" d="M903.8 850.8l-90.6 90.4-493.2-493.2 493.2-493.2 90.6 90.4-402.8 402.8 402.8 402.8zM128 0h128v896h-128v-896z" />
<glyph unicode="&#xea0e;" glyph-name="chevron-step-forward" d="M768 896v-896h128v896h-128zM120.2 850.8l402.8-402.8-402.8-402.8 90.6-90.4 493.2 493.2-493.2 493.2-90.6-90.4z" />
<glyph unicode="&#xea0f;" glyph-name="chevron-up" d="M512 768l-493.2-493.2 90.4-90.6 402.8 402.8 402.8-402.8 90.4 90.6z" />
<glyph unicode="&#xea10;" glyph-name="circle-exclamation" d="M448 384h128v320h-128v-320zM576 256c0 35.4-28.6 64-64 64s-64-28.6-64-64 28.6-64 64-64c35.4 0 64 28.6 64 64zM1024 448c0 282.8-229.2 512-512 512s-512-229.2-512-512c0-282.8 229.2-512 512-512s512 229.2 512 512zM896 448c0-102.6-40-199-112.4-271.6-72.6-72.4-169-112.4-271.6-112.4s-199 40-271.6 112.4c-72.4 72.6-112.4 169-112.4 271.6s40 199 112.4 271.6c72.6 72.4 169 112.4 271.6 112.4s199-40 271.6-112.4c72.4-72.6 112.4-169 112.4-271.6z" />
<glyph unicode="&#xea11;" glyph-name="circle-information" d="M448 192h128v320h-128v-320zM512 704c-35.346 0-64-28.654-64-64s28.654-64 64-64c35.348 0 64 28.654 64 64s-28.652 64-64 64zM512 960c-282.77 0-512-229.23-512-512 0-282.768 229.23-512 512-512s512 229.232 512 512c0 282.77-229.23 512-512 512zM783.53 176.472c-72.53-72.528-168.96-112.472-271.53-112.472s-199 39.944-271.53 112.472c-72.526 72.528-112.47 168.958-112.47 271.528s39.944 199 112.47 271.53c72.53 72.526 168.96 112.47 271.53 112.47s199-39.944 271.53-112.47c72.526-72.53 112.47-168.96 112.47-271.53 0-102.568-39.944-199-112.47-271.528z" />
<glyph unicode="&#xea12;" glyph-name="circle-question" d="M512.002 288c-35.34 0-64.002-28.652-64.002-63.984 0-35.354 28.662-64.016 64.002-64.016 35.346 0 63.998 28.662 63.998 64.016 0 35.332-28.652 63.984-63.998 63.984zM512 960c-282.77 0-512-229.23-512-512 0-282.768 229.23-512 512-512s512 229.232 512 512c0 282.77-229.23 512-512 512zM783.53 176.472c-72.53-72.528-168.96-112.472-271.53-112.472s-199 39.944-271.53 112.472c-72.526 72.528-112.47 168.958-112.47 271.528s39.944 199 112.47 271.53c72.53 72.526 168.96 112.47 271.53 112.47s199-39.944 271.53-112.47c72.526-72.53 112.47-168.96 112.47-271.53 0-102.568-39.944-199-112.47-271.528zM507.298 719.7c-143.848 0-176.62-108.454-179.298-185.992h100.542c1.766 16.374 6.454 90.73 78.15 90.73 43.028 0 77.154-26.010 77.154-75.182 0-44.48-46.316-73.89-83.38-109.5-37.060-35.602-41.716-76.554-41.716-108.474v-11.282c9.354 0 103.374 0 103.374 0v11.282c0 80.37 125.876 102.018 125.876 226.636 0 78.292-56.044 161.782-180.702 161.782z" />
<glyph unicode="&#xea13;" glyph-name="circle-tick" d="M512 960c-282.8 0-512-229.2-512-512s229.2-512 512-512 512 229.2 512 512c0 282.8-229.2 512-512 512zM783.6 176.4c-72.6-72.4-169-112.4-271.6-112.4s-199 40-271.6 112.4c-72.4 72.6-112.4 169-112.4 271.6s40 199 112.4 271.6c72.6 72.4 169 112.4 271.6 112.4s199-40 271.6-112.4c72.4-72.6 112.4-169 112.4-271.6s-40-199-112.4-271.6zM690.2 645.4l-241.2-268-112.2 110.8-90-91 207.6-205.2 330.8 367.8-95 85.6z" />
<glyph unicode="&#xea14;" glyph-name="circle-xmark" d="M658.8 685.2l-146.8-146.6-146.8 146.8-90.6-90.6 146.8-146.8-146.8-146.8 90.6-90.6 146.8 146.8 146.8-146.8 90.6 90.6-146.8 146.8 146.8 146.8-90.6 90.4zM512 960c-282.8 0-512-229.2-512-512s229.2-512 512-512 512 229.2 512 512c0 282.8-229.2 512-512 512zM783.6 176.4c-72.6-72.4-169-112.4-271.6-112.4s-199 40-271.6 112.4c-72.4 72.6-112.4 169-112.4 271.6s40 199 112.4 271.6c72.6 72.4 169 112.4 271.6 112.4s199-40 271.6-112.4c72.4-72.6 112.4-169 112.4-271.6s-40-199-112.4-271.6z" />
<glyph unicode="&#xea15;" glyph-name="clipboard-list" d="M831.772 832c0.078-0.066 0.162-0.15 0.228-0.23v-767.542c-0.066-0.078-0.15-0.162-0.228-0.228h-639.544c-0.080 0.066-0.162 0.15-0.228 0.228v767.544c0.066 0.080 0.15 0.162 0.23 0.228h-128.23v-768c0-70.4 57.6-128 128-128h640c70.4 0 128 57.6 128 128v768h-128.228zM256 640h128v-128h-128zM448 640h320v-128h-320zM256 448h128v-128h-128zM448 448h320v-128h-320zM256 256h128v-128h-128zM448 256h320v-128h-320zM640 832v64c0 35.346-28.654 64-64 64h-128c-35.346 0-64-28.654-64-64v-64h-128v-128h512v128h-128zM576 832h-128v64h128v-64z" />
<glyph unicode="&#xea16;" glyph-name="clock" d="M576 704h-128v-282.6l210.8-210.6 90.4 90.6-173.2 173.2v229.4zM512 960c-282.8 0-512-229.2-512-512s229.2-512 512-512 512 229.2 512 512-229.2 512-512 512zM512 64c-212 0-384 172-384 384s172 384 384 384 384-172 384-384-172-384-384-384z" />
<glyph unicode="&#xea17;" glyph-name="clock-back" d="M512 960c-153 0-290.4-67-384-173.4v173.4h-128v-384h384v128h-158.2c4.6 5.4 9.8 10.4 14.6 15.6 72.6 72.4 169 112.4 271.6 112.4s199-40 271.6-112.4c72.4-72.6 112.4-169 112.4-271.6s-40-199-112.4-271.6c-72.6-72.4-169-112.4-271.6-112.4s-199.2 39.6-271.6 112.4-112.4 169-112.4 271.6h-128c0-282.8 229.2-512 512-512s512 229.2 512 512-229.2 512-512 512zM448 704v-282.6l210.6-210.6 90.6 90.6-173.2 173.2v229.4h-128z" />
<glyph unicode="&#xea18;" glyph-name="code" d="M786.8 749.2l-90.6-90.6 167.8-210.6-167.8-210.8 90.6-90.6 237.2 301.4-237.2 301.2zM327.8 658.8l-90.6 90.6-237.2-301.4 237.2-301.2 90.6 90.6-167.8 210.6 167.8 210.8zM384 128h128l128 640h-128l-128-640z" />
<glyph unicode="&#xea19;" glyph-name="cog" d="M1024 384v128l-144.6 48.2c-7.2 23.8-16.8 46.6-28.2 68.2l68.2 136.4-90.6 90.6-136.4-68.2c-21.6 11.4-44.4 20.8-68.2 28.2l-48.2 144.6h-128l-48.2-144.6c-23.8-7.2-46.6-16.8-68.2-28.2l-136.4 68-90.4-90.4 68.2-136.4c-11.6-21.6-21-44.4-28.4-68.2l-144.6-48.2v-128l144.6-48.2c7.2-23.8 16.8-46.6 28.2-68.2l-68.2-136.4 90.6-90.6 136.4 68.2c21.6-11.4 44.4-21 68.2-28.2l48.2-144.6h128l48.2 144.6c23.8 7.2 46.6 16.8 68.2 28.2l136.4-68.2 90.6 90.6-68.2 136.4c11.4 21.6 21 44.4 28.2 68.2l144.6 48.2zM512 256c-106 0-192 86-192 192s86 192 192 192 192-86 192-192-86-192-192-192z" />
<glyph unicode="&#xea1a;" glyph-name="compass" d="M512 960c-282.8 0-512-229.2-512-512s229.2-512 512-512 512 229.2 512 512-229.2 512-512 512zM512 64c-212 0-384 172-384 384s172 384 384 384 384-172 384-384-172-384-384-384zM416 544l-160-288v-64h64l288 160 160 288v64h-64l-288-160zM512 384c-35.4 0-64 28.6-64 64s28.6 64 64 64c35.4 0 64-28.6 64-64s-28.6-64-64-64z" />
<glyph unicode="&#xea1b;" glyph-name="devseed" d="M960 960h-896c-35.4 0-64-28.6-64-64v-896c0-35.4 28.6-64 64-64h459.4c-0.6 28.8 7.2 52.4 2 83.6-64.6 190.2-168 217.8-359.4 316.8 59.6-2 113.8-8 166-42.2-25.2 42.6-59 44.2-86.6 74.6 0 0 60.8-21 80.4-31.4 114.6-67.4 148.8-143.6 211-293.6-1.6 32.6-4.2 85.6-6.4 99.8-3 19.2-43.2 104-75.4 145.8-111.2 147.4-213.8 284.8-341.6 417.4 67.8-46.4 234.6-173.6 277-233.2-19 89.2-104 181.6-183 251.6 139.2-34 243.4-263.6 300.4-380.8 4-21 20.6-71.6 27.4-91.6 2.4-7 6.2-23.4 10.4-41.6l-2.6 27.6c0 0-11.8 66.4-15.6 89-23.4 133-57.6 264.4-62.6 400 2 24.4-11.8 90.8-17.6 124s-37.2 96-37.2 97.8v0c0 0 39.2-29.8 51-42 41.6-48 30.4-106.6 66.6-153.6-12.4 70.6-0.4 114.8-60.8 166 75.6-24 57.6-67.6 80.4-136.2 23.2 58.4 47.4 132 119.4 145-62.4-52-40.6-470.2-89.6-610.2 0-9.6-14.2-201.2-16-230.4 6.6 25 14 43.4 32.4 59.6-8.6-18.6-14.2-36.4-14-57 31.2 50.2 51.8 45.2 92.8 58.4-45.2-29.6-77.6-53.6-97.6-104.4-5.8-12.2-6.4-52.2-8.4-65.4 0.2-4-0.2-23 0-43.2h393.8c35.4 0 64 28.6 64 64v895.8c0 35.4-28.6 64-64 64zM731.8 432.4c-41.2-93.4-82.2-159-92-172-21-28.8-40-61.6-48-95.2-41 92.2 47.2 263.8 54.8 293.4 19.4 73.6 61.6 194 136 242.8 0 0 0 0 0 0v0c0 0 0 0 0 0-53.6-62.8-74.6-152.8-77.4-236.8 0 0 46.8 59.4 62.6 74.4 44.2 43 80.2 79.4 143.2 89-83.8-46.6-143-101.6-179.2-195.6z" />
<glyph unicode="&#xea1c;" glyph-name="disc-xmark" d="M512 960c-282.77 0-512-229.23-512-512s229.23-512 512-512 512 229.23 512 512-229.23 512-512 512zM813.256 237.256l-90.512-90.512-210.744 210.746-210.746-210.746-90.51 90.512 210.746 210.744-210.744 210.746 90.51 90.51 210.744-210.746 210.744 210.744 90.512-90.51-210.746-210.744 210.746-210.744z" />
<glyph unicode="&#xea1d;" glyph-name="download" d="M877.254 493.254l-90.508 90.51-210.746-210.744v586.98h-128v-586.98l-210.746 210.744-90.508-90.51 365.254-365.254 365.254 365.254zM896 192v-128h-768v128h-128v-256h1024v256h-128z" />
<glyph unicode="&#xea1e;" glyph-name="ellipsis-horizontal" d="M256 448c0 70.6-57.4 128-128 128s-128-57.4-128-128 57.4-128 128-128 128 57.4 128 128zM384 448c0-70.6 57.4-128 128-128s128 57.4 128 128-57.4 128-128 128-128-57.4-128-128zM768 448c0-70.6 57.4-128 128-128s128 57.4 128 128-57.4 128-128 128-128-57.4-128-128z" />
<glyph unicode="&#xea1f;" glyph-name="ellipsis-vertical" d="M512 704c70.6 0 128 57.4 128 128s-57.4 128-128 128-128-57.4-128-128 57.4-128 128-128zM512 576c-70.6 0-128-57.4-128-128s57.4-128 128-128 128 57.4 128 128-57.4 128-128 128zM512 192c-70.6 0-128-57.4-128-128s57.4-128 128-128 128 57.4 128 128-57.4 128-128 128z" />
<glyph unicode="&#xea20;" glyph-name="envelope" d="M0 576v-512h1024v512l-512-320-512 320zM1024 832h-1024v-128l512-320 512 320v128z" />
<glyph unicode="&#xea21;" glyph-name="facebook" d="M575.87-64h-191.87v512h-128v176.45l128 0.058-0.208 103.952c0 143.952 39.034 231.54 208.598 231.54h141.176v-176.484h-88.23c-66.032 0-69.206-24.656-69.206-70.684l-0.262-88.324h158.69l-18.704-176.45-139.854-0.058-0.13-512z" />
<glyph unicode="&#xea22;" glyph-name="folder" d="M448 896l128-128h448v-704h-1024v832h448z" />
<glyph unicode="&#xea23;" glyph-name="github" d="M0 403.59c0-46.398 4.34-88.38 13.022-125.934 8.678-37.554 20.696-70.184 36.052-97.892s34.884-52.078 58.586-73.108c23.7-21.032 49.406-38.224 77.112-51.576 27.706-13.35 59.336-24.198 94.888-32.546 35.552-8.346 71.856-14.188 108.91-17.528 37.054-3.338 77.78-5.006 122.178-5.006 44.732 0 85.628 1.668 122.68 5.006 37.054 3.34 73.442 9.184 109.16 17.528s67.512 19.192 95.388 32.546c27.876 13.354 53.746 30.544 77.616 51.576 23.87 21.030 43.566 45.404 59.086 73.108s27.622 60.336 36.302 97.892c8.68 37.556 13.020 79.536 13.020 125.934 0 82.788-27.708 154.394-83.118 214.816 3.004 8.012 5.758 17.108 8.262 27.29s4.84 24.702 7.010 43.564c2.17 18.862 1.336 40.642-2.504 65.346-3.838 24.704-10.932 49.906-21.284 75.612l-7.51 1.502c-5.342 1-14.106 0.75-26.29-0.752s-26.372-4.506-42.562-9.014c-16.19-4.506-37.054-13.186-62.592-26.038s-52.494-28.958-80.87-48.32c-48.736 13.352-115.668 20.030-200.792 20.030-84.792 0-151.556-6.678-200.294-20.030-28.376 19.362-55.5 35.468-81.37 48.32s-46.484 21.532-61.84 26.038c-15.354 4.508-29.71 7.428-43.062 8.764-13.354 1.336-21.784 1.752-25.288 1.252s-6.26-1.086-8.262-1.752c-10.348-25.706-17.442-50.906-21.28-75.612-3.838-24.704-4.674-46.486-2.504-65.346s4.508-33.382 7.010-43.564c2.504-10.182 5.258-19.278 8.262-27.29-55.414-60.422-83.122-132.026-83.122-214.816zM125.684 277.906c0 48.070 21.866 92.136 65.596 132.194 13.018 12.020 28.208 21.114 45.566 27.292 17.358 6.176 36.97 9.68 58.836 10.516 21.866 0.834 42.812 0.668 62.842-0.502 20.028-1.168 44.732-2.754 74.108-4.756 29.376-2.004 54.748-3.004 76.112-3.004 21.366 0 46.736 1 76.112 3.004 29.378 2.002 54.078 3.588 74.11 4.756 20.030 1.17 40.974 1.336 62.842 0.502 21.866-0.836 41.476-4.34 58.838-10.516 17.356-6.176 32.544-15.27 45.564-27.292 43.73-39.394 65.598-83.456 65.598-132.194 0-28.712-3.59-54.162-10.768-76.364-7.178-22.2-16.358-40.81-27.542-55.83s-26.704-27.79-46.568-38.306c-19.862-10.516-39.222-18.61-58.084-24.288-18.862-5.674-43.066-10.098-72.608-13.27-29.546-3.172-55.916-5.092-79.118-5.758-23.2-0.668-52.66-1.002-88.378-1.002s-65.178 0.334-88.378 1.002c-23.2 0.666-49.574 2.586-79.116 5.758s-53.744 7.596-72.606 13.27c-18.86 5.678-38.222 13.774-58.084 24.288s-35.386 23.282-46.568 38.306c-11.182 15.022-20.364 33.63-27.54 55.83-7.178 22.202-10.766 47.656-10.766 76.364zM640 288c0-53.019 28.654-96 64-96s64 42.981 64 96v0c0 53.019-28.654 96-64 96s-64-42.981-64-96v0zM256 288c0-53.019 28.654-96 64-96s64 42.981 64 96v0c0 53.019-28.654 96-64 96s-64-42.981-64-96v0z" />
<glyph unicode="&#xea24;" glyph-name="globe" d="M512 960c-282.8 0-512-229.2-512-512s229.2-512 512-512c282.8 0 512 229.2 512 512s-229.2 512-512 512zM240.4 176.4c-72.4 72.6-112.4 169-112.4 271.6 0 36.4 5 71.8 14.8 105.8l32.4-85.4 180.4-142.4 30-6.8-44.2-70.8 65.4-169.8c-62.2 17.6-119.2 50.8-166.4 97.8zM820.6 219.2c-11.2-15-23.6-29.4-37-42.8-69.4-69.4-160.8-109-258.6-112.2l107.4 84.8 13.8 72.4-271.4 126.2-16.8 29.2-22 15.2-11.4 50.2-37.2-15.2 12.4 48.8 44.4 5.8 39.6-44 13 76 48.6 67.2 51.8 18.4 5.2 35-11.2 12 49 8 5.6 38.4-44.4 45.8-38-5-47 23.4-25.6-80.2-56.6 34.4 82.2 86-105.2-21.4c53.2 32.6 113.4 51.8 176.6 55.6l119.2-104.8 43.8-11.8 9.2 33.8 45 31.4c28.2-16.4 54.4-36.6 78-60.2 11.8-11.8 22.8-24.4 33-37.4l-34.8-60.2-34.2-6.8 42-264.8 46.8-49-15.2-82.2zM823 563.8l15.8 21.2 18-21.8-33.8 0.6z" />
<glyph unicode="&#xea25;" glyph-name="google-plus" d="M525.4 370.6c-28.6 20.2-83.4 69.6-83.4 98.6 0 34 9.8 50.8 60.8 90.8 52.4 41 89.6 98.6 89.6 165.6 0 69.4-26.8 137-77.6 170.4h61.2l64 64h-18.4c0 0-112.4 0-201.6 0h-75.4c-142.2 0-276-107.8-276-232.4 0-127.6 97-230.4 241.6-230.4 10 0 19.8 0.2 29.4 0.8-9.4-18-16-38.2-16-59.2 0-35.4 19-64.2 43.2-87.6-18.2 0-35.8-0.6-55-0.6-176.2 0-311.8-112.2-311.8-228.4 0-114.6 148.6-186.2 324.6-186.2 200.8 0 311.6 114 311.6 228.4 0.2 92-27 147-110.8 206.2zM356 529.4c-81.8 2.4-159.4 91.4-173.4 198.6-14.2 107.4 40.6 189.4 122.4 187 81.6-2.4 159.4-88.6 173.4-195.8 14.2-107.2-40.6-192.2-122.4-189.8zM324-13.4c-121.8 0-209.6 77-209.6 169.6 0 90.8 109 166.2 230.8 165 28.4-0.4 54.8-4.8 79-12.6 66-46 113.4-72 126.8-124.2 2.6-10.6 3.8-21.6 3.8-32.6 0-92.8-59.6-165.2-230.8-165.2zM832 512v192h-64v-192h-192v-64h192v-192h64v192h192v64h-192z" />
<glyph unicode="&#xea26;" glyph-name="grid-3x3" d="M64 896h256v-256h-256zM384 896h256v-256h-256zM704 896h256v-256h-256zM64 576h256v-256h-256zM384 576h256v-256h-256zM704 576h256v-256h-256zM64 256h256v-256h-256zM384 256h256v-256h-256zM704 256h256v-256h-256z" />
<glyph unicode="&#xea27;" glyph-name="hamburger-menu" d="M64 384h896v128h-896v-128zM64 64h896v128h-896v-128zM64 832v-128h896v128h-896z" />
<glyph unicode="&#xea28;" glyph-name="heart-full" d="M752 896c-103.912 0-194.2-58.276-240-143.92-45.802 85.644-136.090 143.92-240 143.92-150.222 0-272-121.78-272-272 0-368 512-624 512-624s512 256 512 624c0 150.22-121.778 272-272 272z" />
<glyph unicode="&#xea29;" glyph-name="house" d="M0 576v-640h384v384h256v-384h384v640l-512 384z" />
<glyph unicode="&#xea2a;" glyph-name="id-editor" d="M128 112h131v494h-131v-494zM128 664.8h131v119.2h-131v-119.2zM936.8 572.8c-8.4 38.6-24.4 74.6-47.6 107.8-29 41-67 69.4-113.8 84.8-27.6 9-62 13.8-103.4 14.6h-288v-668h288c101 0 175.6 41.6 224 124.6 35.6 61.6 53.6 136.8 53.6 225.6 0 35.2-4.2 72-12.8 110.6zM786.4 325.4c-26-65-72-97.4-138-97.4h-129v436h129c63.6 0 106-18.2 127.4-54.6s32-88.6 32-156.6c0-49.2-7.2-91.8-21.4-127.4z" />
<glyph unicode="&#xea2b;" glyph-name="link" d="M434.8 141.2c-30.6-30.4-71.2-47.2-114.8-47.2s-84.2 16.8-114.8 47.2c-63.2 63.2-63.2 166.2 0 229.4l146.8 146.8-90.6 90.6-146.8-146.8c-113-113.2-113-297.2 0.2-410.4 54.6-54.8 127.4-84.8 205.2-84.8s150.6 30 205.2 84.8l146.8 146.8-90.6 90.4-146.6-146.8zM909.2 845.2c-54.6 54.8-127.4 84.8-205.2 84.8s-150.6-30-205.2-84.8l-146.8-146.6 90.6-90.6 146.8 146.8c30.4 30.4 71 47.2 114.6 47.2s84.2-16.8 114.8-47.2c63.2-63.2 63.2-166.2 0-229.4l-146.8-146.8 90.6-90.6 146.8 146.8c113 113.2 113 297.2-0.2 410.4zM749.2 594.8l-90.6 90.6-384-384 90.6-90.6 384 384z" />
<glyph unicode="&#xea2c;" glyph-name="list" d="M192 768v-128h832v128h-832zM0 640h128v128h-128v-128zM192 384h832v128h-832v-128zM0 384h128v128h-128v-128zM192 128h832v128h-832v-128zM0 128h128v128h-128v-128z" />
<glyph unicode="&#xea2d;" glyph-name="location" d="M960 896l-896-320 448-128 128-448z" />
<glyph unicode="&#xea2e;" glyph-name="magnifier-left" d="M1005.332 90.434l-235.21 235.21c39.222 63.472 61.878 138.262 61.878 218.356 0 229.75-186.25 416-416 416s-416-186.25-416-416 186.25-416 416-416c80.094 0 154.884 22.656 218.356 61.878l235.21-235.21c24.89-24.89 65.62-24.89 90.51 0l45.256 45.256c24.89 24.89 24.89 65.62 0 90.51zM212.354 340.354c-54.396 54.396-84.354 126.718-84.354 203.646s29.958 149.25 84.354 203.646c54.396 54.396 126.718 84.354 203.646 84.354s149.25-29.958 203.646-84.354c54.396-54.396 84.354-126.718 84.354-203.646s-29.958-149.25-84.354-203.646c-54.396-54.396-126.718-84.354-203.646-84.354s-149.25 29.958-203.646 84.354z" />
<glyph unicode="&#xea2f;" glyph-name="magnifier-right" d="M18.6 0l45.4-45.4c24.8-24.8 65.6-24.8 90.6 0l235.2 235.2c63.4-39.2 138.2-61.8 218.2-61.8 229.8 0 416 186.2 416 416s-186.2 416-416 416c-229.8 0-416-186.2-416-416 0-80 22.6-154.8 61.8-218.4l-235.2-235.2c-24.8-24.8-24.8-65.6 0-90.4zM608 256c-77 0-149.2 30-203.6 84.4s-84.4 126.6-84.4 203.6 30 149.2 84.4 203.6 126.6 84.4 203.6 84.4 149.2-30 203.6-84.4 84.4-126.6 84.4-203.6-30-149.2-84.4-203.6c-54.4-54.4-126.6-84.4-203.6-84.4z" />
<glyph unicode="&#xea30;" glyph-name="map" d="M0 768l320 128v-768l-320-128zM704 768v-768l-320 106.666v768zM1024 896v-768l-256-102.4v768z" />
<glyph unicode="&#xea31;" glyph-name="marker" d="M512 960c-212 0-384-172-384-384 0-384 384-640 384-640s384 256 384 640c0 212-172 384-384 384zM512 448c-106 0-192 86-192 192s86 192 192 192c106 0 192-86 192-192s-86-192-192-192z" />
<glyph unicode="&#xea32;" glyph-name="minus" d="M960 512h-896v-128h896z" />
<glyph unicode="&#xea33;" glyph-name="pages" d="M192 768h-128v-832h704v128h-576v704zM768 960h-512v-832h704v640l-192 192zM832 256h-448v576h320v-128h128v-448z" />
<glyph unicode="&#xea34;" glyph-name="pencil" d="M64 256v-256h256l448 448-256 256-448-448zM704 896l-128-128 256-256 128 128-256 256z" />
<glyph unicode="&#xea35;" glyph-name="people-arrows" d="M422.707 607.38c0-16.521-13.426-29.969-29.924-29.969-16.551 0-29.969 13.418-29.969 29.969s13.418 29.969 29.969 29.969v0c16.498 0 29.924-13.426 29.924-29.969zM395.924 402.17h-6.645l-6.030-110.592c0-3.883-3.148-7.031-7.031-7.031s-7.031 3.148-7.031 7.031v0l-6.076 110.592h-19.456l20.184 123.972-40.619-81.055c-1.103-2.545-3.593-4.293-6.491-4.293-0.975 0-1.904 0.198-2.748 0.555l0.046-0.017c-2.523 1.077-4.26 3.536-4.26 6.402 0 1.019 0.22 1.986 0.614 2.858l-0.018-0.044s29.764 80.668 37.092 95.664c7.305 15.064 14.609 24.189 42.485 24.189h5.689c27.944 0 35.157-9.125 42.507-24.189 7.327-14.996 37.092-95.664 37.092-95.664 0.35-0.808 0.553-1.749 0.553-2.738 0-2.887-1.734-5.368-4.217-6.46l-0.045-0.018c-0.804-0.345-1.739-0.546-2.721-0.546-2.901 0-5.394 1.752-6.477 4.255l-0.018 0.046-40.596 81.055 20.139-123.972h-19.479l-5.962-110.592c0-3.8-3.186-7.054-7.054-7.054-3.857 0.051-6.963 3.19-6.963 7.054 0 0 0 0 0 0.001v0l-6.463 110.592zM634.288 637.394c16.475 0 29.81-13.403 29.81-29.969 0.014-0.348 0.023-0.756 0.023-1.166 0-16.514-13.387-29.901-29.901-29.901s-29.901 13.387-29.901 29.901c0 0.41 0.008 0.818 0.025 1.225l-0.002-0.058c0 16.566 13.426 29.969 29.946 29.969zM665.236 461.039h-0.023l5.78-163.863c0.018-0.246 0.029-0.533 0.029-0.822 0-6.202-4.818-11.279-10.916-11.692l-0.036-0.002c-0.273-0.114-0.569-0.114-0.842-0.114-6.198 0.001-11.268 4.832-11.649 10.935l-0.002 0.033-13.38 134.94-13.244-134.94c-0.464-6.148-5.562-10.961-11.787-10.968h-0.001c-0.228 0-0.523 0-0.842 0.091-6.116 0.463-10.903 5.539-10.903 11.733 0 0.275 0.009 0.548 0.028 0.819l-0.002-0.037 5.734 163.886-1.98 65.149-36.568-81.055c-1.059-2.545-3.527-4.302-6.404-4.302-0.974 0-1.902 0.201-2.743 0.565l0.045-0.017c-2.552 1.114-4.303 3.615-4.303 6.526 0 0.987 0.202 1.928 0.566 2.782l-0.018-0.046s25.714 80.668 32.996 95.687c7.35 14.996 18.751 24.121 46.626 24.121h5.689c27.921 0 39.231-9.125 46.581-24.121 7.373-15.019 33.064-95.687 33.064-95.687 0.274-0.723 0.433-1.56 0.433-2.433 0-3.896-3.158-7.054-7.054-7.054-2.778 0-5.18 1.605-6.331 3.939l-0.018 0.041-36.523 81.055-1.98-65.149zM513.502 455.236c0.196 0.008 0.426 0.012 0.658 0.012 10.142 0 18.364-8.222 18.364-18.364s-8.222-18.364-18.364-18.364c-0.223 0-0.446 0.004-0.667 0.012l0.032-0.001c-9.865 0.352-17.729 8.434-17.729 18.353 0 9.911 7.851 17.988 17.673 18.351l0.033 0.001zM513.502 346.988l-8.26-57.594c-1.090-2.836-3.78-4.818-6.937-4.847h-0.004c-3.289 0.042-6.062 2.204-7.017 5.181l-0.015 0.053c-0.091 0.137-0.273 3.55-0.091 4.119l3.368 70.656-1.092 24.257c-0.91 8.26-1.092 5.803-10.49 11.401-9.489 5.734-25.737 31.016-26.601 32.245-0.796 1.274-2.276 3.504-2.503 4.892-0.060 0.281-0.095 0.604-0.095 0.935 0 2.247 1.589 4.124 3.705 4.566l0.030 0.005c1.957 0.273 3.527-0.705 4.71-2.048 1.343-1.365 20.002-26.351 34.042-28.718 3.186 0.41 6.599 2.139 15.474 2.139h3.527c8.92 0 12.334-1.729 15.474-2.139 14.063 2.367 32.768 27.352 33.997 28.718 1.229 1.343 2.844 2.321 4.756 2.048 2.503-0.523 4.187-2.958 3.709-5.507-0.296-1.365-1.775-3.618-2.571-4.892-0.796-1.229-16.998-26.51-26.601-32.245-9.33-5.598-9.535-3.14-10.468-11.378l-1.115-24.28 3.413-70.656c0.045-0.494 0.071-1.069 0.071-1.65 0-0.878-0.059-1.743-0.173-2.59l0.011 0.099c-0.967-3.022-3.729-5.182-7.003-5.234h-0.006c-3.179 0.026-5.887 2.018-6.968 4.818l-0.017 0.051-8.26 57.572zM509.406 692.235l-115.462 147.069h69.791l0.114 120.695h92.342v-120.65l71.134-0.046-117.897-147.069zM337.533 619.804l-185.344 22.187 49.38 49.471-85.060 85.379 65.308 65.468 85.083-85.265 50.29 50.381 20.366-187.62zM267.036 446.726l-146.66-115.689v69.996l-120.377 0.023v92.638h120.377v71.27l146.66-118.238zM339.285 274.421l-22.118-185.799-49.334 49.471-85.197-85.333-65.286 65.536 85.106 85.288-50.244 50.472 187.073 20.366zM511.932 203.765l115.416-147.069h-69.837l-0.023-120.695h-92.365v120.65l-71.134 0.046 117.965 147.069zM683.827 276.173l185.276-22.164-49.38-49.471 85.083-85.379-65.308-65.49-85.083 85.288-50.29-50.381-20.298 187.597zM754.256 449.274l146.682 115.712v-69.996l120.377-0.046v-92.638h-120.331l-0.046-71.27-146.682 118.238zM682.007 621.602l22.073 185.799 49.38-49.471 85.197 85.333 65.308-65.536-85.106-85.288 50.222-50.472-187.051-20.366z" />
<glyph unicode="&#xea36;" glyph-name="picture" d="M736 512c53 0 96 43 96 96s-43 96-96 96c-53 0-96-43-96-96s43-96 96-96zM832 448l-256-128-192 320-192-384v-64h640v256zM0 896v-896h1024v896h-1024zM896 128h-768v640h768v-640z" />
<glyph unicode="&#xea37;" glyph-name="plus" d="M960 512h-384v384h-128v-384h-384v-128h384v-384h128v384h384z" />
<glyph unicode="&#xea38;" glyph-name="pop-up" d="M320 832v-576h640v576h-640zM832 384h-384v320h384v-320zM256 640h-128v-576h640v128h-512v448z" />
<glyph unicode="&#xea39;" glyph-name="quote-left" d="M1024 768v128c-268 0-448-180-448-448v-448h448v448h-320c0 197.4 122.6 320 320 320zM0 448v-448h448v448h-320c0 197.4 122.6 320 320 320v128c-268 0-448-180-448-448z" />
<glyph unicode="&#xea3e;" glyph-name="share" d="M640 576v-128h192v-384h-640v384h192v128h-320v-640h896v640h-320zM448 747v-491h128v491l117.4-117.4 74.6 74.4-256 256-256-256 74.6-74.6 117.4 117.6z" />
<glyph unicode="&#xea3f;" glyph-name="slack" d="M1020.6 419.8l-1.2 3.6c-12 35.4-45.8 59-84.6 58.8-9.8 0-19.4-1.6-28.8-4.8l-100.6-34-65 192.8c94.8 32.4 96.6 33 96.8 33 40.4 13.6 74 55.8 60.6 103.2l-1 3.6c-12.2 36.2-45.4 59.6-84.8 59.2-8.8 0-17.6-1.4-26.4-3.8l-99.4-33.4-33 98.2c-7.6 22.6-23.6 40.8-44.8 51.4-12.8 6.2-26.2 9.4-40.2 9.4-9.4 0-18.8-1.6-27.8-4.8-45.2-15.2-70.4-63-57.2-108.8l1.2-4 33-98-190.8-64-32.8 97.6c-12.4 36.6-46.6 61-85.2 60.6-9.4 0-18.8-1.6-27.8-4.6-45.2-15-70.4-62.8-57.4-108.6 0.4-1.4 0.8-2.6 1.2-4l32.8-97.4-96.6-32.4c-45.2-15.2-70.4-62.8-57.4-108.4 0.4-1.4 0.8-2.6 1.2-4 12-35.6 44.2-58.4 82.6-58 10 0 19.8 1.8 29.4 5 33.6 11.4 65.8 22.4 96.4 33v0 0l64.4-191.2-96-32.4c-45.4-15.6-70.6-63.8-57.4-109.8 0.4-1.4 0.8-2.6 1.2-4 11.8-35 44.2-57.4 82.8-57.2v0c10.4 0 20.6 1.8 30.8 5.2l94.4 32.2 33.4-99.4c12.4-36.6 46.6-61 85.2-60.8v0 0c9.4 0 18.6 1.6 27.6 4.6 45.2 15.2 70.4 63 57.2 109-0.4 1.4-0.8 2.8-1.2 4l-33.8 100.2 190.4 65.2 34-101.2c12.4-36.6 46.6-61 85.2-60.6 9.4 0 18.8 1.6 27.6 4.6 45.2 15.2 70.4 63 56.8 110.6l-0.8 2.4-34.4 102 105.6 36.2c0 0 32.8 14.2 43.2 30.4 14.4 21.6 18.4 49 11.4 73.6zM446.2 321.8v0 0l-64.6 191.8c75.2 25.6 138 47.2 190.4 65l64.8-192.4-190.6-64.4z" />
<glyph unicode="&#xea40;" glyph-name="sliders-horizontal" d="M256 192h-256v-128h256v-64h192v256h-192v-64zM576 320h192v256h-192v-64h-576v-128h576v-64zM192 640h192v256h-192v-64h-192v-128h192v-64zM512 64h512v128h-512v-128zM448 832v-128h576v128h-576zM832 384h192v128h-192v-128z" />
<glyph unicode="&#xea41;" glyph-name="sm-chevron-down" d="M512 192l-365.254 365.254 90.51 90.51 274.744-274.744 274.746 274.744 90.508-90.51z" />
<glyph unicode="&#xea42;" glyph-name="sm-chevron-left" d="M256 448l365.254 365.254 90.51-90.51-274.744-274.744 274.744-274.746-90.51-90.508z" />
<glyph unicode="&#xea43;" glyph-name="sm-chevron-right" d="M402.746 82.746l-90.51 90.508 274.744 274.746-274.744 274.744 90.51 90.51 365.254-365.254z" />
<glyph unicode="&#xea44;" glyph-name="sm-chevron-up" d="M512 704l365.254-365.254-90.51-90.51-274.744 274.744-274.746-274.744-90.508 90.51z" />
<glyph unicode="&#xea45;" glyph-name="sm-minus" d="M896 512h-768v-128h768z" />
<glyph unicode="&#xea46;" glyph-name="sm-plus" d="M896 512h-320v320h-128v-320h-320v-128h320v-320h128v320h320z" />
<glyph unicode="&#xea47;" glyph-name="sm-tick" d="M416.774 104.3l-303.154 242.526 79.96 99.95 208.846-167.076 420.404 467.114 95.14-85.628z" />
<glyph unicode="&#xea48;" glyph-name="sm-triangle-down" d="M512 256l-320 320h640z" />
<glyph unicode="&#xea49;" glyph-name="sm-triangle-left" d="M320 448l320 320v-640z" />
<glyph unicode="&#xea4a;" glyph-name="sm-triangle-right" d="M704 448l-320-320v640z" />
<glyph unicode="&#xea4b;" glyph-name="sm-triangle-up" d="M512 640l320-320h-640z" />
<glyph unicode="&#xea4c;" glyph-name="sm-xmark" d="M877.254 722.746l-90.508 90.508-274.746-274.746-274.746 274.746-90.508-90.508 274.746-274.746-274.746-274.746 90.508-90.508 274.746 274.746 274.746-274.746 90.508 90.508-274.746 274.746z" />
<glyph unicode="&#xea4d;" glyph-name="sort-asc" d="M722.8 391.8l-9.8-7.8h17.6l-7.8 7.8zM778.6 336h-125.8l-20-16h162l-16.2 16zM746.6 368h-53.6l-20-16h89.8l-16.2 16zM552.2 256h203.6l20.4 16h-204l-20-16zM512 64l20.4 16h-40.6l20.2-16zM430.8 128h162.6l20.4 16h-203.4l20.4-16zM390.2 160h243.8l20.4 16h-284.6l20.4-16zM471.4 96h81.2l20.4 16h-121.8l20.2-16zM349.4 192h325l20.4 16h-365.6l20.2-16zM288.6 240l20.4-16h203l-20 16h-203.4zM612.4 304l-20-16h204l16.8 13.2-2.8 2.8h-198zM512 224h203.2l20.4 16h-203.6l-20-16zM301.2 391.8l-7.8-7.8h17.6l-9.8 7.8zM331.2 368h-53.6l-16-16h89.8l-20.2 16zM451.8 272h-204l20.4-16h203.6l-20 16zM411.6 304h-198l-2.8-2.8 16.8-13.2h204l-20 16zM371.4 336h-125.8l-16-16h162l-20.2 16zM512 672l210.8-167.8 90.6 90.6-301.4 237.2-301.2-237.2 90.6-90.6 210.6 167.8z" />
<glyph unicode="&#xea4e;" glyph-name="sort-desc" d="M593.2 768h-162.6l-20.4-16h203.2l-20.2 16zM471.8 640h-203.6l-20.4-16h203.8l20.2 16zM552.6 800h-81.2l-20.4-16h121.8l-20.2 16zM674.6 704h-325.2l-20.4-16h365.6l-20 16zM633.8 736h-243.6l-20.4-16h284.4l-20.4 16zM512 832l-20.4-16h40.6l-20.2 16zM735.4 656l-20.4 16h-203l20-16h203.4zM512 672h-203.2l-20.4-16h203.6l20 16zM612.4 592h198l2.8 2.8-16.8 13.2h-204l20-16zM572.2 624h203.8l-20.4 16h-203.4l20-16zM762.6 544h-89.8l20-16h53.6l16.2 16zM713 512l9.8-7.8 7.8 7.8h-17.6zM411.6 592l20 16h-204l-16.8-13.2 2.8-2.8h198zM794.6 576h-162l20-16h125.8l16.2 16zM351.2 544h-89.8l16-16h53.6l20.2 16zM293.4 512l7.8-7.8 9.8 7.8h-17.6zM391.4 576h-162l16-16h125.8l20.2 16zM512 224l-210.8 167.8-90.6-90.6 301.4-237.2 301.2 237.2-90.6 90.6-210.6-167.8z" />
<glyph unicode="&#xea4f;" glyph-name="sort-none" d="M593.2 768h-162.6l-20.4-16h203.2l-20.2 16zM471.8 640h-203.6l-20.4-16h203.8l20.2 16zM552.6 800h-81.2l-20.4-16h121.8l-20.2 16zM674.6 704h-325.2l-20.4-16h365.6l-20 16zM633.8 736h-243.6l-20.4-16h284.4l-20.4 16zM512 832l-20.4-16h40.6l-20.2 16zM735.4 656l-20.4 16h-203l20-16h203.4zM512 672h-203.2l-20.4-16h203.6l20 16zM612.4 592h198l2.8 2.8-16.8 13.2h-204l20-16zM572.2 624h203.8l-20.4 16h-203.4l20-16zM762.6 544h-89.8l20-16h53.6l16.2 16zM713 512l9.8-7.8 7.8 7.8h-17.6zM411.6 592l20 16h-204l-16.8-13.2 2.8-2.8h198zM722.8 391.8l-9.8-7.8h17.6l-7.8 7.8zM778.6 336h-125.8l-20-16h162l-16.2 16zM746.6 368h-53.6l-20-16h89.8l-16.2 16zM794.6 576h-162l20-16h125.8l16.2 16zM552.2 256h203.6l20.4 16h-204l-20-16zM512 64l20.4 16h-40.6l20.2-16zM430.8 128h162.6l20.4 16h-203.4l20.4-16zM390.2 160h243.8l20.4 16h-284.6l20.4-16zM471.4 96h81.2l20.4 16h-121.8l20.2-16zM349.4 192h325l20.4 16h-365.6l20.2-16zM288.6 240l20.4-16h203l-20 16h-203.4zM612.4 304l-20-16h204l16.8 13.2-2.8 2.8h-198zM512 224h203.2l20.4 16h-203.6l-20-16zM301.2 391.8l-7.8-7.8h17.6l-9.8 7.8zM331.2 368h-53.6l-16-16h89.8l-20.2 16zM351.2 544h-89.8l16-16h53.6l20.2 16zM293.4 512l7.8-7.8 9.8 7.8h-17.6zM451.8 272h-204l20.4-16h203.6l-20 16zM391.4 576h-162l16-16h125.8l20.2 16zM411.6 304h-198l-2.8-2.8 16.8-13.2h204l-20 16zM371.4 336h-125.8l-16-16h162l-20.2 16z" />
<glyph unicode="&#xea50;" glyph-name="sort" d="M512 224l-210.8 167.8-90.6-90.6 301.4-237.2 301.2 237.2-90.6 90.6-210.6-167.8zM512 672l210.8-167.8 90.6 90.6-301.4 237.2-301.2-237.2 90.6-90.6 210.6 167.8z" />
<glyph unicode="&#xea51;" glyph-name="star-full" d="M1024 562.95l-353.78 51.408-158.22 320.582-158.216-320.582-353.784-51.408 256-249.538-60.432-352.352 316.432 166.358 316.432-166.358-60.434 352.352 256.002 249.538z" />
<glyph unicode="&#xea52;" glyph-name="text-block" d="M0 320h1024v128h-1024v-128zM0 960v-128h1024v128h-1024zM0 64h512v128h-512v-128zM0 576h1024v128h-1024v-128z" />
<glyph unicode="&#xea53;" glyph-name="tick" d="M388.75 32.738l-370.004 370.006 90.508 90.51 269.996-269.992 531.216 649.266 99.068-81.056z" />
<glyph unicode="&#xea54;" glyph-name="trash-bin" d="M704 640h128v-544c0-52.8-43.2-96-96-96h-448c-52.8 0-96 43.2-96 96v544h128v-512h128v512h128v-512h128v512zM128 832h768v-128h-768v128zM384 960h256v-64h-256v64z" />
<glyph unicode="&#xea55;" glyph-name="triangle-down" d="M0 640h1024l-512-512z" />
<glyph unicode="&#xea56;" glyph-name="triangle-left" d="M192 448l512 512v-1024z" />
<glyph unicode="&#xea57;" glyph-name="triangle-right" d="M320-64v1024l512-512z" />
<glyph unicode="&#xea58;" glyph-name="triangle-up" d="M512 768l512-512h-1024z" />
<glyph unicode="&#xea59;" glyph-name="twitter" d="M1024 765.582c-37.676-16.708-78.164-28.002-120.66-33.080 43.372 26 76.686 67.17 92.372 116.23-40.596-24.078-85.556-41.56-133.41-50.98-38.32 40.83-92.922 66.34-153.346 66.34-116.022 0-210.088-94.058-210.088-210.078 0-16.466 1.858-32.5 5.44-47.878-174.6 8.764-329.402 92.4-433.018 219.506-18.084-31.028-28.446-67.116-28.446-105.618 0-72.888 37.088-137.192 93.46-174.866-34.438 1.092-66.832 10.542-95.154 26.278-0.020-0.876-0.020-1.756-0.020-2.642 0-101.788 72.418-186.696 168.522-206-17.626-4.8-36.188-7.372-55.348-7.372-13.538 0-26.698 1.32-39.528 3.772 26.736-83.46 104.32-144.206 196.252-145.896-71.9-56.35-162.486-89.934-260.916-89.934-16.958 0-33.68 0.994-50.116 2.94 92.972-59.61 203.402-94.394 322.042-94.394 386.422 0 597.736 320.124 597.736 597.744 0 9.108-0.206 18.168-0.61 27.18 41.056 29.62 76.672 66.62 104.836 108.748z" />
<glyph unicode="&#xea5a;" glyph-name="upload" d="M512 768l-365.2-365.2 90.6-90.6 210.6 210.8v-587h128v587l210.8-210.8 90.6 90.6-365.4 365.2zM1024 704v256h-1024v-256h128v128h768v-128h128z" />
<glyph unicode="&#xea5b;" glyph-name="user" d="M512 448c141.4 0 256 114.6 256 256s-114.6 256-256 256-256-114.6-256-256c0-141.4 114.6-256 256-256zM768 320h-512c-141.4 0-256-114.6-256-256v-128h1024v128c0 141.4-114.6 256-256 256z" />
<glyph unicode="&#xea5c;" glyph-name="xmark" d="M941.256 786.746l-90.512 90.508-338.744-338.744-338.746 338.744-90.508-90.508 338.744-338.746-338.744-338.744 90.508-90.512 338.746 338.746 338.744-338.746 90.512 90.512-338.746 338.744z" />
</font>
</defs>
</svg>
