<?xml version="1.0" encoding="utf-8"?>
<!-- Generator: Adobe Illustrator 24.1.0, SVG Export Plug-In . SVG Version: 6.00 Build 0)  -->
<svg version="1.1" id="Layer_1" xmlns="http://www.w3.org/2000/svg" xmlns:xlink="http://www.w3.org/1999/xlink" x="0px" y="0px"
	 viewBox="0 0 1080 530" style="enable-background:new 0 0 1080 530;" xml:space="preserve">
<style type="text/css">
	.st0{fill:#EFEFEF;}
	.st1{fill:#F5333F;}
	.st2{fill:#BCBEC0;}
	.st3{fill:#FFFFFF;}
	.st4{fill:#333132;}
</style>
<rect class="st0" width="1080" height="530"/>
<g>
	<g>
		<path class="st1" d="M852.72,165.68c0-10.71-8.71-19.41-19.41-19.41c-10.71,0-19.41,8.7-19.41,19.41
			c0,10.71,8.7,19.42,19.41,19.42C844.01,185.1,852.72,176.39,852.72,165.68"/>
		<path class="st1" d="M770.07,333.48c-10.71,0-19.42,8.71-19.42,19.42c0,10.7,8.71,19.4,19.42,19.4c10.7,0,19.41-8.7,19.41-19.4
			C789.47,342.19,780.76,333.48,770.07,333.48"/>
		<path class="st1" d="M833.31,223.96c-14.66,0-26.53,11.89-26.53,26.55c0,14.65,11.88,26.53,26.53,26.53s26.53-11.89,26.53-26.53
			C859.84,235.85,847.97,223.96,833.31,223.96"/>
		<path class="st1" d="M896.56,333.48c-10.7,0-19.41,8.71-19.41,19.42c0,10.7,8.7,19.4,19.41,19.4c10.7,0,19.41-8.7,19.41-19.4
			C915.96,342.19,907.25,333.48,896.56,333.48"/>
		<path class="st1" d="M896.56,381.62c-15.84,0-28.73-12.89-28.73-28.73c0-8.77,3.97-16.63,10.19-21.9l-27.41-45.78
			c-5.21,2.6-11.06,4.1-17.29,4.1c-6.23,0-12.08-1.5-17.3-4.1L788.6,331c6.23,5.27,10.18,13.13,10.18,21.9
			c0,15.84-12.88,28.73-28.72,28.73s-28.73-12.89-28.73-28.73s12.89-28.73,28.73-28.73c3.72,0,7.28,0.74,10.55,2.04l27.6-46.11
			c-8.39-7.12-13.72-17.72-13.72-29.58c0-19.86,14.92-36.21,34.16-38.51v-18c-13.63-2.23-24.07-14.06-24.07-28.31
			c0-15.84,12.89-28.73,28.73-28.73c15.84,0,28.72,12.89,28.72,28.73c0,14.25-10.44,26.08-24.06,28.31v18
			c19.25,2.31,34.16,18.65,34.16,38.51c0,11.87-5.34,22.47-13.73,29.58L886,326.21c3.27-1.3,6.83-2.04,10.55-2.04
			c15.84,0,28.72,12.89,28.72,28.73S912.39,381.62,896.56,381.62 M710.27,250.66c0-20.73,13-38.01,34.75-38.01
			c15.85,0,29.16,8.45,31.09,24.8h-12.4c-1.21-9.54-9.54-14.43-18.69-14.43c-15.56,0-22.05,13.71-22.05,27.64
			s6.49,27.64,22.05,27.64c13,0.21,20.11-7.62,20.32-19.91h-19.3v-9.66h30.89v38.21h-8.13l-1.93-8.53
			c-6.81,7.72-13,10.26-21.84,10.26C723.28,288.67,710.27,271.39,710.27,250.66 M832.08,95.25c-93.56,0-169.42,75.85-169.42,169.43
			c0,93.56,75.86,169.42,169.42,169.42c93.57,0,169.42-75.86,169.42-169.42C1001.5,171.1,925.65,95.25,832.08,95.25"/>
	</g>
	<rect x="548.56" y="96.08" class="st2" width="1.85" height="338.93"/>
	<g>
		<rect x="78.5" y="94.99" class="st3" width="355.12" height="338.93"/>
		<polygon class="st1" points="177.65,228.93 137.05,228.93 137.05,194.12 177.65,194.12 177.65,194.1 177.65,153.49 212.45,153.49 
			212.45,194.1 212.45,194.12 253.06,194.12 253.06,228.92 212.45,228.92 212.45,228.91 212.45,269.52 177.65,269.52 177.65,228.91 
					"/>
		<path class="st1" d="M306.9,210.89c0-27.04,21.92-48.97,48.97-48.97c6.02,0,11.79,1.09,17.11,3.08
			c-10.02-7.93-22.67-12.66-36.44-12.66c-32.45,0-58.76,26.31-58.76,58.76c0,32.45,26.3,58.76,58.76,58.76
			c14.23,0,27.27-5.05,37.43-13.46c-5.61,2.23-11.71,3.46-18.11,3.46C328.83,259.85,306.9,237.93,306.9,210.89"/>
		<path class="st4" d="M345.64,375.91c6.06,0,11.56-1.07,16.49-3.2c4.93-2.14,9.06-5.23,12.39-9.3l-10.39-9.6
			c-4.73,5.53-10.6,8.3-17.59,8.3c-4.33,0-8.19-0.95-11.6-2.85c-3.4-1.9-6.04-4.55-7.94-7.94c-1.9-3.4-2.85-7.26-2.85-11.6
			s0.95-8.2,2.85-11.6c1.9-3.4,4.55-6.04,7.94-7.94c3.4-1.9,7.26-2.85,11.6-2.85c7,0,12.86,2.73,17.59,8.19l10.39-9.59
			c-3.33-4-7.45-7.06-12.34-9.2c-4.9-2.13-10.38-3.2-16.44-3.2c-7.2,0-13.68,1.55-19.44,4.65c-5.76,3.1-10.3,7.4-13.59,12.9
			c-3.29,5.49-4.95,11.71-4.95,18.64c0,6.93,1.65,13.14,4.95,18.64c3.3,5.5,7.83,9.79,13.59,12.9
			C332.06,374.36,338.51,375.91,345.64,375.91 M280.97,330.13c0,3.87-1.27,6.87-3.8,9c-2.53,2.14-6.23,3.2-11.09,3.2h-13.2v-24.39
			h13.2c4.86,0,8.56,1.05,11.09,3.15C279.7,323.19,280.97,326.2,280.97,330.13 M298.66,374.71l-15.69-22.49
			c4.6-2,8.15-4.88,10.65-8.64c2.5-3.76,3.74-8.24,3.74-13.44c0-5.19-1.23-9.69-3.7-13.49c-2.46-3.8-5.98-6.73-10.54-8.8
			c-4.57-2.06-9.94-3.1-16.14-3.1H236.7v69.97h16.19v-19.49h14.09h0.8l13.49,19.49H298.66z M222.7,317.74v-12.99h-52.87v69.97h16.19
			v-25.49h32.38v-12.99h-32.38v-18.49H222.7z M137.05,374.71h16.19v-69.96h-16.19V374.71z"/>
	</g>
</g>
</svg>
