<?xml version="1.0" encoding="UTF-8"?>
<svg width="39px" height="42px" viewBox="0 0 39 42" version="1.1" xmlns="http://www.w3.org/2000/svg" xmlns:xlink="http://www.w3.org/1999/xlink">
    <!-- Generator: Sketch 47.1 (45422) - http://www.bohemiancoding.com/sketch -->
    <title>noun_942654_cc</title>
    <desc>Created with Sketch.</desc>
    <defs></defs>
    <g id="Page-1" stroke="none" stroke-width="1" fill="none" fill-rule="evenodd">
        <g id="noun_942654_cc" transform="translate(19.500000, 21.000000) rotate(-360.000000) translate(-19.500000, -21.000000) " fill-rule="nonzero" fill="#323232">
            <g id="Group">
                <path d="M19.4863467,0.110901124 C18.5197578,0.110901124 17.5924689,0.260846095 16.6994689,0.523159704 C11.8757467,1.91298692 8.30299111,6.80089225 8.30299111,12.6278828 C8.30299111,16.2671579 9.71180222,19.5363857 11.9348911,21.827026 C5.22858,25.1471757 0.814491111,32.6310538 0.814491111,40.9391011 C0.814491111,41.4641881 1.19008,41.8941662 1.65951333,41.8941662 L37.3221022,41.8941662 C37.4372244,41.8941662 37.5535356,41.8624425 37.6551244,41.813981 C37.9541022,41.6699136 38.1675244,41.3357899 38.1675244,40.9393248 C38.1675244,32.6261082 33.7580244,25.1421928 27.0472578,21.8272124 C29.2703356,19.5365597 30.6791467,16.2673319 30.6791467,12.6280567 C30.6791467,7.02242361 27.3651578,2.25959876 22.8129467,0.674160888 C21.7589689,0.308562071 20.6420356,0.111224201 19.4867356,0.111224201 L19.4863467,0.110901124 Z M19.49528,2.0110532 C19.6885911,2.0110532 19.8773133,2.02458515 20.0707578,2.04277686 C25.03248,2.3771242 28.98858,6.99279994 28.98858,12.6292993 C28.98858,18.2606544 25.03708,22.8660538 20.0707578,23.205794 C19.8774467,23.214865 19.6887244,23.2374928 19.49528,23.2374928 C19.2972244,23.2374928 19.1040467,23.2148402 18.9109911,23.205794 C13.9491467,22.8660041 10.0021133,18.2606544 10.0021133,12.6292993 C10.0021133,6.99279994 13.9446689,2.3824674 18.9109911,2.04277686 C19.10418,2.02925734 19.2971022,2.0110532 19.49528,2.0110532 L19.49528,2.0110532 Z M13.4991689,23.1640177 C14.3644244,23.7868603 15.3140578,24.2772041 16.3129689,24.6117627 C16.4279578,24.6480094 16.55728,24.6661266 16.6722689,24.7023857 C17.3811467,24.9134917 18.1152467,25.0380875 18.8748467,25.0842875 C19.0818356,25.0933585 19.2787022,25.1359425 19.48608,25.1359425 C19.6930578,25.1359425 19.8947911,25.0996958 20.0974356,25.0842875 C20.7971133,25.0435177 21.4889022,24.9280053 22.1470467,24.7426958 C22.3172356,24.6964958 22.4890022,24.6684005 22.65958,24.6117627 C23.6675578,24.2774153 24.6079911,23.7817408 25.4733911,23.1640177 C31.7929244,25.835578 36.1095022,32.4633893 36.4409467,39.9838869 L2.53134667,39.9838869 C2.86264667,32.4685461 7.17923556,25.835578 13.4989022,23.1640177 L13.4991689,23.1640177 Z" id="Shape"></path>
            </g>
        </g>
    </g>
</svg>