<?xml version="1.0" encoding="UTF-8"?>
<svg xmlns="http://www.w3.org/2000/svg" viewBox="0 0 48 48.001"><g fill="#418fde" data-name="Layer 2"><path d="M7.689 37.404l-7.11 7.19a2 2 0 1 0 2.843 2.813l7.11-7.19a2 2 0 1 0-2.843-2.813zM38.81 11.11a1.995 1.995 0 0 0 1.406-.577l7.19-7.11A2 2 0 0 0 44.594.578l-7.19 7.11a2 2 0 0 0 1.406 3.422zM40.3 37.412a2 2 0 0 0-2.84 2.817l7.12 7.18a2 2 0 1 0 2.84-2.817zM7.772 10.54a2 2 0 0 0 2.816-2.84L3.408.58A2 2 0 1 0 .592 3.42zM24 10c-7.411 0-13 5.16-13 12a2 2 0 0 0 4 0 7.449 7.449 0 0 1 4-6.744v30.745a2 2 0 0 0 4 0V31h2v15a2 2 0 0 0 4 0V15.256A7.449 7.449 0 0 1 33 22a2 2 0 1 0 4 0c0-6.842-5.589-12-13-12z" style="fill: #000000;"/><circle cx="24" cy="4.001" r="4" style="fill: #000000;"/></g></svg>
