<svg xmlns="http://www.w3.org/2000/svg" width="8" height="8" viewBox="0 0 8 8">
    <g fill="none" fill-rule="evenodd">
        <g fill="#000">
            <g>
                <g>
                    <g>
                        <g>
                            <path d="M7.093.008H1.34C.88.008.506.382.506.843c0 .461.374.835.835.835H5.17L.405 6.443c-.326.326-.326.854 0 1.18.163.163.377.245.59.245.214 0 .428-.082.59-.245l4.673-4.672v3.643c0 .461.373.835.835.835.46 0 .834-.374.834-.835V.843c0-.461-.373-.835-.834-.835z" transform="translate(-418 -1325) translate(100 1201) translate(318 124)"/>
                        </g>
                    </g>
                </g>
            </g>
        </g>
    </g>
</svg>
