<svg width="24" height="24" viewBox="0 0 24 24" fill="none" xmlns="http://www.w3.org/2000/svg">
<path d="M11.9998 5.99958C13.1833 5.99958 14.1426 5.04019 14.1426 3.85672C14.1426 2.67326 13.1833 1.71387 11.9998 1.71387C10.8163 1.71387 9.85693 2.67326 9.85693 3.85672C9.85693 5.04019 10.8163 5.99958 11.9998 5.99958Z" fill="#323232"/>
<path d="M11.9998 14.1422C13.1833 14.1422 14.1426 13.1828 14.1426 11.9993C14.1426 10.8158 13.1833 9.85645 11.9998 9.85645C10.8163 9.85645 9.85693 10.8158 9.85693 11.9993C9.85693 13.1828 10.8163 14.1422 11.9998 14.1422Z" fill="#323232"/>
<path d="M11.9998 22.2857C13.1833 22.2857 14.1426 21.3263 14.1426 20.1429C14.1426 18.9594 13.1833 18 11.9998 18C10.8163 18 9.85693 18.9594 9.85693 20.1429C9.85693 21.3263 10.8163 22.2857 11.9998 22.2857Z" fill="#323232"/>
</svg>
