<svg width="24" height="24" viewBox="0 0 24 24" fill="none" xmlns="http://www.w3.org/2000/svg">
<path d="M17.1379 20.13H12.8513V7.91577C12.8513 7.90805 12.8496 7.9012 12.8492 7.89348C13.1765 7.70516 13.4324 7.41406 13.5773 7.06538C13.7222 6.71669 13.7479 6.32993 13.6504 5.96515C13.5529 5.60036 13.3378 5.27795 13.0383 5.04799C12.7388 4.81802 12.3718 4.69336 11.9942 4.69336C11.6166 4.69336 11.2496 4.81802 10.9501 5.04799C10.6506 5.27795 10.4355 5.60036 10.338 5.96515C10.2405 6.32993 10.2662 6.71669 10.4111 7.06538C10.556 7.41406 10.8119 7.70516 11.1392 7.89348C11.1392 7.9012 11.1375 7.90806 11.1375 7.91534V20.13H6.85177C6.62444 20.13 6.40643 20.2203 6.24568 20.3811C6.08493 20.5418 5.99463 20.7598 5.99463 20.9872C5.99463 21.2145 6.08493 21.4325 6.24568 21.5932C6.40643 21.754 6.62444 21.8443 6.85177 21.8443H17.1375C17.3648 21.8443 17.5828 21.754 17.7436 21.5932C17.9043 21.4325 17.9946 21.2145 17.9946 20.9872C17.9946 20.7598 17.9043 20.5418 17.7436 20.3811C17.5828 20.2203 17.3648 20.13 17.1375 20.13H17.1379Z" fill="#323232"/>
<path d="M14.871 9.28192C15.1097 9.54292 15.6566 9.42335 15.9613 8.94764C16.4443 8.1917 16.7009 7.31336 16.7009 6.41629C16.7009 5.51922 16.4443 4.64088 15.9613 3.88494C15.6566 3.4088 15.1097 3.28923 14.871 3.55065C14.7629 3.70044 14.7054 3.88073 14.7066 4.06542C14.7078 4.2501 14.7678 4.4296 14.8778 4.57794C15.2286 5.12686 15.4149 5.76467 15.4149 6.41607C15.4149 7.06748 15.2286 7.70528 14.8778 8.25421C14.7677 8.40258 14.7077 8.58217 14.7064 8.76694C14.7052 8.95172 14.7628 9.13209 14.871 9.28192ZM18.597 2.9798C18.2884 2.55209 17.7698 2.4548 17.5281 2.71366C17.4173 2.86139 17.3595 3.04215 17.3641 3.22676C17.3687 3.41137 17.4354 3.58904 17.5534 3.73108C18.1162 4.51325 18.419 5.45248 18.419 6.41607C18.419 7.37966 18.1162 8.31889 17.5534 9.10106C17.4352 9.24309 17.3684 9.42082 17.3637 9.60552C17.3591 9.79023 17.4168 9.9711 17.5277 10.1189C17.7703 10.3773 18.2888 10.2801 18.597 9.85278C19.3172 8.85167 19.7047 7.64957 19.7047 6.41629C19.7047 5.18301 19.3172 3.98091 18.597 2.9798ZM9.07626 9.28192C9.18435 9.13205 9.2419 8.95165 9.24059 8.76687C9.23928 8.5821 9.17917 8.40254 9.06898 8.25421C8.7183 7.70527 8.53197 7.06747 8.53197 6.41607C8.53197 5.76468 8.7183 5.12688 9.06898 4.57794C9.17908 4.42965 9.23913 4.25017 9.24044 4.06549C9.24175 3.8808 9.18425 3.70049 9.07626 3.55065C8.83755 3.28923 8.29069 3.4088 7.98598 3.88494C7.50297 4.64088 7.24633 5.51922 7.24633 6.41629C7.24633 7.31336 7.50297 8.1917 7.98598 8.94764C8.29026 9.42335 8.83712 9.54335 9.07626 9.28192ZM6.46198 10.1185C6.57279 9.97074 6.63054 9.78994 6.62587 9.60531C6.62121 9.42068 6.5544 9.24302 6.43626 9.10106C5.87349 8.31889 5.57071 7.37966 5.57071 6.41607C5.57071 5.45248 5.87349 4.51325 6.43626 3.73108C6.55439 3.58914 6.62123 3.41152 6.62597 3.22691C6.63071 3.0423 6.57309 2.86148 6.46241 2.71366C6.22026 2.45523 5.70126 2.55209 5.39355 2.97937C4.6732 3.98052 4.28564 5.18271 4.28564 6.41607C4.28564 7.64944 4.6732 8.85163 5.39355 9.85278C5.70126 10.2801 6.22026 10.3773 6.46241 10.1185H6.46198Z" fill="#323232"/>
</svg>
