<svg width="24" height="24" viewBox="0 0 24 24" fill="none" xmlns="http://www.w3.org/2000/svg">
<path d="M4.87937 16.1996L1.80223 19.2767C1.47147 19.6075 1.28564 20.0561 1.28564 20.5239C1.28564 20.9916 1.47147 21.4402 1.80223 21.771C2.13299 22.1018 2.5816 22.2876 3.04937 22.2876C3.51714 22.2876 3.96575 22.1018 4.29651 21.771L7.37366 18.6939C6.40485 18.0122 5.56103 17.1684 4.87937 16.1996ZM13.2879 1.71387C11.5927 1.71387 9.93548 2.21657 8.52591 3.15841C7.11635 4.10025 6.01773 5.43893 5.36897 7.00515C4.72022 8.57138 4.55048 10.2948 4.88121 11.9575C5.21194 13.6202 6.02829 15.1475 7.22703 16.3462C8.42576 17.5449 9.95304 18.3613 11.6157 18.692C13.2784 19.0228 15.0019 18.853 16.5681 18.2043C18.1343 17.5555 19.473 16.4569 20.4148 15.0473C21.3567 13.6378 21.8594 11.9806 21.8594 10.2853C21.8597 9.15959 21.6382 8.04484 21.2076 7.00475C20.777 5.96467 20.1456 5.01963 19.3496 4.22363C18.5536 3.42763 17.6086 2.79628 16.5685 2.36564C15.5284 1.93501 14.4137 1.71353 13.2879 1.71387ZM18.0022 14.6482C17.1242 15.5953 15.9812 16.2559 14.7223 16.5441C13.4633 16.8322 12.1468 16.7345 10.9442 16.2637C9.74155 15.7928 8.70865 14.9706 7.98004 13.9043C7.25144 12.8379 6.86092 11.5768 6.85937 10.2853C6.85811 9.23807 7.11271 8.20639 7.60103 7.27997C8.08934 6.35356 8.79659 5.56047 9.66126 4.96968C10.5259 4.37888 11.5218 4.00827 12.5624 3.89008C13.6029 3.77188 14.6566 3.90968 15.6317 4.29149C16.6069 4.67329 17.474 5.28755 18.1576 6.08084C18.8413 6.87412 19.3208 7.82241 19.5545 8.84325C19.7881 9.86408 19.7688 10.9265 19.4983 11.9382C19.2278 12.9499 18.7142 13.8802 18.0022 14.6482Z" fill="#323232"/>
<path d="M18.1797 9.6793L15.6082 7.10787C15.5292 7.026 15.4346 6.9607 15.33 6.91578C15.2254 6.87086 15.113 6.84721 14.9991 6.84622C14.8853 6.84524 14.7725 6.86692 14.6671 6.91002C14.5618 6.95312 14.4661 7.01676 14.3856 7.09724C14.3051 7.17772 14.2415 7.27343 14.1984 7.37876C14.1553 7.4841 14.1336 7.59697 14.1346 7.71078C14.1356 7.82459 14.1592 7.93707 14.2041 8.04164C14.2491 8.14622 14.3144 8.2408 14.3962 8.31987L15.5045 9.42815H9.00223C8.7749 9.42815 8.55688 9.51846 8.39614 9.67921C8.23539 9.83995 8.14508 10.058 8.14508 10.2853C8.14508 10.5126 8.23539 10.7306 8.39614 10.8914C8.55688 11.0521 8.7749 11.1424 9.00223 11.1424H15.5045L14.3962 12.2507C14.3144 12.3298 14.2491 12.4244 14.2041 12.5289C14.1592 12.6335 14.1356 12.746 14.1346 12.8598C14.1336 12.9736 14.1553 13.0865 14.1984 13.1918C14.2415 13.2972 14.3051 13.3929 14.3856 13.4733C14.4661 13.5538 14.5618 13.6175 14.6671 13.6606C14.7725 13.7037 14.8853 13.7254 14.9991 13.7244C15.113 13.7234 15.2254 13.6997 15.33 13.6548C15.4346 13.6099 15.5292 13.5446 15.6082 13.4627L18.1797 10.8913C18.3403 10.7306 18.4306 10.5126 18.4306 10.2853C18.4306 10.058 18.3403 9.84004 18.1797 9.6793Z" fill="#323232"/>
</svg>
