<svg width="24" height="24" viewBox="0 0 24 24" fill="none" xmlns="http://www.w3.org/2000/svg">
<path d="M5.30768 16.198L2.23088 19.2748C1.90016 19.6055 1.71436 20.054 1.71436 20.5218C1.71436 20.9895 1.90016 21.438 2.23088 21.7688C2.56161 22.0995 3.01017 22.2853 3.47788 22.2853C3.9456 22.2853 4.39416 22.0995 4.72489 21.7688L7.80169 18.692C6.83299 18.0104 5.98926 17.1667 5.30768 16.198ZM11.1442 10.2843H9.43008C9.31653 10.2847 9.20773 10.3299 9.12744 10.4102C9.04715 10.4905 9.00189 10.5993 9.00155 10.7129V12.8298C9.57209 13.8819 10.4767 14.7142 11.5727 15.1952V10.7129C11.5724 10.5993 11.5271 10.4905 11.4468 10.4102C11.3665 10.3299 11.2577 10.2847 11.1442 10.2843ZM18.0005 7.7132H16.2865C16.1729 7.71354 16.0641 7.75879 15.9838 7.83908C15.9035 7.91937 15.8583 8.02817 15.8579 8.14172V15.1952C16.9539 14.7142 17.8585 13.8819 18.4291 12.8298V8.14172C18.4287 8.02817 18.3835 7.91937 18.3032 7.83908C18.2229 7.75879 18.1141 7.71354 18.0005 7.7132ZM14.5724 8.99877H12.8583C12.7447 8.99911 12.6359 9.04436 12.5556 9.12465C12.4753 9.20494 12.4301 9.31374 12.4297 9.42729V15.4866C13.2744 15.6923 14.1562 15.6923 15.0009 15.4866V9.42729C15.0005 9.31374 14.9553 9.20494 14.875 9.12465C14.7947 9.04436 14.6859 8.99911 14.5724 8.99877Z" fill="#323232"/>
<path d="M13.7153 1.71387C12.0202 1.71387 10.3632 2.21652 8.95381 3.15825C7.54441 4.09999 6.44591 5.43851 5.79723 7.00456C5.14855 8.57061 4.97883 10.2938 5.30952 11.9564C5.64021 13.6189 6.45647 15.146 7.65507 16.3446C8.85368 17.5432 10.3808 18.3594 12.0433 18.6901C13.7058 19.0208 15.429 18.8511 16.9951 18.2024C18.5611 17.5537 19.8997 16.4552 20.8414 15.0458C21.7831 13.6364 22.2858 11.9794 22.2858 10.2843C22.2861 9.15875 22.0647 8.04413 21.6341 7.00416C21.2035 5.96419 20.5722 5.01926 19.7763 4.22335C18.9804 3.42744 18.0355 2.79615 16.9955 2.36557C15.9555 1.93498 14.8409 1.71353 13.7153 1.71387ZM18.4291 14.6467C17.5511 15.5937 16.4083 16.2543 15.1495 16.5424C13.8907 16.8306 12.5743 16.7328 11.3718 16.262C10.1693 15.7912 9.13653 14.9691 8.40801 13.9029C7.67949 12.8366 7.28901 11.5757 7.28746 10.2843C7.2862 9.23723 7.54077 8.20566 8.02903 7.27935C8.51729 6.35304 9.22446 5.56004 10.089 4.96931C10.9536 4.37858 11.9494 4.00802 12.9898 3.88983C14.0302 3.77165 15.0838 3.90943 16.0588 4.2912C17.0339 4.67296 17.9009 5.28715 18.5845 6.08035C19.268 6.87354 19.7475 7.82173 19.9811 8.84245C20.2148 9.86316 20.1955 10.9255 19.925 11.9371C19.6545 12.9486 19.141 13.8788 18.4291 14.6467Z" fill="#323232"/>
</svg>
