<svg width="24" height="24" viewBox="0 0 24 24" fill="none" xmlns="http://www.w3.org/2000/svg">
<path d="M19.0838 3.4982C19.1136 3.53228 19.1568 3.55172 19.2019 3.55172C19.2475 3.55172 19.2902 3.53228 19.3205 3.4982L20.4125 2.39708C20.4538 2.35028 20.4638 2.28404 20.4384 2.22716C20.4125 2.17076 20.3558 2.13428 20.2937 2.13428H19.9022V1.35812C19.9025 1.27076 19.8322 1.2002 19.7448 1.2002H18.6593C18.5719 1.2002 18.5013 1.27076 18.5013 1.35812V2.13428H18.1101C18.048 2.13428 17.9914 2.17076 17.9659 2.22716C17.9402 2.28404 17.9508 2.35028 17.9918 2.39708L19.0838 3.4982Z" fill="black"/>
<path d="M13.8423 11.013C13.3909 10.5097 12.945 9.94738 12.5434 9.44146C12.3541 9.20242 12.1729 8.97442 12.0034 8.7673L11.991 8.75218C12.2391 8.04538 12.381 7.46698 12.4126 7.03258C12.493 5.92594 12.3694 5.21314 12.0351 4.85386C11.8093 4.61074 11.4702 4.52602 11.1512 4.6333C10.9227 4.70986 10.6134 4.91506 10.4365 5.45698C10.173 6.26482 10.3006 7.69546 11.0499 8.87866C10.7156 9.75418 10.2495 10.7603 9.73471 11.7181C8.75431 12.0618 7.97287 12.5137 7.41199 13.0619C6.67927 13.7771 6.38143 14.487 6.59455 15.0092C6.72583 15.3327 7.02943 15.5257 7.40647 15.5257C7.66903 15.5257 7.95295 15.4309 8.22775 15.2519C8.92159 14.7983 9.82759 13.287 10.3136 12.4112C11.319 12.0973 12.3116 11.9689 12.8161 11.9202C13.0443 11.8981 13.2709 11.8806 13.489 11.8683C14.372 12.8007 15.0942 13.2925 15.7594 13.4151C15.8934 13.4401 16.0273 13.4526 16.1581 13.4526C16.7002 13.4526 17.1483 13.2363 17.3574 12.8742C17.515 12.6006 17.5119 12.2814 17.3485 11.9982C16.9794 11.3591 15.8653 11.0072 14.2114 11.0072C14.0924 11.0075 13.9695 11.0091 13.8423 11.013ZM7.76743 14.5487C7.63615 14.6343 7.50127 14.6855 7.40623 14.6855C7.38823 14.6855 7.37599 14.6835 7.36903 14.6819C7.35247 14.5981 7.41199 14.2359 7.99879 13.6626C8.27431 13.3933 8.62279 13.1475 9.03535 12.9301C8.51479 13.7677 8.04631 14.3665 7.76743 14.5487ZM11.2347 5.71786C11.2959 5.53042 11.3718 5.4457 11.419 5.42986C11.4202 5.42962 11.4212 5.42914 11.4222 5.4289C11.4678 5.48026 11.6617 5.77378 11.5748 6.97234C11.5597 7.18138 11.5088 7.44562 11.4231 7.75954C11.1428 7.03762 11.0658 6.23554 11.2347 5.71786ZM12.735 11.0845C12.2881 11.1275 11.6074 11.216 10.8481 11.3958C11.1426 10.8078 11.4152 10.2119 11.643 9.65962C11.7219 9.7585 11.8028 9.86002 11.8849 9.96394C12.1597 10.3103 12.4683 10.6995 12.7882 11.0797L12.735 11.0845ZM16.6203 12.4184C16.6328 12.44 16.6326 12.4487 16.6294 12.4544C16.5942 12.5156 16.4346 12.6128 16.1569 12.6128C16.0794 12.6128 15.9968 12.6049 15.9116 12.5891C15.565 12.525 15.1609 12.2855 14.6792 11.8583C15.9862 11.9207 16.5145 12.2358 16.6203 12.4184Z" fill="black"/>
<path d="M15.6223 1.2002H4.75505C4.08905 1.2002 3.54785 1.73996 3.54785 2.40764V21.5928C3.54785 22.2597 4.08905 22.8002 4.75505 22.8002H19.2446C19.912 22.8002 20.4518 22.2597 20.4518 21.5928V6.02995L15.6223 1.2002ZM15.6223 2.90732L18.7449 6.02995H15.6223V2.90732ZM19.2448 21.5928H4.75505V2.40764H14.4148V6.02995C14.4148 6.69691 14.9548 7.23739 15.622 7.23739H19.2446L19.2448 21.5928Z" fill="black"/>
<path d="M10.0051 16.6447C9.90644 16.5576 9.78812 16.4942 9.65372 16.457C9.521 16.4191 9.33092 16.3999 9.08876 16.3999H8.285C8.13212 16.3999 8.01692 16.4349 7.94228 16.5048C7.86692 16.5753 7.82828 16.6896 7.82828 16.8439V19.2276C7.82828 19.3663 7.8626 19.4743 7.93028 19.5492C7.99916 19.626 8.09084 19.6651 8.20268 19.6651C8.30972 19.6651 8.39996 19.626 8.47052 19.5487C8.53964 19.4728 8.57492 19.3634 8.57492 19.2235V18.4082H9.08876C9.48548 18.4082 9.79028 18.3216 9.99404 18.1504C10.2014 17.9772 10.3068 17.7208 10.3068 17.3884C10.3068 17.2336 10.2813 17.092 10.2307 16.9672C10.1798 16.8408 10.104 16.7325 10.0051 16.6447ZM9.48572 17.6414C9.44084 17.7019 9.37676 17.7444 9.2894 17.7717C9.19652 17.8005 9.0782 17.8154 8.93708 17.8154H8.57516V16.9903H8.93708C9.26324 16.9903 9.39548 17.0553 9.44804 17.1084C9.51812 17.1832 9.5522 17.279 9.5522 17.4007C9.5522 17.501 9.52988 17.5819 9.48572 17.6414Z" fill="black"/>
<path d="M12.9739 16.6943C12.8435 16.5803 12.6962 16.5014 12.5359 16.4598C12.3799 16.4195 12.1907 16.3989 11.9745 16.3989H11.1583C11.0073 16.3989 10.8945 16.4351 10.8227 16.5071C10.751 16.5791 10.7145 16.6919 10.7145 16.8426V19.1102C10.7145 19.2165 10.7239 19.3017 10.7431 19.3701C10.7649 19.4478 10.8119 19.5086 10.8827 19.5506C10.9502 19.5914 11.0447 19.611 11.171 19.611H11.9872C12.1317 19.611 12.2637 19.6017 12.3796 19.583C12.4977 19.5638 12.6098 19.5302 12.7125 19.4834C12.8162 19.4361 12.9127 19.3722 13.0003 19.2935C13.1099 19.1927 13.2014 19.0768 13.2719 18.9484C13.3418 18.8205 13.3943 18.6753 13.4275 18.5174C13.4606 18.3609 13.4774 18.1854 13.4774 17.9966C13.4771 17.4186 13.3075 16.9804 12.9739 16.6943ZM12.4283 18.8632C12.3878 18.8985 12.3391 18.9268 12.2834 18.9467C12.2251 18.9674 12.1684 18.9806 12.1144 18.9856C12.0575 18.9909 11.9771 18.9938 11.8754 18.9938H11.4607V17.0147H11.8142C11.9992 17.0147 12.1579 17.0349 12.286 17.0745C12.4058 17.111 12.509 17.1995 12.5927 17.3382C12.6787 17.4801 12.7223 17.7002 12.7223 17.9927C12.7223 18.4053 12.6237 18.6978 12.4283 18.8632Z" fill="black"/>
<path d="M15.8155 16.3999H14.339C14.2406 16.3999 14.1609 16.4145 14.0957 16.4445C14.0258 16.4762 13.9737 16.5278 13.9406 16.5981C13.9099 16.6639 13.895 16.7443 13.895 16.8439V19.2232C13.895 19.3665 13.9301 19.4767 13.9985 19.5506C14.0683 19.6264 14.1595 19.6651 14.2694 19.6651C14.3772 19.6651 14.4677 19.6272 14.5382 19.552C14.6069 19.4779 14.6417 19.3672 14.6417 19.2232V18.2644H15.6132C15.7219 18.2644 15.8071 18.2383 15.8659 18.1862C15.9271 18.1322 15.9581 18.0597 15.9581 17.9704C15.9581 17.8814 15.9278 17.8087 15.8678 17.7544C15.8095 17.7012 15.7238 17.6743 15.6132 17.6743H14.6417V17.0032H15.8157C15.9307 17.0032 16.0193 16.9756 16.079 16.9209C16.1402 16.8652 16.1712 16.7911 16.1712 16.7006C16.1712 16.612 16.1402 16.5386 16.0788 16.482C16.0183 16.4272 15.93 16.3999 15.8155 16.3999Z" fill="black"/>
</svg>
