<svg width="24" height="24" viewBox="0 0 24 24" fill="none" xmlns="http://www.w3.org/2000/svg">
<path d="M18.8903 10.5685L16.7133 8.8799L16.3191 8.57132L15.8563 8.21132L12.6422 5.71704C12.5198 5.62175 12.3688 5.57042 12.2137 5.57132C12.0584 5.56974 11.9072 5.62114 11.7851 5.71704L9.42386 7.55132L5.53699 10.5685C5.46795 10.62 5.40998 10.6848 5.36654 10.7592C5.3231 10.8335 5.29508 10.9159 5.28415 11.0013L4.28564 18.4285H11.9994V14.267C11.9995 14.2504 12.0029 14.2339 12.0095 14.2186C12.016 14.2033 12.0256 14.1894 12.0376 14.1779C12.0495 14.1663 12.0637 14.1572 12.0792 14.1512C12.0947 14.1452 12.1113 14.1423 12.128 14.1428C12.1505 14.1428 12.1727 14.1488 12.1922 14.1601C12.2118 14.1713 12.228 14.1875 12.2394 14.207L14.5706 18.4285H20.1417L19.1432 11.0013C19.1322 10.9159 19.1042 10.8335 19.0608 10.7592C19.0173 10.6848 18.9594 10.62 18.8903 10.5685Z" fill="#323232"/>
</svg>
