<svg width="24" height="24" viewBox="0 0 24 24" fill="none" xmlns="http://www.w3.org/2000/svg">
<path d="M19.8515 15.0707C20.3846 15.7967 22.2858 18.4783 22.2858 19.7036C22.2858 20.3856 22.0149 21.0396 21.5326 21.5219C21.0504 22.0041 20.3963 22.275 19.7144 22.275C19.0324 22.275 18.3783 22.0041 17.8961 21.5219C17.4138 21.0396 17.1429 20.3856 17.1429 19.7036C17.1429 18.4783 19.0441 15.7967 19.5772 15.0707C19.5927 15.0488 19.6133 15.0309 19.6371 15.0186C19.661 15.0062 19.6875 14.9998 19.7144 14.9998C19.7412 14.9998 19.7677 15.0062 19.7916 15.0186C19.8154 15.0309 19.836 15.0488 19.8515 15.0707ZM2.5715 2.14244H3.85721C4.08454 2.14244 4.30256 2.23274 4.4633 2.39349C4.62405 2.55424 4.71435 2.77225 4.71435 2.99958V5.14244H9.85721V2.99958H7.92864C7.75814 2.99958 7.59463 2.93185 7.47407 2.81129C7.35351 2.69073 7.28578 2.52722 7.28578 2.35672C7.28578 2.18623 7.35351 2.02271 7.47407 1.90216C7.59463 1.7816 7.75814 1.71387 7.92864 1.71387H13.9286C14.0991 1.71387 14.2626 1.7816 14.3832 1.90216C14.5038 2.02271 14.5715 2.18623 14.5715 2.35672C14.5715 2.52722 14.5038 2.69073 14.3832 2.81129C14.2626 2.93185 14.0991 2.99958 13.9286 2.99958H12.0001V5.14244H16.3488C17.6956 5.14391 18.9868 5.67958 19.9392 6.63192C20.8915 7.58426 21.4272 8.87549 21.4286 10.2223V11.1424H21.8572C21.9709 11.1424 22.0799 11.1876 22.1603 11.268C22.2406 11.3483 22.2858 11.4573 22.2858 11.571V12.8567C22.2858 12.9704 22.2406 13.0794 22.1603 13.1598C22.0799 13.2401 21.9709 13.2853 21.8572 13.2853H17.5715C17.4578 13.2853 17.3488 13.2401 17.2684 13.1598C17.1881 13.0794 17.1429 12.9704 17.1429 12.8567V11.571C17.1429 11.4573 17.1881 11.3483 17.2684 11.268C17.3488 11.1876 17.4578 11.1424 17.5715 11.1424H18.0001V10.2223C17.9996 9.78449 17.8255 9.36474 17.5159 9.05516C17.2063 8.74558 16.7866 8.57146 16.3488 8.57101H4.71435V10.7139C4.71435 10.9412 4.62405 11.1592 4.4633 11.32C4.30256 11.4807 4.08454 11.571 3.85721 11.571H2.5715C2.34417 11.571 2.12615 11.4807 1.96541 11.32C1.80466 11.1592 1.71436 10.9412 1.71436 10.7139V2.99958C1.71436 2.77225 1.80466 2.55424 1.96541 2.39349C2.12615 2.23274 2.34417 2.14244 2.5715 2.14244Z" fill="#323232"/>
</svg>
