<svg width="24" height="24" viewBox="0 0 24 24" fill="none" xmlns="http://www.w3.org/2000/svg">
<path d="M6.93483 12.7883C7.03699 12.2069 7.24159 11.6482 7.53911 11.1383C7.69632 10.8625 7.88005 10.6027 8.08769 10.3626C8.15887 10.2757 8.23469 10.1927 8.31483 10.114C7.62538 9.66422 6.81945 9.42586 5.99626 9.42829C5.0538 9.42808 4.13761 9.73884 3.38977 10.3124C2.64193 10.8859 2.10423 11.6902 1.86006 12.6005C1.61588 13.5108 1.67888 14.4762 2.03929 15.347C2.39969 16.2178 3.03736 16.9454 3.8534 17.4169V17.9997C3.85408 18.2268 3.9446 18.4445 4.1052 18.6051C4.2658 18.7657 4.48342 18.8562 4.71054 18.8569H7.28197C7.5093 18.8569 7.72732 18.7666 7.88806 18.6058C8.04881 18.4451 8.13911 18.2271 8.13911 17.9997V17.1083C7.91187 16.856 7.71217 16.5801 7.5434 16.2854C6.93157 15.229 6.71583 13.9893 6.93483 12.7883ZM2.99197 13.714C2.99144 12.9254 3.30081 12.1681 3.8534 11.6054V15.8226C3.30081 15.2599 2.99144 14.5026 2.99197 13.714Z" fill="#323232"/>
<path d="M5.9984 8.57115C6.94517 8.57115 7.71269 7.80364 7.71269 6.85686C7.71269 5.91009 6.94517 5.14258 5.9984 5.14258C5.05163 5.14258 4.28411 5.91009 4.28411 6.85686C4.28411 7.80364 5.05163 8.57115 5.9984 8.57115Z" fill="#323232"/>
<path d="M17.9963 8.57115C18.943 8.57115 19.7105 7.80364 19.7105 6.85686C19.7105 5.91009 18.943 5.14258 17.9963 5.14258C17.0495 5.14258 16.282 5.91009 16.282 6.85686C16.282 7.80364 17.0495 8.57115 17.9963 8.57115Z" fill="#323232"/>
<path d="M17.9963 9.42829C17.1685 9.42608 16.3581 9.66591 15.6648 10.1183C15.7478 10.2013 15.8265 10.2886 15.9005 10.3797C16.1053 10.6165 16.2875 10.8719 16.4448 11.1426C16.8968 11.9234 17.1348 12.8097 17.1348 13.7119C17.1348 14.6141 16.8968 15.5003 16.4448 16.2811C16.2742 16.5722 16.0761 16.8463 15.8534 17.0997V17.9997C15.8541 18.2268 15.9446 18.4445 16.1052 18.6051C16.2658 18.7657 16.4834 18.8562 16.7105 18.8569H19.282C19.5091 18.8562 19.7267 18.7657 19.8873 18.6051C20.0479 18.4445 20.1384 18.2268 20.1391 17.9997V17.4169C20.9552 16.9454 21.5928 16.2178 21.9532 15.347C22.3136 14.4762 22.3766 13.5108 22.1325 12.6005C21.8883 11.6902 21.3506 10.8859 20.6027 10.3124C19.8549 9.73884 18.9387 9.42808 17.9963 9.42829ZM20.1391 15.8226V11.6054C20.6913 12.1684 21.0006 12.9255 21.0006 13.714C21.0006 14.5026 20.6913 15.2596 20.1391 15.8226Z" fill="#323232"/>
<path d="M11.9963 8.57115C12.943 8.57115 13.7105 7.80364 13.7105 6.85686C13.7105 5.91009 12.943 5.14258 11.9963 5.14258C11.0495 5.14258 10.282 5.91009 10.282 6.85686C10.282 7.80364 11.0495 8.57115 11.9963 8.57115Z" fill="#323232"/>
<path d="M16.2777 13.714C16.2796 13.0712 16.1345 12.4364 15.8534 11.8583C15.8277 11.8026 15.802 11.7512 15.772 11.6954C15.5663 11.3131 15.3049 10.9636 14.9963 10.6583C14.1971 9.86948 13.1192 9.42753 11.9963 9.42829C11.7247 9.42954 11.4537 9.45391 11.1863 9.50115C10.3555 9.65589 9.59073 10.0577 8.99197 10.654C8.68013 10.9565 8.4183 11.3066 8.21626 11.6912C8.18714 11.7408 8.16136 11.7923 8.13911 11.8454C7.96761 12.1907 7.84638 12.5587 7.77911 12.9383C7.61692 13.8328 7.74298 14.7557 8.13911 15.574C8.16483 15.6254 8.19054 15.6812 8.22054 15.7326C8.59789 16.4347 9.16329 17.0179 9.8534 17.4169V17.614C9.8534 17.6269 9.85769 17.6397 9.85769 17.6526C9.85769 17.6654 9.8534 17.674 9.8534 17.6869V17.9997C9.85408 18.2268 9.9446 18.4445 10.1052 18.6051C10.2658 18.7657 10.4834 18.8562 10.7105 18.8569H13.282C13.5091 18.8562 13.7267 18.7657 13.8873 18.6051C14.0479 18.4445 14.1384 18.2268 14.1391 17.9997V17.6869C14.1391 17.674 14.1348 17.6654 14.1348 17.6526C14.1348 17.6397 14.1391 17.6269 14.1391 17.614V17.4169C14.4514 17.2371 14.7394 17.0182 14.9963 16.7654C15.3058 16.461 15.5674 16.1113 15.772 15.7283C15.802 15.6769 15.8277 15.6212 15.8534 15.5654C16.134 14.9887 16.2792 14.3554 16.2777 13.714ZM9.8534 15.8183C9.82546 15.7918 9.79966 15.7631 9.77626 15.7326C9.30318 15.2235 9.02669 14.5626 8.99626 13.8683C9.0077 13.7658 9.0077 13.6623 8.99626 13.5597C9.02669 12.8641 9.30311 12.2019 9.77626 11.6912C9.79769 11.6612 9.82769 11.6354 9.8534 11.6054V15.8183ZM14.2163 15.7283C14.1931 15.7604 14.1673 15.7905 14.1391 15.8183V11.6097C14.1671 11.6362 14.1929 11.6649 14.2163 11.6954C14.6954 12.2157 14.9708 12.8913 14.992 13.5983C14.9862 13.6753 14.9862 13.7527 14.992 13.8297C14.97 14.5352 14.6946 15.2092 14.2163 15.7283Z" fill="#323232"/>
</svg>
