<svg xmlns="http://www.w3.org/2000/svg" width="35" height="20"><path d="M0 10.014C.01 4.531 4.4.084 9.79.097c5.424.013 9.807 4.474 9.8 9.973-.006 5.467-4.41 9.916-9.806 9.91C4.348 19.976-.01 15.538 0 10.015zm30.435.001c.045 2.455-.364 4.809-1.58 6.97-.453.806-1.02 1.523-1.842 1.986-1.117.63-2.323.52-3.303-.308-1.469-1.243-2.138-2.941-2.566-4.747a16.6 16.6 0 01-.001-7.747c.428-1.805 1.092-3.507 2.566-4.744 1.13-.949 2.607-.955 3.737-.018 1.483 1.23 2.175 2.925 2.57 4.737.276 1.264.388 2.417.418 3.866-.041.005.042 0 .001.005zm4.562.042c0 .899-.124 4.636-.747 6.885a4.52 4.52 0 01-.557 1.215c-.24.375-.577.381-.81.003-.264-.43-.522-.908-.61-1.396-.268-1.5-.548-3.007-.652-4.524-.184-2.7-.082-5.403.444-8.069.133-.671.367-1.33.627-1.963.093-.224.394-.48.615-.494.183-.012.455.272.571.488.565 1.053.727 2.224.85 3.39.155 1.485.27 3.567.27 4.465z" fill="#000" fill-rule="evenodd"/></svg>