<svg xmlns="http://www.w3.org/2000/svg" width="45" height="45" viewBox="0 0 45 45">
    <path fill="#000" fill-rule="evenodd" d="M18.576 15.496c0 .726-.59 1.317-1.315 1.317a1.316 1.316 0 0 1 0-2.634c.725 0 1.315.59 1.315 1.317zm-1.177 9.018h-.292l-.265 4.86a.309.309 0 0 1-.618 0l-.267-4.86h-.855l.887-5.448-1.785 3.562a.31.31 0 0 1-.404.165.305.305 0 0 1-.161-.405s1.308-3.545 1.63-4.204c.321-.662.642-1.063 1.867-1.063h.25c1.228 0 1.545.401 1.868 1.063.322.659 1.63 4.204 1.63 4.204a.31.31 0 0 1-.163.405.31.31 0 0 1-.405-.165l-1.784-3.562.885 5.448h-.856l-.262 4.86c0 .167-.14.31-.31.31a.31.31 0 0 1-.306-.31l-.284-4.86zm10.475-10.337c.724 0 1.31.589 1.31 1.317a1.314 1.314 0 1 1-2.626 0c0-.728.59-1.317 1.316-1.317zm1.36 7.75h-.001l.254 7.201a.515.515 0 0 1-.48.55c-.012.005-.025.005-.037.005a.513.513 0 0 1-.512-.482l-.588-5.93-.582 5.93a.52.52 0 0 1-.518.482c-.01 0-.023 0-.037-.004a.517.517 0 0 1-.478-.55l.252-7.202-.087-2.863-1.607 3.562a.304.304 0 0 1-.4.165.312.312 0 0 1-.165-.407s1.13-3.545 1.45-4.205c.323-.659.824-1.06 2.049-1.06h.25c1.227 0 1.724.401 2.047 1.06.324.66 1.453 4.205 1.453 4.205a.31.31 0 0 1-.57.242l-1.605-3.562-.087 2.863zm-6.668.255a.807.807 0 1 1 .001 1.613.807.807 0 0 1-.001-1.613zm0 4.757l-.363 2.531a.329.329 0 0 1-.305.213.328.328 0 0 1-.309-.23c-.004-.006-.012-.156-.004-.181l.148-3.105-.048-1.066c-.04-.363-.048-.255-.461-.501-.417-.252-1.131-1.363-1.169-1.417-.035-.056-.1-.154-.11-.215a.205.205 0 0 1 .16-.242c.086-.012.155.031.207.09.059.06.879 1.158 1.496 1.262.14-.018.29-.094.68-.094h.155c.392 0 .542.076.68.094.618-.104 1.44-1.202 1.494-1.262.054-.059.125-.102.209-.09.11.023.184.13.163.242-.013.06-.078.159-.113.215-.035.054-.747 1.165-1.169 1.417-.41.246-.419.138-.46.5l-.049 1.067.15 3.105a.846.846 0 0 1-.004.182.328.328 0 0 1-.308.23.331.331 0 0 1-.307-.214l-.363-2.53zm-.18-15.172l-5.074-6.463h3.067L20.384 0h4.058v5.302l3.126.002-5.181 6.463zm-7.553 3.183l-8.145-.975 2.17-2.174L5.12 8.049l2.87-2.877 3.739 3.747 2.21-2.214.895 8.245zm-3.098 7.606L5.29 27.64v-3.076L0 24.563v-4.071h5.29V17.36l6.445 5.196zm3.175 7.572l-.972 8.165-2.168-2.174-3.744 3.75-2.869-2.88 3.74-3.748-2.208-2.218 8.221-.895zm7.587 3.105l5.072 6.463H24.5L24.499 45h-4.059v-5.302l-3.126-.002 5.184-6.463zm7.554-3.182l8.142.974-2.17 2.174 3.739 3.752-2.87 2.878-3.739-3.748-2.21 2.214-.892-8.244zm3.095-7.607l6.446-5.085v3.076l5.29.002v4.071h-5.288l-.002 3.132-6.446-5.196zm-3.175-7.573l.97-8.165 2.17 2.174 3.744-3.75 2.87 2.88-3.74 3.748 2.207 2.218-8.22.895z"/>
</svg>
