<?xml version="1.0" encoding="UTF-8" standalone="no"?>
<svg
   xmlns:dc="http://purl.org/dc/elements/1.1/"
   xmlns:cc="http://creativecommons.org/ns#"
   xmlns:rdf="http://www.w3.org/1999/02/22-rdf-syntax-ns#"
   xmlns:svg="http://www.w3.org/2000/svg"
   xmlns="http://www.w3.org/2000/svg"
   xmlns:sodipodi="http://sodipodi.sourceforge.net/DTD/sodipodi-0.dtd"
   xmlns:inkscape="http://www.inkscape.org/namespaces/inkscape"
   width="50"
   height="39"
   viewBox="0 0 50 39"
   version="1.1"
   id="svg4707"
   sodipodi:docname="rc-appeals_2020.svg"
   inkscape:version="0.92.4 (fd57863, 2020-04-02)">
  <metadata
     id="metadata4713">
    <rdf:RDF>
      <cc:Work
         rdf:about="">
        <dc:format>image/svg+xml</dc:format>
        <dc:type
           rdf:resource="http://purl.org/dc/dcmitype/StillImage" />
        <dc:title />
      </cc:Work>
    </rdf:RDF>
  </metadata>
  <defs
     id="defs4711" />
  <sodipodi:namedview
     pagecolor="#ffffff"
     bordercolor="#666666"
     borderopacity="1"
     objecttolerance="10"
     gridtolerance="10"
     guidetolerance="10"
     inkscape:pageopacity="0"
     inkscape:pageshadow="2"
     inkscape:window-width="1864"
     inkscape:window-height="920"
     id="namedview4709"
     showgrid="false"
     inkscape:zoom="15.52346"
     inkscape:cx="24.297846"
     inkscape:cy="15.035467"
     inkscape:window-x="56"
     inkscape:window-y="27"
     inkscape:window-maximized="1"
     inkscape:current-layer="g4705" />
  <g
     id="g4705"
     style="fill:none;fill-rule:evenodd"
     transform="translate(0,-4)">
    <path
       d="M 3.9646904,40.126426 H 6.6755291 L 5.344165,36.594009 Z m 1.0417763,-4.18931 H 5.740151 l 2.7015867,6.890896 H 7.738585 L 6.8985025,40.686172 H 3.7620714 L 2.931241,42.828012 H 2.2373403 Z m 5.3328583,3.377909 h 2.25749 c 0.457049,0 0.827129,-0.115651 1.110241,-0.346951 0.283111,-0.2313 0.425592,-0.585652 0.425592,-1.06213 0,-0.475554 -0.142481,-0.829906 -0.425592,-1.061206 -0.283112,-0.2313 -0.653192,-0.347875 -1.110241,-0.347875 h -2.25749 z M 9.6824321,35.938041 h 3.0596389 c 0.309017,0 0.588428,0.04256 0.840083,0.129528 0.249804,0.08697 0.466301,0.215572 0.646715,0.385809 0.179489,0.171162 0.318269,0.378407 0.41449,0.62266 0.09622,0.244253 0.145257,0.521814 0.145257,0.829906 0,0.309017 -0.04904,0.585652 -0.145257,0.829905 a 1.7069957,1.7069957 0 0 1 -0.41449,0.62266 1.7689842,1.7689842 0 0 1 -0.64764,0.386734 c -0.249805,0.08604 -0.530141,0.129528 -0.839158,0.129528 h -2.402746 v 2.953241 H 9.6824321 v -6.890896 z m 7.3497959,3.376984 h 2.25749 c 0.457975,0 0.82713,-0.115651 1.110241,-0.346951 0.283112,-0.2313 0.425593,-0.585652 0.425593,-1.06213 0,-0.475554 -0.142481,-0.829906 -0.425593,-1.061206 -0.283111,-0.2313 -0.652266,-0.347875 -1.110241,-0.347875 h -2.25749 z m -0.656893,-3.376984 h 3.05964 c 0.309017,0 0.589353,0.04256 0.840082,0.129528 0.25073,0.08697 0.466301,0.215572 0.646716,0.385809 0.180414,0.171162 0.318269,0.378407 0.41449,0.62266 0.09715,0.244253 0.145256,0.521814 0.145256,0.829906 0,0.309017 -0.04811,0.585652 -0.145256,0.829905 a 1.7069957,1.7069957 0 0 1 -0.41449,0.62266 1.7689842,1.7689842 0 0 1 -0.647641,0.386734 c -0.249804,0.08604 -0.53014,0.129528 -0.839157,0.129528 h -2.401822 v 2.953241 H 16.37626 v -6.890896 z m 6.693829,0 h 4.758308 v 0.558822 h -4.102341 v 2.49064 h 3.841435 v 0.559747 h -3.841435 v 2.720091 h 4.150452 v 0.559746 h -4.806419 v -6.890896 z m 7.310938,4.188385 h 2.710838 l -1.331364,-3.532417 z m 1.041776,-4.18931 h 0.733684 l 2.701587,6.890896 h -0.703153 l -0.840082,-2.14184 h -3.136431 l -0.830831,2.14184 h -0.6939 z m 4.675965,0 h 0.656893 v 6.33115 h 3.859938 v 0.559746 h -4.516831 z m 6.104476,4.623229 c -0.0065,0.354352 0.04811,0.649491 0.164686,0.888193 0.11565,0.237777 0.274784,0.427443 0.477403,0.568998 0.20262,0.141556 0.442247,0.243328 0.718882,0.304392 0.27756,0.06106 0.573624,0.09159 0.888193,0.09159 0.180414,0 0.376556,-0.02591 0.588427,-0.07772 0.212797,-0.05089 0.410789,-0.133229 0.593979,-0.246104 0.18319,-0.111949 0.335848,-0.257206 0.457975,-0.433919 a 1.1009891,1.1009891 0 0 0 0.18319,-0.64209 c 0,-0.192441 -0.04348,-0.360828 -0.129529,-0.501458 A 1.1916588,1.1916588 0 0 0 45.806902,40.155099 1.9910324,1.9910324 0 0 0 45.348927,39.918248 4.4853741,4.4853741 0 0 0 44.856721,39.76929 L 43.321812,39.392733 A 4.595473,4.595473 0 0 1 42.738936,39.199366 1.6625861,1.6625861 0 0 1 42.241177,38.890349 1.4664435,1.4664435 0 0 1 41.898853,38.418497 1.6172512,1.6172512 0 0 1 41.7684,37.732923 c 0,-0.167461 0.03238,-0.363604 0.09622,-0.589353 0.06476,-0.224824 0.18504,-0.43762 0.361753,-0.636538 0.177639,-0.199844 0.420042,-0.36823 0.729059,-0.50701 0.309017,-0.13878 0.704078,-0.207245 1.187032,-0.207245 0.3414,0 0.666145,0.04441 0.975162,0.135079 0.308092,0.08974 0.579176,0.224824 0.810476,0.405238 0.2313,0.180414 0.416341,0.403388 0.555121,0.670771 0.13878,0.267383 0.207245,0.577325 0.207245,0.931677 h -0.656893 a 1.5959716,1.5959716 0 0 0 -0.177638,-0.6902 1.5404595,1.5404595 0 0 0 -0.415416,-0.492207 1.8161694,1.8161694 0 0 0 -0.588427,-0.299765 2.389794,2.389794 0 0 0 -0.700378,-0.101772 c -0.224823,0 -0.442246,0.02498 -0.651341,0.07402 a 1.6311292,1.6311292 0 0 0 -0.549569,0.2313 c -0.157285,0.105473 -0.284962,0.245179 -0.381183,0.419116 -0.09715,0.173938 -0.145257,0.38951 -0.145257,0.647641 0,0.16006 0.02776,0.299765 0.08234,0.419116 0.05459,0.119351 0.129528,0.220198 0.226674,0.304391 0.09622,0.08327 0.207245,0.150808 0.333073,0.202619 0.124902,0.05089 0.259056,0.09252 0.400612,0.124902 l 1.679239,0.415415 c 0.244253,0.06476 0.474628,0.142481 0.6902,0.235927 0.215572,0.09345 0.405238,0.209095 0.568999,0.347875 0.164686,0.13878 0.293289,0.307167 0.386734,0.50701 0.09252,0.198919 0.13878,0.440396 0.13878,0.723507 0,0.07679 -0.0074,0.180415 -0.02313,0.309018 -0.01665,0.128602 -0.05551,0.265532 -0.11565,0.409864 -0.06199,0.145256 -0.148032,0.291438 -0.260907,0.43947 -0.112874,0.148032 -0.267383,0.281261 -0.4626,0.400612 a 2.6877087,2.6877087 0 0 1 -0.729059,0.289588 c -0.289588,0.07402 -0.637463,0.111024 -1.042701,0.111024 -0.405238,0 -0.781795,-0.04626 -1.128745,-0.140631 a 2.431428,2.431428 0 0 1 -0.888193,-0.429293 1.8920359,1.8920359 0 0 1 -0.564373,-0.742936 c -0.132303,-0.302541 -0.188741,-0.666145 -0.169311,-1.090812 h 0.656892 z"
       id="path4701"
       inkscape:connector-curvature="0"
       style="fill:#000000;fill-rule:nonzero;stroke-width:0.92520094" />
    <path
       d="M 0.37572529,20.129553 V 12.849056 H 8.8025373 V 4.3438943 h 7.2202287 v 8.4979297 l 8.428018,0.0048 v 7.280494 h -8.428018 v 8.49552 H 8.8025373 v -8.49673 l -8.42681201,0.0024 z M 45.788425,6.1097763 c -5.61225,0 -10.161356,4.5864717 -10.161356,10.2457307 0,5.65685 4.549106,10.244527 10.161356,10.244527 1.288048,0.0018 2.564421,-0.244164 3.75958,-0.724433 -2.178061,1.822603 -4.928636,2.819553 -7.768675,2.815768 -6.73446,0 -12.196037,-5.501355 -12.196037,-12.292468 0,-6.7911107 5.461577,-12.2936717 12.196037,-12.2936717 2.856752,0 5.48207,0.988412 7.562556,2.64822 -1.136184,-0.426347 -2.339917,-0.644391 -3.553461,-0.643673 z"
       id="path4689"
       inkscape:connector-curvature="0"
       style="fill:#f5333f;fill-opacity:0.94117647;fill-rule:evenodd;stroke-width:1.2053802"
       sodipodi:nodetypes="cccccccccccccccscccsscc" />
  </g>
</svg>
