<svg xmlns="http://www.w3.org/2000/svg" width="50" height="50" viewBox="0 0 50 50">
    <g fill="none" fill-rule="evenodd">
        <path fill="#000" fill-rule="nonzero" d="M.382 34.714h4.773c1.306 0 2.39.204 3.254.612.863.408 1.553.952 2.07 1.632.517.68.88 1.455 1.091 2.325.211.87.316 1.768.316 2.693 0 1.033-.132 1.995-.397 2.886a6.268 6.268 0 0 1-1.234 2.315c-.558.653-1.262 1.166-2.111 1.54-.85.374-1.86.561-3.03.561H.383V34.714zm4.814 13.789c.68 0 1.363-.105 2.05-.316a4.98 4.98 0 0 0 1.866-1.06c.558-.497 1.01-1.164 1.357-2 .347-.836.52-1.887.52-3.151 0-.993-.099-1.843-.296-2.55-.197-.707-.455-1.302-.775-1.785A4.028 4.028 0 0 0 8.817 36.5a5.41 5.41 0 0 0-1.285-.642 6.197 6.197 0 0 0-1.326-.296 11.25 11.25 0 0 0-1.193-.071H1.28v13.013h3.916zm9.513-13.789h6.079c.639 0 1.237.065 1.795.194a4.22 4.22 0 0 1 1.468.633c.422.292.752.676.99 1.152.237.476.356 1.067.356 1.775 0 .979-.275 1.805-.826 2.478-.55.673-1.315 1.091-2.294 1.254v.041c.666.082 1.193.258 1.58.53.388.272.677.605.867 1 .19.394.313.83.368 1.305.054.476.081.952.081 1.428v.836c0 .272.014.527.04.765.028.238.072.46.133.663.062.204.147.374.255.51h-.999a2.651 2.651 0 0 1-.316-1.193c-.02-.456-.03-.928-.03-1.418 0-.49-.021-.976-.062-1.458a3.103 3.103 0 0 0-.388-1.295c-.217-.381-.56-.687-1.03-.918-.469-.232-1.132-.347-1.988-.347h-5.181v6.629h-.898V34.714zm6.079 7.16c.53 0 1.023-.065 1.479-.194.455-.13.846-.33 1.172-.602.327-.272.585-.618.775-1.04.19-.421.286-.925.286-1.51 0-.543-.102-1.009-.306-1.397a2.696 2.696 0 0 0-.816-.948 3.353 3.353 0 0 0-1.183-.53 5.954 5.954 0 0 0-1.407-.163h-5.181v6.384h5.18zm7.494-7.16h9.79v.776H29.18v5.833h8.363v.775h-8.363v6.405h8.995v.775h-9.892V34.714zm12.144 0h9.138v.776h-8.24v5.833h7.424v.775h-7.425v7.18h-.897V34.714z"/>
        <path fill="#DC281E" d="M4.513 17.626v-6.04h6.991V4.53h5.99v7.05l6.992.004v6.04h-6.992v7.048h-5.99v-7.049l-6.991.002zM42.188 5.995c-4.656 0-8.43 3.805-8.43 8.5 0 4.693 3.774 8.499 8.43 8.499a8.334 8.334 0 0 0 3.119-.601 10.022 10.022 0 0 1-6.445 2.336c-5.587 0-10.118-4.564-10.118-10.198S33.275 4.332 38.862 4.332c2.37 0 4.548.82 6.274 2.197a8.377 8.377 0 0 0-2.948-.534zM2.888.722c-1.196 0-2.166.97-2.166 2.166v22.744c0 1.196.97 2.166 2.166 2.166h44.224c1.196 0 2.166-.97 2.166-2.166V2.888c0-1.196-.97-2.166-2.166-2.166H2.888zm0-.722h44.224A2.888 2.888 0 0 1 50 2.888v22.744a2.888 2.888 0 0 1-2.888 2.888H2.888A2.888 2.888 0 0 1 0 25.632V2.888A2.888 2.888 0 0 1 2.888 0z"/>
    </g>
</svg>
