<svg width="48" height="48" viewBox="0 0 48 48" fill="none" xmlns="http://www.w3.org/2000/svg">
<path d="M24.2 13.28C22.8 11.96 14.88 7.35998 4 12.04C4 12.12 4 13.4 4 15.4V37.72H20.48C21.04 38.2 22.4 38.56 23.96 38.56C25.52 38.56 26.88 38.2 27.44 37.72H44V15.4C44 13.44 44 12.12 44 12.04C33.56 7.47998 25.24 12.32 24.2 13.28ZM22.72 36.16C22.72 35.28 15 30.12 6.08 35.76V13.96C7.84 12.96 10.24 12.32 12.84 12.32C18.32 12.32 22.72 14.12 22.72 17.44V36.16ZM42.08 35.72C33.16 30.12 25.44 35.24 25.44 36.12V17.44C25.44 14.12 29.88 12.32 35.32 12.32C37.96 12.32 40.32 12.96 42.08 13.96V35.72Z" fill="#F5333F"/>
</svg>
