<svg width="24" height="24" viewBox="0 0 24 24" fill="none" xmlns="http://www.w3.org/2000/svg">
<path d="M16.2857 5.36032e-08H1.71429C1.48915 -5.62523e-05 1.2662 0.0442466 1.05819 0.130378C0.850178 0.216509 0.661175 0.34278 0.501977 0.501977C0.34278 0.661175 0.216509 0.850178 0.130378 1.05819C0.0442466 1.2662 -5.62523e-05 1.48915 5.36032e-08 1.71429V16.2857C-5.62523e-05 16.5109 0.0442466 16.7338 0.130378 16.9418C0.216509 17.1498 0.34278 17.3388 0.501977 17.498C0.661175 17.6572 0.850178 17.7835 1.05819 17.8696C1.2662 17.9558 1.48915 18.0001 1.71429 18H16.2857C16.5109 18.0001 16.7338 17.9558 16.9418 17.8696C17.1498 17.7835 17.3388 17.6572 17.498 17.498C17.6572 17.3388 17.7835 17.1498 17.8696 16.9418C17.9558 16.7338 18.0001 16.5109 18 16.2857V1.71429C18.0001 1.48915 17.9558 1.2662 17.8696 1.05819C17.7835 0.850178 17.6572 0.661175 17.498 0.501977C17.3388 0.34278 17.1498 0.216509 16.9418 0.130378C16.7338 0.0442466 16.5109 -5.62523e-05 16.2857 5.36032e-08ZM7.71429 12.6429C7.71413 12.7867 7.66599 12.9263 7.57749 13.0396C7.48898 13.153 7.36519 13.2336 7.22571 13.2686C7.17519 13.2806 7.12337 13.2864 7.07143 13.2857C6.95428 13.2855 6.83939 13.2535 6.73901 13.1931C6.63862 13.1327 6.55651 13.0462 6.50143 12.9429L3.85714 7.94571V12.6429C3.85714 12.8134 3.78941 12.9769 3.66885 13.0974C3.5483 13.218 3.38478 13.2857 3.21429 13.2857C3.04379 13.2857 2.88028 13.218 2.75972 13.0974C2.63916 12.9769 2.57143 12.8134 2.57143 12.6429V5.35714C2.57158 5.21334 2.61973 5.0737 2.70823 4.96036C2.79673 4.84701 2.92053 4.76645 3.06 4.73143C3.19974 4.69851 3.34644 4.71258 3.47738 4.77146C3.60832 4.83034 3.71619 4.93075 3.78429 5.05714L6.42857 10.0543V5.35714C6.42857 5.18665 6.4963 5.02313 6.61686 4.90257C6.73742 4.78201 6.90093 4.71429 7.07143 4.71429C7.24192 4.71429 7.40544 4.78201 7.526 4.90257C7.64656 5.02313 7.71429 5.18665 7.71429 5.35714V12.6429ZM12.2143 8.14286C12.3848 8.14286 12.5483 8.21059 12.6689 8.33115C12.7894 8.4517 12.8571 8.61522 12.8571 8.78571C12.8571 8.95621 12.7894 9.11972 12.6689 9.24028C12.5483 9.36084 12.3848 9.42857 12.2143 9.42857H10.2857V12.6429C10.2857 12.8134 10.218 12.9769 10.0974 13.0974C9.97687 13.218 9.81335 13.2857 9.64286 13.2857C9.47236 13.2857 9.30885 13.218 9.18829 13.0974C9.06773 12.9769 9 12.8134 9 12.6429V5.35714C8.99989 5.27269 9.01644 5.18904 9.0487 5.111C9.08097 5.03295 9.12832 4.96204 9.18804 4.90232C9.24775 4.84261 9.31867 4.79526 9.39671 4.76299C9.47476 4.73072 9.5584 4.71417 9.64286 4.71429H12.2143C12.3848 4.71429 12.5483 4.78201 12.6689 4.90257C12.7894 5.02313 12.8571 5.18665 12.8571 5.35714C12.8571 5.52764 12.7894 5.69115 12.6689 5.81171C12.5483 5.93227 12.3848 6 12.2143 6H10.2857V8.14286H12.2143ZM15.4286 12.6429C15.4286 12.8134 15.3608 12.9769 15.2403 13.0974C15.1197 13.218 14.9562 13.2857 14.7857 13.2857C14.6152 13.2857 14.4517 13.218 14.3311 13.0974C14.2106 12.9769 14.1429 12.8134 14.1429 12.6429V5.35714C14.1429 5.18665 14.2106 5.02313 14.3311 4.90257C14.4517 4.78201 14.6152 4.71429 14.7857 4.71429C14.9562 4.71429 15.1197 4.78201 15.2403 4.90257C15.3608 5.02313 15.4286 5.18665 15.4286 5.35714V12.6429Z" fill="#323232"/>
</svg>
