<svg width="24" height="24" viewBox="0 0 24 24" fill="none" xmlns="http://www.w3.org/2000/svg">
<path d="M21.0001 3.85645C20.6597 3.85847 20.3339 3.99458 20.0932 4.23526C19.8525 4.47594 19.7164 4.80179 19.7144 5.14216V11.9993L17.6546 14.0753C17.6228 14.1357 17.5765 14.1873 17.52 14.2256C17.4636 14.2639 17.3985 14.2878 17.3306 14.2951C17.2628 14.3024 17.1941 14.293 17.1308 14.2676C17.0674 14.2422 17.0112 14.2016 16.9672 14.1494C16.8694 14.0494 16.8147 13.915 16.8147 13.7751C16.8147 13.6352 16.8694 13.5008 16.9672 13.4007L18.7055 11.632C18.8732 11.4601 18.9671 11.2294 18.9671 10.9892C18.9671 10.7489 18.8732 10.5182 18.7055 10.3463C18.6233 10.2621 18.525 10.1951 18.4165 10.1494C18.308 10.1037 18.1915 10.0802 18.0738 10.0802C17.9561 10.0802 17.8395 10.1037 17.731 10.1494C17.6226 10.1951 17.5243 10.2621 17.4421 10.3463L14.0701 13.7779C13.8028 14.051 13.5956 14.3771 13.4618 14.735C13.328 15.093 13.2705 15.475 13.2931 15.8564H13.2858V22.285H17.1429V18.1472C17.4078 18.0155 17.649 17.8407 17.8565 17.6299L21.9151 13.5087C22.153 13.2659 22.2862 12.9393 22.2858 12.5993V5.14216C22.2838 4.80179 22.1477 4.47594 21.907 4.23526C21.6663 3.99458 21.3404 3.85847 21.0001 3.85645ZM9.93007 13.7774L6.55807 10.3463C6.47583 10.2621 6.37758 10.1951 6.26909 10.1494C6.16061 10.1037 6.04408 10.0802 5.92636 10.0802C5.80864 10.0802 5.6921 10.1037 5.58362 10.1494C5.47513 10.1951 5.37688 10.2621 5.29464 10.3463C5.12689 10.5182 5.033 10.7489 5.033 10.9892C5.033 11.2294 5.12689 11.4601 5.29464 11.632L7.03293 13.4007C7.1307 13.5008 7.18544 13.6352 7.18544 13.7751C7.18544 13.915 7.1307 14.0494 7.03293 14.1494C6.98502 14.1985 6.9278 14.2375 6.86461 14.2641C6.80143 14.2907 6.73356 14.3044 6.665 14.3044C6.59644 14.3044 6.52857 14.2907 6.46539 14.2641C6.4022 14.2375 6.34497 14.1985 6.29707 14.1494L4.28578 11.9993V5.14216C4.28376 4.80179 4.14765 4.47594 3.90697 4.23526C3.66629 3.99458 3.34044 3.85847 3.00007 3.85645C2.6597 3.85847 2.33385 3.99458 2.09317 4.23526C1.85249 4.47594 1.71638 4.80179 1.71436 5.14216V12.5993C1.71409 12.9394 1.84737 13.266 2.0855 13.5087L6.14407 17.6299C6.35149 17.8406 6.59248 18.0154 6.85721 18.1472V22.285H10.7144V15.8564H10.7071C10.7297 15.4749 10.6722 15.0928 10.5384 14.7348C10.4046 14.3768 10.1974 14.0507 9.93007 13.7774Z" fill="#323232"/>
<path d="M12.0002 9.42815C14.1305 9.42815 15.8574 7.70125 15.8574 5.57101C15.8574 3.44077 14.1305 1.71387 12.0002 1.71387C9.86997 1.71387 8.14307 3.44077 8.14307 5.57101C8.14307 7.70125 9.86997 9.42815 12.0002 9.42815Z" fill="#323232"/>
</svg>
