<svg width="24" height="24" viewBox="0 0 24 24" fill="none" xmlns="http://www.w3.org/2000/svg">
<path d="M12 9.4248C9.43457 9.4248 7.5 11.1751 7.5 13.4962C7.5 13.6667 7.56773 13.8302 7.68829 13.9508C7.80885 14.0714 7.97236 14.1391 8.14286 14.1391C8.31335 14.1391 8.47687 14.0714 8.59743 13.9508C8.71798 13.8302 8.78571 13.6667 8.78571 13.4962C8.78971 12.9995 8.93221 12.5137 9.19721 12.0935C9.4622 11.6733 9.83916 11.3353 10.2857 11.1177V21.6417C10.2857 21.8122 10.3534 21.9757 10.474 22.0962C10.5946 22.2168 10.7581 22.2845 10.9286 22.2845C11.0991 22.2845 11.2626 22.2168 11.3831 22.0962C11.5037 21.9757 11.5714 21.8122 11.5714 21.6417V16.2845H12.4286V21.6417C12.4286 21.8122 12.4963 21.9757 12.6169 22.0962C12.7374 22.2168 12.9009 22.2845 13.0714 22.2845C13.2419 22.2845 13.4054 22.2168 13.526 22.0962C13.6466 21.9757 13.7143 21.8122 13.7143 21.6417V11.1177C14.1608 11.3353 14.5378 11.6733 14.8028 12.0935C15.0678 12.5137 15.2103 12.9995 15.2143 13.4962C15.2143 13.6667 15.282 13.8302 15.4026 13.9508C15.5231 14.0714 15.6866 14.1391 15.8571 14.1391C16.0276 14.1391 16.1912 14.0714 16.3117 13.9508C16.4323 13.8302 16.5 13.6667 16.5 13.4962C16.5 11.1751 14.5654 9.4248 12 9.4248Z" fill="#323232"/>
<path d="M12.0225 8.57045C12.7326 8.57045 13.3082 7.99482 13.3082 7.28474C13.3082 6.57466 12.7326 5.99902 12.0225 5.99902C11.3125 5.99902 10.7368 6.57466 10.7368 7.28474C10.7368 7.99482 11.3125 8.57045 12.0225 8.57045Z" fill="#323232"/>
<path d="M21.7531 7.21636L12.5388 1.85922C12.3752 1.76402 12.1893 1.71387 12.0001 1.71387C11.8108 1.71387 11.6249 1.76402 11.4614 1.85922L2.24707 7.21636C2.08507 7.31059 1.95062 7.44567 1.85714 7.60811C1.76366 7.77055 1.71443 7.95466 1.71436 8.14208L1.71436 21.2135C1.71436 21.4977 1.82724 21.7702 2.02817 21.9711C2.2291 22.1721 2.50162 22.2849 2.78578 22.2849C3.06994 22.2849 3.34247 22.1721 3.5434 21.9711C3.74433 21.7702 3.85721 21.4977 3.85721 21.2135V8.75922L12.0001 4.02436L20.1429 8.75879V21.2135C20.1429 21.4977 20.2558 21.7702 20.4567 21.9711C20.6577 22.1721 20.9302 22.2849 21.2144 22.2849C21.4985 22.2849 21.771 22.1721 21.972 21.9711C22.1729 21.7702 22.2858 21.4977 22.2858 21.2135V8.14208C22.2857 7.95466 22.2365 7.77055 22.143 7.60811C22.0495 7.44567 21.9151 7.31059 21.7531 7.21636Z" fill="#323232"/>
</svg>
