<svg width="24" height="24" viewBox="0 0 24 24" fill="none" xmlns="http://www.w3.org/2000/svg">
<path d="M12.0089 1.71387H11.9909C10.1023 1.71387 8.57129 3.24486 8.57129 5.13344V12.4372C8.57129 14.3257 10.1023 15.8567 11.9909 15.8567H12.0089C13.8974 15.8567 15.4284 14.3257 15.4284 12.4372V5.13344C15.4284 3.24486 13.8974 1.71387 12.0089 1.71387Z" fill="#323232"/>
<path d="M18 12.2141C18 12.0436 17.9323 11.8801 17.8117 11.7596C17.6912 11.639 17.5276 11.5713 17.3571 11.5713C17.1866 11.5713 17.0231 11.639 16.9026 11.7596C16.782 11.8801 16.7143 12.0436 16.7143 12.2141C16.7143 13.4645 16.2176 14.6636 15.3335 15.5477C14.4494 16.4318 13.2503 16.9284 12 16.9284C10.7497 16.9284 9.5506 16.4318 8.6665 15.5477C7.7824 14.6636 7.28571 13.4645 7.28571 12.2141C7.28571 12.0436 7.21798 11.8801 7.09743 11.7596C6.97687 11.639 6.81335 11.5713 6.64286 11.5713C6.47236 11.5713 6.30885 11.639 6.18829 11.7596C6.06773 11.8801 6 12.0436 6 12.2141C6.00072 13.6563 6.52097 15.0499 7.46547 16.1397C8.40997 17.2294 9.71547 17.9425 11.1429 18.1481V20.5713H9.42857C9.27821 20.5721 9.13065 20.612 9.00042 20.6872C8.8702 20.7624 8.76179 20.8702 8.68589 21C8.60998 21.1298 8.56919 21.2771 8.56753 21.4274C8.56587 21.5778 8.6034 21.726 8.67643 21.8574C8.74874 21.9903 8.85637 22.1006 8.98744 22.1762C9.11851 22.2517 9.26791 22.2896 9.41914 22.2856H14.5714C14.7219 22.2848 14.8695 22.2449 14.9998 22.1697C15.1301 22.0945 15.2385 21.9867 15.3144 21.8568C15.3903 21.7269 15.4311 21.5795 15.4327 21.4291C15.4343 21.2787 15.3967 21.1305 15.3236 20.999C15.2512 20.8662 15.1435 20.756 15.0125 20.6805C14.8814 20.605 14.732 20.5672 14.5809 20.5713H12.8571V18.1434C14.2827 17.9356 15.5862 17.2226 16.5302 16.1343C17.4741 15.046 17.9958 13.6548 18 12.2141Z" fill="#323232"/>
</svg>
