<svg width="24" height="24" viewBox="0 0 24 24" fill="none" xmlns="http://www.w3.org/2000/svg">
<path d="M6.51862 13.7525L7.26005 13.0111C7.3766 12.8929 7.45268 12.7407 7.47734 12.5765C7.49763 12.4439 7.48632 12.3082 7.44431 12.1808C7.40231 12.0533 7.33081 11.9375 7.23562 11.8428C7.12248 11.7305 6.98081 11.6512 6.82591 11.6135C6.69252 11.5796 6.55264 11.5807 6.41978 11.6166C6.28691 11.6525 6.16552 11.722 6.06734 11.8184L4.93633 12.9498L4.03076 13.8554C3.87963 14.0138 3.79736 14.2255 3.80194 14.4444C3.80652 14.6632 3.89757 14.8714 4.05519 15.0233C4.21586 15.185 4.4341 15.2764 4.66205 15.2774C4.872 15.2775 5.07359 15.1951 5.22348 15.0481L6.51862 13.753V13.7525Z" fill="#323232"/>
<path d="M12.2318 7.13387L12.1169 7.24872L10.5513 8.8143L10.4939 8.87172L9.88318 9.47815C9.73083 9.63004 9.54991 9.75028 9.35087 9.83192C9.15183 9.91357 8.9386 9.95501 8.72347 9.95387C8.67418 9.95387 8.6249 9.94958 8.57561 9.9453C8.55933 9.9453 8.53875 9.94144 8.52247 9.94144C8.21724 9.90533 7.92838 9.78387 7.68906 9.59101C7.44974 9.39815 7.26966 9.1417 7.1695 8.85112C7.06935 8.56054 7.05317 8.2476 7.12283 7.94824C7.19249 7.64888 7.34517 7.37523 7.56333 7.15872L11.051 3.67487C11.1372 3.58915 11.2276 3.50258 11.3176 3.42501C10.1204 2.68793 8.69425 2.41606 7.30984 2.66101C5.92543 2.90596 4.67913 3.65067 3.80752 4.75379C2.9359 5.85691 2.49963 7.24165 2.58153 8.64518C2.66342 10.0487 3.25776 11.3733 4.25176 12.3676L4.30104 12.4169L5.48561 11.2323C5.63579 11.0826 5.8142 10.9643 6.01048 10.8841C6.20676 10.8039 6.41702 10.7635 6.62904 10.7652C6.91933 10.7637 7.20489 10.8386 7.45704 10.9824C7.59043 11.0568 7.713 11.1491 7.82133 11.2567C8.03268 11.4693 8.18408 11.7339 8.26018 12.0239C8.29218 12.1512 8.31 12.2817 8.31333 12.413C8.31923 12.568 8.29983 12.7229 8.2559 12.8716C8.39306 12.832 8.53529 12.8128 8.67804 12.8146C9.11876 12.8134 9.5423 12.9854 9.85737 13.2936C10.1724 13.6017 10.3538 14.0214 10.3623 14.462C10.3684 14.6171 10.3492 14.7721 10.3053 14.921C10.4425 14.8813 10.5847 14.8619 10.7275 14.8636C11.1683 14.8624 11.5919 15.0345 11.9069 15.3427C12.222 15.651 12.4033 16.0707 12.4118 16.5114C12.4177 16.6664 12.3983 16.8213 12.3543 16.97C12.4915 16.9304 12.6337 16.9112 12.7765 16.913C13.2172 16.9118 13.6407 17.0838 13.9558 17.392C14.2709 17.7002 14.4522 18.1198 14.4608 18.5604C14.4688 18.809 14.4184 19.0561 14.3138 19.2817C14.4634 19.3432 14.6234 19.3752 14.7852 19.376C14.9993 19.3758 15.2097 19.3196 15.3954 19.2132C15.5812 19.1067 15.736 18.9536 15.8444 18.7689C15.9529 18.5843 16.0112 18.3746 16.0137 18.1604C16.0163 17.9463 15.9628 17.7353 15.8588 17.5482C16.0942 17.6953 16.3726 17.7582 16.6484 17.7266C16.9243 17.6951 17.1812 17.5708 17.3773 17.3743C17.5733 17.1777 17.6969 16.9204 17.7278 16.6445C17.7587 16.3686 17.6951 16.0904 17.5473 15.8553C17.7293 15.9601 17.9356 16.0154 18.1456 16.0156C18.3887 16.0155 18.6263 15.9433 18.8284 15.8082C19.0305 15.6731 19.188 15.4811 19.281 15.2565C19.374 15.0319 19.3984 14.7847 19.351 14.5463C19.3036 14.3079 19.1866 14.0888 19.0148 13.9169L12.2318 7.13387Z" fill="#323232"/>
<path d="M12.7769 17.7367C12.7342 17.7367 12.6915 17.7409 12.6496 17.7491C12.4857 17.7747 12.3338 17.8506 12.215 17.9664L10.1785 20.003C10.0272 20.1613 9.94484 20.3732 9.94942 20.5922C9.954 20.8111 10.0451 21.0193 10.2029 21.1713C10.3634 21.3329 10.5815 21.4242 10.8093 21.4254C11.0193 21.4253 11.2209 21.3429 11.3707 21.1957L13.4077 19.1587C13.5242 19.0405 13.6003 18.8886 13.625 18.7245C13.643 18.6024 13.6345 18.4778 13.6002 18.3592C13.5659 18.2406 13.5065 18.1307 13.426 18.0371C13.3456 17.9434 13.2459 17.8681 13.1339 17.8163C13.0218 17.7645 12.8999 17.7373 12.7765 17.7367H12.7769ZM9.52617 14.6261C9.54415 14.504 9.5357 14.3794 9.50139 14.2609C9.46708 14.1423 9.40772 14.0325 9.32731 13.9388C9.24691 13.8452 9.14733 13.7699 9.03532 13.718C8.9233 13.6662 8.80146 13.639 8.67803 13.6383C8.63544 13.6383 8.59296 13.6425 8.55117 13.6507C8.38727 13.6762 8.23538 13.7522 8.1166 13.868L6.0796 15.9041C5.92839 16.0625 5.84611 16.2744 5.85077 16.4934C5.85543 16.7123 5.94665 16.9205 6.10446 17.0724C6.26502 17.234 6.48308 17.3254 6.71088 17.3265C6.9209 17.3265 7.1225 17.244 7.27231 17.0968L9.30931 15.0598C9.42576 14.9417 9.50183 14.7897 9.5266 14.6257L9.52617 14.6261ZM11.5756 16.6755C11.5936 16.5534 11.5852 16.4288 11.551 16.3102C11.5167 16.1915 11.4573 16.0817 11.3769 15.988C11.2965 15.8943 11.1969 15.8189 11.0849 15.767C10.9728 15.7152 10.8509 15.688 10.7275 15.6873C10.6849 15.6875 10.6424 15.6918 10.6006 15.7001C10.4367 15.7255 10.2849 15.8013 10.166 15.917L8.12903 17.954C7.9779 18.1123 7.89563 18.3241 7.9002 18.5429C7.90478 18.7618 7.99584 18.9699 8.15346 19.1218C8.31412 19.2835 8.53236 19.3749 8.76031 19.376C8.97026 19.376 9.17186 19.2937 9.32174 19.1467L11.3587 17.1097C11.4751 16.9914 11.5511 16.8392 11.5756 16.6751V16.6755ZM19.7442 4.25254C18.7295 3.23691 17.3707 2.63889 15.9364 2.57668C14.502 2.51447 13.0966 2.99258 11.9977 3.91654C11.8709 4.02325 11.7479 4.13382 11.6292 4.25254L8.14531 7.73682C7.99193 7.89073 7.9058 8.09917 7.9058 8.31646C7.9058 8.53376 7.99193 8.7422 8.14531 8.89611C8.2999 9.04838 8.50818 9.13374 8.72517 9.13374C8.94216 9.13374 9.15044 9.04838 9.30503 8.89611L12.326 5.87554L13.367 6.91696L19.2522 12.8021C19.4247 12.6672 19.589 12.5221 19.7442 12.3675C20.2772 11.8348 20.7001 11.2023 20.9886 10.5061C21.2771 9.80988 21.4256 9.06365 21.4256 8.31004C21.4256 7.55642 21.2771 6.8102 20.9886 6.11399C20.7001 5.41779 20.2772 4.78526 19.7442 4.25254Z" fill="#323232"/>
</svg>
