<svg width="24" height="24" viewBox="0 0 24 24" fill="none" xmlns="http://www.w3.org/2000/svg">
<path d="M19.1168 12.6313C19.2283 12.4401 19.2871 12.2227 19.2871 12.0013C19.2871 11.7799 19.2283 11.5625 19.1168 11.3713C18.391 10.1284 17.3523 9.09736 16.1041 8.38081C14.8559 7.66426 13.4417 7.28721 12.0025 7.28721C10.5632 7.28721 9.14908 7.66426 7.90088 8.38081C6.65267 9.09736 5.61397 10.1284 4.8882 11.3713C4.77664 11.5625 4.71785 11.7799 4.71785 12.0013C4.71785 12.2227 4.77664 12.4401 4.8882 12.6313C5.61388 13.8742 6.65256 14.9054 7.90077 15.622C9.14899 16.3387 10.5632 16.7158 12.0025 16.7158C13.4418 16.7158 14.856 16.3387 16.1042 15.622C17.3524 14.9054 18.3911 13.8742 19.1168 12.6313ZM12.0025 14.5727C11.4939 14.5727 10.9967 14.4219 10.5739 14.1393C10.151 13.8568 9.82142 13.4552 9.6268 12.9853C9.43217 12.5155 9.38125 11.9984 9.48047 11.4996C9.57969 11.0008 9.82459 10.5426 10.1842 10.183C10.5438 9.82338 11.002 9.57848 11.5008 9.47926C11.9996 9.38004 12.5167 9.43096 12.9865 9.62559C13.4564 9.82021 13.858 10.1498 14.1406 10.5727C14.4231 10.9955 14.5739 11.4927 14.5739 12.0013C14.5733 12.6831 14.3022 13.3368 13.8201 13.8189C13.338 14.301 12.6843 14.5721 12.0025 14.5727ZM17.3596 7.287H21.6453C21.8158 7.287 21.9794 7.21927 22.0999 7.09871C22.2205 6.97815 22.2882 6.81464 22.2882 6.64414C22.2882 6.47364 22.2205 6.31013 22.0999 6.18957C21.9794 6.06901 21.8158 6.00128 21.6453 6.00128H18.9111L22.0885 2.82386C22.1509 2.76483 22.2009 2.69388 22.2354 2.61521C22.27 2.53653 22.2884 2.45173 22.2896 2.36581C22.2909 2.2799 22.2748 2.19461 22.2425 2.11499C22.2102 2.03537 22.1623 1.96304 22.1015 1.90226C22.0408 1.84149 21.9685 1.79351 21.8889 1.76116C21.8093 1.72881 21.724 1.71275 21.6381 1.71393C21.5521 1.7151 21.4673 1.73349 21.3886 1.768C21.3099 1.80251 21.239 1.85245 21.1799 1.91486L18.0025 5.09229V2.35843C18.0025 2.18794 17.9348 2.02442 17.8142 1.90386C17.6936 1.78331 17.5301 1.71558 17.3596 1.71558C17.1891 1.71558 17.0256 1.78331 16.9051 1.90386C16.7845 2.02442 16.7168 2.18794 16.7168 2.35843V6.64414C16.7168 6.81464 16.7845 6.97815 16.9051 7.09871C17.0256 7.21927 17.1891 7.287 17.3596 7.287ZM1.71677 6.64414C1.71677 6.81464 1.7845 6.97815 1.90506 7.09871C2.02562 7.21927 2.18913 7.287 2.35963 7.287H6.64534C6.81584 7.287 6.97935 7.21927 7.09991 7.09871C7.22047 6.97815 7.2882 6.81464 7.2882 6.64414V2.35843C7.2882 2.18794 7.22047 2.02442 7.09991 1.90386C6.97935 1.78331 6.81584 1.71558 6.64534 1.71558C6.47485 1.71558 6.31133 1.78331 6.19077 1.90386C6.07022 2.02442 6.00249 2.18794 6.00249 2.35843V5.09229L2.82549 1.91486C2.7039 1.7998 2.54222 1.7367 2.37484 1.73899C2.20745 1.74128 2.04756 1.80877 1.92916 1.92711C1.81076 2.04546 1.7432 2.20532 1.74083 2.3727C1.73846 2.54008 1.80148 2.70179 1.91649 2.82343L5.09349 6.00128H2.35963C2.18913 6.00128 2.02562 6.06901 1.90506 6.18957C1.7845 6.31013 1.71677 6.47364 1.71677 6.64414ZM22.2882 17.3584C22.2882 17.1879 22.2205 17.0244 22.0999 16.9038C21.9794 16.7833 21.8158 16.7156 21.6453 16.7156H17.3596C17.1891 16.7156 17.0256 16.7833 16.9051 16.9038C16.7845 17.0244 16.7168 17.1879 16.7168 17.3584V21.6441C16.7168 21.8146 16.7845 21.9781 16.9051 22.0987C17.0256 22.2192 17.1891 22.287 17.3596 22.287C17.5301 22.287 17.6936 22.2192 17.8142 22.0987C17.9348 21.9781 18.0025 21.8146 18.0025 21.6441V18.9103L21.1795 22.0877C21.2385 22.1501 21.3095 22.2001 21.3881 22.2346C21.4668 22.2692 21.5516 22.2876 21.6375 22.2888C21.7234 22.2901 21.8087 22.274 21.8884 22.2417C21.968 22.2094 22.0403 22.1615 22.1011 22.1007C22.1619 22.04 22.2098 21.9677 22.2422 21.8881C22.2745 21.8085 22.2906 21.7232 22.2894 21.6373C22.2882 21.5513 22.2699 21.4665 22.2353 21.3878C22.2008 21.3092 22.1509 21.2382 22.0885 21.1791L18.9115 18.0013H21.6453C21.8158 18.0013 21.9794 17.9335 22.0999 17.813C22.2205 17.6924 22.2882 17.5289 22.2882 17.3584ZM6.64534 16.7156H2.35963C2.18913 16.7156 2.02562 16.7833 1.90506 16.9038C1.7845 17.0244 1.71677 17.1879 1.71677 17.3584C1.71677 17.5289 1.7845 17.6924 1.90506 17.813C2.02562 17.9335 2.18913 18.0013 2.35963 18.0013H5.09392L1.91606 21.1787C1.85362 21.2377 1.80365 21.3087 1.7691 21.3873C1.73455 21.466 1.71612 21.5508 1.71491 21.6367C1.71369 21.7227 1.72971 21.8079 1.76203 21.8876C1.79434 21.9672 1.84228 22.0395 1.90303 22.1003C1.96377 22.1611 2.03608 22.209 2.11568 22.2414C2.19529 22.2737 2.28057 22.2898 2.36649 22.2886C2.45241 22.2874 2.53722 22.2691 2.61591 22.2345C2.6946 22.2 2.76557 22.1501 2.82463 22.0877L6.00249 18.9103V21.6441C6.00249 21.8146 6.07022 21.9781 6.19077 22.0987C6.31133 22.2192 6.47485 22.287 6.64534 22.287C6.81584 22.287 6.97935 22.2192 7.09991 22.0987C7.22047 21.9781 7.2882 21.8146 7.2882 21.6441V17.3584C7.2882 17.1879 7.22047 17.0244 7.09991 16.9038C6.97935 16.7833 6.81584 16.7156 6.64534 16.7156Z" fill="#323232"/>
</svg>
