<svg width="24" height="24" viewBox="0 0 24 24" fill="none" xmlns="http://www.w3.org/2000/svg">
<path d="M13.0501 20.0917C13.0451 20.0639 13.0375 20.0366 13.0273 20.0103C13.0223 19.9844 13.015 19.959 13.0054 19.9344C12.9952 19.9188 12.9839 19.904 12.9717 19.8898C12.9527 19.8583 12.9296 19.8295 12.9031 19.8041L12.8997 19.7999L11.3612 18.5043V11.8936L12.6311 12.2017V9.26599L11.3612 8.65828V5.13971C11.3612 4.79962 11.2285 4.47347 10.9922 4.23299C10.756 3.99252 10.4355 3.85742 10.1014 3.85742C9.76731 3.85742 9.44688 3.99252 9.21063 4.23299C8.97437 4.47347 8.84164 4.79962 8.84164 5.13971V8.65742L2.61891 11.6403C2.45227 11.7115 2.31322 11.8365 2.22312 11.996C2.20945 12.0145 2.19813 12.0346 2.18943 12.056C2.18061 12.0723 2.17355 12.0896 2.16838 12.1074C2.1556 12.1299 2.14704 12.1546 2.14312 12.1803C2.09948 12.3204 2.09366 12.4699 2.12627 12.6131C2.12206 12.6174 2.12627 12.6217 2.12627 12.626C2.13087 12.6528 2.13939 12.6788 2.15154 12.7031C2.15837 12.7333 2.16973 12.7622 2.18522 12.7888C2.25501 12.948 2.37306 13.0802 2.52206 13.166C2.54021 13.1799 2.56002 13.1914 2.58101 13.2003C2.59704 13.2093 2.61398 13.2164 2.63154 13.2217C2.65363 13.2347 2.6779 13.2434 2.70312 13.2474C2.78206 13.2731 2.86445 13.2861 2.94733 13.286C3.00823 13.285 3.06888 13.2778 3.12838 13.2646H3.14101L8.84206 11.8974V18.5068L7.31027 19.7999L7.30691 19.8041C7.28133 19.829 7.25897 19.8571 7.24038 19.8877C7.22742 19.9026 7.21547 19.9183 7.20459 19.9348C7.18922 19.9871 7.17435 20.0396 7.15996 20.0921C7.16069 20.1104 7.16252 20.1286 7.16543 20.1466C7.16474 20.1841 7.16899 20.2216 7.17806 20.258L7.17891 20.2636C7.20531 20.3095 7.23058 20.3561 7.2547 20.4033L7.25891 20.4067C7.28133 20.43 7.30634 20.4506 7.33343 20.468C7.35053 20.4837 7.36884 20.4981 7.38817 20.5109C7.4017 20.5158 7.41547 20.5201 7.42943 20.5237C7.46539 20.5397 7.50337 20.5505 7.54227 20.5558C7.55764 20.5553 7.57296 20.5538 7.58817 20.5516C7.62765 20.5525 7.66705 20.5477 7.70522 20.5374L7.71027 20.537L10.1052 19.7368L12.4913 20.534L12.5006 20.537C12.5949 20.5699 12.6981 20.565 12.789 20.5233C12.8024 20.5173 12.8155 20.5106 12.8282 20.5031C12.8693 20.4809 12.9064 20.4518 12.9381 20.417C12.9435 20.411 12.9507 20.4088 12.9562 20.4028C12.9579 20.4003 12.9583 20.3973 12.9604 20.3947C12.9917 20.3557 13.0159 20.3113 13.032 20.2636V20.258C13.0415 20.2209 13.046 20.1827 13.0454 20.1444C13.0481 20.127 13.0498 20.1094 13.0505 20.0917H13.0501ZM14.8252 10.9631C15.1019 10.8396 15.3961 10.7615 15.6968 10.7317H15.701C15.8002 10.7195 15.9001 10.7137 16 10.7146H19.7894C20.1819 10.7143 20.5705 10.7943 20.9321 10.9496C21.2937 11.1049 21.621 11.3325 21.8947 11.6189V9.00028C21.8951 8.88761 21.8736 8.77597 21.8314 8.6718C21.7892 8.56762 21.7272 8.47298 21.6489 8.3933C21.5706 8.31363 21.4777 8.25051 21.3753 8.20757C21.273 8.16464 21.1633 8.14274 21.0526 8.14314H14.7368C14.6261 8.14274 14.5164 8.16464 14.4141 8.20757C14.3117 8.25051 14.2187 8.31363 14.1405 8.3933C14.0622 8.47298 14.0002 8.56762 13.958 8.6718C13.9158 8.77597 13.8943 8.88761 13.8947 9.00028V11.6189C14.1363 11.364 14.4217 11.1563 14.7368 11.006C14.7654 10.99 14.795 10.9757 14.8252 10.9631Z" fill="#323232"/>
<path d="M21.8947 15.0003V13.7146C21.8945 13.1463 21.6726 12.6014 21.2778 12.1996C20.8831 11.7978 20.3477 11.5719 19.7894 11.5717H16C15.5441 11.5699 15.1004 11.7204 14.7368 12.0003C14.6909 12.0311 14.6485 12.067 14.6105 12.1074C14.3851 12.3075 14.2046 12.5546 14.0811 12.8319C13.9576 13.1091 13.894 13.4101 13.8947 13.7146V15.0003C13.7831 15.0006 13.6762 15.0459 13.5973 15.1262C13.5184 15.2065 13.474 15.3153 13.4736 15.4289V18.8574C13.474 18.971 13.5184 19.0798 13.5973 19.1601C13.6762 19.2404 13.7831 19.2857 13.8947 19.286H14.3157V19.9289C14.3157 20.0993 14.3823 20.2629 14.5007 20.3834C14.6192 20.504 14.7798 20.5717 14.9473 20.5717C15.1148 20.5717 15.2755 20.504 15.3939 20.3834C15.5124 20.2629 15.5789 20.0993 15.5789 19.9289V19.286H20.2105V19.9289C20.2105 20.0993 20.277 20.2629 20.3955 20.3834C20.5139 20.504 20.6746 20.5717 20.8421 20.5717C21.0096 20.5717 21.1702 20.504 21.2887 20.3834C21.4071 20.2629 21.4736 20.0993 21.4736 19.9289V19.286H21.8905C22.0021 19.2857 22.109 19.2404 22.1878 19.1601C22.2667 19.0798 22.3112 18.971 22.3115 18.8574V15.4289C22.3115 15.3159 22.2678 15.2076 22.1897 15.1273C22.1117 15.0471 22.0056 15.0014 21.8947 15.0003ZM15.1579 13.7146C15.1585 13.5481 15.2065 13.3854 15.2962 13.2462C15.3859 13.1069 15.5134 12.9972 15.6631 12.9303H15.6673C15.7718 12.882 15.8852 12.8571 16 12.8574H19.7894C19.9772 12.8586 20.1593 12.9232 20.3072 13.0411C20.455 13.159 20.5602 13.3235 20.6063 13.5089C20.6235 13.576 20.632 13.6452 20.6315 13.7146V15.0003H15.1579V13.7146ZM15.3684 17.5717C15.2435 17.5717 15.1214 17.534 15.0175 17.4634C14.9136 17.3927 14.8327 17.2923 14.7849 17.1749C14.7371 17.0574 14.7246 16.9281 14.7489 16.8034C14.7733 16.6787 14.8335 16.5642 14.9218 16.4743C15.0101 16.3844 15.1227 16.3231 15.2452 16.2983C15.3677 16.2735 15.4947 16.2863 15.6101 16.3349C15.7255 16.3836 15.8241 16.466 15.8935 16.5717C15.9629 16.6774 16 16.8017 16 16.9288C16.0001 17.0133 15.9838 17.0969 15.9521 17.175C15.9204 17.253 15.8739 17.324 15.8152 17.3837C15.7566 17.4434 15.6869 17.4907 15.6102 17.523C15.5335 17.5553 15.4514 17.5718 15.3684 17.5717ZM20.421 17.5717C20.2961 17.5717 20.174 17.534 20.0701 17.4634C19.9663 17.3927 19.8853 17.2923 19.8375 17.1749C19.7897 17.0574 19.7772 16.9281 19.8016 16.8034C19.8259 16.6787 19.8861 16.5642 19.9744 16.4743C20.0627 16.3844 20.1753 16.3231 20.2978 16.2983C20.4203 16.2735 20.5473 16.2863 20.6627 16.3349C20.7781 16.3836 20.8768 16.466 20.9461 16.5717C21.0155 16.6774 21.0526 16.8017 21.0526 16.9288C21.0527 17.0133 21.0364 17.0969 21.0047 17.175C20.973 17.253 20.9265 17.324 20.8679 17.3837C20.8092 17.4434 20.7395 17.4907 20.6628 17.523C20.5862 17.5553 20.504 17.5718 20.421 17.5717Z" fill="#323232"/>
</svg>
