<svg width="24" height="24" viewBox="0 0 24 24" fill="none" xmlns="http://www.w3.org/2000/svg">
<path d="M13.7144 2.99958C13.7144 2.65859 13.5789 2.33156 13.3378 2.09044C13.0967 1.84933 12.7696 1.71387 12.4286 1.71387C12.0876 1.71387 11.7606 1.84933 11.5195 2.09044C11.2784 2.33156 11.1429 2.65859 11.1429 2.99958V4.2853H13.7144V2.99958ZM11.1429 12.8567H13.7144V11.9996H15.8572C16.7665 11.9996 17.6386 11.6384 18.2816 10.9954C18.9246 10.3524 19.2858 9.48032 19.2858 8.57101C19.2858 7.6617 18.9246 6.78963 18.2816 6.14664C17.6386 5.50366 16.7665 5.14244 15.8572 5.14244H9.70293C9.39041 4.86682 8.98819 4.71447 8.5715 4.71387H6.42864C5.97398 4.71387 5.53795 4.89448 5.21646 5.21597C4.89497 5.53746 4.71436 5.9735 4.71436 6.42815C4.71436 6.88281 4.89497 7.31884 5.21646 7.64034C5.53795 7.96183 5.97398 8.14244 6.42864 8.14244H8.5715C8.98819 8.14184 9.39041 7.98949 9.70293 7.71387H15.8572C16.0845 7.71387 16.3026 7.80417 16.4633 7.96492C16.624 8.12566 16.7144 8.34368 16.7144 8.57101C16.7144 8.79834 16.624 9.01636 16.4633 9.1771C16.3026 9.33785 16.0845 9.42815 15.8572 9.42815H13.7144V8.57101H11.1429V9.42815H9.85721C8.9479 9.42815 8.07583 9.78938 7.43285 10.4324C6.78986 11.0753 6.42864 11.9474 6.42864 12.8567C6.42864 13.766 6.78986 14.6381 7.43285 15.2811C8.07583 15.9241 8.9479 16.2853 9.85721 16.2853H14.1429C14.3703 16.2853 14.5883 16.3756 14.749 16.5363C14.9098 16.6971 15.0001 16.9151 15.0001 17.1424C15.0001 17.3698 14.9098 17.5878 14.749 17.7485C14.5883 17.9093 14.3703 17.9996 14.1429 17.9996H13.7144V17.1424H11.1429V17.9996H10.2858C9.94479 17.9996 9.61776 18.135 9.37665 18.3762C9.13553 18.6173 9.00007 18.9443 9.00007 19.2853C9.00007 19.6263 9.13553 19.9533 9.37665 20.1944C9.61776 20.4355 9.94479 20.571 10.2858 20.571H11.1429V20.9996C11.142 21.146 11.1682 21.2913 11.2201 21.4282C11.2406 21.4903 11.2664 21.5505 11.2972 21.6082C11.3102 21.639 11.3275 21.6679 11.3486 21.6939C11.3614 21.7163 11.3757 21.7377 11.3915 21.7582C11.5371 21.9604 11.7402 22.1142 11.9744 22.1996C11.9969 22.2126 12.0216 22.2213 12.0472 22.2253C12.0759 22.2378 12.1062 22.2464 12.1372 22.251C12.161 22.2577 12.1854 22.262 12.2101 22.2639C12.3544 22.2924 12.5029 22.2924 12.6472 22.2639C12.6719 22.262 12.6963 22.2577 12.7201 22.251C13.0203 22.1829 13.2855 22.0077 13.4658 21.7582C13.4815 21.7377 13.4959 21.7163 13.5086 21.6939C13.5298 21.6679 13.5471 21.639 13.5601 21.6082C13.5909 21.5505 13.6167 21.4903 13.6372 21.4282C13.6891 21.2913 13.7153 21.146 13.7144 20.9996V20.571H14.1429C15.0522 20.571 15.9243 20.2098 16.5673 19.5668C17.2103 18.9238 17.5715 18.0518 17.5715 17.1424C17.5715 16.2331 17.2103 15.3611 16.5673 14.7181C15.9243 14.0751 15.0522 13.7139 14.1429 13.7139H9.85721C9.62988 13.7139 9.41187 13.6236 9.25112 13.4628C9.09038 13.3021 9.00007 13.0841 9.00007 12.8567C9.00007 12.6294 9.09038 12.4114 9.25112 12.2506C9.41187 12.0899 9.62988 11.9996 9.85721 11.9996H11.1429V12.8567ZM6.42864 6.42815C6.34388 6.42815 6.26102 6.40302 6.19054 6.35593C6.12006 6.30883 6.06513 6.2419 6.03269 6.16359C6.00026 6.08528 5.99177 5.99911 6.0083 5.91597C6.02484 5.83284 6.06566 5.75647 6.1256 5.69654C6.18553 5.6366 6.2619 5.59578 6.34503 5.57924C6.42817 5.56271 6.51434 5.5712 6.59265 5.60363C6.67096 5.63607 6.73789 5.691 6.78499 5.76148C6.83208 5.83196 6.85721 5.91482 6.85721 5.99958C6.85687 6.11314 6.81161 6.22195 6.73131 6.30225C6.65101 6.38255 6.5422 6.42781 6.42864 6.42815Z" fill="#323232"/>
</svg>
