<svg width="24" height="24" viewBox="0 0 24 24" fill="none" xmlns="http://www.w3.org/2000/svg">
<path d="M13.5102 1.27393L7.08164 0.00966075C7.02812 -0.00322025 6.9723 -0.00322025 6.91878 0.00966075L0.490209 1.27393C0.392506 1.29259 0.304373 1.34475 0.241003 1.42142C0.177633 1.49809 0.142997 1.59446 0.143067 1.69393V10.3424C0.143067 14.5681 3.27164 17.9923 7.00021 17.9923C10.7288 17.9923 13.8574 14.5681 13.8574 10.3424V1.69436C13.8574 1.59489 13.8228 1.49852 13.7594 1.42185C13.696 1.34518 13.6079 1.29302 13.5102 1.27436V1.27393ZM9.86307 9.11672L9.56307 9.41243L7.1545 11.9281C7.1343 11.9485 7.11026 11.9647 7.08378 11.9757C7.0573 11.9867 7.0289 11.9924 7.00021 11.9924C6.97152 11.9924 6.94312 11.9867 6.91664 11.9757C6.89016 11.9647 6.86612 11.9485 6.84592 11.9281L4.43735 9.41243L4.13735 9.11672C3.96055 8.94564 3.81949 8.74114 3.72238 8.5151C3.62526 8.28905 3.57402 8.04597 3.57163 7.79996C3.56924 7.55395 3.61574 7.30992 3.70844 7.08203C3.80114 6.85414 3.9382 6.64694 4.11164 6.47246C4.44824 6.15996 4.89091 5.98687 5.35021 5.98817C5.82929 5.98818 6.28931 6.17587 6.63164 6.51103L7.00021 6.84959L7.36878 6.51103C7.71111 6.17587 8.17113 5.98818 8.65021 5.98817C9.10951 5.98687 9.55218 6.15996 9.88878 6.47246C10.0622 6.64694 10.1993 6.85414 10.292 7.08203C10.3847 7.30992 10.4312 7.55395 10.4288 7.79996C10.4264 8.04597 10.3752 8.28905 10.278 8.5151C10.1809 8.74114 10.0399 8.94564 9.86307 9.11672Z" fill="#323232"/>
</svg>
