<svg width="24" height="24" viewBox="0 0 24 24" fill="none" xmlns="http://www.w3.org/2000/svg">
<path d="M21.0645 12.3672H5.50735C5.41028 12.3681 5.3175 12.4073 5.24925 12.4764C5.18101 12.5454 5.14284 12.6387 5.14307 12.7358V13.6529H19.7359C19.7895 13.6525 19.8426 13.6628 19.8922 13.6831C19.9418 13.7034 19.9868 13.7334 20.0247 13.7713C20.0626 13.8091 20.0926 13.8542 20.1129 13.9038C20.1332 13.9533 20.1435 14.0065 20.1431 14.06V20.0815H21.0645C21.1611 20.0815 21.2538 20.0431 21.3221 19.9748C21.3904 19.9065 21.4288 19.8138 21.4288 19.7172V12.7358C21.429 12.6387 21.3908 12.5454 21.3226 12.4764C21.2544 12.4073 21.1616 12.3681 21.0645 12.3672Z" fill="#323232"/>
<path d="M18.9217 14.51H3.36453C3.31669 14.51 3.26932 14.5194 3.22512 14.5377C3.18093 14.556 3.14077 14.5829 3.10694 14.6167C3.07311 14.6505 3.04628 14.6907 3.02797 14.7349C3.00967 14.7791 3.00025 14.8265 3.00025 14.8743V21.8557C3.00001 21.9528 3.03818 22.046 3.10643 22.1151C3.17467 22.1841 3.26745 22.2234 3.36453 22.2243H18.9217C19.0187 22.2234 19.1115 22.1841 19.1798 22.1151C19.248 22.046 19.2862 21.9528 19.286 21.8557V14.8743C19.286 14.8265 19.2765 14.7791 19.2582 14.7349C19.2399 14.6907 19.2131 14.6505 19.1793 14.6167C19.1454 14.5829 19.1053 14.556 19.0611 14.5377C19.0169 14.5194 18.9695 14.51 18.9217 14.51ZM5.57167 19.2243C5.40215 19.2243 5.23643 19.174 5.09547 19.0798C4.95451 18.9857 4.84465 18.8518 4.77978 18.6952C4.7149 18.5385 4.69793 18.3662 4.731 18.1999C4.76407 18.0337 4.84571 17.8809 4.96558 17.7611C5.08546 17.6412 5.23818 17.5595 5.40445 17.5265C5.57072 17.4934 5.74307 17.5104 5.89969 17.5752C6.05631 17.6401 6.19018 17.75 6.28436 17.8909C6.37855 18.0319 6.42882 18.1976 6.42882 18.3671C6.42814 18.5943 6.33761 18.8119 6.17702 18.9725C6.01642 19.1331 5.79879 19.2236 5.57167 19.2243ZM11.1431 20.9386C10.6345 20.9386 10.1374 20.7878 9.71449 20.5052C9.29162 20.2227 8.96204 19.8211 8.76741 19.3512C8.57279 18.8813 8.52186 18.3643 8.62108 17.8655C8.7203 17.3667 8.96521 16.9085 9.32483 16.5489C9.68445 16.1893 10.1426 15.9443 10.6414 15.8451C11.1402 15.7459 11.6573 15.7968 12.1271 15.9915C12.597 16.1861 12.9986 16.5157 13.2812 16.9385C13.5637 17.3614 13.7145 17.8586 13.7145 18.3671C13.714 19.049 13.4429 19.7027 12.9607 20.1848C12.4786 20.6669 11.8249 20.938 11.1431 20.9386ZM16.7145 19.2243C16.545 19.2243 16.3793 19.174 16.2383 19.0798C16.0974 18.9857 15.9875 18.8518 15.9226 18.6952C15.8578 18.5385 15.8408 18.3662 15.8739 18.1999C15.9069 18.0337 15.9886 17.8809 16.1084 17.7611C16.2283 17.6412 16.381 17.5595 16.5473 17.5265C16.7136 17.4934 16.8859 17.5104 17.0425 17.5752C17.1992 17.6401 17.333 17.75 17.4272 17.8909C17.5214 18.0319 17.5717 18.1976 17.5717 18.3671C17.571 18.5943 17.4805 18.8119 17.3199 18.9725C17.1593 19.1331 16.9416 19.2236 16.7145 19.2243ZM10.6665 6.89172L9.60067 6.60586C9.05173 6.45872 8.46682 6.53568 7.97462 6.8198C7.48242 7.10391 7.12324 7.57192 6.9761 8.12086L6.90067 8.40286L7.96653 8.68872C8.23837 8.76156 8.52189 8.78015 8.80091 8.74342C9.07993 8.70668 9.34898 8.61534 9.5927 8.47462C9.83642 8.3339 10.05 8.14654 10.2213 7.92326C10.3926 7.69998 10.5183 7.44513 10.5911 7.17329L10.6665 6.89172ZM10.4287 9.34829L11.4945 9.63372C12.0435 9.78085 12.6284 9.7039 13.1206 9.41978C13.6128 9.13566 13.972 8.66766 14.1191 8.11872L14.1945 7.83672L13.1287 7.55086C12.8568 7.47801 12.5733 7.45943 12.2943 7.49616C12.0153 7.5329 11.7462 7.62423 11.5025 7.76496C11.2588 7.90568 11.0452 8.09303 10.8739 8.31632C10.7026 8.5396 10.5769 8.79444 10.5041 9.06629L10.4287 9.34829ZM13.9562 10.2937L15.0225 10.5791C15.5715 10.7263 16.1564 10.6493 16.6486 10.3652C17.1408 10.0811 17.5 9.61309 17.6471 9.06415L17.7225 8.78215L16.6562 8.49629C16.1073 8.3493 15.5225 8.42638 15.0303 8.71057C14.5382 8.99476 14.1792 9.46279 14.0321 10.0117L13.9562 10.2937ZM9.91567 5.42986L10.982 5.71529L11.0574 5.43329C11.1302 5.16145 11.1488 4.87793 11.1121 4.59891C11.0753 4.31989 10.984 4.05084 10.8433 3.80712C10.7026 3.5634 10.5152 3.34979 10.2919 3.17848C10.0686 3.00717 9.8138 2.88153 9.54196 2.80872L8.4761 2.52329L8.40067 2.80529C8.25354 3.35423 8.33049 3.93914 8.61461 4.43134C8.89873 4.92354 9.36673 5.28272 9.91567 5.42986ZM13.4437 6.37486L14.5095 6.66072L14.5854 6.37872C14.6582 6.10688 14.6768 5.82336 14.6401 5.54434C14.6033 5.26532 14.512 4.99626 14.3713 4.75255C14.2306 4.50883 14.0432 4.29522 13.8199 4.12391C13.5966 3.9526 13.3418 3.82696 13.07 3.75415L12.0041 3.46829L11.9282 3.75072C11.7813 4.29966 11.8583 4.88451 12.1425 5.37662C12.4267 5.86873 12.8947 6.22781 13.4437 6.37486ZM16.9717 7.32029L18.0375 7.60615L18.113 7.32372C18.26 6.77484 18.1829 6.19004 17.8988 5.69793C17.6147 5.20583 17.1468 4.84672 16.598 4.69957L15.5321 4.41372L15.4562 4.69572C15.3834 4.96755 15.3648 5.25108 15.4015 5.5301C15.4383 5.80912 15.5296 6.07817 15.6703 6.32189C15.8111 6.56561 15.9984 6.77922 16.2217 6.95052C16.445 7.12183 16.6998 7.24748 16.9717 7.32029ZM21.4078 9.13915C21.4286 9.06193 21.4339 8.98138 21.4235 8.90211C21.4131 8.82283 21.3871 8.74638 21.3472 8.67713C21.3072 8.60788 21.254 8.54718 21.1906 8.4985C21.1272 8.44982 21.0548 8.41412 20.9775 8.39343L18.8218 7.81615L18.5064 8.99215L20.6621 9.56986C20.7393 9.59059 20.8199 9.5959 20.8992 9.58547C20.9785 9.57504 21.055 9.54908 21.1242 9.50908C21.1935 9.46907 21.2542 9.41581 21.3028 9.35234C21.3515 9.28886 21.3872 9.21642 21.4078 9.13915ZM4.27567 6.43915C4.11973 6.39737 3.95357 6.41926 3.81376 6.5C3.67396 6.58073 3.57195 6.7137 3.53017 6.86965C3.4884 7.02559 3.51029 7.19175 3.59103 7.33155C3.67176 7.47136 3.80473 7.57337 3.96067 7.61515L5.52882 8.03515C5.60637 8.057 5.6875 8.06323 5.76748 8.05348C5.84746 8.04373 5.92471 8.0182 5.99475 7.97836C6.06479 7.93852 6.12622 7.88517 6.17547 7.8214C6.22473 7.75764 6.26083 7.68472 6.28169 7.60689C6.30254 7.52906 6.30773 7.44787 6.29696 7.36801C6.28619 7.28816 6.25967 7.21124 6.21893 7.14172C6.1782 7.0722 6.12406 7.01146 6.05967 6.96303C5.99528 6.91459 5.92191 6.87943 5.84382 6.85957L4.27567 6.43915ZM5.2211 2.91157L6.78924 3.33157C6.94519 3.37335 7.11135 3.35146 7.25115 3.27072C7.39096 3.18999 7.49297 3.05702 7.53474 2.90107C7.57652 2.74513 7.55463 2.57897 7.47389 2.43916C7.39316 2.29936 7.26019 2.19735 7.10424 2.15557L5.5361 1.73557C5.38015 1.6938 5.214 1.71569 5.07419 1.79643C4.93438 1.87716 4.83237 2.01013 4.7906 2.16607C4.74883 2.32202 4.77072 2.48817 4.85145 2.62798C4.93219 2.76779 5.06516 2.8698 5.2211 2.91157ZM7.33482 5.99857C7.49076 6.04035 7.65692 6.01846 7.79673 5.93772C7.93653 5.85699 8.03854 5.72402 8.08032 5.56807C8.12209 5.41213 8.1002 5.24597 8.01946 5.10616C7.93873 4.96636 7.80576 4.86435 7.64982 4.82257L3.33882 3.66715C3.2616 3.64638 3.18105 3.64102 3.10176 3.65139C3.02247 3.66175 2.946 3.68763 2.87672 3.72754C2.73679 3.80816 2.63462 3.94106 2.59267 4.097C2.55073 4.25295 2.57246 4.41917 2.65307 4.5591C2.73369 4.69903 2.86658 4.8012 3.02253 4.84315L7.33482 5.99857Z" fill="#323232"/>
</svg>
