<svg width="24" height="24" viewBox="0 0 24 24" fill="none" xmlns="http://www.w3.org/2000/svg">
<path d="M21.4414 7.7107H2.55854C2.50387 7.71042 2.44968 7.72098 2.39912 7.74179C2.34855 7.7626 2.30261 7.79323 2.26395 7.83192C2.22529 7.87061 2.19468 7.91659 2.17389 7.9672C2.1531 8.0178 2.14254 8.07203 2.14283 8.12674V15.8728C2.14254 15.9276 2.1531 15.9818 2.17389 16.0324C2.19468 16.083 2.22529 16.129 2.26395 16.1677C2.30261 16.2064 2.34855 16.237 2.39912 16.2578C2.44968 16.2786 2.50387 16.2892 2.55854 16.2889H21.4414C21.4961 16.2892 21.5503 16.2786 21.6008 16.2578C21.6514 16.237 21.6973 16.2064 21.736 16.1677C21.7746 16.129 21.8053 16.083 21.826 16.0324C21.8468 15.9818 21.8574 15.9276 21.8571 15.8728V8.12674C21.8574 8.07203 21.8468 8.0178 21.826 7.9672C21.8053 7.91659 21.7746 7.87061 21.736 7.83192C21.6973 7.79323 21.6514 7.7626 21.6008 7.74179C21.5503 7.72098 21.4961 7.71042 21.4414 7.7107ZM5.14283 13.2865C4.88854 13.2865 4.63996 13.2111 4.42852 13.0697C4.21709 12.9283 4.05229 12.7273 3.95498 12.4922C3.85767 12.2571 3.83221 11.9984 3.88182 11.7488C3.93143 11.4992 4.05388 11.2699 4.23369 11.0899C4.4135 10.91 4.64259 10.7874 4.892 10.7378C5.1414 10.6881 5.39991 10.7136 5.63485 10.811C5.86978 10.9084 6.07058 11.0733 6.21186 11.2849C6.35313 11.4965 6.42854 11.7453 6.42854 11.9998C6.42877 12.1688 6.39566 12.3363 6.33113 12.4925C6.2666 12.6487 6.1719 12.7906 6.05247 12.9102C5.93303 13.0297 5.79121 13.1245 5.63511 13.189C5.47902 13.2536 5.31173 13.2867 5.14283 13.2865ZM12 15.0022C11.4066 15.0022 10.8266 14.8261 10.3333 14.4962C9.83991 14.1663 9.45539 13.6974 9.22833 13.1488C9.00127 12.6001 8.94186 11.9965 9.05761 11.4141C9.17337 10.8317 9.45909 10.2967 9.87865 9.8768C10.2982 9.45691 10.8328 9.17097 11.4147 9.05512C11.9966 8.93927 12.5998 8.99873 13.148 9.22597C13.6962 9.45321 14.1647 9.83803 14.4944 10.3318C14.824 10.8255 15 11.406 15 11.9998C15.0003 12.3942 14.9228 12.7847 14.7722 13.1491C14.6215 13.5135 14.4005 13.8446 14.1219 14.1234C13.8433 14.4023 13.5125 14.6234 13.1484 14.7742C12.7842 14.925 12.394 15.0024 12 15.0022ZM18.8571 13.2865C18.6028 13.2865 18.3542 13.2111 18.1428 13.0697C17.9314 12.9283 17.7666 12.7273 17.6693 12.4922C17.572 12.2571 17.5465 11.9984 17.5961 11.7488C17.6457 11.4992 17.7682 11.2699 17.948 11.0899C18.1278 10.91 18.3569 10.7874 18.6063 10.7378C18.8557 10.6881 19.1142 10.7136 19.3491 10.811C19.5841 10.9084 19.7849 11.0733 19.9261 11.2849C20.0674 11.4965 20.1428 11.7453 20.1428 11.9998C20.1431 12.1688 20.11 12.3363 20.0454 12.4925C19.9809 12.6487 19.8862 12.7906 19.7668 12.9102C19.6473 13.0297 19.5055 13.1245 19.3494 13.189C19.1933 13.2536 19.026 13.2867 18.8571 13.2865ZM21.2143 19.3106H4.33754L4.9354 18.7122C4.99781 18.6531 5.04775 18.5821 5.08226 18.5033C5.11677 18.4246 5.13516 18.3397 5.13633 18.2537C5.13751 18.1677 5.12144 18.0824 5.0891 18.0027C5.05675 17.9231 5.00877 17.8507 4.948 17.7899C4.88722 17.7291 4.81489 17.6811 4.73527 17.6488C4.65565 17.6164 4.57036 17.6004 4.48444 17.6016C4.39853 17.6028 4.31373 17.6213 4.23505 17.6559C4.15638 17.6904 4.08543 17.7405 4.0264 17.8029L2.33097 19.4984C2.27116 19.5586 2.22382 19.63 2.19168 19.7086L2.18825 19.7189C2.12735 19.8694 2.12735 20.0376 2.18825 20.1881L2.19168 20.198C2.22383 20.2765 2.27117 20.3479 2.33097 20.4081L4.0264 22.1049C4.1477 22.222 4.31011 22.2868 4.47867 22.2853C4.64722 22.2837 4.80843 22.216 4.92757 22.0966C5.0467 21.9773 5.11423 21.8159 5.11562 21.6472C5.117 21.4785 5.05213 21.316 4.93497 21.1948L4.33754 20.5969H21.2143C21.3848 20.5969 21.5483 20.5291 21.6688 20.4084C21.7894 20.2878 21.8571 20.1241 21.8571 19.9535C21.8571 19.7829 21.7894 19.6192 21.6688 19.4986C21.5483 19.3779 21.3848 19.3106 21.2143 19.3106ZM21.8117 3.81106L21.8083 3.80119C21.7761 3.72264 21.7288 3.65121 21.669 3.59103L19.9735 1.89426C19.8522 1.77712 19.6898 1.71235 19.5213 1.71389C19.3527 1.71544 19.1915 1.78318 19.0724 1.90252C18.9532 2.02186 18.8857 2.18326 18.8843 2.35195C18.8829 2.52064 18.9478 2.68312 19.065 2.80441L19.6624 3.40231H2.78568C2.61519 3.40231 2.45167 3.47009 2.33111 3.59074C2.21056 3.7114 2.14283 3.87504 2.14283 4.04567C2.14283 4.2163 2.21056 4.37994 2.33111 4.5006C2.45167 4.62125 2.61519 4.68903 2.78568 4.68903H19.6624L19.0645 5.28736C18.9495 5.4091 18.8865 5.57093 18.8889 5.73845C18.8913 5.90597 18.9588 6.06595 19.0772 6.18439C19.1956 6.30282 19.3555 6.37037 19.5229 6.37266C19.6903 6.37495 19.852 6.3118 19.9735 6.19665L21.669 4.50074C21.7288 4.44056 21.7761 4.36914 21.8083 4.29058L21.8117 4.28028C21.8725 4.1298 21.8725 3.96154 21.8117 3.81106Z" fill="#323232"/>
</svg>
