<svg width="48" height="48" viewBox="0 0 48 48" fill="none" xmlns="http://www.w3.org/2000/svg">
<path fill-rule="evenodd" clip-rule="evenodd" d="M34.8836 6H14.1142V18.2927H2V42H14.9809V41.9999H34.0177V42H46.9986V18.2927H34.8836V6ZM14.1142 40.0561V20.2367H3.97203V40.0561H14.1142ZM45.0265 40.0561H34.8836V20.2367H45.0265V40.0561ZM16.0451 40.0263V7.97341H32.9544V40.0263H29.6906V28.829H20.1713V40.0263H16.0451ZM22.1703 39.9803H27.6935V30.8482H22.1703V39.9803ZM44.4045 20.9267H36.616V26.195H44.4045V20.9267ZM42.3944 24.1455H38.629V22.976H42.3944V24.1455ZM36.616 27.0735H44.4045V32.3418H36.616V27.0735ZM38.629 30.2917H42.3944V29.1223H38.629V30.2917ZM44.4045 33.219H36.616V38.4873H44.4045V33.219ZM42.3944 36.4381H38.629V35.2686H42.3944V36.4381ZM5.27279 26.3873H12.838V21.3143H5.27279V26.3873ZM10.8862 23.288V24.4141H7.22873V23.288H10.8862ZM12.838 32.5543H5.27279V27.4813H12.838V32.5543ZM10.8862 29.4554H7.22873V30.5815H10.8862V29.4554ZM5.27279 38.7217H12.838V33.6487H5.27279V38.7217ZM7.22873 35.6218H10.8862V36.7479H7.22873V35.6218ZM17.5786 20.2278V14.607L21.7309 14.6045V10.3899H27.2712V14.6045L31.4248 14.607V20.2259H27.2702L27.2715 24.4387H21.7309V20.2253L17.5786 20.2278ZM19.5565 18.2189L23.7089 18.2164V22.431H25.2907L25.2894 18.2182H29.4446V16.6138L25.2909 16.6113V12.3979H23.7089V16.6113L19.5565 16.6138V18.2189Z" fill="#F5333F"/>
</svg>
