<?xml version="1.0" encoding="UTF-8" standalone="no"?>
<svg
   xmlns:dc="http://purl.org/dc/elements/1.1/"
   xmlns:cc="http://creativecommons.org/ns#"
   xmlns:rdf="http://www.w3.org/1999/02/22-rdf-syntax-ns#"
   xmlns:svg="http://www.w3.org/2000/svg"
   xmlns="http://www.w3.org/2000/svg"
   xmlns:sodipodi="http://sodipodi.sourceforge.net/DTD/sodipodi-0.dtd"
   xmlns:inkscape="http://www.inkscape.org/namespaces/inkscape"
   width="50"
   height="40"
   viewBox="0 0 50 40"
   version="1.1"
   id="svg4693"
   sodipodi:docname="rc_2020.svg"
   inkscape:version="0.92.4 (fd57863, 2020-04-02)">
  <metadata
     id="metadata4699">
    <rdf:RDF>
      <cc:Work
         rdf:about="">
        <dc:format>image/svg+xml</dc:format>
        <dc:type
           rdf:resource="http://purl.org/dc/dcmitype/StillImage" />
        <dc:title />
      </cc:Work>
    </rdf:RDF>
  </metadata>
  <defs
     id="defs4697" />
  <sodipodi:namedview
     pagecolor="#ffffff"
     bordercolor="#666666"
     borderopacity="1"
     objecttolerance="10"
     gridtolerance="10"
     guidetolerance="10"
     inkscape:pageopacity="0"
     inkscape:pageshadow="2"
     inkscape:window-width="1864"
     inkscape:window-height="920"
     id="namedview4695"
     showgrid="false"
     inkscape:zoom="10.564175"
     inkscape:cx="30.309613"
     inkscape:cy="10.252165"
     inkscape:window-x="56"
     inkscape:window-y="27"
     inkscape:window-maximized="1"
     inkscape:current-layer="g4691" />
  <g
     id="g4691"
     style="fill:none;fill-rule:evenodd"
     transform="translate(0,-10)">
    <path
       style="fill:#000000;fill-rule:nonzero;stroke:#000000;stroke-width:0.2;stroke-miterlimit:4;stroke-dasharray:none;stroke-opacity:1"
       d="m 12.770173,42.088025 v 7.669922 h 2.492187 c 0.616166,0 1.148062,-0.09796 1.595704,-0.294922 0.447116,-0.196963 0.817464,-0.466652 1.111328,-0.810547 a 3.3009667,3.3009667 0 0 0 0.65039,-1.21875 c 0.139555,-0.469234 0.208985,-0.977468 0.208985,-1.521485 0,-0.487139 -0.05685,-0.959793 -0.167969,-1.417968 -0.11112,-0.458176 -0.301947,-0.866496 -0.574219,-1.22461 C 17.814307,42.91155 17.451224,42.625158 16.996736,42.41029 16.54172,42.195421 15.971635,42.088025 15.283845,42.088025 Z m 7.544922,0 v 7.669922 h 0.472656 v -3.490235 h 2.728516 c 0.450802,0 0.799882,0.05946 1.046875,0.181641 0.24752,0.121654 0.428688,0.283726 0.542968,0.484375 a 1.6341576,1.6341576 0 0 1 0.203126,0.681641 c 0.02159,0.253838 0.0332,0.509525 0.0332,0.767578 0,0.258052 0.0051,0.507899 0.01563,0.748046 a 1.3961172,1.3961172 0 0 0 0.166015,0.626954 h 0.527344 c -0.05687,-0.07162 -0.102116,-0.160145 -0.134766,-0.267578 -0.03213,-0.106908 -0.05556,-0.224271 -0.07031,-0.34961 -0.01367,-0.12534 -0.02148,-0.259099 -0.02148,-0.402344 v -0.441406 c 10e-7,-0.250679 -0.01453,-0.501273 -0.04297,-0.751953 -0.02897,-0.250152 -0.0933,-0.480004 -0.19336,-0.6875 -0.100061,-0.208021 -0.252696,-0.382144 -0.457031,-0.525391 -0.203809,-0.143245 -0.48129,-0.236106 -0.832031,-0.279296 v -0.02148 c 0.515578,-0.08584 0.919333,-0.305729 1.208984,-0.660156 0.290178,-0.354427 0.435547,-0.789109 0.435547,-1.304688 0,-0.37286 -0.06269,-0.684865 -0.1875,-0.935547 -0.12534,-0.250679 -0.299243,-0.453643 -0.521484,-0.607421 A 2.2224122,2.2224122 0 0 0 24.461579,42.19154 c -0.293864,-0.06794 -0.60879,-0.103515 -0.945312,-0.103515 z m 7.148437,0 v 7.669922 h 5.208985 v -0.408204 h -4.736328 v -3.373046 h 4.404297 v -0.408204 h -4.404297 v -3.070312 h 4.68164 v -0.410156 z m 6.394532,0 v 7.669922 h 0.472656 v -3.78125 h 3.910156 V 45.568493 H 34.33072 v -3.070312 h 4.339844 v -0.410156 z m -20.615235,0.410156 h 1.964844 a 5.9246771,5.9246771 0 0 1 0.628906,0.03711 3.2635754,3.2635754 0 0 1 0.699219,0.15625 2.8491114,2.8491114 0 0 1 0.675781,0.337891 2.1212977,2.1212977 0 0 1 0.580078,0.601562 c 0.168524,0.254367 0.304456,0.567121 0.408203,0.939454 0.103745,0.372333 0.15625,0.818845 0.15625,1.341796 0,0.665672 -0.09069,1.219888 -0.273437,1.660157 -0.182744,0.44027 -0.42098,0.790995 -0.714844,1.052734 a 2.6226571,2.6226571 0 0 1 -0.982422,0.558594 c -0.361801,0.111128 -0.721964,0.166015 -1.080078,0.166015 v 0.002 h -2.0625 z m 7.544922,0 h 2.728516 a 3.1356024,3.1356024 0 0 1 0.740234,0.08398 1.7658171,1.7658171 0 0 1 0.623047,0.279297 1.4198159,1.4198159 0 0 1 0.429688,0.5 c 0.107431,0.204336 0.162109,0.450364 0.162109,0.736328 0,0.308083 -0.05033,0.573207 -0.150391,0.794922 -0.10006,0.22224 -0.235993,0.403629 -0.408203,0.546875 -0.171685,0.143246 -0.377566,0.2499 -0.617187,0.31836 -0.240146,0.06794 -0.500179,0.101562 -0.779297,0.101562 h -2.728516 z"
       id="path4687"
       inkscape:connector-curvature="0" />
    <path
       d="M 0.39079204,26.139457 V 18.85896 H 8.8176049 v -8.505162 h 7.2202281 v 8.49793 l 8.428018,0.0048 v 7.280494 h -8.428018 v 8.49552 H 8.8176049 v -8.49673 l -8.42681286,0.0024 z M 45.803492,12.11968 c -5.61225,0 -10.161356,4.586472 -10.161356,10.245731 0,5.65685 4.549106,10.244527 10.161356,10.244527 1.288048,0.0018 2.564421,-0.244164 3.75958,-0.724433 -2.178061,1.822603 -4.928636,2.819553 -7.768675,2.815768 -6.73446,0 -12.196037,-5.501355 -12.196037,-12.292468 0,-6.791111 5.461577,-12.293672 12.196037,-12.293672 2.856752,0 5.48207,0.988412 7.562556,2.64822 -1.136184,-0.426347 -2.339917,-0.644391 -3.553461,-0.643673 z"
       id="path4689"
       inkscape:connector-curvature="0"
       style="fill:#f5333f;fill-opacity:0.94117647;stroke-width:1.2053802"
       sodipodi:nodetypes="cccccccccccccccscccsscc" />
  </g>
</svg>
