<svg xmlns="http://www.w3.org/2000/svg" width="26" height="18"><path d="M25.457 3.902s-.251-1.772-1.022-2.553C23.457.325 22.361.32 21.86.261 18.26 0 12.862 0 12.862 0h-.01S7.453 0 3.854.26C3.353.32 2.257.326 1.28 1.35.509 2.13.257 3.901.257 3.901S0 5.982 0 8.063v1.865c0 2.081.257 4.162.257 4.162s.251 1.772 1.022 2.552c.978 1.025 2.263.992 2.835 1.1 2.057.197 8.743.258 8.743.258s5.404-.009 9.002-.268c.502-.06 1.598-.065 2.576-1.09.771-.78 1.022-2.552 1.022-2.552s.257-2.08.257-4.162V8.063c0-2.08-.257-4.161-.257-4.161zm-15.254 8.476L10.2 5.153l6.95 3.627-6.947 3.599z" fill="#000" fill-rule="evenodd"/></svg>