<?xml version="1.0" encoding="UTF-8"?>
<svg xmlns="http://www.w3.org/2000/svg" viewBox="0 0 48 48"><g fill="#418fde" data-name="Layer 2"><path d="M45.5 43H35V19.954A4.038 4.038 0 0 1 39.046 16 3.958 3.958 0 0 1 43 19.954c0 .016.004.03.005.046H43v.688a3.491 3.491 0 0 0-2 3.15c0 1.75 2.867 5.435 3.412 6.119a.112.112 0 0 0 .177 0c.544-.684 3.411-4.369 3.411-6.118a3.491 3.491 0 0 0-2-3.15V20h-.005c0-.016.005-.03.005-.046A6.962 6.962 0 0 0 39.046 13 7.04 7.04 0 0 0 32 19.954V25h-2.5a4.066 4.066 0 0 0-.5.03A5.534 5.534 0 0 0 24.03 30a4.066 4.066 0 0 0-.03.5v1.188a3.491 3.491 0 0 0-2 3.15c0 1.75 2.867 5.435 3.412 6.119a.112.112 0 0 0 .177 0c.544-.684 3.411-4.369 3.411-6.118a3.491 3.491 0 0 0-2-3.15V30.5a2.5 2.5 0 0 1 2.5-2.5H32v15H2.5a2.5 2.5 0 0 0 0 5h43a2.5 2.5 0 0 0 0-5zM12.5 6A1.5 1.5 0 0 0 14 4.5v-3a1.5 1.5 0 0 0-3 0v3A1.5 1.5 0 0 0 12.5 6zM11 20.5v3a1.5 1.5 0 0 0 3 0v-3a1.5 1.5 0 0 0-3 0zM19.218 7.904l2.12-2.122a1.5 1.5 0 1 0-2.12-2.12l-2.122 2.12a1.5 1.5 0 0 0 2.122 2.122zM5.782 17.096l-2.12 2.122a1.5 1.5 0 0 0 2.12 2.12l2.122-2.12a1.5 1.5 0 0 0-2.122-2.122zM19 12.5a1.5 1.5 0 0 0 1.5 1.5h3a1.5 1.5 0 0 0 0-3h-3a1.5 1.5 0 0 0-1.5 1.5zM1.5 14h3a1.5 1.5 0 0 0 0-3h-3a1.5 1.5 0 0 0 0 3zM17.096 17.096a1.5 1.5 0 0 0 0 2.122l2.122 2.12a1.5 1.5 0 0 0 2.12-2.12l-2.12-2.122a1.5 1.5 0 0 0-2.122 0zM5.782 7.904a1.5 1.5 0 0 0 2.122-2.122l-2.122-2.12a1.5 1.5 0 0 0-2.12 2.12z" style="fill: #ffffff;"/><circle cx="12.5" cy="12.5" r="4.5" style="fill: #ffffff;"/></g></svg>
