<?xml version="1.0" encoding="UTF-8"?>
<svg xmlns="http://www.w3.org/2000/svg" xmlns:xlink="http://www.w3.org/1999/xlink" width="425.2pt" height="85.2pt" viewBox="0 0 425.2 85.2" version="1.1">
<defs>
<clipPath id="clip1">
  <path d="M 0 0 L 86 0 L 86 85.199219 L 0 85.199219 Z M 0 0 "/>
</clipPath>
<clipPath id="clip2">
  <path d="M 99 20 L 425.199219 20 L 425.199219 69 L 99 69 Z M 99 20 "/>
</clipPath>
</defs>
<g id="surface1">
<g clip-path="url(#clip1)" clip-rule="nonzero">
<path style=" stroke:none;fill-rule:evenodd;fill:rgb(89.0625%,0%,8.616638%);fill-opacity:1;" d="M 26.898438 -0.078125 L 58.472656 -0.078125 L 58.472656 26.761719 L 85.308594 26.761719 L 85.308594 58.335938 L 58.472656 58.335938 L 58.472656 85.171875 L 26.898438 85.171875 L 26.898438 58.335938 L 0.0625 58.335938 L 0.0625 26.761719 L 26.898438 26.761719 Z M 26.898438 -0.078125 "/>
</g>
<g clip-path="url(#clip2)" clip-rule="nonzero">
<path style=" stroke:none;fill-rule:evenodd;fill:rgb(10.594177%,9.812927%,9.423828%);fill-opacity:1;" d="M 120.019531 33.414063 C 119.105469 31.054688 118.097656 29.320313 116.992188 28.21875 C 115.890625 27.121094 114.601563 26.574219 113.128906 26.574219 C 111.035156 26.574219 109.382813 27.664063 108.171875 29.851563 C 106.960938 32.035156 106.355469 35.011719 106.355469 38.796875 C 106.355469 42.613281 106.964844 45.605469 108.183594 47.78125 C 109.402344 49.957031 111.070313 51.039063 113.195313 51.039063 C 114.933594 51.039063 116.425781 50.28125 117.664063 48.753906 C 118.898438 47.226563 119.835938 44.996094 120.472656 42.066406 L 124.859375 45.09375 C 123.894531 49.085938 122.386719 52.140625 120.324219 54.242188 C 118.269531 56.339844 115.75 57.386719 112.777344 57.386719 C 110.910156 57.386719 109.195313 56.953125 107.636719 56.074219 C 106.074219 55.203125 104.683594 53.914063 103.464844 52.21875 C 102.273438 50.476563 101.363281 48.492188 100.734375 46.238281 C 100.109375 43.996094 99.792969 41.5625 99.792969 38.945313 C 99.792969 36.230469 100.097656 33.746094 100.707031 31.496094 C 101.316406 29.246094 102.210938 27.28125 103.394531 25.601563 C 104.582031 23.914063 105.925781 22.648438 107.433594 21.792969 C 108.945313 20.953125 110.578125 20.527344 112.34375 20.527344 C 113.976563 20.527344 115.433594 20.890625 116.707031 21.621094 C 117.976563 22.359375 119.082031 23.460938 120.019531 24.921875 L 120.019531 21.148438 L 123.695313 21.148438 L 123.695313 33.414063 Z M 128.671875 36.789063 L 126.355469 36.789063 L 126.355469 31.367188 L 133.480469 31.367188 L 133.480469 37.367188 C 134.015625 35.089844 134.804688 33.414063 135.863281 32.359375 C 136.921875 31.296875 138.300781 30.769531 140.003906 30.769531 L 140.003906 38.59375 C 137.90625 38.679688 136.375 39.34375 135.40625 40.609375 C 134.4375 41.863281 133.949219 43.832031 133.949219 46.519531 L 133.949219 51.09375 L 136.703125 51.09375 L 136.703125 56.664063 L 126.355469 56.664063 L 126.355469 51.09375 L 128.671875 51.09375 Z M 159.566406 31.367188 L 159.566406 51.238281 L 161.882813 51.238281 L 161.882813 56.664063 L 154.289063 56.664063 L 154.289063 54.863281 C 153.328125 55.746094 152.4375 56.390625 151.617188 56.789063 C 150.800781 57.191406 149.96875 57.386719 149.121094 57.386719 C 147.570313 57.386719 146.375 56.664063 145.554688 55.210938 C 144.730469 53.761719 144.320313 51.667969 144.320313 48.933594 L 144.320313 36.964844 L 141.847656 36.964844 L 141.847656 31.367188 L 149.660156 31.367188 L 149.660156 46.414063 C 149.660156 48.328125 149.796875 49.617188 150.070313 50.265625 C 150.34375 50.914063 150.832031 51.238281 151.539063 51.238281 C 151.980469 51.238281 152.4375 51.09375 152.90625 50.796875 C 153.375 50.511719 153.828125 50.085938 154.253906 49.539063 L 154.253906 36.964844 L 151.574219 36.964844 L 151.574219 31.367188 Z M 162.863281 56.664063 L 162.863281 51.535156 L 172.769531 36.445313 L 167.183594 36.445313 L 167.183594 40.070313 L 163.613281 40.070313 L 163.613281 31.367188 L 178.753906 31.367188 L 178.753906 36.789063 L 169.0625 51.535156 L 175.34375 51.535156 L 175.34375 47.613281 L 178.863281 47.613281 L 178.863281 56.664063 Z M 198.136719 50.886719 L 200.78125 50.886719 L 200.78125 56.664063 L 189.488281 56.664063 L 189.488281 50.886719 L 192.113281 50.886719 L 192.113281 26.664063 L 189.488281 26.664063 L 189.488281 21.148438 L 201.179688 21.148438 C 204.515625 21.148438 206.921875 21.933594 208.402344 23.496094 C 209.878906 25.0625 210.617188 27.605469 210.617188 31.121094 C 210.617188 33.398438 210.261719 35.257813 209.546875 36.691406 C 208.835938 38.121094 207.789063 39.082031 206.421875 39.566406 L 210.410156 50.886719 L 213.226563 50.886719 L 213.226563 56.664063 L 206.304688 56.664063 L 200.710938 40.992188 L 198.136719 40.992188 Z M 198.136719 26.664063 L 198.136719 35.371094 L 199.753906 35.371094 C 201.394531 35.371094 202.554688 35.027344 203.25 34.355469 C 203.9375 33.679688 204.28125 32.570313 204.28125 31.019531 C 204.28125 29.464844 203.933594 28.355469 203.230469 27.683594 C 202.53125 27.007813 201.371094 26.664063 199.753906 26.664063 Z M 223.101563 51.1875 C 224.320313 51.1875 225.277344 50.542969 225.972656 49.273438 C 226.667969 48.003906 227.019531 46.246094 227.019531 44.019531 C 227.019531 41.820313 226.667969 40.097656 225.972656 38.851563 C 225.277344 37.597656 224.320313 36.972656 223.101563 36.972656 C 221.890625 36.972656 220.9375 37.597656 220.230469 38.851563 C 219.53125 40.097656 219.179688 41.820313 219.179688 44.019531 C 219.179688 46.230469 219.53125 47.980469 220.230469 49.265625 C 220.9375 50.542969 221.890625 51.1875 223.101563 51.1875 Z M 232.429688 44.070313 C 232.429688 48.042969 231.570313 51.261719 229.847656 53.710938 C 228.125 56.160156 225.871094 57.386719 223.101563 57.386719 C 220.304688 57.386719 218.058594 56.171875 216.363281 53.753906 C 214.671875 51.332031 213.820313 48.097656 213.820313 44.070313 C 213.820313 40.070313 214.671875 36.855469 216.363281 34.417969 C 218.058594 31.992188 220.304688 30.769531 223.101563 30.769531 C 225.894531 30.769531 228.152344 31.992188 229.863281 34.417969 C 231.574219 36.855469 232.429688 40.070313 232.429688 44.070313 Z M 236.085938 36.789063 L 233.785156 36.789063 L 233.785156 31.367188 L 241.363281 31.367188 L 241.363281 58.074219 C 241.363281 61.488281 240.800781 64.007813 239.675781 65.621094 C 238.550781 67.238281 236.804688 68.042969 234.433594 68.042969 C 234.105469 68.042969 233.761719 68.019531 233.398438 67.96875 C 233.03125 67.914063 232.652344 67.851563 232.257813 67.746094 L 232.257813 61.871094 C 232.378906 61.871094 232.527344 61.878906 232.710938 61.898438 C 232.894531 61.914063 233.039063 61.917969 233.125 61.917969 C 234.269531 61.917969 235.039063 61.613281 235.460938 60.992188 C 235.878906 60.378906 236.085938 59.132813 236.085938 57.246094 Z M 235.585938 24.714844 C 235.585938 23.554688 235.867188 22.554688 236.425781 21.746094 C 236.976563 20.921875 237.660156 20.515625 238.476563 20.515625 C 239.277344 20.515625 239.972656 20.921875 240.554688 21.753906 C 241.144531 22.582031 241.433594 23.570313 241.433594 24.714844 C 241.433594 25.847656 241.144531 26.828125 240.566406 27.640625 C 239.984375 28.460938 239.289063 28.867188 238.476563 28.867188 C 237.660156 28.867188 236.976563 28.46875 236.425781 27.664063 C 235.867188 26.871094 235.585938 25.882813 235.585938 24.714844 Z M 255.273438 49.914063 L 255.273438 46.988281 C 254.773438 46.453125 254.28125 46.046875 253.792969 45.785156 C 253.308594 45.523438 252.824219 45.386719 252.351563 45.386719 C 251.558594 45.386719 250.949219 45.699219 250.503906 46.324219 C 250.0625 46.945313 249.84375 47.816406 249.84375 48.933594 C 249.84375 49.933594 250.03125 50.742188 250.40625 51.347656 C 250.789063 51.953125 251.285156 52.261719 251.917969 52.261719 C 252.433594 52.261719 252.972656 52.066406 253.527344 51.667969 C 254.074219 51.28125 254.65625 50.699219 255.273438 49.914063 Z M 255.273438 56.664063 L 255.273438 54.914063 C 254.566406 55.714844 253.78125 56.320313 252.914063 56.746094 C 252.054688 57.171875 251.148438 57.386719 250.203125 57.386719 C 248.5 57.386719 247.144531 56.667969 246.140625 55.246094 C 245.136719 53.820313 244.636719 51.886719 244.636719 49.4375 C 244.636719 46.722656 245.203125 44.558594 246.324219 42.953125 C 247.453125 41.339844 248.96875 40.539063 250.886719 40.539063 C 251.523438 40.539063 252.207031 40.660156 252.9375 40.890625 C 253.667969 41.121094 254.449219 41.460938 255.273438 41.914063 L 255.273438 40.386719 C 255.273438 38.757813 255.023438 37.554688 254.523438 36.761719 C 254.027344 35.964844 253.257813 35.574219 252.226563 35.574219 C 251.519531 35.574219 250.886719 35.761719 250.335938 36.144531 C 249.789063 36.53125 249.3125 37.101563 248.921875 37.871094 L 245.035156 36.648438 C 245.363281 34.792969 246.171875 33.355469 247.464844 32.324219 C 248.761719 31.289063 250.402344 30.769531 252.386719 30.769531 C 254.226563 30.769531 255.761719 31.085938 256.980469 31.71875 C 258.199219 32.347656 259.105469 33.3125 259.695313 34.59375 C 259.996094 35.222656 260.21875 35.976563 260.347656 36.828125 C 260.484375 37.691406 260.550781 39.039063 260.550781 40.890625 L 260.550781 51.09375 L 263.039063 51.09375 L 263.039063 56.664063 Z M 289.3125 50.886719 L 289.3125 45.039063 L 293.769531 45.039063 L 293.769531 56.664063 L 273.015625 56.664063 L 273.015625 50.886719 L 275.644531 50.886719 L 275.644531 26.664063 L 273.015625 26.664063 L 273.015625 21.148438 L 293.769531 21.148438 L 293.769531 32.144531 L 289.3125 32.144531 L 289.3125 26.664063 L 281.667969 26.664063 L 281.667969 35.371094 L 287.984375 35.371094 L 287.984375 41.222656 L 281.667969 41.222656 L 281.667969 50.886719 Z M 296.257813 56.664063 L 296.257813 47.765625 L 300.398438 47.765625 L 300.398438 47.867188 C 300.398438 49.164063 300.71875 50.1875 301.355469 50.9375 C 301.996094 51.691406 302.871094 52.066406 303.988281 52.066406 C 304.742188 52.066406 305.335938 51.835938 305.769531 51.371094 C 306.207031 50.917969 306.425781 50.308594 306.425781 49.539063 C 306.425781 48.371094 305.472656 47.496094 303.574219 46.914063 C 303.402344 46.859375 303.257813 46.828125 303.15625 46.789063 L 300.101563 45.8125 C 298.734375 45.386719 297.679688 44.546875 296.933594 43.3125 C 296.191406 42.082031 295.824219 40.539063 295.824219 38.695313 C 295.824219 36.308594 296.382813 34.398438 297.492188 32.945313 C 298.609375 31.496094 300.078125 30.769531 301.902344 30.769531 C 302.644531 30.769531 303.382813 30.914063 304.121094 31.207031 C 304.855469 31.496094 305.605469 31.949219 306.359375 32.542969 L 306.359375 31.367188 L 310.3125 31.367188 L 310.3125 38.6875 L 306.359375 38.6875 C 305.996094 37.773438 305.503906 37.085938 304.867188 36.605469 C 304.238281 36.136719 303.5 35.898438 302.652344 35.898438 C 302.035156 35.898438 301.546875 36.070313 301.191406 36.414063 C 300.828125 36.769531 300.648438 37.238281 300.648438 37.816406 C 300.648438 38.382813 300.828125 38.824219 301.179688 39.140625 C 301.535156 39.457031 302.210938 39.746094 303.210938 40.011719 L 306.097656 40.839844 C 307.851563 41.324219 309.148438 42.21875 309.980469 43.523438 C 310.816406 44.832031 311.230469 46.605469 311.230469 48.839844 C 311.230469 51.371094 310.648438 53.429688 309.480469 55.015625 C 308.316406 56.59375 306.800781 57.386719 304.925781 57.386719 C 304.171875 57.386719 303.425781 57.242188 302.667969 56.960938 C 301.921875 56.679688 301.167969 56.253906 300.398438 55.691406 L 300.398438 56.664063 Z M 324.078125 51.636719 C 325.25 51.636719 326.171875 50.980469 326.84375 49.671875 C 327.515625 48.371094 327.851563 46.5625 327.851563 44.265625 C 327.851563 41.980469 327.515625 40.191406 326.84375 38.902344 C 326.171875 37.613281 325.25 36.964844 324.078125 36.964844 C 322.914063 36.964844 322.003906 37.613281 321.335938 38.902344 C 320.667969 40.191406 320.335938 41.980469 320.335938 44.265625 C 320.335938 46.5625 320.667969 48.371094 321.335938 49.671875 C 322.003906 50.980469 322.914063 51.636719 324.078125 51.636719 Z M 315.09375 36.789063 L 312.777344 36.789063 L 312.777344 31.367188 L 320.144531 31.367188 L 320.144531 35.265625 C 320.964844 33.953125 321.839844 32.972656 322.765625 32.332031 C 323.6875 31.691406 324.667969 31.367188 325.714844 31.367188 C 327.917969 31.367188 329.738281 32.621094 331.164063 35.128906 C 332.589844 37.640625 333.300781 40.855469 333.300781 44.789063 C 333.300781 48.558594 332.617188 51.59375 331.257813 53.914063 C 329.890625 56.226563 328.101563 57.386719 325.886719 57.386719 C 324.75 57.386719 323.722656 57.042969 322.808594 56.371094 C 321.894531 55.699219 321.078125 54.691406 320.371094 53.335938 L 320.371094 61.828125 L 322.933594 61.828125 L 322.933594 67.398438 L 312.777344 67.398438 L 312.777344 61.828125 L 315.09375 61.828125 Z M 345.90625 49.914063 L 345.90625 46.988281 C 345.40625 46.453125 344.914063 46.046875 344.425781 45.785156 C 343.9375 45.523438 343.457031 45.386719 342.980469 45.386719 C 342.191406 45.386719 341.578125 45.699219 341.132813 46.324219 C 340.695313 46.945313 340.472656 47.816406 340.472656 48.933594 C 340.472656 49.933594 340.664063 50.742188 341.039063 51.347656 C 341.417969 51.953125 341.917969 52.261719 342.546875 52.261719 C 343.066406 52.261719 343.605469 52.066406 344.160156 51.667969 C 344.707031 51.28125 345.289063 50.699219 345.90625 49.914063 Z M 345.90625 56.664063 L 345.90625 54.914063 C 345.199219 55.714844 344.414063 56.320313 343.546875 56.746094 C 342.683594 57.171875 341.78125 57.386719 340.835938 57.386719 C 339.132813 57.386719 337.777344 56.667969 336.773438 55.246094 C 335.769531 53.820313 335.269531 51.886719 335.269531 49.4375 C 335.269531 46.722656 335.832031 44.558594 336.957031 42.953125 C 338.085938 41.339844 339.601563 40.539063 341.519531 40.539063 C 342.15625 40.539063 342.839844 40.660156 343.570313 40.890625 C 344.300781 41.121094 345.078125 41.460938 345.90625 41.914063 L 345.90625 40.386719 C 345.90625 38.757813 345.65625 37.554688 345.15625 36.761719 C 344.65625 35.964844 343.890625 35.574219 342.855469 35.574219 C 342.148438 35.574219 341.519531 35.761719 340.96875 36.144531 C 340.421875 36.53125 339.945313 37.101563 339.554688 37.871094 L 335.667969 36.648438 C 335.992188 34.792969 336.800781 33.355469 338.097656 32.324219 C 339.394531 31.289063 341.03125 30.769531 343.019531 30.769531 C 344.859375 30.769531 346.394531 31.085938 347.609375 31.71875 C 348.828125 32.347656 349.738281 33.3125 350.328125 34.59375 C 350.628906 35.222656 350.851563 35.976563 350.980469 36.828125 C 351.117188 37.691406 351.183594 39.039063 351.183594 40.890625 L 351.183594 51.09375 L 353.671875 51.09375 L 353.671875 56.664063 Z M 354.378906 56.664063 L 354.378906 51.09375 L 356.695313 51.09375 L 356.695313 36.84375 L 354.378906 36.84375 L 354.378906 31.367188 L 361.972656 31.367188 L 361.972656 33.894531 C 362.9375 33.007813 363.828125 32.367188 364.648438 31.964844 C 365.460938 31.566406 366.292969 31.367188 367.144531 31.367188 C 368.695313 31.367188 369.886719 32.085938 370.707031 33.527344 C 371.535156 34.96875 371.945313 37.046875 371.945313 39.773438 L 371.945313 51.09375 L 374.453125 51.09375 L 374.453125 56.664063 L 366.632813 56.664063 L 366.632813 41.664063 C 366.632813 40.167969 366.484375 39.105469 366.1875 38.464844 C 365.894531 37.835938 365.402344 37.519531 364.71875 37.519531 C 364.253906 37.519531 363.792969 37.664063 363.328125 37.945313 C 362.863281 38.226563 362.425781 38.636719 362.007813 39.164063 L 362.007813 51.09375 L 364.6875 51.09375 L 364.6875 56.664063 Z M 369.453125 21.984375 C 369.152344 24.046875 368.703125 25.585938 368.113281 26.574219 C 367.523438 27.5625 366.761719 28.058594 365.835938 28.058594 C 364.792969 28.058594 363.945313 27.53125 362.996094 27.136719 C 362.3125 26.855469 361.445313 26.664063 360.910156 27.351563 C 360.667969 27.660156 360.476563 28.152344 360.332031 28.835938 L 358.421875 28.835938 C 358.699219 26.824219 359.128906 25.332031 359.710938 24.371094 C 360.289063 23.417969 361.042969 22.902344 361.972656 22.933594 C 362.769531 22.957031 364.054688 23.6875 365.160156 23.964844 C 365.917969 24.152344 366.597656 24.144531 366.976563 23.597656 C 367.226563 23.238281 367.410156 22.703125 367.542969 21.984375 Z M 384.871094 51.1875 C 386.085938 51.1875 387.042969 50.542969 387.738281 49.273438 C 388.433594 48.003906 388.785156 46.246094 388.785156 44.019531 C 388.785156 41.820313 388.433594 40.097656 387.738281 38.851563 C 387.042969 37.597656 386.085938 36.972656 384.871094 36.972656 C 383.65625 36.972656 382.707031 37.597656 382 38.851563 C 381.296875 40.097656 380.949219 41.820313 380.949219 44.019531 C 380.949219 46.230469 381.296875 47.980469 382 49.265625 C 382.707031 50.542969 383.65625 51.1875 384.871094 51.1875 Z M 394.199219 44.070313 C 394.199219 48.042969 393.335938 51.261719 391.613281 53.710938 C 389.890625 56.160156 387.636719 57.386719 384.871094 57.386719 C 382.070313 57.386719 379.824219 56.171875 378.128906 53.753906 C 376.4375 51.332031 375.585938 48.097656 375.585938 44.070313 C 375.585938 40.070313 376.4375 36.855469 378.128906 34.417969 C 379.824219 31.992188 382.070313 30.769531 384.871094 30.769531 C 387.664063 30.769531 389.921875 31.992188 391.632813 34.417969 C 393.34375 36.855469 394.199219 40.070313 394.199219 44.070313 Z M 397.925781 26.574219 L 395.644531 26.574219 L 395.644531 21.148438 L 403.238281 21.148438 L 403.238281 51.09375 L 405.691406 51.09375 L 405.691406 56.664063 L 395.644531 56.664063 L 395.644531 51.09375 L 397.925781 51.09375 Z M 417.492188 49.914063 L 417.492188 46.988281 C 416.992188 46.453125 416.5 46.046875 416.011719 45.785156 C 415.527344 45.523438 415.042969 45.386719 414.570313 45.386719 C 413.777344 45.386719 413.167969 45.699219 412.722656 46.324219 C 412.28125 46.945313 412.0625 47.816406 412.0625 48.933594 C 412.0625 49.933594 412.25 50.742188 412.625 51.347656 C 413.007813 51.953125 413.503906 52.261719 414.136719 52.261719 C 414.652344 52.261719 415.191406 52.066406 415.746094 51.667969 C 416.292969 51.28125 416.875 50.699219 417.492188 49.914063 Z M 417.492188 56.664063 L 417.492188 54.914063 C 416.785156 55.714844 416 56.320313 415.132813 56.746094 C 414.273438 57.171875 413.367188 57.386719 412.421875 57.386719 C 410.71875 57.386719 409.363281 56.667969 408.359375 55.246094 C 407.355469 53.820313 406.855469 51.886719 406.855469 49.4375 C 406.855469 46.722656 407.421875 44.558594 408.542969 42.953125 C 409.671875 41.339844 411.1875 40.539063 413.105469 40.539063 C 413.742188 40.539063 414.425781 40.660156 415.15625 40.890625 C 415.886719 41.121094 416.667969 41.460938 417.492188 41.914063 L 417.492188 40.386719 C 417.492188 38.757813 417.242188 37.554688 416.742188 36.761719 C 416.246094 35.964844 415.476563 35.574219 414.445313 35.574219 C 413.738281 35.574219 413.105469 35.761719 412.554688 36.144531 C 412.007813 36.53125 411.53125 37.101563 411.140625 37.871094 L 407.253906 36.648438 C 407.582031 34.792969 408.390625 33.355469 409.683594 32.324219 C 410.980469 31.289063 412.621094 30.769531 414.605469 30.769531 C 416.445313 30.769531 417.980469 31.085938 419.199219 31.71875 C 420.414063 32.347656 421.324219 33.3125 421.914063 34.59375 C 422.214844 35.222656 422.4375 35.976563 422.566406 36.828125 C 422.703125 37.691406 422.769531 39.039063 422.769531 40.890625 L 422.769531 51.09375 L 425.257813 51.09375 L 425.257813 56.664063 Z M 417.492188 56.664063 "/>
</g>
</g>
</svg>
