<svg xmlns="http://www.w3.org/2000/svg" width="40" height="25" viewBox="0 0 40 25">
    <path fill="#000" fill-rule="evenodd" d="M39.167 0c.458 0 .833.375.833.833v15.834a.836.836 0 0 1-.833.833H37.5V8.333c0-1.375-1.125-2.5-2.5-2.5h-8.35a5.43 5.43 0 0 0-4.567-2.5c-1.916 0-3.6 1-4.566 2.5H4.167v-5C4.167.375 4.542 0 5 0h34.167zm-8.334 18.75a2.497 2.497 0 0 0 2.5-2.5c0-1.383-1.116-2.5-2.5-2.5a2.497 2.497 0 0 0-2.5 2.5 2.497 2.497 0 0 0 2.5 2.5zm-12.916 2.917a5.408 5.408 0 0 0 5.266-4.167 5.405 5.405 0 0 0-5.267-6.667 4.35 4.35 0 0 0-.808.067 5.406 5.406 0 0 0-4.608 5.35c0 .433.05.85.15 1.25a5.408 5.408 0 0 0 5.267 4.167zM5 19.167A2.472 2.472 0 0 0 7.35 17.5c.1-.258.15-.542.15-.833 0-1.384-1.117-2.5-2.5-2.5-.292 0-.574.05-.833.15a2.473 2.473 0 0 0-1.667 2.35c0 1.383 1.117 2.5 2.5 2.5zM35 7.5c.458 0 .833.375.833.833v15.834A.836.836 0 0 1 35 25H.833A.836.836 0 0 1 0 24.167V8.333C0 7.875.375 7.5.833 7.5H35z"/>
</svg>
