<?xml version="1.0" encoding="UTF-8"?>
<svg xmlns="http://www.w3.org/2000/svg" viewBox="0 0 48.019 47.996"><path fill="#418fde" d="M47.628 24.278l-.04-.07a2.972 2.972 0 0 0-4.04-1.09l-4.64 2.68a14.824 14.824 0 0 0-1.78-9.08 1.518 1.518 0 0 0-.09-.18l-.03-.04-8.67-15.02a2.957 2.957 0 0 0-4.04-1.08l-.08.04a2.975 2.975 0 0 0-1.08 4.04l2.67 4.63a14.89 14.89 0 0 0-9.25 1.88l-.11.06-14.97 8.65a2.957 2.957 0 0 0-1.08 4.04l.04.07a2.957 2.957 0 0 0 4.04 1.08l4.65-2.68a14.919 14.919 0 0 0 1.85 9.19.212.212 0 0 0 .03.07l.02.03 8.67 15.02a2.96 2.96 0 0 0 4.04 1.08l.08-.04a2.966 2.966 0 0 0 1.08-4.04l-2.67-4.63a14.742 14.742 0 0 0 8.91-1.7 2.904 2.904 0 0 0 .35-.18l.03-.02 15.03-8.67a2.975 2.975 0 0 0 1.08-4.04zm-31.4 4.22c-.01-.01-.01-.02-.02-.03a8.996 8.996 0 0 1 3.24-12.22c.02-.01.05-.03.07-.04s.03-.02.05-.03a9.003 9.003 0 0 1 12.21 3.25c.01.02.03.05.04.07s.02.03.03.05a9.012 9.012 0 0 1-3.33 12.25c-.01.01-.02.01-.03.02a9 9 0 0 1-12.26-3.32z" data-name="Layer 2" style="fill: #555F1E;"/></svg>
