<?xml version="1.0" encoding="UTF-8"?>
<svg xmlns="http://www.w3.org/2000/svg" viewBox="0 0 48 48"><g fill="#418fde" data-name="Layer 2"><path d="M47.82 12L33.16.06a.243.243 0 0 0-.32 0L18.18 12a.528.528 0 0 0-.18.38v17.71a8.734 8.734 0 0 1 3.29 1.15A4.637 4.637 0 0 0 24 32a4.626 4.626 0 0 0 2.7-.76A8.644 8.644 0 0 1 31.33 30a8.603 8.603 0 0 1 4.62 1.24 5.23 5.23 0 0 0 5.43 0A8.603 8.603 0 0 1 46 30a9.43 9.43 0 0 1 2 .2V12.38a.528.528 0 0 0-.18-.38zM46 42a8.603 8.603 0 0 0-4.62 1.24 5.23 5.23 0 0 1-5.43 0A8.603 8.603 0 0 0 31.33 42a8.644 8.644 0 0 0-4.63 1.24A4.626 4.626 0 0 1 24 44a4.637 4.637 0 0 1-2.71-.76A8.673 8.673 0 0 0 16.66 42a8.603 8.603 0 0 0-4.62 1.24 4.684 4.684 0 0 1-2.71.76 4.684 4.684 0 0 1-2.71-.76A8.603 8.603 0 0 0 2 42a2 2 0 0 0 0 4 4.683 4.683 0 0 1 2.71.76A8.604 8.604 0 0 0 9.33 48a8.603 8.603 0 0 0 4.62-1.24 4.684 4.684 0 0 1 2.71-.76 4.66 4.66 0 0 1 2.71.76A8.644 8.644 0 0 0 24 48a8.632 8.632 0 0 0 4.62-1.24 5.212 5.212 0 0 1 5.42 0 9.245 9.245 0 0 0 9.25 0A4.66 4.66 0 0 1 46 46a2 2 0 0 0 0-4zM46 34a8.59 8.59 0 0 0-4.625 1.244 5.241 5.241 0 0 1-5.423 0A8.59 8.59 0 0 0 31.326 34a8.581 8.581 0 0 0-4.623 1.244 4.692 4.692 0 0 1-2.708.756 4.696 4.696 0 0 1-2.709-.756A8.59 8.59 0 0 0 16.661 34a8.588 8.588 0 0 0-4.624 1.244A4.692 4.692 0 0 1 9.33 36a4.69 4.69 0 0 1-2.706-.755A8.577 8.577 0 0 0 2 34a2 2 0 0 0 0 4 4.691 4.691 0 0 1 2.707.756A8.58 8.58 0 0 0 9.329 40a8.588 8.588 0 0 0 4.624-1.244A4.692 4.692 0 0 1 16.661 38a4.696 4.696 0 0 1 2.71.756A8.59 8.59 0 0 0 23.994 40a8.583 8.583 0 0 0 4.624-1.245 5.236 5.236 0 0 1 5.42 0 9.22 9.22 0 0 0 9.25 0A4.702 4.702 0 0 1 46 38a2 2 0 0 0 0-4z" style="fill: #00A0DC;"/></g></svg>
