<?xml version="1.0" encoding="UTF-8"?>
<svg xmlns="http://www.w3.org/2000/svg" viewBox="0 0 48 48"><g fill="#418fde" data-name="Layer 2"><path d="M47.854 47.157L29.286 29.588a1.94 1.94 0 0 0-2.476-.253 4.872 4.872 0 0 1-5.62 0 1.94 1.94 0 0 0-2.476.253L.146 47.158A.494.494 0 0 0 .495 48h47.01a.494.494 0 0 0 .35-.843zM25 24.5a1.5 1.5 0 0 0 3 0l-.002-8.05a6.146 6.146 0 0 1 5.832-6.445 4.617 4.617 0 0 1 4.842 4.38 3.394 3.394 0 0 1-3.22 3.56 2.398 2.398 0 0 1-2.533-2.292 1.5 1.5 0 0 0-2.996.15A5.424 5.424 0 0 0 35.6 20.94a6.393 6.393 0 0 0 6.067-6.705A7.615 7.615 0 0 0 33.68 7.01 9.143 9.143 0 0 0 25 16.525zM14.16 11.877a1.5 1.5 0 0 0 .148-2.996 2.468 2.468 0 0 1-2.327-2.592 3.448 3.448 0 0 1 3.605-3.285 4.717 4.717 0 0 1 4.428 5.007V24.5a1.489 1.489 0 1 0 2.978 0L22.99 8.086A7.691 7.691 0 0 0 15.735.008 6.434 6.434 0 0 0 9.007 6.14a5.462 5.462 0 0 0 5.152 5.737z" style="fill: #000000;"/></g></svg>
