<?xml version="1.0" encoding="UTF-8" standalone="no"?>
<!DOCTYPE svg PUBLIC "-//W3C//DTD SVG 1.1//EN" "http://www.w3.org/Graphics/SVG/1.1/DTD/svg11.dtd">
<svg width="100%" height="100%" viewBox="0 0 408 123" version="1.1" xmlns="http://www.w3.org/2000/svg" xmlns:xlink="http://www.w3.org/1999/xlink" xml:space="preserve" xmlns:serif="http://www.serif.com/" style="fill-rule:evenodd;clip-rule:evenodd;stroke-linejoin:round;stroke-miterlimit:1.41421;">
    <g id="Artboard1" transform="matrix(1,0,0,1,-40.81,-40.81)">
        <rect x="40.81" y="40.81" width="407.8" height="122.43" style="fill:none;"/>
        <clipPath id="_clip1">
            <rect x="40.81" y="40.81" width="407.8" height="122.43"/>
        </clipPath>
        <g clip-path="url(#_clip1)">
            <g transform="matrix(1,0,0,1,0.81,0.81)">
                <path d="M287.04,86.21C287.04,91.53 282.01,96.1 274.03,96.1C266.05,96.1 261.77,92.57 260.16,90.9L265.36,86.68C266.75,88.53 269.35,90.38 273.68,90.38C277.84,90.38 279.35,88.24 279.35,86.97C279.35,85.29 277.73,84.66 275.07,84.2L271.49,83.56C269.24,83.16 261.43,81.71 261.43,74.89C261.43,69.17 266.92,65.47 273.86,65.47C276.11,65.47 281.95,65.82 286.29,70.85L281.38,75.42C279.82,72.36 276.87,71.03 273.52,71.03C272.19,71.03 268.72,71.43 268.72,74.04C268.72,75.95 270.45,76.53 274.62,77.28L279.3,78.15C283.68,78.92 287.04,81.52 287.04,86.21ZM369.63,54.41L362.58,54.41L362.58,95.22L369.63,95.22L369.63,54.41ZM428.5,95.22L428.5,82.68C428.5,77.71 429.14,75.28 431.22,73.55C432.67,72.34 434.11,72.22 434.86,72.22C439.14,72.22 439.95,75.8 439.95,78.98L439.95,95.22L447,95.22L447,75.11C447,69.44 443.76,65.46 437.63,65.46C436.47,65.46 431.1,65.81 428.5,69.74L428.5,66.33L421.45,66.33L421.45,95.23L428.5,95.23L428.5,95.22ZM255.58,66.32L248.59,66.32L248.59,78.87C248.59,83.84 247.95,86.27 245.87,88C244.42,89.21 242.98,89.33 242.23,89.33C237.95,89.33 237.14,85.75 237.14,82.57L237.14,66.32L230.09,66.32L230.09,86.44C230.09,92.11 233.33,96.09 239.46,96.09C240.62,96.09 245.99,95.74 248.59,91.81L248.59,95.22L255.64,95.22L255.64,66.32L255.58,66.32ZM249.13,139.76L255.03,143.17C252.72,146.29 248.5,150.51 240.92,150.51C232.31,150.51 226.06,144.61 226.06,135.02C226.06,124.67 233.06,119.87 240.57,119.87C251.61,119.87 254.79,128.72 254.79,136.58L233.4,136.58C233.52,138.03 234.85,143.75 241.55,143.75C246.47,143.75 248.55,140.74 249.13,139.76ZM233.63,131.49L247.16,131.49C247.04,130.05 246.12,125.42 240.69,125.42C234.96,125.42 233.86,130.34 233.63,131.49ZM410.98,132.53L406.3,131.66C402.14,130.91 400.4,130.33 400.4,128.42C400.4,125.82 403.87,125.41 405.2,125.41C408.55,125.41 411.5,126.74 413.06,129.8L417.97,125.23C413.63,120.2 407.8,119.85 405.54,119.85C398.6,119.85 393.11,123.55 393.11,129.27C393.11,136.09 400.91,137.54 403.17,137.94L406.75,138.58C409.41,139.04 411.03,139.68 411.03,141.35C411.03,142.62 409.53,144.76 405.36,144.76C401.02,144.76 398.42,142.91 397.04,141.06L391.84,145.28C393.46,146.96 397.74,150.48 405.71,150.48C413.69,150.48 418.72,145.91 418.72,140.59C418.73,135.94 415.38,133.34 410.98,132.53ZM440.87,132.53L436.19,131.66C432.03,130.91 430.29,130.33 430.29,128.42C430.29,125.82 433.76,125.41 435.09,125.41C438.44,125.41 441.39,126.74 442.95,129.8L447.86,125.23C443.52,120.2 437.69,119.85 435.43,119.85C428.49,119.85 423,123.55 423,129.27C423,136.09 430.8,137.54 433.06,137.94L436.64,138.58C439.3,139.04 440.92,139.68 440.92,141.35C440.92,142.62 439.42,144.76 435.25,144.76C430.91,144.76 428.31,142.91 426.93,141.06L421.73,145.28C423.35,146.96 427.63,150.48 435.6,150.48C443.58,150.48 448.61,145.91 448.61,140.59C448.61,135.94 445.26,133.34 440.87,132.53ZM318.17,82.85C318.17,81.17 318.17,79.73 318.69,78.11C320.37,72.79 325.92,72.79 327.36,72.79L327.36,65.68L326.78,65.68C325.39,65.68 320.36,65.85 318.17,70.42L318.17,66.32L311.12,66.32L311.12,95.22L318.17,95.22L318.17,82.85ZM348.44,124.84L348.44,120.74L341.39,120.74L341.39,149.64L348.44,149.64L348.44,137.27C348.44,135.59 348.44,134.15 348.96,132.53C350.64,127.21 356.19,127.21 357.63,127.21L357.63,120.1L357.05,120.1C355.67,120.1 350.64,120.28 348.44,124.84ZM389.25,135.19C389.11,142.93 384.2,150.51 374.39,150.51C364.58,150.51 359.68,142.93 359.53,135.19C359.67,127.45 364.58,119.87 374.39,119.87C384.2,119.87 389.1,127.45 389.25,135.19ZM381.94,135.19C381.94,130.73 379.54,126.33 374.39,126.33C369.24,126.33 366.84,130.73 366.84,135.19C366.84,139.65 369.24,144.05 374.39,144.05C379.54,144.05 381.94,139.65 381.94,135.19ZM279.37,108.83L286.42,108.83L286.42,149.64L279.37,149.64L279.37,146.87C278.79,147.56 276.48,150.51 271.33,150.51C265.26,150.51 258.5,146.29 258.5,135.77C258.5,125.42 264.8,119.87 271.62,119.87C273.99,119.87 277.46,120.74 279.37,123.11L279.37,108.83ZM279.55,135.19C279.55,130.73 277.35,126.33 272.64,126.33C267.92,126.33 265.73,130.73 265.73,135.19C265.73,139.65 267.93,144.05 272.64,144.05C277.36,144.05 279.55,139.65 279.55,135.19ZM306.79,95.22L306.79,89.38C305.92,89.61 304.88,89.73 303.9,89.73C303.61,89.73 302.11,89.73 301.3,88.86C300.66,88.17 300.61,86.89 300.61,85.8L300.61,71.23L306.8,71.23L306.8,66.32L300.61,66.32L300.61,56.03L293.56,56.03L293.56,66.32L289.34,66.32L289.34,71.23L293.56,71.23L293.56,88.46C293.56,93.2 295.53,96.09 301.71,96.09C304.07,96.09 305.88,95.46 306.79,95.22ZM348.68,93.01C346.77,94.51 343.71,96.09 340.18,96.09C333.59,96.09 329.66,91.97 329.66,87.11C329.66,80.81 334.46,78.32 339.95,77.34C344.29,76.53 347,75.84 348.85,75.2C348.85,73 348.21,70.86 343.88,70.86C338.62,70.86 338.04,73.69 338.04,75.2L330.99,74.8C331.11,72.89 331.51,65.45 343.65,65.45C352.15,65.45 355.79,68.62 355.79,73.7L355.79,90.58C355.79,92.76 355.91,93.4 357.04,95.22L348.85,95.22L348.68,93.01ZM348.86,84.75L348.86,80.88C347.7,81.46 346.03,82.09 343.37,82.5C340.19,82.96 337.01,83.6 337.01,86.49C337.01,88.4 338.28,90.02 341.75,90.02C344.93,90.01 348.86,88.39 348.86,84.75ZM399.35,96.09C392.76,96.09 388.83,91.97 388.83,87.11C388.83,80.81 393.63,78.32 399.12,77.34C403.46,76.53 406.17,75.84 408.02,75.2C408.02,73 407.38,70.86 403.05,70.86C397.79,70.86 397.21,73.69 397.21,75.2L390.16,74.8C390.28,72.89 390.68,65.45 402.82,65.45C411.32,65.45 414.96,68.62 414.96,73.7L414.96,90.58C414.96,92.76 415.08,93.4 416.21,95.22L408.02,95.22L407.85,93.01C405.94,94.52 402.88,96.09 399.35,96.09ZM400.91,90.01C404.09,90.01 408.02,88.39 408.02,84.75L408.02,80.88C406.86,81.46 405.19,82.09 402.53,82.5C399.35,82.96 396.17,83.6 396.17,86.49C396.17,88.39 397.44,90.01 400.91,90.01ZM383.76,54.41L376.71,54.41L376.71,61.23L383.76,61.23L383.76,54.41ZM383.76,66.32L376.71,66.32L376.71,95.22L383.76,95.22L383.76,66.32ZM212.12,54.41L225.94,95.22L217.73,95.22L215.36,87.24L200.1,87.24L197.73,95.22L189.52,95.22L203.34,54.41L212.12,54.41ZM213.33,80.54L207.72,61.94L202.11,80.54L213.33,80.54ZM215.99,132.99L225.07,149.64L216.34,149.64L208.3,134.49L201.42,134.49L201.42,149.64L193.85,149.64L193.85,108.83L210.56,108.83C218.6,108.83 224.03,114.09 224.03,121.78C224.03,125.71 222.46,130.86 215.99,132.99ZM216.28,121.84C216.28,117.53 213.27,115.65 208.36,115.65L201.42,115.65L201.42,128.14L207.32,128.14C212.81,128.14 216.28,126.55 216.28,121.84ZM320.63,143.34C311.55,143.34 309.3,134.45 309.3,128.95C309.3,119.95 314.04,114.9 320.69,114.9C325.2,114.9 328.96,118 329.42,122.41L336.99,120.46C335.26,114.67 330.92,107.96 320.4,107.96C306.18,107.96 301.03,119.83 301.03,128.83C301.03,143.97 310.45,150.51 320.11,150.51C331.85,150.51 336.41,141.62 337.74,138.18L330.51,135.2C329.31,139.33 325.9,143.34 320.63,143.34Z" style="fill-rule:nonzero;"/>
                <path d="M163.24,81.62L122.44,81.62L122.44,40.81L81.62,40.81L81.62,81.62L40.81,81.62L40.81,122.43L81.62,122.43L81.62,163.24L122.44,163.24L122.44,122.43L163.24,122.43L163.24,81.62Z" style="fill:rgb(228,35,19);fill-rule:nonzero;"/>
            </g>
        </g>
    </g>
</svg>
