<svg xmlns="http://www.w3.org/2000/svg" viewBox="0 0 1280 64" fill="none"><g id="surge_table/title"><g id="Frame 1730"><g id="surge_table/title_2"><rect id="Rectangle 35" opacity="0.3" x="264" width="580" height="32" fill="#FFAB8E" /><path id="Sign up for Surge No" d="M532.339 11.27V21H530.743V14.336L527.775 21H526.669L523.687 14.336V21H522.091V11.27H523.813L527.229 18.9L530.631 11.27H532.339ZM539.575 21.098C538.669 21.098 537.834 20.888 537.069 20.468C536.313 20.0387 535.711 19.446 535.263 18.69C534.824 17.9247 534.605 17.066 534.605 16.114C534.605 15.162 534.824 14.308 535.263 13.552C535.711 12.796 536.313 12.208 537.069 11.788C537.834 11.3587 538.669 11.144 539.575 11.144C540.489 11.144 541.325 11.3587 542.081 11.788C542.846 12.208 543.448 12.796 543.887 13.552C544.325 14.308 544.545 15.162 544.545 16.114C544.545 17.066 544.325 17.9247 543.887 18.69C543.448 19.446 542.846 20.0387 542.081 20.468C541.325 20.888 540.489 21.098 539.575 21.098ZM539.575 19.712C540.219 19.712 540.793 19.5673 541.297 19.278C541.801 18.9793 542.193 18.5593 542.473 18.018C542.762 17.4673 542.907 16.8327 542.907 16.114C542.907 15.3953 542.762 14.7653 542.473 14.224C542.193 13.6827 541.801 13.2673 541.297 12.978C540.793 12.6887 540.219 12.544 539.575 12.544C538.931 12.544 538.357 12.6887 537.853 12.978C537.349 13.2673 536.952 13.6827 536.663 14.224C536.383 14.7653 536.243 15.3953 536.243 16.114C536.243 16.8327 536.383 17.4673 536.663 18.018C536.952 18.5593 537.349 18.9793 537.853 19.278C538.357 19.5673 538.931 19.712 539.575 19.712ZM554.809 21H553.213L548.411 13.734V21H546.815V11.256H548.411L553.213 18.508V11.256H554.809V21ZM563.891 11.27V12.572H561.301V21H559.705V12.572H557.101V11.27H563.891ZM573.978 11.27V21H572.382V16.744H567.804V21H566.208V11.27H567.804V15.442H572.382V11.27H573.978ZM580.695 12.25V10.794H583.607V21H581.997V12.25H580.695Z" fill="#323232" /></g><g id="surge_table/title_3"><rect id="Rectangle 35_2" opacity="0.5" x="844" width="145" height="32" fill="#FFAB8E" /><path id="Sign up for Surge No_2" d="M893.746 11.27V21H892.15V14.336L889.182 21H888.076L885.094 14.336V21H883.498V11.27H885.22L888.636 18.9L892.038 11.27H893.746ZM900.982 21.098C900.076 21.098 899.241 20.888 898.476 20.468C897.72 20.0387 897.118 19.446 896.67 18.69C896.231 17.9247 896.012 17.066 896.012 16.114C896.012 15.162 896.231 14.308 896.67 13.552C897.118 12.796 897.72 12.208 898.476 11.788C899.241 11.3587 900.076 11.144 900.982 11.144C901.896 11.144 902.732 11.3587 903.488 11.788C904.253 12.208 904.855 12.796 905.294 13.552C905.732 14.308 905.952 15.162 905.952 16.114C905.952 17.066 905.732 17.9247 905.294 18.69C904.855 19.446 904.253 20.0387 903.488 20.468C902.732 20.888 901.896 21.098 900.982 21.098ZM900.982 19.712C901.626 19.712 902.2 19.5673 902.704 19.278C903.208 18.9793 903.6 18.5593 903.88 18.018C904.169 17.4673 904.314 16.8327 904.314 16.114C904.314 15.3953 904.169 14.7653 903.88 14.224C903.6 13.6827 903.208 13.2673 902.704 12.978C902.2 12.6887 901.626 12.544 900.982 12.544C900.338 12.544 899.764 12.6887 899.26 12.978C898.756 13.2673 898.359 13.6827 898.07 14.224C897.79 14.7653 897.65 15.3953 897.65 16.114C897.65 16.8327 897.79 17.4673 898.07 18.018C898.359 18.5593 898.756 18.9793 899.26 19.278C899.764 19.5673 900.338 19.712 900.982 19.712ZM916.216 21H914.62L909.818 13.734V21H908.222V11.256H909.818L914.62 18.508V11.256H916.216V21ZM925.298 11.27V12.572H922.708V21H921.112V12.572H918.508V11.27H925.298ZM935.384 11.27V21H933.788V16.744H929.21V21H927.614V11.27H929.21V15.442H933.788V11.27H935.384ZM943.194 18.83C944.09 18.0553 944.795 17.4207 945.308 16.926C945.831 16.422 946.265 15.8993 946.61 15.358C946.956 14.8167 947.128 14.2753 947.128 13.734C947.128 13.174 946.993 12.7353 946.722 12.418C946.461 12.1007 946.046 11.942 945.476 11.942C944.926 11.942 944.496 12.1193 944.188 12.474C943.89 12.8193 943.731 13.286 943.712 13.874H942.172C942.2 12.81 942.518 11.998 943.124 11.438C943.74 10.8687 944.52 10.584 945.462 10.584C946.48 10.584 947.273 10.864 947.842 11.424C948.421 11.984 948.71 12.7307 948.71 13.664C948.71 14.336 948.538 14.9847 948.192 15.61C947.856 16.226 947.45 16.7813 946.974 17.276C946.508 17.7613 945.91 18.326 945.182 18.97L944.552 19.53H948.99V20.86H942.186V19.698L943.194 18.83Z" fill="#323232" /></g><g id="surge_table/title_4"><rect id="Rectangle 35_3" opacity="0.7" x="989" width="145" height="32" fill="#FFAB8E" /><path id="Sign up for Surge No_3" d="M1038.63 11.27V21H1037.03V14.336L1034.07 21H1032.96L1029.98 14.336V21H1028.38V11.27H1030.1L1033.52 18.9L1036.92 11.27H1038.63ZM1045.87 21.098C1044.96 21.098 1044.12 20.888 1043.36 20.468C1042.6 20.0387 1042 19.446 1041.55 18.69C1041.11 17.9247 1040.9 17.066 1040.9 16.114C1040.9 15.162 1041.11 14.308 1041.55 13.552C1042 12.796 1042.6 12.208 1043.36 11.788C1044.12 11.3587 1044.96 11.144 1045.87 11.144C1046.78 11.144 1047.62 11.3587 1048.37 11.788C1049.14 12.208 1049.74 12.796 1050.18 13.552C1050.62 14.308 1050.84 15.162 1050.84 16.114C1050.84 17.066 1050.62 17.9247 1050.18 18.69C1049.74 19.446 1049.14 20.0387 1048.37 20.468C1047.62 20.888 1046.78 21.098 1045.87 21.098ZM1045.87 19.712C1046.51 19.712 1047.08 19.5673 1047.59 19.278C1048.09 18.9793 1048.48 18.5593 1048.76 18.018C1049.05 17.4673 1049.2 16.8327 1049.2 16.114C1049.2 15.3953 1049.05 14.7653 1048.76 14.224C1048.48 13.6827 1048.09 13.2673 1047.59 12.978C1047.08 12.6887 1046.51 12.544 1045.87 12.544C1045.22 12.544 1044.65 12.6887 1044.14 12.978C1043.64 13.2673 1043.24 13.6827 1042.95 14.224C1042.67 14.7653 1042.53 15.3953 1042.53 16.114C1042.53 16.8327 1042.67 17.4673 1042.95 18.018C1043.24 18.5593 1043.64 18.9793 1044.14 19.278C1044.65 19.5673 1045.22 19.712 1045.87 19.712ZM1061.1 21H1059.5L1054.7 13.734V21H1053.11V11.256H1054.7L1059.5 18.508V11.256H1061.1V21ZM1070.18 11.27V12.572H1067.59V21H1066V12.572H1063.39V11.27H1070.18ZM1080.27 11.27V21H1078.67V16.744H1074.09V21H1072.5V11.27H1074.09V15.442H1078.67V11.27H1080.27ZM1087.17 13.314C1087.22 12.446 1087.56 11.7693 1088.16 11.284C1088.78 10.7987 1089.56 10.556 1090.51 10.556C1091.17 10.556 1091.73 10.6727 1092.21 10.906C1092.68 11.1393 1093.04 11.4567 1093.29 11.858C1093.53 12.2593 1093.65 12.712 1093.65 13.216C1093.65 13.7947 1093.5 14.2893 1093.19 14.7C1092.88 15.1107 1092.51 15.386 1092.08 15.526V15.582C1092.63 15.75 1093.06 16.058 1093.37 16.506C1093.68 16.9447 1093.83 17.5093 1093.83 18.2C1093.83 18.7507 1093.71 19.2407 1093.45 19.67C1093.2 20.0993 1092.83 20.44 1092.33 20.692C1091.84 20.9347 1091.25 21.056 1090.56 21.056C1089.55 21.056 1088.72 20.7993 1088.06 20.286C1087.42 19.7633 1087.07 19.0167 1087.03 18.046H1088.57C1088.61 18.5407 1088.8 18.9467 1089.14 19.264C1089.49 19.572 1089.95 19.726 1090.54 19.726C1091.11 19.726 1091.55 19.572 1091.86 19.264C1092.17 18.9467 1092.32 18.5407 1092.32 18.046C1092.32 17.3927 1092.11 16.9307 1091.69 16.66C1091.28 16.38 1090.64 16.24 1089.79 16.24H1089.42V14.924H1089.8C1090.56 14.9147 1091.13 14.7887 1091.52 14.546C1091.92 14.3033 1092.12 13.9207 1092.12 13.398C1092.12 12.95 1091.98 12.5953 1091.69 12.334C1091.4 12.0633 1090.99 11.928 1090.46 11.928C1089.94 11.928 1089.53 12.0633 1089.24 12.334C1088.95 12.5953 1088.78 12.922 1088.72 13.314H1087.17Z" fill="#323232" /></g><g id="surge_table/title_5"><path id="Rectangle 35_4" opacity="0.9" d="M1134 0H1272C1276.42 0 1280 3.58172 1280 8V32H1134V0Z" fill="#FFAB8E" /><path id="Sign up for Surge No_4" d="M1184.02 11.27V21H1182.42V14.336L1179.45 21H1178.35L1175.36 14.336V21H1173.77V11.27H1175.49L1178.91 18.9L1182.31 11.27H1184.02ZM1191.25 21.098C1190.35 21.098 1189.51 20.888 1188.75 20.468C1187.99 20.0387 1187.39 19.446 1186.94 18.69C1186.5 17.9247 1186.28 17.066 1186.28 16.114C1186.28 15.162 1186.5 14.308 1186.94 13.552C1187.39 12.796 1187.99 12.208 1188.75 11.788C1189.51 11.3587 1190.35 11.144 1191.25 11.144C1192.17 11.144 1193 11.3587 1193.76 11.788C1194.52 12.208 1195.12 12.796 1195.56 13.552C1196 14.308 1196.22 15.162 1196.22 16.114C1196.22 17.066 1196 17.9247 1195.56 18.69C1195.12 19.446 1194.52 20.0387 1193.76 20.468C1193 20.888 1192.17 21.098 1191.25 21.098ZM1191.25 19.712C1191.9 19.712 1192.47 19.5673 1192.97 19.278C1193.48 18.9793 1193.87 18.5593 1194.15 18.018C1194.44 17.4673 1194.58 16.8327 1194.58 16.114C1194.58 15.3953 1194.44 14.7653 1194.15 14.224C1193.87 13.6827 1193.48 13.2673 1192.97 12.978C1192.47 12.6887 1191.9 12.544 1191.25 12.544C1190.61 12.544 1190.03 12.6887 1189.53 12.978C1189.03 13.2673 1188.63 13.6827 1188.34 14.224C1188.06 14.7653 1187.92 15.3953 1187.92 16.114C1187.92 16.8327 1188.06 17.4673 1188.34 18.018C1188.63 18.5593 1189.03 18.9793 1189.53 19.278C1190.03 19.5673 1190.61 19.712 1191.25 19.712ZM1206.49 21H1204.89L1200.09 13.734V21H1198.49V11.256H1200.09L1204.89 18.508V11.256H1206.49V21ZM1215.57 11.27V12.572H1212.98V21H1211.38V12.572H1208.78V11.27H1215.57ZM1225.65 11.27V21H1224.06V16.744H1219.48V21H1217.88V11.27H1219.48V15.442H1224.06V11.27H1225.65ZM1232.39 18.872V17.668L1237.09 10.92H1239.02V17.486H1240.32V18.872H1239.02V21H1237.45V18.872H1232.39ZM1237.52 12.544L1234.22 17.486H1237.52V12.544Z" fill="#323232" /></g></g><g id="Frame 1730_2"><g id="surge_table/subtitle"><rect id="Rectangle 35_5" x="264" y="32" width="145" height="32" fill="#F7F7F7" /><path id="Sign up for Surge No_5" d="M326.62 43.242L323.792 53H322.364L320.096 45.146L317.744 53L316.33 53.014L313.6 43.242H314.958L317.086 51.516L319.438 43.242H320.866L323.106 51.488L325.248 43.242H326.62ZM335.014 48.87C335.014 49.1127 335 49.3693 334.972 49.64H328.84C328.887 50.396 329.144 50.9887 329.61 51.418C330.086 51.838 330.66 52.048 331.332 52.048C331.883 52.048 332.34 51.922 332.704 51.67C333.078 51.4087 333.339 51.0633 333.488 50.634H334.86C334.655 51.3713 334.244 51.9733 333.628 52.44C333.012 52.8973 332.247 53.126 331.332 53.126C330.604 53.126 329.951 52.9627 329.372 52.636C328.803 52.3093 328.355 51.8473 328.028 51.25C327.702 50.6433 327.538 49.9433 327.538 49.15C327.538 48.3567 327.697 47.6613 328.014 47.064C328.332 46.4667 328.775 46.0093 329.344 45.692C329.923 45.3653 330.586 45.202 331.332 45.202C332.06 45.202 332.704 45.3607 333.264 45.678C333.824 45.9953 334.254 46.434 334.552 46.994C334.86 47.5447 335.014 48.17 335.014 48.87ZM333.698 48.604C333.698 48.1187 333.591 47.7033 333.376 47.358C333.162 47.0033 332.868 46.7373 332.494 46.56C332.13 46.3733 331.724 46.28 331.276 46.28C330.632 46.28 330.082 46.4853 329.624 46.896C329.176 47.3067 328.92 47.876 328.854 48.604H333.698ZM343.696 48.87C343.696 49.1127 343.682 49.3693 343.654 49.64H337.522C337.569 50.396 337.825 50.9887 338.292 51.418C338.768 51.838 339.342 52.048 340.014 52.048C340.565 52.048 341.022 51.922 341.386 51.67C341.759 51.4087 342.021 51.0633 342.17 50.634H343.542C343.337 51.3713 342.926 51.9733 342.31 52.44C341.694 52.8973 340.929 53.126 340.014 53.126C339.286 53.126 338.633 52.9627 338.054 52.636C337.485 52.3093 337.037 51.8473 336.71 51.25C336.383 50.6433 336.22 49.9433 336.22 49.15C336.22 48.3567 336.379 47.6613 336.696 47.064C337.013 46.4667 337.457 46.0093 338.026 45.692C338.605 45.3653 339.267 45.202 340.014 45.202C340.742 45.202 341.386 45.3607 341.946 45.678C342.506 45.9953 342.935 46.434 343.234 46.994C343.542 47.5447 343.696 48.17 343.696 48.87ZM342.38 48.604C342.38 48.1187 342.273 47.7033 342.058 47.358C341.843 47.0033 341.549 46.7373 341.176 46.56C340.812 46.3733 340.406 46.28 339.958 46.28C339.314 46.28 338.763 46.4853 338.306 46.896C337.858 47.3067 337.601 47.876 337.536 48.604H342.38ZM349.662 53L346.652 49.612V53H345.378V42.64H346.652V48.73L349.606 45.328H351.384L347.772 49.15L351.398 53H349.662ZM355.769 44.04V42.878H358.401V53H357.113V44.04H355.769Z" fill="#323232" /></g><g id="surge_table/subtitle_2"><rect id="Rectangle 35_6" x="409" y="32" width="145" height="32" fill="#F7F7F7" /><path id="Sign up for Surge No_6" d="M469.836 43.242L467.008 53H465.58L463.312 45.146L460.96 53L459.546 53.014L456.816 43.242H458.174L460.302 51.516L462.654 43.242H464.082L466.322 51.488L468.464 43.242H469.836ZM478.23 48.87C478.23 49.1127 478.216 49.3693 478.188 49.64H472.056C472.103 50.396 472.36 50.9887 472.826 51.418C473.302 51.838 473.876 52.048 474.548 52.048C475.099 52.048 475.556 51.922 475.92 51.67C476.294 51.4087 476.555 51.0633 476.704 50.634H478.076C477.871 51.3713 477.46 51.9733 476.844 52.44C476.228 52.8973 475.463 53.126 474.548 53.126C473.82 53.126 473.167 52.9627 472.588 52.636C472.019 52.3093 471.571 51.8473 471.244 51.25C470.918 50.6433 470.754 49.9433 470.754 49.15C470.754 48.3567 470.913 47.6613 471.23 47.064C471.548 46.4667 471.991 46.0093 472.56 45.692C473.139 45.3653 473.802 45.202 474.548 45.202C475.276 45.202 475.92 45.3607 476.48 45.678C477.04 45.9953 477.47 46.434 477.768 46.994C478.076 47.5447 478.23 48.17 478.23 48.87ZM476.914 48.604C476.914 48.1187 476.807 47.7033 476.592 47.358C476.378 47.0033 476.084 46.7373 475.71 46.56C475.346 46.3733 474.94 46.28 474.492 46.28C473.848 46.28 473.298 46.4853 472.84 46.896C472.392 47.3067 472.136 47.876 472.07 48.604H476.914ZM486.912 48.87C486.912 49.1127 486.898 49.3693 486.87 49.64H480.738C480.785 50.396 481.041 50.9887 481.508 51.418C481.984 51.838 482.558 52.048 483.23 52.048C483.781 52.048 484.238 51.922 484.602 51.67C484.975 51.4087 485.237 51.0633 485.386 50.634H486.758C486.553 51.3713 486.142 51.9733 485.526 52.44C484.91 52.8973 484.145 53.126 483.23 53.126C482.502 53.126 481.849 52.9627 481.27 52.636C480.701 52.3093 480.253 51.8473 479.926 51.25C479.599 50.6433 479.436 49.9433 479.436 49.15C479.436 48.3567 479.595 47.6613 479.912 47.064C480.229 46.4667 480.673 46.0093 481.242 45.692C481.821 45.3653 482.483 45.202 483.23 45.202C483.958 45.202 484.602 45.3607 485.162 45.678C485.722 45.9953 486.151 46.434 486.45 46.994C486.758 47.5447 486.912 48.17 486.912 48.87ZM485.596 48.604C485.596 48.1187 485.489 47.7033 485.274 47.358C485.059 47.0033 484.765 46.7373 484.392 46.56C484.028 46.3733 483.622 46.28 483.174 46.28C482.53 46.28 481.979 46.4853 481.522 46.896C481.074 47.3067 480.817 47.876 480.752 48.604H485.596ZM492.878 53L489.868 49.612V53H488.594V42.64H489.868V48.73L492.822 45.328H494.6L490.988 49.15L494.614 53H492.878ZM499.167 51.978C500.352 51.026 501.281 50.2467 501.953 49.64C502.625 49.024 503.19 48.3847 503.647 47.722C504.114 47.05 504.347 46.392 504.347 45.748C504.347 45.1413 504.198 44.6653 503.899 44.32C503.61 43.9653 503.138 43.788 502.485 43.788C501.85 43.788 501.356 43.9887 501.001 44.39C500.656 44.782 500.469 45.3093 500.441 45.972H499.209C499.246 44.9267 499.564 44.1193 500.161 43.55C500.758 42.9807 501.528 42.696 502.471 42.696C503.432 42.696 504.193 42.962 504.753 43.494C505.322 44.026 505.607 44.7587 505.607 45.692C505.607 46.4667 505.374 47.2227 504.907 47.96C504.45 48.688 503.927 49.332 503.339 49.892C502.751 50.4427 502 51.0867 501.085 51.824H505.901V52.888H499.167V51.978Z" fill="#323232" /></g><g id="surge_table/subtitle_3"><rect id="Rectangle 35_7" x="554" y="32" width="145" height="32" fill="#F7F7F7" /><path id="Sign up for Surge No_7" d="M614.74 43.242L611.912 53H610.484L608.216 45.146L605.864 53L604.45 53.014L601.72 43.242H603.078L605.206 51.516L607.558 43.242H608.986L611.226 51.488L613.368 43.242H614.74ZM623.135 48.87C623.135 49.1127 623.121 49.3693 623.093 49.64H616.961C617.007 50.396 617.264 50.9887 617.731 51.418C618.207 51.838 618.781 52.048 619.453 52.048C620.003 52.048 620.461 51.922 620.825 51.67C621.198 51.4087 621.459 51.0633 621.609 50.634H622.981C622.775 51.3713 622.365 51.9733 621.749 52.44C621.133 52.8973 620.367 53.126 619.453 53.126C618.725 53.126 618.071 52.9627 617.493 52.636C616.923 52.3093 616.475 51.8473 616.149 51.25C615.822 50.6433 615.659 49.9433 615.659 49.15C615.659 48.3567 615.817 47.6613 616.135 47.064C616.452 46.4667 616.895 46.0093 617.465 45.692C618.043 45.3653 618.706 45.202 619.453 45.202C620.181 45.202 620.825 45.3607 621.385 45.678C621.945 45.9953 622.374 46.434 622.673 46.994C622.981 47.5447 623.135 48.17 623.135 48.87ZM621.819 48.604C621.819 48.1187 621.711 47.7033 621.497 47.358C621.282 47.0033 620.988 46.7373 620.615 46.56C620.251 46.3733 619.845 46.28 619.397 46.28C618.753 46.28 618.202 46.4853 617.745 46.896C617.297 47.3067 617.04 47.876 616.975 48.604H621.819ZM631.816 48.87C631.816 49.1127 631.802 49.3693 631.774 49.64H625.642C625.689 50.396 625.945 50.9887 626.412 51.418C626.888 51.838 627.462 52.048 628.134 52.048C628.685 52.048 629.142 51.922 629.506 51.67C629.879 51.4087 630.141 51.0633 630.29 50.634H631.662C631.457 51.3713 631.046 51.9733 630.43 52.44C629.814 52.8973 629.049 53.126 628.134 53.126C627.406 53.126 626.753 52.9627 626.174 52.636C625.605 52.3093 625.157 51.8473 624.83 51.25C624.503 50.6433 624.34 49.9433 624.34 49.15C624.34 48.3567 624.499 47.6613 624.816 47.064C625.133 46.4667 625.577 46.0093 626.146 45.692C626.725 45.3653 627.387 45.202 628.134 45.202C628.862 45.202 629.506 45.3607 630.066 45.678C630.626 45.9953 631.055 46.434 631.354 46.994C631.662 47.5447 631.816 48.17 631.816 48.87ZM630.5 48.604C630.5 48.1187 630.393 47.7033 630.178 47.358C629.963 47.0033 629.669 46.7373 629.296 46.56C628.932 46.3733 628.526 46.28 628.078 46.28C627.434 46.28 626.883 46.4853 626.426 46.896C625.978 47.3067 625.721 47.876 625.656 48.604H630.5ZM637.782 53L634.772 49.612V53H633.498V42.64H634.772V48.73L637.726 45.328H639.504L635.892 49.15L639.518 53H637.782ZM644.197 45.426C644.263 44.5673 644.594 43.8953 645.191 43.41C645.789 42.9247 646.563 42.682 647.515 42.682C648.15 42.682 648.696 42.7987 649.153 43.032C649.62 43.256 649.97 43.564 650.203 43.956C650.446 44.348 650.567 44.7913 650.567 45.286C650.567 45.8647 650.399 46.364 650.063 46.784C649.737 47.204 649.307 47.4747 648.775 47.596V47.666C649.382 47.8153 649.863 48.1093 650.217 48.548C650.572 48.9867 650.749 49.5607 650.749 50.27C650.749 50.802 650.628 51.2827 650.385 51.712C650.143 52.132 649.779 52.4633 649.293 52.706C648.808 52.9487 648.225 53.07 647.543 53.07C646.554 53.07 645.742 52.8133 645.107 52.3C644.473 51.7773 644.118 51.04 644.043 50.088H645.275C645.341 50.648 645.569 51.1053 645.961 51.46C646.353 51.8147 646.876 51.992 647.529 51.992C648.183 51.992 648.677 51.824 649.013 51.488C649.359 51.1427 649.531 50.6993 649.531 50.158C649.531 49.458 649.298 48.954 648.831 48.646C648.365 48.338 647.66 48.184 646.717 48.184H646.395V47.12H646.731C647.59 47.1107 648.239 46.9707 648.677 46.7C649.116 46.42 649.335 45.9907 649.335 45.412C649.335 44.9173 649.172 44.5207 648.845 44.222C648.528 43.9233 648.071 43.774 647.473 43.774C646.895 43.774 646.428 43.9233 646.073 44.222C645.719 44.5207 645.509 44.922 645.443 45.426H644.197Z" fill="#323232" /></g><g id="surge_table/subtitle_4"><rect id="Rectangle 35_8" x="699" y="32" width="145" height="32" fill="#F7F7F7" /><path id="Sign up for Surge No_8" d="M759.46 43.242L756.632 53H755.204L752.936 45.146L750.584 53L749.17 53.014L746.44 43.242H747.798L749.926 51.516L752.278 43.242H753.706L755.946 51.488L758.088 43.242H759.46ZM767.854 48.87C767.854 49.1127 767.84 49.3693 767.812 49.64H761.68C761.727 50.396 761.984 50.9887 762.45 51.418C762.926 51.838 763.5 52.048 764.172 52.048C764.723 52.048 765.18 51.922 765.544 51.67C765.918 51.4087 766.179 51.0633 766.328 50.634H767.7C767.495 51.3713 767.084 51.9733 766.468 52.44C765.852 52.8973 765.087 53.126 764.172 53.126C763.444 53.126 762.791 52.9627 762.212 52.636C761.643 52.3093 761.195 51.8473 760.868 51.25C760.542 50.6433 760.378 49.9433 760.378 49.15C760.378 48.3567 760.537 47.6613 760.854 47.064C761.172 46.4667 761.615 46.0093 762.184 45.692C762.763 45.3653 763.426 45.202 764.172 45.202C764.9 45.202 765.544 45.3607 766.104 45.678C766.664 45.9953 767.094 46.434 767.392 46.994C767.7 47.5447 767.854 48.17 767.854 48.87ZM766.538 48.604C766.538 48.1187 766.431 47.7033 766.216 47.358C766.002 47.0033 765.708 46.7373 765.334 46.56C764.97 46.3733 764.564 46.28 764.116 46.28C763.472 46.28 762.922 46.4853 762.464 46.896C762.016 47.3067 761.76 47.876 761.694 48.604H766.538ZM776.536 48.87C776.536 49.1127 776.522 49.3693 776.494 49.64H770.362C770.409 50.396 770.665 50.9887 771.132 51.418C771.608 51.838 772.182 52.048 772.854 52.048C773.405 52.048 773.862 51.922 774.226 51.67C774.599 51.4087 774.861 51.0633 775.01 50.634H776.382C776.177 51.3713 775.766 51.9733 775.15 52.44C774.534 52.8973 773.769 53.126 772.854 53.126C772.126 53.126 771.473 52.9627 770.894 52.636C770.325 52.3093 769.877 51.8473 769.55 51.25C769.223 50.6433 769.06 49.9433 769.06 49.15C769.06 48.3567 769.219 47.6613 769.536 47.064C769.853 46.4667 770.297 46.0093 770.866 45.692C771.445 45.3653 772.107 45.202 772.854 45.202C773.582 45.202 774.226 45.3607 774.786 45.678C775.346 45.9953 775.775 46.434 776.074 46.994C776.382 47.5447 776.536 48.17 776.536 48.87ZM775.22 48.604C775.22 48.1187 775.113 47.7033 774.898 47.358C774.683 47.0033 774.389 46.7373 774.016 46.56C773.652 46.3733 773.246 46.28 772.798 46.28C772.154 46.28 771.603 46.4853 771.146 46.896C770.698 47.3067 770.441 47.876 770.376 48.604H775.22ZM782.502 53L779.492 49.612V53H778.218V42.64H779.492V48.73L782.446 45.328H784.224L780.612 49.15L784.238 53H782.502ZM788.637 50.746V49.78L793.551 42.976H795.077V49.64H796.477V50.746H795.077V53H793.817V50.746H788.637ZM793.873 44.306L790.107 49.64H793.873V44.306Z" fill="#323232" /></g><g id="surge_table/subtitle_5"><rect id="Rectangle 35_9" x="844" y="32" width="145" height="32" fill="#F7F7F7" /></g><g id="surge_table/subtitle_6"><rect id="Rectangle 35_10" x="989" y="32" width="145" height="32" fill="#F7F7F7" /></g><g id="surge_table/subtitle_7"><rect id="Rectangle 35_11" x="1134" y="32" width="146" height="32" fill="#F7F7F7" /></g></g><g id="surge_table/empty"><path id="Rectangle 35_12" d="M0 8C0 3.58172 3.58172 0 8 0H264V64H0V8Z" fill="#323232" /></g><g id="surge_table/subtitle1"><path id="Sign up for Surge No_9" d="M31.854 14.168C31.854 14.6627 31.7373 15.1293 31.504 15.568C31.2707 16.0067 30.8973 16.366 30.384 16.646C29.8707 16.9167 29.2127 17.052 28.41 17.052H26.646V21H25.05V11.27H28.41C29.1567 11.27 29.7867 11.4007 30.3 11.662C30.8227 11.914 31.21 12.2593 31.462 12.698C31.7233 13.1367 31.854 13.6267 31.854 14.168ZM28.41 15.75C29.0167 15.75 29.4693 15.6147 29.768 15.344C30.0667 15.064 30.216 14.672 30.216 14.168C30.216 13.104 29.614 12.572 28.41 12.572H26.646V15.75H28.41ZM39.1302 21L36.8902 17.108H35.6722V21H34.0762V11.27H37.4362C38.1828 11.27 38.8128 11.4007 39.3262 11.662C39.8488 11.9233 40.2362 12.2733 40.4882 12.712C40.7495 13.1507 40.8802 13.6407 40.8802 14.182C40.8802 14.8167 40.6935 15.3953 40.3202 15.918C39.9562 16.4313 39.3915 16.7813 38.6262 16.968L41.0342 21H39.1302ZM35.6722 15.834H37.4362C38.0335 15.834 38.4815 15.6847 38.7802 15.386C39.0882 15.0873 39.2422 14.686 39.2422 14.182C39.2422 13.678 39.0928 13.286 38.7942 13.006C38.4955 12.7167 38.0428 12.572 37.4362 12.572H35.6722V15.834ZM45.2179 12.558V15.414H48.5779V16.716H45.2179V19.698H48.9979V21H43.6219V11.256H48.9979V12.558H45.2179ZM57.5857 15.26V16.604H51.8317V15.26H57.5857ZM63.7311 11.27C64.7671 11.27 65.6725 11.4707 66.4471 11.872C67.2311 12.264 67.8331 12.8333 68.2531 13.58C68.6825 14.3173 68.8971 15.1807 68.8971 16.17C68.8971 17.1593 68.6825 18.018 68.2531 18.746C67.8331 19.474 67.2311 20.034 66.4471 20.426C65.6725 20.8087 64.7671 21 63.7311 21H60.5531V11.27H63.7311ZM63.7311 19.698C64.8698 19.698 65.7425 19.39 66.3491 18.774C66.9558 18.158 67.2591 17.29 67.2591 16.17C67.2591 15.0407 66.9558 14.1587 66.3491 13.524C65.7425 12.8893 64.8698 12.572 63.7311 12.572H62.1491V19.698H63.7311ZM72.7749 11.27V21H71.1789V11.27H72.7749ZM78.7763 21.098C78.123 21.098 77.535 20.986 77.0123 20.762C76.4896 20.5287 76.079 20.202 75.7803 19.782C75.4816 19.362 75.3323 18.872 75.3323 18.312H77.0403C77.0776 18.732 77.241 19.0773 77.5303 19.348C77.829 19.6187 78.2443 19.754 78.7763 19.754C79.327 19.754 79.7563 19.6233 80.0643 19.362C80.3723 19.0913 80.5263 18.746 80.5263 18.326C80.5263 17.9993 80.4283 17.7333 80.2323 17.528C80.0456 17.3227 79.8076 17.164 79.5183 17.052C79.2383 16.94 78.8463 16.8187 78.3423 16.688C77.7076 16.52 77.1896 16.352 76.7883 16.184C76.3963 16.0067 76.0603 15.736 75.7803 15.372C75.5003 15.008 75.3603 14.5227 75.3603 13.916C75.3603 13.356 75.5003 12.866 75.7803 12.446C76.0603 12.026 76.4523 11.704 76.9563 11.48C77.4603 11.256 78.0436 11.144 78.7063 11.144C79.649 11.144 80.419 11.382 81.0163 11.858C81.623 12.3247 81.959 12.9687 82.0243 13.79H80.2603C80.2323 13.4353 80.0643 13.132 79.7563 12.88C79.4483 12.628 79.0423 12.502 78.5383 12.502C78.081 12.502 77.7076 12.6187 77.4183 12.852C77.129 13.0853 76.9843 13.4213 76.9843 13.86C76.9843 14.1587 77.073 14.406 77.2503 14.602C77.437 14.7887 77.6703 14.938 77.9503 15.05C78.2303 15.162 78.613 15.2833 79.0983 15.414C79.7423 15.5913 80.265 15.7687 80.6663 15.946C81.077 16.1233 81.4223 16.3987 81.7023 16.772C81.9916 17.136 82.1363 17.626 82.1363 18.242C82.1363 18.7367 82.001 19.2033 81.7303 19.642C81.469 20.0807 81.0816 20.4353 80.5683 20.706C80.0643 20.9673 79.467 21.098 78.7763 21.098ZM90.5855 19.012H86.5115L85.8115 21H84.1455L87.6315 11.256H89.4795L92.9655 21H91.2855L90.5855 19.012ZM90.1375 17.71L88.5555 13.188L86.9595 17.71H90.1375ZM98.3872 21.098C97.7339 21.098 97.1459 20.986 96.6232 20.762C96.1006 20.5287 95.6899 20.202 95.3912 19.782C95.0926 19.362 94.9432 18.872 94.9432 18.312H96.6512C96.6886 18.732 96.8519 19.0773 97.1412 19.348C97.4399 19.6187 97.8552 19.754 98.3872 19.754C98.9379 19.754 99.3672 19.6233 99.6752 19.362C99.9832 19.0913 100.137 18.746 100.137 18.326C100.137 17.9993 100.039 17.7333 99.8432 17.528C99.6566 17.3227 99.4186 17.164 99.1292 17.052C98.8492 16.94 98.4572 16.8187 97.9532 16.688C97.3186 16.52 96.8006 16.352 96.3992 16.184C96.0072 16.0067 95.6712 15.736 95.3912 15.372C95.1112 15.008 94.9712 14.5227 94.9712 13.916C94.9712 13.356 95.1112 12.866 95.3912 12.446C95.6712 12.026 96.0632 11.704 96.5672 11.48C97.0712 11.256 97.6546 11.144 98.3172 11.144C99.2599 11.144 100.03 11.382 100.627 11.858C101.234 12.3247 101.57 12.9687 101.635 13.79H99.8712C99.8432 13.4353 99.6752 13.132 99.3672 12.88C99.0592 12.628 98.6532 12.502 98.1492 12.502C97.6919 12.502 97.3186 12.6187 97.0292 12.852C96.7399 13.0853 96.5952 13.4213 96.5952 13.86C96.5952 14.1587 96.6839 14.406 96.8612 14.602C97.0479 14.7887 97.2812 14.938 97.5612 15.05C97.8412 15.162 98.2239 15.2833 98.7092 15.414C99.3532 15.5913 99.8759 15.7687 100.277 15.946C100.688 16.1233 101.033 16.3987 101.313 16.772C101.603 17.136 101.747 17.626 101.747 18.242C101.747 18.7367 101.612 19.2033 101.341 19.642C101.08 20.0807 100.693 20.4353 100.179 20.706C99.6752 20.9673 99.0779 21.098 98.3872 21.098ZM110.616 11.27V12.572H108.026V21H106.43V12.572H103.826V11.27H110.616ZM114.529 12.558V15.414H117.889V16.716H114.529V19.698H118.309V21H112.933V11.256H118.309V12.558H114.529ZM126.029 21L123.789 17.108H122.571V21H120.975V11.27H124.335C125.081 11.27 125.711 11.4007 126.225 11.662C126.747 11.9233 127.135 12.2733 127.387 12.712C127.648 13.1507 127.779 13.6407 127.779 14.182C127.779 14.8167 127.592 15.3953 127.219 15.918C126.855 16.4313 126.29 16.7813 125.525 16.968L127.933 21H126.029ZM122.571 15.834H124.335C124.932 15.834 125.38 15.6847 125.679 15.386C125.987 15.0873 126.141 14.686 126.141 14.182C126.141 13.678 125.991 13.286 125.693 13.006C125.394 12.7167 124.941 12.572 124.335 12.572H122.571V15.834Z" fill="white" /></g></g></svg>