<svg viewBox="0 0 1280 104" fill="none" xmlns="http://www.w3.org/2000/svg"><g id="surge_table/legend"><path id="Path" d="M0 104H1280V0H0V104Z" fill="#FAFAFA"/><g id="example"><text id="Low Risk" fill="black" xml:space="preserve" style="white-space: pre" font-family="Poppins" font-size="10" letter-spacing="0em"><tspan x="762" y="34">DOCUMENT REQUIRED </tspan><tspan x="762" y="49">TO BE SUBMITTED</tspan></text><g id="Group 1739"><path id="Vector 15 (Stroke)" opacity="0.8" fill-rule="evenodd" clip-rule="evenodd" d="M764 18L901 18L901 19L764 19L764 18Z" fill="#C6C6C6"/><circle id="Ellipse 27" cx="764.5" cy="18.5" r="2.5" transform="rotate(90 764.5 18.5)" fill="#C4C4C4"/></g><text id="Low Risk_2" fill="black" xml:space="preserve" style="white-space: pre" font-family="Poppins" font-size="10" letter-spacing="0em"><tspan x="1020.38" y="70">RESOURCE AVAILABLE </tspan><tspan x="1043" y="85">(CLICK TO VIEW)</tspan></text><text id="High Risk" fill="black" xml:space="preserve" style="white-space: pre" font-family="Poppins" font-size="10" letter-spacing="0em"><tspan x="1176.6" y="85">EST. END</tspan></text><text id="High Risk_2" fill="black" xml:space="preserve" style="white-space: pre" font-family="Poppins" font-size="10" letter-spacing="0em"><tspan x="918" y="85">EST. START</tspan></text><g id="Group 1736"><path id="Vector 15 (Stroke)_2" opacity="0.8" fill-rule="evenodd" clip-rule="evenodd" d="M911 82V33H912V82H911Z" fill="#C6C6C6"/><circle id="Ellipse 27_2" cx="911.5" cy="81.5" r="2.5" fill="#C4C4C4"/></g><g id="Group 1738"><path id="Vector 15 (Stroke)_3" opacity="0.8" fill-rule="evenodd" clip-rule="evenodd" d="M1221 82V33H1222V82H1221Z" fill="#C6C6C6"/><circle id="Ellipse 27_3" cx="1221.5" cy="81.5" r="2.5" fill="#C4C4C4"/></g><g id="surge table / element 2"><rect id="Rectangle 32" opacity="0.8" x="911" y="18" width="311" height="32" rx="16" fill="#F4F4F4"/><rect id="Rectangle 33" opacity="0.6" x="927" y="49" width="280" height="1" fill="#C8CCB7"/><text id="Sign up for Surge No" fill="black" xml:space="preserve" style="white-space: pre" font-family="Poppins" font-size="10" letter-spacing="0em"><tspan x="959" y="30">ACTIVITY OR DELIVERABLE TIMELINE *</tspan></text><g id="icons/surge/main_icon"><circle id="Ellipse 25" opacity="0.8" cx="927" cy="34" r="16" fill="#555F1E"/><g id="IFRC-icons-black_Airdrop"><path id="Vector (Stroke)" fill-rule="evenodd" clip-rule="evenodd" d="M925.144 25.2978C921.78 26.1308 919.286 29.1699 919.286 32.7914V32.7947C919.286 33.2467 919.47 33.6589 919.764 33.9573L919.917 34.0942C920.195 34.3142 920.544 34.4433 920.919 34.4362M919.147 34.6076C919.21 34.6696 919.275 34.7284 919.344 34.7837L923.003 38.0632H922.489V45.5051H931.522V38.0632H931.007L934.659 34.7904C934.733 34.7312 934.804 34.6679 934.871 34.6009L934.969 34.5127L934.962 34.5047C935.372 34.0493 935.621 33.4453 935.621 32.7947V32.7914C935.621 28.0332 931.764 24.1758 927.005 24.1758C922.247 24.1758 918.39 28.0332 918.39 32.7914V32.7947C918.39 33.4453 918.639 34.049 919.049 34.5043L919.041 34.5127L919.147 34.6076ZM934.088 34.0997C933.81 34.3165 933.464 34.4434 933.092 34.4362C932.25 34.4201 931.566 33.753 931.524 32.9174C931.526 32.8767 931.527 32.8358 931.527 32.7947V32.7914C931.527 29.8283 930.735 26.9506 928.819 25.286C932.207 26.1017 934.725 29.1526 934.725 32.7914V32.7947C934.725 33.2438 934.543 33.6537 934.253 33.9516L934.088 34.0997ZM925.144 25.2978C923.247 26.9696 922.463 29.8423 922.463 32.7914V32.7947C922.463 32.8787 922.467 32.9618 922.476 33.044C922.375 33.8194 921.718 34.4209 920.919 34.4362M923.377 33.0365C923.382 32.9701 923.385 32.9029 923.385 32.8351H923.36C923.359 32.8217 923.359 32.8082 923.359 32.7947V32.7914C923.359 29.495 924.369 26.6454 926.53 25.4029L926.563 32.8351V32.836C926.562 33.7093 925.862 34.4196 924.992 34.4362C924.185 34.4519 923.495 33.8334 923.377 33.0365ZM922.933 34.268C922.55 34.8135 921.955 35.199 921.267 35.3038L924.346 38.0632H925.142L924.593 35.3049C923.909 35.201 923.318 34.812 922.933 34.268ZM925.501 35.2739C926.12 35.1375 926.652 34.7715 927.005 34.2698C927.354 34.7756 927.884 35.1449 928.509 35.2781L927.956 38.0632H926.055L925.501 35.2739ZM928.869 38.0632H929.664L932.744 35.3038C932.05 35.1978 931.45 34.8063 931.067 34.253C930.687 34.799 930.1 35.1915 929.418 35.3014L928.869 38.0632ZM930.63 33.2145C930.571 34.0716 929.848 34.4523 928.998 34.4362ZM930.63 33.2145C930.63 33.2145 930.631 32.8082 930.631 32.7947V32.7914C930.631 29.4785 929.61 26.6269 927.426 25.3964L927.459 32.8341V32.8351C927.459 33.7178 928.137 34.4197 928.998 34.4362M923.385 38.9592V40.474H930.626V38.9592H923.385ZM930.626 41.37H923.385V42.1977H930.626V41.37ZM930.626 43.0937H923.385V44.6091H930.626V43.0937Z" fill="white"/></g></g></g><g id="icons / checkbox"><path id="Vector" d="M911 28C905.477 28 901 23.523 901 18C901 12.477 905.477 8 911 8C916.523 8 921 12.477 921 18C921 23.523 916.523 28 911 28ZM910.003 22L917.073 14.929L915.659 13.515L910.003 19.172L907.174 16.343L905.76 17.757L910.003 22Z" fill="#F5333F"/><path id="Vector_2" d="M917.073 14.9296L910.003 22.0006L905.76 17.7576L907.174 16.3436L910.003 19.1726L915.659 13.5156L917.073 14.9296Z" fill="white"/></g><g id="Group 1737"><path id="Vector 15 (Stroke)_4" opacity="0.8" fill-rule="evenodd" clip-rule="evenodd" d="M1128 82V33H1129V82H1128Z" fill="#C6C6C6"/><circle id="Ellipse 27_4" cx="1128.5" cy="81.5" r="2.5" fill="#C4C4C4"/></g></g><path id="Path_2" d="M0 1H1280V0H0V1Z" fill="#F4F4F4"/><g id="Frame 1661"><text id="Legend" fill="#323232" xml:space="preserve" style="white-space: pre" font-family="Poppins" font-size="12" letter-spacing="0em"><tspan x="24" y="31.6">Legend</tspan></text><rect id="Rectangle 481" x="109" y="16" width="1" height="24" fill="#C6C6C6"/><g id="Frame 1415"><g id="Frame 1412"><g id="Dot 1  Copy 53"><g id="Dot 1  Copy 69"><circle id="Oval Copy 83" opacity="0.8" cx="158" cy="28" r="8" fill="#555F1E"/></g></g><text id="DREF" fill="#323232" xml:space="preserve" style="white-space: pre" font-family="Poppins" font-size="12" letter-spacing="0em"><tspan x="174" y="32.2">CONTINUOUS TASKS</tspan></text></g><g id="Frame 1414"><circle id="Oval Copy 83_2" opacity="0.8" cx="347" cy="28" r="8" fill="#5A325F"/><text id="Multiple Types" fill="#323232" xml:space="preserve" style="white-space: pre" font-family="Poppins" font-size="12" letter-spacing="0em"><tspan x="363" y="32.2">PUNCTUAL TASKS</tspan></text></g></g></g></g></svg>