<svg xmlns="http://www.w3.org/2000/svg" viewBox="0 0 1280 104" fill="none"><g id="surge_table/legend"><path id="Path" d="M0 104H1280V0H0V104Z" fill="#FAFAFA" /><g id="example"><path id="Low Risk" d="M764.94 27.03C765.7 27.03 766.357 27.1733 766.91 27.46C767.47 27.74 767.897 28.1433 768.19 28.67C768.49 29.1967 768.64 29.8167 768.64 30.53C768.64 31.2433 768.49 31.8633 768.19 32.39C767.897 32.91 767.47 33.31 766.91 33.59C766.357 33.8633 765.7 34 764.94 34H762.77V27.03H764.94ZM764.94 33.25C765.84 33.25 766.527 33.0133 767 32.54C767.473 32.06 767.71 31.39 767.71 30.53C767.71 29.6633 767.47 28.9867 766.99 28.5C766.517 28.0133 765.833 27.77 764.94 27.77H763.68V33.25H764.94ZM773 34.07C772.354 34.07 771.764 33.92 771.23 33.62C770.697 33.3133 770.274 32.89 769.96 32.35C769.654 31.8033 769.5 31.19 769.5 30.51C769.5 29.83 769.654 29.22 769.96 28.68C770.274 28.1333 770.697 27.71 771.23 27.41C771.764 27.1033 772.354 26.95 773 26.95C773.654 26.95 774.247 27.1033 774.78 27.41C775.314 27.71 775.734 28.13 776.04 28.67C776.347 29.21 776.5 29.8233 776.5 30.51C776.5 31.1967 776.347 31.81 776.04 32.35C775.734 32.89 775.314 33.3133 774.78 33.62C774.247 33.92 773.654 34.07 773 34.07ZM773 33.28C773.487 33.28 773.924 33.1667 774.31 32.94C774.704 32.7133 775.01 32.39 775.23 31.97C775.457 31.55 775.57 31.0633 775.57 30.51C775.57 29.95 775.457 29.4633 775.23 29.05C775.01 28.63 774.707 28.3067 774.32 28.08C773.934 27.8533 773.494 27.74 773 27.74C772.507 27.74 772.067 27.8533 771.68 28.08C771.294 28.3067 770.987 28.63 770.76 29.05C770.54 29.4633 770.43 29.95 770.43 30.51C770.43 31.0633 770.54 31.55 770.76 31.97C770.987 32.39 771.294 32.7133 771.68 32.94C772.074 33.1667 772.514 33.28 773 33.28ZM777.362 30.51C777.362 29.83 777.515 29.22 777.822 28.68C778.128 28.1333 778.545 27.7067 779.072 27.4C779.605 27.0933 780.195 26.94 780.842 26.94C781.602 26.94 782.265 27.1233 782.832 27.49C783.398 27.8567 783.812 28.3767 784.072 29.05H782.982C782.788 28.63 782.508 28.3067 782.142 28.08C781.782 27.8533 781.348 27.74 780.842 27.74C780.355 27.74 779.918 27.8533 779.532 28.08C779.145 28.3067 778.842 28.63 778.622 29.05C778.402 29.4633 778.292 29.95 778.292 30.51C778.292 31.0633 778.402 31.55 778.622 31.97C778.842 32.3833 779.145 32.7033 779.532 32.93C779.918 33.1567 780.355 33.27 780.842 33.27C781.348 33.27 781.782 33.16 782.142 32.94C782.508 32.7133 782.788 32.39 782.982 31.97H784.072C783.812 32.6367 783.398 33.1533 782.832 33.52C782.265 33.88 781.602 34.06 780.842 34.06C780.195 34.06 779.605 33.91 779.072 33.61C778.545 33.3033 778.128 32.88 777.822 32.34C777.515 31.8 777.362 31.19 777.362 30.51ZM786.316 27.03V31.44C786.316 32.06 786.466 32.52 786.766 32.82C787.073 33.12 787.496 33.27 788.036 33.27C788.57 33.27 788.986 33.12 789.286 32.82C789.593 32.52 789.746 32.06 789.746 31.44V27.03H790.656V31.43C790.656 32.01 790.54 32.5 790.306 32.9C790.073 33.2933 789.756 33.5867 789.356 33.78C788.963 33.9733 788.52 34.07 788.026 34.07C787.533 34.07 787.086 33.9733 786.686 33.78C786.293 33.5867 785.98 33.2933 785.746 32.9C785.52 32.5 785.406 32.01 785.406 31.43V27.03H786.316ZM799.244 27.08V34H798.334V28.84L796.034 34H795.394L793.084 28.83V34H792.174V27.08H793.154L795.714 32.8L798.274 27.08H799.244ZM801.698 27.77V30.1H804.238V30.85H801.698V33.25H804.538V34H800.788V27.02H804.538V27.77H801.698ZM811.395 34H810.485L806.825 28.45V34H805.915V27.02H806.825L810.485 32.56V27.02H811.395V34ZM817.236 27.03V27.77H815.336V34H814.426V27.77H812.516V27.03H817.236ZM824.692 34L823.032 31.15H821.932V34H821.022V27.03H823.272C823.799 27.03 824.242 27.12 824.602 27.3C824.969 27.48 825.242 27.7233 825.422 28.03C825.602 28.3367 825.692 28.6867 825.692 29.08C825.692 29.56 825.552 29.9833 825.272 30.35C824.999 30.7167 824.585 30.96 824.032 31.08L825.782 34H824.692ZM821.932 30.42H823.272C823.765 30.42 824.135 30.3 824.382 30.06C824.629 29.8133 824.752 29.4867 824.752 29.08C824.752 28.6667 824.629 28.3467 824.382 28.12C824.142 27.8933 823.772 27.78 823.272 27.78H821.932V30.42ZM828.016 27.77V30.1H830.556V30.85H828.016V33.25H830.856V34H827.106V27.02H830.856V27.77H828.016ZM837.823 35.32L836.433 33.93C836.093 34.0233 835.746 34.07 835.393 34.07C834.746 34.07 834.156 33.92 833.623 33.62C833.09 33.3133 832.666 32.89 832.353 32.35C832.046 31.8033 831.893 31.19 831.893 30.51C831.893 29.83 832.046 29.22 832.353 28.68C832.666 28.1333 833.09 27.71 833.623 27.41C834.156 27.1033 834.746 26.95 835.393 26.95C836.046 26.95 836.64 27.1033 837.173 27.41C837.706 27.71 838.126 28.13 838.433 28.67C838.74 29.21 838.893 29.8233 838.893 30.51C838.893 31.1767 838.746 31.7767 838.453 32.31C838.16 32.8433 837.756 33.2633 837.243 33.57L839.003 35.32H837.823ZM832.823 30.51C832.823 31.0633 832.933 31.55 833.153 31.97C833.38 32.39 833.686 32.7133 834.073 32.94C834.466 33.1667 834.906 33.28 835.393 33.28C835.88 33.28 836.316 33.1667 836.703 32.94C837.096 32.7133 837.403 32.39 837.623 31.97C837.85 31.55 837.963 31.0633 837.963 30.51C837.963 29.95 837.85 29.4633 837.623 29.05C837.403 28.63 837.1 28.3067 836.713 28.08C836.326 27.8533 835.886 27.74 835.393 27.74C834.9 27.74 834.46 27.8533 834.073 28.08C833.686 28.3067 833.38 28.63 833.153 29.05C832.933 29.4633 832.823 29.95 832.823 30.51ZM841.004 27.03V31.44C841.004 32.06 841.154 32.52 841.454 32.82C841.76 33.12 842.184 33.27 842.724 33.27C843.257 33.27 843.674 33.12 843.974 32.82C844.28 32.52 844.434 32.06 844.434 31.44V27.03H845.344V31.43C845.344 32.01 845.227 32.5 844.994 32.9C844.76 33.2933 844.444 33.5867 844.044 33.78C843.65 33.9733 843.207 34.07 842.714 34.07C842.22 34.07 841.774 33.9733 841.374 33.78C840.98 33.5867 840.667 33.2933 840.434 32.9C840.207 32.5 840.094 32.01 840.094 31.43V27.03H841.004ZM847.772 27.03V34H846.862V27.03H847.772ZM852.993 34L851.333 31.15H850.233V34H849.323V27.03H851.573C852.099 27.03 852.543 27.12 852.903 27.3C853.269 27.48 853.543 27.7233 853.723 28.03C853.903 28.3367 853.993 28.6867 853.993 29.08C853.993 29.56 853.853 29.9833 853.573 30.35C853.299 30.7167 852.886 30.96 852.333 31.08L854.083 34H852.993ZM850.233 30.42H851.573C852.066 30.42 852.436 30.3 852.683 30.06C852.929 29.8133 853.053 29.4867 853.053 29.08C853.053 28.6667 852.929 28.3467 852.683 28.12C852.443 27.8933 852.073 27.78 851.573 27.78H850.233V30.42ZM856.317 27.77V30.1H858.857V30.85H856.317V33.25H859.157V34H855.407V27.02H859.157V27.77H856.317ZM862.704 27.03C863.464 27.03 864.12 27.1733 864.674 27.46C865.234 27.74 865.66 28.1433 865.954 28.67C866.254 29.1967 866.404 29.8167 866.404 30.53C866.404 31.2433 866.254 31.8633 865.954 32.39C865.66 32.91 865.234 33.31 864.674 33.59C864.12 33.8633 863.464 34 862.704 34H860.534V27.03H862.704ZM862.704 33.25C863.604 33.25 864.29 33.0133 864.764 32.54C865.237 32.06 865.474 31.39 865.474 30.53C865.474 29.6633 865.234 28.9867 864.754 28.5C864.28 28.0133 863.597 27.77 862.704 27.77H861.444V33.25H862.704ZM767.06 42.03V42.77H765.16V49H764.25V42.77H762.34V42.03H767.06ZM771.34 49.07C770.693 49.07 770.103 48.92 769.57 48.62C769.037 48.3133 768.613 47.89 768.3 47.35C767.993 46.8033 767.84 46.19 767.84 45.51C767.84 44.83 767.993 44.22 768.3 43.68C768.613 43.1333 769.037 42.71 769.57 42.41C770.103 42.1033 770.693 41.95 771.34 41.95C771.993 41.95 772.587 42.1033 773.12 42.41C773.653 42.71 774.073 43.13 774.38 43.67C774.687 44.21 774.84 44.8233 774.84 45.51C774.84 46.1967 774.687 46.81 774.38 47.35C774.073 47.89 773.653 48.3133 773.12 48.62C772.587 48.92 771.993 49.07 771.34 49.07ZM771.34 48.28C771.827 48.28 772.263 48.1667 772.65 47.94C773.043 47.7133 773.35 47.39 773.57 46.97C773.797 46.55 773.91 46.0633 773.91 45.51C773.91 44.95 773.797 44.4633 773.57 44.05C773.35 43.63 773.047 43.3067 772.66 43.08C772.273 42.8533 771.833 42.74 771.34 42.74C770.847 42.74 770.407 42.8533 770.02 43.08C769.633 43.3067 769.327 43.63 769.1 44.05C768.88 44.4633 768.77 44.95 768.77 45.51C768.77 46.0633 768.88 46.55 769.1 46.97C769.327 47.39 769.633 47.7133 770.02 47.94C770.413 48.1667 770.853 48.28 771.34 48.28ZM782.198 45.41C782.451 45.45 782.681 45.5533 782.888 45.72C783.101 45.8867 783.268 46.0933 783.388 46.34C783.514 46.5867 783.578 46.85 783.578 47.13C783.578 47.4833 783.488 47.8033 783.308 48.09C783.128 48.37 782.864 48.5933 782.518 48.76C782.178 48.92 781.774 49 781.308 49H778.708V42.03H781.208C781.681 42.03 782.084 42.11 782.418 42.27C782.751 42.4233 783.001 42.6333 783.168 42.9C783.334 43.1667 783.418 43.4667 783.418 43.8C783.418 44.2133 783.304 44.5567 783.077 44.83C782.858 45.0967 782.564 45.29 782.198 45.41ZM779.618 45.04H781.148C781.574 45.04 781.904 44.94 782.138 44.74C782.371 44.54 782.488 44.2633 782.488 43.91C782.488 43.5567 782.371 43.28 782.138 43.08C781.904 42.88 781.568 42.78 781.128 42.78H779.618V45.04ZM781.228 48.25C781.681 48.25 782.034 48.1433 782.288 47.93C782.541 47.7167 782.668 47.42 782.668 47.04C782.668 46.6533 782.534 46.35 782.268 46.13C782.001 45.9033 781.644 45.79 781.198 45.79H779.618V48.25H781.228ZM785.75 42.77V45.1H788.29V45.85H785.75V48.25H788.59V49H784.84V42.02H788.59V42.77H785.75ZM794.843 49.07C794.383 49.07 793.97 48.99 793.603 48.83C793.243 48.6633 792.96 48.4367 792.753 48.15C792.547 47.8567 792.44 47.52 792.433 47.14H793.403C793.437 47.4667 793.57 47.7433 793.803 47.97C794.043 48.19 794.39 48.3 794.843 48.3C795.277 48.3 795.617 48.1933 795.863 47.98C796.117 47.76 796.243 47.48 796.243 47.14C796.243 46.8733 796.17 46.6567 796.023 46.49C795.877 46.3233 795.693 46.1967 795.473 46.11C795.253 46.0233 794.957 45.93 794.583 45.83C794.123 45.71 793.753 45.59 793.473 45.47C793.2 45.35 792.963 45.1633 792.763 44.91C792.57 44.65 792.473 44.3033 792.473 43.87C792.473 43.49 792.57 43.1533 792.763 42.86C792.957 42.5667 793.227 42.34 793.573 42.18C793.927 42.02 794.33 41.94 794.783 41.94C795.437 41.94 795.97 42.1033 796.383 42.43C796.803 42.7567 797.04 43.19 797.093 43.73H796.093C796.06 43.4633 795.92 43.23 795.673 43.03C795.427 42.8233 795.1 42.72 794.693 42.72C794.313 42.72 794.003 42.82 793.763 43.02C793.523 43.2133 793.403 43.4867 793.403 43.84C793.403 44.0933 793.473 44.3 793.613 44.46C793.76 44.62 793.937 44.7433 794.143 44.83C794.357 44.91 794.653 45.0033 795.033 45.11C795.493 45.2367 795.863 45.3633 796.143 45.49C796.423 45.61 796.663 45.8 796.863 46.06C797.063 46.3133 797.163 46.66 797.163 47.1C797.163 47.44 797.073 47.76 796.893 48.06C796.713 48.36 796.447 48.6033 796.093 48.79C795.74 48.9767 795.323 49.07 794.843 49.07ZM799.392 42.03V46.44C799.392 47.06 799.542 47.52 799.842 47.82C800.149 48.12 800.572 48.27 801.112 48.27C801.646 48.27 802.062 48.12 802.362 47.82C802.669 47.52 802.822 47.06 802.822 46.44V42.03H803.732V46.43C803.732 47.01 803.616 47.5 803.382 47.9C803.149 48.2933 802.832 48.5867 802.432 48.78C802.039 48.9733 801.596 49.07 801.102 49.07C800.609 49.07 800.162 48.9733 799.762 48.78C799.369 48.5867 799.056 48.2933 798.822 47.9C798.596 47.5 798.482 47.01 798.482 46.43V42.03H799.392ZM808.74 45.41C808.994 45.45 809.224 45.5533 809.43 45.72C809.644 45.8867 809.81 46.0933 809.93 46.34C810.057 46.5867 810.12 46.85 810.12 47.13C810.12 47.4833 810.03 47.8033 809.85 48.09C809.67 48.37 809.407 48.5933 809.06 48.76C808.72 48.92 808.317 49 807.85 49H805.25V42.03H807.75C808.224 42.03 808.627 42.11 808.96 42.27C809.294 42.4233 809.544 42.6333 809.71 42.9C809.877 43.1667 809.96 43.4667 809.96 43.8C809.96 44.2133 809.847 44.5567 809.62 44.83C809.4 45.0967 809.107 45.29 808.74 45.41ZM806.16 45.04H807.69C808.117 45.04 808.447 44.94 808.68 44.74C808.914 44.54 809.03 44.2633 809.03 43.91C809.03 43.5567 808.914 43.28 808.68 43.08C808.447 42.88 808.11 42.78 807.67 42.78H806.16V45.04ZM807.77 48.25C808.224 48.25 808.577 48.1433 808.83 47.93C809.084 47.7167 809.21 47.42 809.21 47.04C809.21 46.6533 809.077 46.35 808.81 46.13C808.544 45.9033 808.187 45.79 807.74 45.79H806.16V48.25H807.77ZM818.453 42.08V49H817.543V43.84L815.243 49H814.603L812.293 43.83V49H811.383V42.08H812.363L814.923 47.8L817.483 42.08H818.453ZM820.907 42.03V49H819.997V42.03H820.907ZM826.748 42.03V42.77H824.848V49H823.938V42.77H822.028V42.03H826.748ZM832.158 42.03V42.77H830.258V49H829.348V42.77H827.438V42.03H832.158ZM834.188 42.77V45.1H836.728V45.85H834.188V48.25H837.028V49H833.278V42.02H837.028V42.77H834.188ZM840.575 42.03C841.335 42.03 841.991 42.1733 842.545 42.46C843.105 42.74 843.531 43.1433 843.825 43.67C844.125 44.1967 844.275 44.8167 844.275 45.53C844.275 46.2433 844.125 46.8633 843.825 47.39C843.531 47.91 843.105 48.31 842.545 48.59C841.991 48.8633 841.335 49 840.575 49H838.405V42.03H840.575ZM840.575 48.25C841.475 48.25 842.161 48.0133 842.635 47.54C843.108 47.06 843.345 46.39 843.345 45.53C843.345 44.6633 843.105 43.9867 842.625 43.5C842.151 43.0133 841.468 42.77 840.575 42.77H839.315V48.25H840.575Z" fill="black" /><g id="Group 1739"><path id="Vector 15 (Stroke)" opacity="0.8" fill-rule="evenodd" clip-rule="evenodd" d="M764 18L901 18L901 19L764 19L764 18Z" fill="#C6C6C6" /><circle id="Ellipse 27" cx="764.5" cy="18.5" r="2.5" transform="rotate(90 764.5 18.5)" fill="#C4C4C4" /></g><path id="Low Risk_2" d="M1024.82 70L1023.16 67.15H1022.06V70H1021.15V63.03H1023.4C1023.93 63.03 1024.37 63.12 1024.73 63.3C1025.1 63.48 1025.37 63.7233 1025.55 64.03C1025.73 64.3367 1025.82 64.6867 1025.82 65.08C1025.82 65.56 1025.68 65.9833 1025.4 66.35C1025.13 66.7167 1024.72 66.96 1024.16 67.08L1025.91 70H1024.82ZM1022.06 66.42H1023.4C1023.9 66.42 1024.27 66.3 1024.51 66.06C1024.76 65.8133 1024.88 65.4867 1024.88 65.08C1024.88 64.6667 1024.76 64.3467 1024.51 64.12C1024.27 63.8933 1023.9 63.78 1023.4 63.78H1022.06V66.42ZM1028.15 63.77V66.1H1030.69V66.85H1028.15V69.25H1030.99V70H1027.24V63.02H1030.99V63.77H1028.15ZM1034.57 70.07C1034.11 70.07 1033.7 69.99 1033.33 69.83C1032.97 69.6633 1032.69 69.4367 1032.48 69.15C1032.28 68.8567 1032.17 68.52 1032.16 68.14H1033.13C1033.17 68.4667 1033.3 68.7433 1033.53 68.97C1033.77 69.19 1034.12 69.3 1034.57 69.3C1035.01 69.3 1035.35 69.1933 1035.59 68.98C1035.85 68.76 1035.97 68.48 1035.97 68.14C1035.97 67.8733 1035.9 67.6567 1035.75 67.49C1035.61 67.3233 1035.42 67.1967 1035.2 67.11C1034.98 67.0233 1034.69 66.93 1034.31 66.83C1033.85 66.71 1033.48 66.59 1033.2 66.47C1032.93 66.35 1032.69 66.1633 1032.49 65.91C1032.3 65.65 1032.2 65.3033 1032.2 64.87C1032.2 64.49 1032.3 64.1533 1032.49 63.86C1032.69 63.5667 1032.96 63.34 1033.3 63.18C1033.66 63.02 1034.06 62.94 1034.51 62.94C1035.17 62.94 1035.7 63.1033 1036.11 63.43C1036.53 63.7567 1036.77 64.19 1036.82 64.73H1035.82C1035.79 64.4633 1035.65 64.23 1035.4 64.03C1035.16 63.8233 1034.83 63.72 1034.42 63.72C1034.04 63.72 1033.73 63.82 1033.49 64.02C1033.25 64.2133 1033.13 64.4867 1033.13 64.84C1033.13 65.0933 1033.2 65.3 1033.34 65.46C1033.49 65.62 1033.67 65.7433 1033.87 65.83C1034.09 65.91 1034.38 66.0033 1034.76 66.11C1035.22 66.2367 1035.59 66.3633 1035.87 66.49C1036.15 66.61 1036.39 66.8 1036.59 67.06C1036.79 67.3133 1036.89 67.66 1036.89 68.1C1036.89 68.44 1036.8 68.76 1036.62 69.06C1036.44 69.36 1036.18 69.6033 1035.82 69.79C1035.47 69.9767 1035.05 70.07 1034.57 70.07ZM1041.39 70.07C1040.75 70.07 1040.16 69.92 1039.62 69.62C1039.09 69.3133 1038.67 68.89 1038.35 68.35C1038.05 67.8033 1037.89 67.19 1037.89 66.51C1037.89 65.83 1038.05 65.22 1038.35 64.68C1038.67 64.1333 1039.09 63.71 1039.62 63.41C1040.16 63.1033 1040.75 62.95 1041.39 62.95C1042.05 62.95 1042.64 63.1033 1043.17 63.41C1043.71 63.71 1044.13 64.13 1044.43 64.67C1044.74 65.21 1044.89 65.8233 1044.89 66.51C1044.89 67.1967 1044.74 67.81 1044.43 68.35C1044.13 68.89 1043.71 69.3133 1043.17 69.62C1042.64 69.92 1042.05 70.07 1041.39 70.07ZM1041.39 69.28C1041.88 69.28 1042.32 69.1667 1042.7 68.94C1043.1 68.7133 1043.4 68.39 1043.62 67.97C1043.85 67.55 1043.96 67.0633 1043.96 66.51C1043.96 65.95 1043.85 65.4633 1043.62 65.05C1043.4 64.63 1043.1 64.3067 1042.71 64.08C1042.33 63.8533 1041.89 63.74 1041.39 63.74C1040.9 63.74 1040.46 63.8533 1040.07 64.08C1039.69 64.3067 1039.38 64.63 1039.15 65.05C1038.93 65.4633 1038.82 65.95 1038.82 66.51C1038.82 67.0633 1038.93 67.55 1039.15 67.97C1039.38 68.39 1039.69 68.7133 1040.07 68.94C1040.47 69.1667 1040.91 69.28 1041.39 69.28ZM1046.98 63.03V67.44C1046.98 68.06 1047.13 68.52 1047.43 68.82C1047.74 69.12 1048.16 69.27 1048.7 69.27C1049.24 69.27 1049.65 69.12 1049.95 68.82C1050.26 68.52 1050.41 68.06 1050.41 67.44V63.03H1051.32V67.43C1051.32 68.01 1051.21 68.5 1050.97 68.9C1050.74 69.2933 1050.42 69.5867 1050.02 69.78C1049.63 69.9733 1049.19 70.07 1048.69 70.07C1048.2 70.07 1047.75 69.9733 1047.35 69.78C1046.96 69.5867 1046.65 69.2933 1046.41 68.9C1046.19 68.5 1046.07 68.01 1046.07 67.43V63.03H1046.98ZM1056.51 70L1054.85 67.15H1053.75V70H1052.84V63.03H1055.09C1055.62 63.03 1056.06 63.12 1056.42 63.3C1056.79 63.48 1057.06 63.7233 1057.24 64.03C1057.42 64.3367 1057.51 64.6867 1057.51 65.08C1057.51 65.56 1057.37 65.9833 1057.09 66.35C1056.82 66.7167 1056.41 66.96 1055.85 67.08L1057.6 70H1056.51ZM1053.75 66.42H1055.09C1055.59 66.42 1055.96 66.3 1056.2 66.06C1056.45 65.8133 1056.57 65.4867 1056.57 65.08C1056.57 64.6667 1056.45 64.3467 1056.2 64.12C1055.96 63.8933 1055.59 63.78 1055.09 63.78H1053.75V66.42ZM1058.59 66.51C1058.59 65.83 1058.74 65.22 1059.05 64.68C1059.35 64.1333 1059.77 63.7067 1060.3 63.4C1060.83 63.0933 1061.42 62.94 1062.07 62.94C1062.83 62.94 1063.49 63.1233 1064.06 63.49C1064.62 63.8567 1065.04 64.3767 1065.3 65.05H1064.21C1064.01 64.63 1063.73 64.3067 1063.37 64.08C1063.01 63.8533 1062.57 63.74 1062.07 63.74C1061.58 63.74 1061.14 63.8533 1060.76 64.08C1060.37 64.3067 1060.07 64.63 1059.85 65.05C1059.63 65.4633 1059.52 65.95 1059.52 66.51C1059.52 67.0633 1059.63 67.55 1059.85 67.97C1060.07 68.3833 1060.37 68.7033 1060.76 68.93C1061.14 69.1567 1061.58 69.27 1062.07 69.27C1062.57 69.27 1063.01 69.16 1063.37 68.94C1063.73 68.7133 1064.01 68.39 1064.21 67.97H1065.3C1065.04 68.6367 1064.62 69.1533 1064.06 69.52C1063.49 69.88 1062.83 70.06 1062.07 70.06C1061.42 70.06 1060.83 69.91 1060.3 69.61C1059.77 69.3033 1059.35 68.88 1059.05 68.34C1058.74 67.8 1058.59 67.19 1058.59 66.51ZM1067.56 63.77V66.1H1070.1V66.85H1067.56V69.25H1070.4V70H1066.65V63.02H1070.4V63.77H1067.56ZM1078.56 68.45H1075.52L1074.96 70H1074L1076.52 63.07H1077.57L1080.08 70H1079.12L1078.56 68.45ZM1078.3 67.71L1077.04 64.19L1075.78 67.71H1078.3ZM1086.94 63.03L1084.31 70H1083.26L1080.63 63.03H1081.6L1083.79 69.04L1085.98 63.03H1086.94ZM1092.06 68.45H1089.02L1088.46 70H1087.5L1090.02 63.07H1091.07L1093.58 70H1092.62L1092.06 68.45ZM1091.8 67.71L1090.54 64.19L1089.28 67.71H1091.8ZM1095.59 63.03V70H1094.68V63.03H1095.59ZM1098.05 69.26H1100.49V70H1097.14V63.03H1098.05V69.26ZM1105.58 68.45H1102.54L1101.98 70H1101.02L1103.54 63.07H1104.59L1107.1 70H1106.14L1105.58 68.45ZM1105.32 67.71L1104.06 64.19L1102.8 67.71H1105.32ZM1111.68 66.41C1111.94 66.45 1112.17 66.5533 1112.37 66.72C1112.59 66.8867 1112.75 67.0933 1112.87 67.34C1113 67.5867 1113.06 67.85 1113.06 68.13C1113.06 68.4833 1112.97 68.8033 1112.79 69.09C1112.61 69.37 1112.35 69.5933 1112 69.76C1111.66 69.92 1111.26 70 1110.79 70H1108.19V63.03H1110.69C1111.17 63.03 1111.57 63.11 1111.9 63.27C1112.24 63.4233 1112.49 63.6333 1112.65 63.9C1112.82 64.1667 1112.9 64.4667 1112.9 64.8C1112.9 65.2133 1112.79 65.5567 1112.56 65.83C1112.34 66.0967 1112.05 66.29 1111.68 66.41ZM1109.1 66.04H1110.63C1111.06 66.04 1111.39 65.94 1111.62 65.74C1111.86 65.54 1111.97 65.2633 1111.97 64.91C1111.97 64.5567 1111.86 64.28 1111.62 64.08C1111.39 63.88 1111.05 63.78 1110.61 63.78H1109.1V66.04ZM1110.71 69.25C1111.17 69.25 1111.52 69.1433 1111.77 68.93C1112.03 68.7167 1112.15 68.42 1112.15 68.04C1112.15 67.6533 1112.02 67.35 1111.75 67.13C1111.49 66.9033 1111.13 66.79 1110.68 66.79H1109.1V69.25H1110.71ZM1115.24 69.26H1117.68V70H1114.33V63.03H1115.24V69.26ZM1119.55 63.77V66.1H1122.09V66.85H1119.55V69.25H1122.39V70H1118.64V63.02H1122.39V63.77H1119.55ZM1046.11 86.86C1045.47 86.2333 1044.97 85.4367 1044.61 84.47C1044.26 83.5033 1044.08 82.46 1044.08 81.34C1044.08 80.1933 1044.27 79.1233 1044.64 78.13C1045.02 77.13 1045.56 76.3067 1046.26 75.66H1047.21V75.75C1046.46 76.45 1045.9 77.2933 1045.52 78.28C1045.15 79.26 1044.96 80.28 1044.96 81.34C1044.96 82.3733 1045.14 83.36 1045.49 84.3C1045.85 85.24 1046.37 86.0633 1047.06 86.77V86.86H1046.11ZM1047.97 81.51C1047.97 80.83 1048.12 80.22 1048.43 79.68C1048.74 79.1333 1049.15 78.7067 1049.68 78.4C1050.21 78.0933 1050.8 77.94 1051.45 77.94C1052.21 77.94 1052.87 78.1233 1053.44 78.49C1054.01 78.8567 1054.42 79.3767 1054.68 80.05H1053.59C1053.4 79.63 1053.12 79.3067 1052.75 79.08C1052.39 78.8533 1051.96 78.74 1051.45 78.74C1050.96 78.74 1050.53 78.8533 1050.14 79.08C1049.75 79.3067 1049.45 79.63 1049.23 80.05C1049.01 80.4633 1048.9 80.95 1048.9 81.51C1048.9 82.0633 1049.01 82.55 1049.23 82.97C1049.45 83.3833 1049.75 83.7033 1050.14 83.93C1050.53 84.1567 1050.96 84.27 1051.45 84.27C1051.96 84.27 1052.39 84.16 1052.75 83.94C1053.12 83.7133 1053.4 83.39 1053.59 82.97H1054.68C1054.42 83.6367 1054.01 84.1533 1053.44 84.52C1052.87 84.88 1052.21 85.06 1051.45 85.06C1050.8 85.06 1050.21 84.91 1049.68 84.61C1049.15 84.3033 1048.74 83.88 1048.43 83.34C1048.12 82.8 1047.97 82.19 1047.97 81.51ZM1056.95 84.26H1059.39V85H1056.04V78.03H1056.95V84.26ZM1061.26 78.03V85H1060.35V78.03H1061.26ZM1062.47 81.51C1062.47 80.83 1062.63 80.22 1062.93 79.68C1063.24 79.1333 1063.66 78.7067 1064.18 78.4C1064.72 78.0933 1065.31 77.94 1065.95 77.94C1066.71 77.94 1067.38 78.1233 1067.94 78.49C1068.51 78.8567 1068.92 79.3767 1069.18 80.05H1068.09C1067.9 79.63 1067.62 79.3067 1067.25 79.08C1066.89 78.8533 1066.46 78.74 1065.95 78.74C1065.47 78.74 1065.03 78.8533 1064.64 79.08C1064.26 79.3067 1063.95 79.63 1063.73 80.05C1063.51 80.4633 1063.4 80.95 1063.4 81.51C1063.4 82.0633 1063.51 82.55 1063.73 82.97C1063.95 83.3833 1064.26 83.7033 1064.64 83.93C1065.03 84.1567 1065.47 84.27 1065.95 84.27C1066.46 84.27 1066.89 84.16 1067.25 83.94C1067.62 83.7133 1067.9 83.39 1068.09 82.97H1069.18C1068.92 83.6367 1068.51 84.1533 1067.94 84.52C1067.38 84.88 1066.71 85.06 1065.95 85.06C1065.31 85.06 1064.72 84.91 1064.18 84.61C1063.66 84.3033 1063.24 83.88 1062.93 83.34C1062.63 82.8 1062.47 82.19 1062.47 81.51ZM1074.32 85L1071.45 81.82V85H1070.54V78.03H1071.45V81.26L1074.33 78.03H1075.48L1072.32 81.52L1075.51 85H1074.32ZM1083.48 78.03V78.77H1081.58V85H1080.67V78.77H1078.76V78.03H1083.48ZM1087.76 85.07C1087.11 85.07 1086.52 84.92 1085.99 84.62C1085.46 84.3133 1085.03 83.89 1084.72 83.35C1084.41 82.8033 1084.26 82.19 1084.26 81.51C1084.26 80.83 1084.41 80.22 1084.72 79.68C1085.03 79.1333 1085.46 78.71 1085.99 78.41C1086.52 78.1033 1087.11 77.95 1087.76 77.95C1088.41 77.95 1089.01 78.1033 1089.54 78.41C1090.07 78.71 1090.49 79.13 1090.8 79.67C1091.11 80.21 1091.26 80.8233 1091.26 81.51C1091.26 82.1967 1091.11 82.81 1090.8 83.35C1090.49 83.89 1090.07 84.3133 1089.54 84.62C1089.01 84.92 1088.41 85.07 1087.76 85.07ZM1087.76 84.28C1088.25 84.28 1088.68 84.1667 1089.07 83.94C1089.46 83.7133 1089.77 83.39 1089.99 82.97C1090.22 82.55 1090.33 82.0633 1090.33 81.51C1090.33 80.95 1090.22 80.4633 1089.99 80.05C1089.77 79.63 1089.47 79.3067 1089.08 79.08C1088.69 78.8533 1088.25 78.74 1087.76 78.74C1087.27 78.74 1086.83 78.8533 1086.44 79.08C1086.05 79.3067 1085.75 79.63 1085.52 80.05C1085.3 80.4633 1085.19 80.95 1085.19 81.51C1085.19 82.0633 1085.3 82.55 1085.52 82.97C1085.75 83.39 1086.05 83.7133 1086.44 83.94C1086.83 84.1667 1087.27 84.28 1087.76 84.28ZM1100.89 78.03L1098.26 85H1097.21L1094.58 78.03H1095.55L1097.74 84.04L1099.93 78.03H1100.89ZM1102.8 78.03V85H1101.89V78.03H1102.8ZM1105.26 78.77V81.1H1107.8V81.85H1105.26V84.25H1108.1V85H1104.35V78.02H1108.1V78.77H1105.26ZM1118.23 78.03L1116.21 85H1115.19L1113.57 79.39L1111.89 85L1110.88 85.01L1108.93 78.03H1109.9L1111.42 83.94L1113.1 78.03H1114.12L1115.72 83.92L1117.25 78.03H1118.23ZM1118.94 86.86V86.77C1119.63 86.0633 1120.15 85.24 1120.5 84.3C1120.86 83.36 1121.04 82.3733 1121.04 81.34C1121.04 80.28 1120.85 79.26 1120.47 78.28C1120.1 77.2933 1119.54 76.45 1118.79 75.75V75.66H1119.74C1120.44 76.3067 1120.98 77.13 1121.35 78.13C1121.73 79.1233 1121.92 80.1933 1121.92 81.34C1121.92 82.46 1121.74 83.5033 1121.38 84.47C1121.03 85.4367 1120.53 86.2333 1119.89 86.86H1118.94Z" fill="black" /><path id="High Risk" d="M1178.28 78.77V81.1H1180.82V81.85H1178.28V84.25H1181.12V85H1177.37V78.02H1181.12V78.77H1178.28ZM1184.71 85.07C1184.25 85.07 1183.83 84.99 1183.47 84.83C1183.11 84.6633 1182.82 84.4367 1182.62 84.15C1182.41 83.8567 1182.3 83.52 1182.3 83.14H1183.27C1183.3 83.4667 1183.43 83.7433 1183.67 83.97C1183.91 84.19 1184.25 84.3 1184.71 84.3C1185.14 84.3 1185.48 84.1933 1185.73 83.98C1185.98 83.76 1186.11 83.48 1186.11 83.14C1186.11 82.8733 1186.03 82.6567 1185.89 82.49C1185.74 82.3233 1185.56 82.1967 1185.34 82.11C1185.12 82.0233 1184.82 81.93 1184.45 81.83C1183.99 81.71 1183.62 81.59 1183.34 81.47C1183.06 81.35 1182.83 81.1633 1182.63 80.91C1182.43 80.65 1182.34 80.3033 1182.34 79.87C1182.34 79.49 1182.43 79.1533 1182.63 78.86C1182.82 78.5667 1183.09 78.34 1183.44 78.18C1183.79 78.02 1184.19 77.94 1184.65 77.94C1185.3 77.94 1185.83 78.1033 1186.25 78.43C1186.67 78.7567 1186.9 79.19 1186.96 79.73H1185.96C1185.92 79.4633 1185.78 79.23 1185.54 79.03C1185.29 78.8233 1184.96 78.72 1184.56 78.72C1184.18 78.72 1183.87 78.82 1183.63 79.02C1183.39 79.2133 1183.27 79.4867 1183.27 79.84C1183.27 80.0933 1183.34 80.3 1183.48 80.46C1183.62 80.62 1183.8 80.7433 1184.01 80.83C1184.22 80.91 1184.52 81.0033 1184.9 81.11C1185.36 81.2367 1185.73 81.3633 1186.01 81.49C1186.29 81.61 1186.53 81.8 1186.73 82.06C1186.93 82.3133 1187.03 82.66 1187.03 83.1C1187.03 83.44 1186.94 83.76 1186.76 84.06C1186.58 84.36 1186.31 84.6033 1185.96 84.79C1185.6 84.9767 1185.19 85.07 1184.71 85.07ZM1192.66 78.03V78.77H1190.76V85H1189.85V78.77H1187.94V78.03H1192.66ZM1194.07 85.06C1193.89 85.06 1193.75 85 1193.63 84.88C1193.51 84.76 1193.45 84.6133 1193.45 84.44C1193.45 84.2667 1193.51 84.12 1193.63 84C1193.75 83.88 1193.89 83.82 1194.07 83.82C1194.23 83.82 1194.37 83.88 1194.49 84C1194.61 84.12 1194.67 84.2667 1194.67 84.44C1194.67 84.6133 1194.61 84.76 1194.49 84.88C1194.37 85 1194.23 85.06 1194.07 85.06ZM1199.45 78.77V81.1H1201.99V81.85H1199.45V84.25H1202.29V85H1198.54V78.02H1202.29V78.77H1199.45ZM1209.15 85H1208.24L1204.58 79.45V85H1203.67V78.02H1204.58L1208.24 83.56V78.02H1209.15V85ZM1212.87 78.03C1213.63 78.03 1214.29 78.1733 1214.84 78.46C1215.4 78.74 1215.83 79.1433 1216.12 79.67C1216.42 80.1967 1216.57 80.8167 1216.57 81.53C1216.57 82.2433 1216.42 82.8633 1216.12 83.39C1215.83 83.91 1215.4 84.31 1214.84 84.59C1214.29 84.8633 1213.63 85 1212.87 85H1210.7V78.03H1212.87ZM1212.87 84.25C1213.77 84.25 1214.46 84.0133 1214.93 83.54C1215.4 83.06 1215.64 82.39 1215.64 81.53C1215.64 80.6633 1215.4 79.9867 1214.92 79.5C1214.45 79.0133 1213.76 78.77 1212.87 78.77H1211.61V84.25H1212.87Z" fill="black" /><path id="High Risk_2" d="M919.68 78.77V81.1H922.22V81.85H919.68V84.25H922.52V85H918.77V78.02H922.52V78.77H919.68ZM926.107 85.07C925.647 85.07 925.234 84.99 924.867 84.83C924.507 84.6633 924.224 84.4367 924.017 84.15C923.81 83.8567 923.704 83.52 923.697 83.14H924.667C924.7 83.4667 924.834 83.7433 925.067 83.97C925.307 84.19 925.654 84.3 926.107 84.3C926.54 84.3 926.88 84.1933 927.127 83.98C927.38 83.76 927.507 83.48 927.507 83.14C927.507 82.8733 927.434 82.6567 927.287 82.49C927.14 82.3233 926.957 82.1967 926.737 82.11C926.517 82.0233 926.22 81.93 925.847 81.83C925.387 81.71 925.017 81.59 924.737 81.47C924.464 81.35 924.227 81.1633 924.027 80.91C923.834 80.65 923.737 80.3033 923.737 79.87C923.737 79.49 923.834 79.1533 924.027 78.86C924.22 78.5667 924.49 78.34 924.837 78.18C925.19 78.02 925.594 77.94 926.047 77.94C926.7 77.94 927.234 78.1033 927.647 78.43C928.067 78.7567 928.304 79.19 928.357 79.73H927.357C927.324 79.4633 927.184 79.23 926.937 79.03C926.69 78.8233 926.364 78.72 925.957 78.72C925.577 78.72 925.267 78.82 925.027 79.02C924.787 79.2133 924.667 79.4867 924.667 79.84C924.667 80.0933 924.737 80.3 924.877 80.46C925.024 80.62 925.2 80.7433 925.407 80.83C925.62 80.91 925.917 81.0033 926.297 81.11C926.757 81.2367 927.127 81.3633 927.407 81.49C927.687 81.61 927.927 81.8 928.127 82.06C928.327 82.3133 928.427 82.66 928.427 83.1C928.427 83.44 928.337 83.76 928.157 84.06C927.977 84.36 927.71 84.6033 927.357 84.79C927.004 84.9767 926.587 85.07 926.107 85.07ZM934.056 78.03V78.77H932.156V85H931.246V78.77H929.336V78.03H934.056ZM935.466 85.06C935.293 85.06 935.146 85 935.026 84.88C934.906 84.76 934.846 84.6133 934.846 84.44C934.846 84.2667 934.906 84.12 935.026 84C935.146 83.88 935.293 83.82 935.466 83.82C935.633 83.82 935.773 83.88 935.886 84C936.006 84.12 936.066 84.2667 936.066 84.44C936.066 84.6133 936.006 84.76 935.886 84.88C935.773 85 935.633 85.06 935.466 85.06ZM942.152 85.07C941.692 85.07 941.279 84.99 940.912 84.83C940.552 84.6633 940.269 84.4367 940.062 84.15C939.855 83.8567 939.749 83.52 939.742 83.14H940.712C940.745 83.4667 940.879 83.7433 941.112 83.97C941.352 84.19 941.699 84.3 942.152 84.3C942.585 84.3 942.925 84.1933 943.172 83.98C943.425 83.76 943.552 83.48 943.552 83.14C943.552 82.8733 943.479 82.6567 943.332 82.49C943.185 82.3233 943.002 82.1967 942.782 82.11C942.562 82.0233 942.265 81.93 941.892 81.83C941.432 81.71 941.062 81.59 940.782 81.47C940.509 81.35 940.272 81.1633 940.072 80.91C939.879 80.65 939.782 80.3033 939.782 79.87C939.782 79.49 939.879 79.1533 940.072 78.86C940.265 78.5667 940.535 78.34 940.882 78.18C941.235 78.02 941.639 77.94 942.092 77.94C942.745 77.94 943.279 78.1033 943.692 78.43C944.112 78.7567 944.349 79.19 944.402 79.73H943.402C943.369 79.4633 943.229 79.23 942.982 79.03C942.735 78.8233 942.409 78.72 942.002 78.72C941.622 78.72 941.312 78.82 941.072 79.02C940.832 79.2133 940.712 79.4867 940.712 79.84C940.712 80.0933 940.782 80.3 940.922 80.46C941.069 80.62 941.245 80.7433 941.452 80.83C941.665 80.91 941.962 81.0033 942.342 81.11C942.802 81.2367 943.172 81.3633 943.452 81.49C943.732 81.61 943.972 81.8 944.172 82.06C944.372 82.3133 944.472 82.66 944.472 83.1C944.472 83.44 944.382 83.76 944.202 84.06C944.022 84.36 943.755 84.6033 943.402 84.79C943.049 84.9767 942.632 85.07 942.152 85.07ZM950.101 78.03V78.77H948.201V85H947.291V78.77H945.381V78.03H950.101ZM955.341 83.45H952.301L951.741 85H950.781L953.301 78.07H954.351L956.861 85H955.901L955.341 83.45ZM955.081 82.71L953.821 79.19L952.561 82.71H955.081ZM961.629 85L959.969 82.15H958.869V85H957.959V78.03H960.209C960.736 78.03 961.179 78.12 961.539 78.3C961.906 78.48 962.179 78.7233 962.359 79.03C962.539 79.3367 962.629 79.6867 962.629 80.08C962.629 80.56 962.489 80.9833 962.209 81.35C961.936 81.7167 961.523 81.96 960.969 82.08L962.719 85H961.629ZM958.869 81.42H960.209C960.703 81.42 961.073 81.3 961.319 81.06C961.566 80.8133 961.689 80.4867 961.689 80.08C961.689 79.6667 961.566 79.3467 961.319 79.12C961.079 78.8933 960.709 78.78 960.209 78.78H958.869V81.42ZM968.333 78.03V78.77H966.433V85H965.523V78.77H963.613V78.03H968.333Z" fill="black" /><g id="Group 1736"><path id="Vector 15 (Stroke)_2" opacity="0.8" fill-rule="evenodd" clip-rule="evenodd" d="M911 82V33H912V82H911Z" fill="#C6C6C6" /><circle id="Ellipse 27_2" cx="911.5" cy="81.5" r="2.5" fill="#C4C4C4" /></g><g id="Group 1738"><path id="Vector 15 (Stroke)_3" opacity="0.8" fill-rule="evenodd" clip-rule="evenodd" d="M1221 82V33H1222V82H1221Z" fill="#C6C6C6" /><circle id="Ellipse 27_3" cx="1221.5" cy="81.5" r="2.5" fill="#C4C4C4" /></g><g id="surge table / element 2"><rect id="Rectangle 32" opacity="0.8" x="911" y="18" width="311" height="32" rx="16" fill="#F4F4F4" /><rect id="Rectangle 33" opacity="0.6" x="927" y="49" width="280" height="1" fill="#C8CCB7" /><path id="Sign up for Surge No" d="M963.89 28.45H960.85L960.29 30H959.33L961.85 23.07H962.9L965.41 30H964.45L963.89 28.45ZM963.63 27.71L962.37 24.19L961.11 27.71H963.63ZM966.168 26.51C966.168 25.83 966.322 25.22 966.628 24.68C966.935 24.1333 967.352 23.7067 967.878 23.4C968.412 23.0933 969.002 22.94 969.648 22.94C970.408 22.94 971.072 23.1233 971.638 23.49C972.205 23.8567 972.618 24.3767 972.878 25.05H971.788C971.595 24.63 971.315 24.3067 970.948 24.08C970.588 23.8533 970.155 23.74 969.648 23.74C969.162 23.74 968.725 23.8533 968.338 24.08C967.952 24.3067 967.648 24.63 967.428 25.05C967.208 25.4633 967.098 25.95 967.098 26.51C967.098 27.0633 967.208 27.55 967.428 27.97C967.648 28.3833 967.952 28.7033 968.338 28.93C968.725 29.1567 969.162 29.27 969.648 29.27C970.155 29.27 970.588 29.16 970.948 28.94C971.315 28.7133 971.595 28.39 971.788 27.97H972.878C972.618 28.6367 972.205 29.1533 971.638 29.52C971.072 29.88 970.408 30.06 969.648 30.06C969.002 30.06 968.412 29.91 967.878 29.61C967.352 29.3033 966.935 28.88 966.628 28.34C966.322 27.8 966.168 27.19 966.168 26.51ZM978.523 23.03V23.77H976.623V30H975.713V23.77H973.803V23.03H978.523ZM980.553 23.03V30H979.643V23.03H980.553ZM987.864 23.03L985.234 30H984.184L981.554 23.03H982.524L984.714 29.04L986.904 23.03H987.864ZM989.772 23.03V30H988.862V23.03H989.772ZM995.613 23.03V23.77H993.713V30H992.803V23.77H990.893V23.03H995.613ZM1001.61 23.03L999.343 27.37V30H998.433V27.37L996.153 23.03H997.163L998.883 26.56L1000.6 23.03H1001.61ZM1008.4 30.07C1007.75 30.07 1007.16 29.92 1006.63 29.62C1006.1 29.3133 1005.67 28.89 1005.36 28.35C1005.05 27.8033 1004.9 27.19 1004.9 26.51C1004.9 25.83 1005.05 25.22 1005.36 24.68C1005.67 24.1333 1006.1 23.71 1006.63 23.41C1007.16 23.1033 1007.75 22.95 1008.4 22.95C1009.05 22.95 1009.65 23.1033 1010.18 23.41C1010.71 23.71 1011.13 24.13 1011.44 24.67C1011.75 25.21 1011.9 25.8233 1011.9 26.51C1011.9 27.1967 1011.75 27.81 1011.44 28.35C1011.13 28.89 1010.71 29.3133 1010.18 29.62C1009.65 29.92 1009.05 30.07 1008.4 30.07ZM1008.4 29.28C1008.89 29.28 1009.32 29.1667 1009.71 28.94C1010.1 28.7133 1010.41 28.39 1010.63 27.97C1010.86 27.55 1010.97 27.0633 1010.97 26.51C1010.97 25.95 1010.86 25.4633 1010.63 25.05C1010.41 24.63 1010.11 24.3067 1009.72 24.08C1009.33 23.8533 1008.89 23.74 1008.4 23.74C1007.91 23.74 1007.47 23.8533 1007.08 24.08C1006.69 24.3067 1006.39 24.63 1006.16 25.05C1005.94 25.4633 1005.83 25.95 1005.83 26.51C1005.83 27.0633 1005.94 27.55 1006.16 27.97C1006.39 28.39 1006.69 28.7133 1007.08 28.94C1007.47 29.1667 1007.91 29.28 1008.4 29.28ZM1016.77 30L1015.11 27.15H1014.01V30H1013.1V23.03H1015.35C1015.88 23.03 1016.32 23.12 1016.68 23.3C1017.05 23.48 1017.32 23.7233 1017.5 24.03C1017.68 24.3367 1017.77 24.6867 1017.77 25.08C1017.77 25.56 1017.63 25.9833 1017.35 26.35C1017.08 26.7167 1016.66 26.96 1016.11 27.08L1017.86 30H1016.77ZM1014.01 26.42H1015.35C1015.84 26.42 1016.21 26.3 1016.46 26.06C1016.71 25.8133 1016.83 25.4867 1016.83 25.08C1016.83 24.6667 1016.71 24.3467 1016.46 24.12C1016.22 23.8933 1015.85 23.78 1015.35 23.78H1014.01V26.42ZM1024.02 23.03C1024.78 23.03 1025.44 23.1733 1025.99 23.46C1026.55 23.74 1026.98 24.1433 1027.27 24.67C1027.57 25.1967 1027.72 25.8167 1027.72 26.53C1027.72 27.2433 1027.57 27.8633 1027.27 28.39C1026.98 28.91 1026.55 29.31 1025.99 29.59C1025.44 29.8633 1024.78 30 1024.02 30H1021.85V23.03H1024.02ZM1024.02 29.25C1024.92 29.25 1025.61 29.0133 1026.08 28.54C1026.55 28.06 1026.79 27.39 1026.79 26.53C1026.79 25.6633 1026.55 24.9867 1026.07 24.5C1025.6 24.0133 1024.91 23.77 1024.02 23.77H1022.76V29.25H1024.02ZM1029.83 23.77V26.1H1032.37V26.85H1029.83V29.25H1032.67V30H1028.92V23.02H1032.67V23.77H1029.83ZM1034.96 29.26H1037.4V30H1034.05V23.03H1034.96V29.26ZM1039.27 23.03V30H1038.36V23.03H1039.27ZM1046.58 23.03L1043.95 30H1042.9L1040.27 23.03H1041.24L1043.43 29.04L1045.62 23.03H1046.58ZM1048.49 23.77V26.1H1051.03V26.85H1048.49V29.25H1051.33V30H1047.58V23.02H1051.33V23.77H1048.49ZM1056.38 30L1054.72 27.15H1053.62V30H1052.71V23.03H1054.96C1055.49 23.03 1055.93 23.12 1056.29 23.3C1056.66 23.48 1056.93 23.7233 1057.11 24.03C1057.29 24.3367 1057.38 24.6867 1057.38 25.08C1057.38 25.56 1057.24 25.9833 1056.96 26.35C1056.69 26.7167 1056.27 26.96 1055.72 27.08L1057.47 30H1056.38ZM1053.62 26.42H1054.96C1055.45 26.42 1055.82 26.3 1056.07 26.06C1056.32 25.8133 1056.44 25.4867 1056.44 25.08C1056.44 24.6667 1056.32 24.3467 1056.07 24.12C1055.83 23.8933 1055.46 23.78 1054.96 23.78H1053.62V26.42ZM1062.91 28.45H1059.87L1059.31 30H1058.35L1060.87 23.07H1061.92L1064.43 30H1063.47L1062.91 28.45ZM1062.65 27.71L1061.39 24.19L1060.13 27.71H1062.65ZM1069.02 26.41C1069.28 26.45 1069.51 26.5533 1069.71 26.72C1069.93 26.8867 1070.09 27.0933 1070.21 27.34C1070.34 27.5867 1070.4 27.85 1070.4 28.13C1070.4 28.4833 1070.31 28.8033 1070.13 29.09C1069.95 29.37 1069.69 29.5933 1069.34 29.76C1069 29.92 1068.6 30 1068.13 30H1065.53V23.03H1068.03C1068.51 23.03 1068.91 23.11 1069.24 23.27C1069.58 23.4233 1069.83 23.6333 1069.99 23.9C1070.16 24.1667 1070.24 24.4667 1070.24 24.8C1070.24 25.2133 1070.13 25.5567 1069.9 25.83C1069.68 26.0967 1069.39 26.29 1069.02 26.41ZM1066.44 26.04H1067.97C1068.4 26.04 1068.73 25.94 1068.96 25.74C1069.2 25.54 1069.31 25.2633 1069.31 24.91C1069.31 24.5567 1069.2 24.28 1068.96 24.08C1068.73 23.88 1068.39 23.78 1067.95 23.78H1066.44V26.04ZM1068.05 29.25C1068.51 29.25 1068.86 29.1433 1069.11 28.93C1069.37 28.7167 1069.49 28.42 1069.49 28.04C1069.49 27.6533 1069.36 27.35 1069.09 27.13C1068.83 26.9033 1068.47 26.79 1068.02 26.79H1066.44V29.25H1068.05ZM1072.57 29.26H1075.01V30H1071.66V23.03H1072.57V29.26ZM1076.89 23.77V26.1H1079.43V26.85H1076.89V29.25H1079.73V30H1075.98V23.02H1079.73V23.77H1076.89ZM1088.06 23.03V23.77H1086.16V30H1085.25V23.77H1083.34V23.03H1088.06ZM1090.09 23.03V30H1089.18V23.03H1090.09ZM1098.72 23.08V30H1097.81V24.84L1095.51 30H1094.87L1092.56 24.83V30H1091.65V23.08H1092.63L1095.19 28.8L1097.75 23.08H1098.72ZM1101.17 23.77V26.1H1103.71V26.85H1101.17V29.25H1104.01V30H1100.26V23.02H1104.01V23.77H1101.17ZM1106.3 29.26H1108.74V30H1105.39V23.03H1106.3V29.26ZM1110.61 23.03V30H1109.7V23.03H1110.61ZM1117.64 30H1116.73L1113.07 24.45V30H1112.16V23.02H1113.07L1116.73 28.56V23.02H1117.64V30ZM1120.1 23.77V26.1H1122.64V26.85H1120.1V29.25H1122.94V30H1119.19V23.02H1122.94V23.77H1120.1ZM1130.09 23.3L1130.45 23.95L1129.06 24.53L1130.46 25.1L1130.08 25.77L1128.87 24.89L1129.03 26.4H1128.28L1128.43 24.89L1127.22 25.78L1126.83 25.1L1128.22 24.52L1126.83 23.96L1127.2 23.29L1128.44 24.18L1128.28 22.66H1129.04L1128.87 24.18L1130.09 23.3Z" fill="black" /><g id="icons/surge/main_icon"><circle id="Ellipse 25" opacity="0.8" cx="927" cy="34" r="16" fill="#555F1E" /><g id="IFRC-icons-black_Airdrop"><path id="Vector (Stroke)" fill-rule="evenodd" clip-rule="evenodd" d="M925.144 25.2978C921.78 26.1308 919.286 29.1699 919.286 32.7914V32.7947C919.286 33.2467 919.47 33.6589 919.764 33.9573L919.917 34.0942C920.195 34.3142 920.544 34.4433 920.919 34.4362M919.147 34.6076C919.21 34.6696 919.275 34.7284 919.344 34.7837L923.003 38.0632H922.489V45.5051H931.522V38.0632H931.007L934.659 34.7904C934.733 34.7312 934.804 34.6679 934.871 34.6009L934.969 34.5127L934.962 34.5047C935.372 34.0493 935.621 33.4453 935.621 32.7947V32.7914C935.621 28.0332 931.764 24.1758 927.005 24.1758C922.247 24.1758 918.39 28.0332 918.39 32.7914V32.7947C918.39 33.4453 918.639 34.049 919.049 34.5043L919.041 34.5127L919.147 34.6076ZM934.088 34.0997C933.81 34.3165 933.464 34.4434 933.092 34.4362C932.25 34.4201 931.566 33.753 931.524 32.9174C931.526 32.8767 931.527 32.8358 931.527 32.7947V32.7914C931.527 29.8283 930.735 26.9506 928.819 25.286C932.207 26.1017 934.725 29.1526 934.725 32.7914V32.7947C934.725 33.2438 934.543 33.6537 934.253 33.9516L934.088 34.0997ZM925.144 25.2978C923.247 26.9696 922.463 29.8423 922.463 32.7914V32.7947C922.463 32.8787 922.467 32.9618 922.476 33.044C922.375 33.8194 921.718 34.4209 920.919 34.4362M923.377 33.0365C923.382 32.9701 923.385 32.9029 923.385 32.8351H923.36C923.359 32.8217 923.359 32.8082 923.359 32.7947V32.7914C923.359 29.495 924.369 26.6454 926.53 25.4029L926.563 32.8351V32.836C926.562 33.7093 925.862 34.4196 924.992 34.4362C924.185 34.4519 923.495 33.8334 923.377 33.0365ZM922.933 34.268C922.55 34.8135 921.955 35.199 921.267 35.3038L924.346 38.0632H925.142L924.593 35.3049C923.909 35.201 923.318 34.812 922.933 34.268ZM925.501 35.2739C926.12 35.1375 926.652 34.7715 927.005 34.2698C927.354 34.7756 927.884 35.1449 928.509 35.2781L927.956 38.0632H926.055L925.501 35.2739ZM928.869 38.0632H929.664L932.744 35.3038C932.05 35.1978 931.45 34.8063 931.067 34.253C930.687 34.799 930.1 35.1915 929.418 35.3014L928.869 38.0632ZM930.63 33.2145C930.571 34.0716 929.848 34.4523 928.998 34.4362L930.63 33.2145ZM930.63 33.2145C930.63 33.2145 930.631 32.8082 930.631 32.7947V32.7914C930.631 29.4785 929.61 26.6269 927.426 25.3964L927.459 32.8341V32.8351C927.459 33.7178 928.137 34.4197 928.998 34.4362M923.385 38.9592V40.474H930.626V38.9592H923.385ZM930.626 41.37H923.385V42.1977H930.626V41.37ZM930.626 43.0937H923.385V44.6091H930.626V43.0937Z" fill="white" /></g></g></g><g id="icons / checkbox"><path id="Vector" d="M911 28C905.477 28 901 23.523 901 18C901 12.477 905.477 8 911 8C916.523 8 921 12.477 921 18C921 23.523 916.523 28 911 28ZM910.003 22L917.073 14.929L915.659 13.515L910.003 19.172L907.174 16.343L905.76 17.757L910.003 22Z" fill="#F5333F" /><path id="Vector_2" d="M917.073 14.9296L910.003 22.0006L905.76 17.7576L907.174 16.3436L910.003 19.1726L915.659 13.5156L917.073 14.9296Z" fill="white" /></g><g id="Group 1737"><path id="Vector 15 (Stroke)_4" opacity="0.8" fill-rule="evenodd" clip-rule="evenodd" d="M1128 82V33H1129V82H1128Z" fill="#C6C6C6" /><circle id="Ellipse 27_4" cx="1128.5" cy="81.5" r="2.5" fill="#C4C4C4" /></g></g><path id="Path_2" d="M0 1H1280V0H0V1Z" fill="#F4F4F4" /><g id="Frame 1661"><path id="Legend" d="M26.268 30.896H29.088V32H24.9V23.66H26.268V30.896ZM36.292 28.532C36.292 28.78 36.276 29.004 36.244 29.204H31.192C31.232 29.732 31.428 30.156 31.78 30.476C32.132 30.796 32.564 30.956 33.076 30.956C33.812 30.956 34.332 30.648 34.636 30.032H36.112C35.912 30.64 35.548 31.14 35.02 31.532C34.5 31.916 33.852 32.108 33.076 32.108C32.444 32.108 31.876 31.968 31.372 31.688C30.876 31.4 30.484 31 30.196 30.488C29.916 29.968 29.776 29.368 29.776 28.688C29.776 28.008 29.912 27.412 30.184 26.9C30.464 26.38 30.852 25.98 31.348 25.7C31.852 25.42 32.428 25.28 33.076 25.28C33.7 25.28 34.256 25.416 34.744 25.688C35.232 25.96 35.612 26.344 35.884 26.84C36.156 27.328 36.292 27.892 36.292 28.532ZM34.864 28.1C34.856 27.596 34.676 27.192 34.324 26.888C33.972 26.584 33.536 26.432 33.016 26.432C32.544 26.432 32.14 26.584 31.804 26.888C31.468 27.184 31.268 27.588 31.204 28.1H34.864ZM40.3023 25.28C40.8143 25.28 41.2663 25.384 41.6583 25.592C42.0583 25.792 42.3703 26.044 42.5943 26.348V25.388H43.9743V32.108C43.9743 32.716 43.8463 33.256 43.5903 33.728C43.3343 34.208 42.9623 34.584 42.4743 34.856C41.9943 35.128 41.4183 35.264 40.7463 35.264C39.8503 35.264 39.1063 35.052 38.5143 34.628C37.9223 34.212 37.5863 33.644 37.5063 32.924H38.8623C38.9663 33.268 39.1863 33.544 39.5223 33.752C39.8663 33.968 40.2743 34.076 40.7463 34.076C41.2983 34.076 41.7423 33.908 42.0783 33.572C42.4223 33.236 42.5943 32.748 42.5943 32.108V31.004C42.3623 31.316 42.0463 31.58 41.6463 31.796C41.2543 32.004 40.8063 32.108 40.3023 32.108C39.7263 32.108 39.1983 31.964 38.7183 31.676C38.2463 31.38 37.8703 30.972 37.5903 30.452C37.3183 29.924 37.1823 29.328 37.1823 28.664C37.1823 28 37.3183 27.412 37.5903 26.9C37.8703 26.388 38.2463 25.992 38.7183 25.712C39.1983 25.424 39.7263 25.28 40.3023 25.28ZM42.5943 28.688C42.5943 28.232 42.4983 27.836 42.3063 27.5C42.1223 27.164 41.8783 26.908 41.5743 26.732C41.2703 26.556 40.9423 26.468 40.5903 26.468C40.2383 26.468 39.9103 26.556 39.6063 26.732C39.3023 26.9 39.0543 27.152 38.8623 27.488C38.6783 27.816 38.5863 28.208 38.5863 28.664C38.5863 29.12 38.6783 29.52 38.8623 29.864C39.0543 30.208 39.3023 30.472 39.6063 30.656C39.9183 30.832 40.2463 30.92 40.5903 30.92C40.9423 30.92 41.2703 30.832 41.5743 30.656C41.8783 30.48 42.1223 30.224 42.3063 29.888C42.4983 29.544 42.5943 29.144 42.5943 28.688ZM51.8311 28.532C51.8311 28.78 51.8151 29.004 51.7831 29.204H46.7311C46.7711 29.732 46.9671 30.156 47.3191 30.476C47.6711 30.796 48.1031 30.956 48.6151 30.956C49.3511 30.956 49.8711 30.648 50.1751 30.032H51.6511C51.4511 30.64 51.0871 31.14 50.5591 31.532C50.0391 31.916 49.3911 32.108 48.6151 32.108C47.9831 32.108 47.4151 31.968 46.9111 31.688C46.4151 31.4 46.0231 31 45.7351 30.488C45.4551 29.968 45.3151 29.368 45.3151 28.688C45.3151 28.008 45.4511 27.412 45.7231 26.9C46.0031 26.38 46.3911 25.98 46.8871 25.7C47.3911 25.42 47.9671 25.28 48.6151 25.28C49.2391 25.28 49.7951 25.416 50.2831 25.688C50.7711 25.96 51.1511 26.344 51.4231 26.84C51.6951 27.328 51.8311 27.892 51.8311 28.532ZM50.4031 28.1C50.3951 27.596 50.2151 27.192 49.8631 26.888C49.5111 26.584 49.0751 26.432 48.5551 26.432C48.0831 26.432 47.6791 26.584 47.3431 26.888C47.0071 27.184 46.8071 27.588 46.7431 28.1H50.4031ZM56.5133 25.28C57.0333 25.28 57.4973 25.388 57.9053 25.604C58.3213 25.82 58.6453 26.14 58.8773 26.564C59.1093 26.988 59.2253 27.5 59.2253 28.1V32H57.8693V28.304C57.8693 27.712 57.7213 27.26 57.4253 26.948C57.1293 26.628 56.7253 26.468 56.2133 26.468C55.7013 26.468 55.2933 26.628 54.9893 26.948C54.6933 27.26 54.5453 27.712 54.5453 28.304V32H53.1773V25.388H54.5453V26.144C54.7693 25.872 55.0533 25.66 55.3973 25.508C55.7493 25.356 56.1213 25.28 56.5133 25.28ZM60.5143 28.664C60.5143 28 60.6503 27.412 60.9223 26.9C61.2023 26.388 61.5783 25.992 62.0503 25.712C62.5303 25.424 63.0623 25.28 63.6463 25.28C64.0783 25.28 64.5023 25.376 64.9183 25.568C65.3423 25.752 65.6783 26 65.9263 26.312V23.12H67.3063V32H65.9263V31.004C65.7023 31.324 65.3903 31.588 64.9903 31.796C64.5983 32.004 64.1463 32.108 63.6343 32.108C63.0583 32.108 62.5303 31.964 62.0503 31.676C61.5783 31.38 61.2023 30.972 60.9223 30.452C60.6503 29.924 60.5143 29.328 60.5143 28.664ZM65.9263 28.688C65.9263 28.232 65.8303 27.836 65.6383 27.5C65.4543 27.164 65.2103 26.908 64.9063 26.732C64.6023 26.556 64.2743 26.468 63.9223 26.468C63.5703 26.468 63.2423 26.556 62.9383 26.732C62.6343 26.9 62.3863 27.152 62.1943 27.488C62.0103 27.816 61.9183 28.208 61.9183 28.664C61.9183 29.12 62.0103 29.52 62.1943 29.864C62.3863 30.208 62.6343 30.472 62.9383 30.656C63.2503 30.832 63.5783 30.92 63.9223 30.92C64.2743 30.92 64.6023 30.832 64.9063 30.656C65.2103 30.48 65.4543 30.224 65.6383 29.888C65.8303 29.544 65.9263 29.144 65.9263 28.688Z" fill="#323232" /><rect id="Rectangle 481" x="109" y="16" width="1" height="24" fill="#C6C6C6" /><g id="Frame 1415"><g id="Frame 1412"><g id="Dot 1  Copy 53"><g id="Dot 1  Copy 69"><circle id="Oval Copy 83" opacity="0.8" cx="158" cy="28" r="8" fill="#555F1E" /></g></g><path id="DREF" d="M174.516 27.812C174.516 26.996 174.7 26.264 175.068 25.616C175.436 24.96 175.936 24.448 176.568 24.08C177.208 23.712 177.916 23.528 178.692 23.528C179.604 23.528 180.4 23.748 181.08 24.188C181.76 24.628 182.256 25.252 182.568 26.06H181.26C181.028 25.556 180.692 25.168 180.252 24.896C179.82 24.624 179.3 24.488 178.692 24.488C178.108 24.488 177.584 24.624 177.12 24.896C176.656 25.168 176.292 25.556 176.028 26.06C175.764 26.556 175.632 27.14 175.632 27.812C175.632 28.476 175.764 29.06 176.028 29.564C176.292 30.06 176.656 30.444 177.12 30.716C177.584 30.988 178.108 31.124 178.692 31.124C179.3 31.124 179.82 30.992 180.252 30.728C180.692 30.456 181.028 30.068 181.26 29.564H182.568C182.256 30.364 181.76 30.984 181.08 31.424C180.4 31.856 179.604 32.072 178.692 32.072C177.916 32.072 177.208 31.892 176.568 31.532C175.936 31.164 175.436 30.656 175.068 30.008C174.7 29.36 174.516 28.628 174.516 27.812ZM187.986 32.084C187.21 32.084 186.502 31.904 185.862 31.544C185.222 31.176 184.714 30.668 184.338 30.02C183.97 29.364 183.786 28.628 183.786 27.812C183.786 26.996 183.97 26.264 184.338 25.616C184.714 24.96 185.222 24.452 185.862 24.092C186.502 23.724 187.21 23.54 187.986 23.54C188.77 23.54 189.482 23.724 190.122 24.092C190.762 24.452 191.266 24.956 191.634 25.604C192.002 26.252 192.186 26.988 192.186 27.812C192.186 28.636 192.002 29.372 191.634 30.02C191.266 30.668 190.762 31.176 190.122 31.544C189.482 31.904 188.77 32.084 187.986 32.084ZM187.986 31.136C188.57 31.136 189.094 31 189.558 30.728C190.03 30.456 190.398 30.068 190.662 29.564C190.934 29.06 191.07 28.476 191.07 27.812C191.07 27.14 190.934 26.556 190.662 26.06C190.398 25.556 190.034 25.168 189.57 24.896C189.106 24.624 188.578 24.488 187.986 24.488C187.394 24.488 186.866 24.624 186.402 24.896C185.938 25.168 185.57 25.556 185.298 26.06C185.034 26.556 184.902 27.14 184.902 27.812C184.902 28.476 185.034 29.06 185.298 29.564C185.57 30.068 185.938 30.456 186.402 30.728C186.874 31 187.402 31.136 187.986 31.136ZM200.203 32H199.111L194.719 25.34V32H193.627V23.624H194.719L199.111 30.272V23.624H200.203V32ZM207.213 23.636V24.524H204.933V32H203.841V24.524H201.549V23.636H207.213ZM209.649 23.636V32H208.557V23.636H209.649ZM218.086 32H216.994L212.602 25.34V32H211.51V23.624H212.602L216.994 30.272V23.624H218.086V32ZM221.015 23.636V28.928C221.015 29.672 221.195 30.224 221.555 30.584C221.923 30.944 222.431 31.124 223.079 31.124C223.719 31.124 224.219 30.944 224.579 30.584C224.947 30.224 225.131 29.672 225.131 28.928V23.636H226.223V28.916C226.223 29.612 226.083 30.2 225.803 30.68C225.523 31.152 225.143 31.504 224.663 31.736C224.191 31.968 223.659 32.084 223.067 32.084C222.475 32.084 221.939 31.968 221.459 31.736C220.987 31.504 220.611 31.152 220.331 30.68C220.059 30.2 219.923 29.612 219.923 28.916V23.636H221.015ZM231.837 32.084C231.061 32.084 230.353 31.904 229.713 31.544C229.073 31.176 228.565 30.668 228.189 30.02C227.821 29.364 227.637 28.628 227.637 27.812C227.637 26.996 227.821 26.264 228.189 25.616C228.565 24.96 229.073 24.452 229.713 24.092C230.353 23.724 231.061 23.54 231.837 23.54C232.621 23.54 233.333 23.724 233.973 24.092C234.613 24.452 235.117 24.956 235.485 25.604C235.853 26.252 236.037 26.988 236.037 27.812C236.037 28.636 235.853 29.372 235.485 30.02C235.117 30.668 234.613 31.176 233.973 31.544C233.333 31.904 232.621 32.084 231.837 32.084ZM231.837 31.136C232.421 31.136 232.945 31 233.409 30.728C233.881 30.456 234.249 30.068 234.513 29.564C234.785 29.06 234.921 28.476 234.921 27.812C234.921 27.14 234.785 26.556 234.513 26.06C234.249 25.556 233.885 25.168 233.421 24.896C232.957 24.624 232.429 24.488 231.837 24.488C231.245 24.488 230.717 24.624 230.253 24.896C229.789 25.168 229.421 25.556 229.149 26.06C228.885 26.556 228.753 27.14 228.753 27.812C228.753 28.476 228.885 29.06 229.149 29.564C229.421 30.068 229.789 30.456 230.253 30.728C230.725 31 231.253 31.136 231.837 31.136ZM238.547 23.636V28.928C238.547 29.672 238.727 30.224 239.087 30.584C239.455 30.944 239.963 31.124 240.611 31.124C241.251 31.124 241.751 30.944 242.111 30.584C242.479 30.224 242.663 29.672 242.663 28.928V23.636H243.755V28.916C243.755 29.612 243.615 30.2 243.335 30.68C243.055 31.152 242.675 31.504 242.195 31.736C241.723 31.968 241.191 32.084 240.599 32.084C240.007 32.084 239.471 31.968 238.991 31.736C238.519 31.504 238.143 31.152 237.863 30.68C237.591 30.2 237.455 29.612 237.455 28.916V23.636H238.547ZM248.228 32.084C247.676 32.084 247.18 31.988 246.74 31.796C246.308 31.596 245.968 31.324 245.72 30.98C245.472 30.628 245.344 30.224 245.336 29.768H246.5C246.54 30.16 246.7 30.492 246.98 30.764C247.268 31.028 247.684 31.16 248.228 31.16C248.748 31.16 249.156 31.032 249.452 30.776C249.756 30.512 249.908 30.176 249.908 29.768C249.908 29.448 249.82 29.188 249.644 28.988C249.468 28.788 249.248 28.636 248.984 28.532C248.72 28.428 248.364 28.316 247.916 28.196C247.364 28.052 246.92 27.908 246.584 27.764C246.256 27.62 245.972 27.396 245.732 27.092C245.5 26.78 245.384 26.364 245.384 25.844C245.384 25.388 245.5 24.984 245.732 24.632C245.964 24.28 246.288 24.008 246.704 23.816C247.128 23.624 247.612 23.528 248.156 23.528C248.94 23.528 249.58 23.724 250.076 24.116C250.58 24.508 250.864 25.028 250.928 25.676H249.728C249.688 25.356 249.52 25.076 249.224 24.836C248.928 24.588 248.536 24.464 248.048 24.464C247.592 24.464 247.22 24.584 246.932 24.824C246.644 25.056 246.5 25.384 246.5 25.808C246.5 26.112 246.584 26.36 246.752 26.552C246.928 26.744 247.14 26.892 247.388 26.996C247.644 27.092 248 27.204 248.456 27.332C249.008 27.484 249.452 27.636 249.788 27.788C250.124 27.932 250.412 28.16 250.652 28.472C250.892 28.776 251.012 29.192 251.012 29.72C251.012 30.128 250.904 30.512 250.688 30.872C250.472 31.232 250.152 31.524 249.728 31.748C249.304 31.972 248.804 32.084 248.228 32.084ZM260.967 23.636V24.524H258.687V32H257.595V24.524H255.303V23.636H260.967ZM267.255 30.14H263.607L262.935 32H261.783L264.807 23.684H266.067L269.079 32H267.927L267.255 30.14ZM266.943 29.252L265.431 25.028L263.919 29.252H266.943ZM273.049 32.084C272.497 32.084 272.001 31.988 271.561 31.796C271.129 31.596 270.789 31.324 270.541 30.98C270.293 30.628 270.165 30.224 270.157 29.768H271.321C271.361 30.16 271.521 30.492 271.801 30.764C272.089 31.028 272.505 31.16 273.049 31.16C273.569 31.16 273.977 31.032 274.273 30.776C274.577 30.512 274.729 30.176 274.729 29.768C274.729 29.448 274.641 29.188 274.465 28.988C274.289 28.788 274.069 28.636 273.805 28.532C273.541 28.428 273.185 28.316 272.737 28.196C272.185 28.052 271.741 27.908 271.405 27.764C271.077 27.62 270.793 27.396 270.553 27.092C270.321 26.78 270.205 26.364 270.205 25.844C270.205 25.388 270.321 24.984 270.553 24.632C270.785 24.28 271.109 24.008 271.525 23.816C271.949 23.624 272.433 23.528 272.977 23.528C273.761 23.528 274.401 23.724 274.897 24.116C275.401 24.508 275.685 25.028 275.749 25.676H274.549C274.509 25.356 274.341 25.076 274.045 24.836C273.749 24.588 273.357 24.464 272.869 24.464C272.413 24.464 272.041 24.584 271.753 24.824C271.465 25.056 271.321 25.384 271.321 25.808C271.321 26.112 271.405 26.36 271.573 26.552C271.749 26.744 271.961 26.892 272.209 26.996C272.465 27.092 272.821 27.204 273.277 27.332C273.829 27.484 274.273 27.636 274.609 27.788C274.945 27.932 275.233 28.16 275.473 28.472C275.713 28.776 275.833 29.192 275.833 29.72C275.833 30.128 275.725 30.512 275.509 30.872C275.293 31.232 274.973 31.524 274.549 31.748C274.125 31.972 273.625 32.084 273.049 32.084ZM281.976 32L278.532 28.184V32H277.44V23.636H278.532V27.512L281.988 23.636H283.368L279.576 27.824L283.404 32H281.976ZM287.275 32.084C286.723 32.084 286.227 31.988 285.787 31.796C285.355 31.596 285.015 31.324 284.767 30.98C284.519 30.628 284.391 30.224 284.383 29.768H285.547C285.587 30.16 285.747 30.492 286.027 30.764C286.315 31.028 286.731 31.16 287.275 31.16C287.795 31.16 288.203 31.032 288.499 30.776C288.803 30.512 288.955 30.176 288.955 29.768C288.955 29.448 288.867 29.188 288.691 28.988C288.515 28.788 288.295 28.636 288.031 28.532C287.767 28.428 287.411 28.316 286.963 28.196C286.411 28.052 285.967 27.908 285.631 27.764C285.303 27.62 285.019 27.396 284.779 27.092C284.547 26.78 284.431 26.364 284.431 25.844C284.431 25.388 284.547 24.984 284.779 24.632C285.011 24.28 285.335 24.008 285.751 23.816C286.175 23.624 286.659 23.528 287.203 23.528C287.987 23.528 288.627 23.724 289.123 24.116C289.627 24.508 289.911 25.028 289.975 25.676H288.775C288.735 25.356 288.567 25.076 288.271 24.836C287.975 24.588 287.583 24.464 287.095 24.464C286.639 24.464 286.267 24.584 285.979 24.824C285.691 25.056 285.547 25.384 285.547 25.808C285.547 26.112 285.631 26.36 285.799 26.552C285.975 26.744 286.187 26.892 286.435 26.996C286.691 27.092 287.047 27.204 287.503 27.332C288.055 27.484 288.499 27.636 288.835 27.788C289.171 27.932 289.459 28.16 289.699 28.472C289.939 28.776 290.059 29.192 290.059 29.72C290.059 30.128 289.951 30.512 289.735 30.872C289.519 31.232 289.199 31.524 288.775 31.748C288.351 31.972 287.851 32.084 287.275 32.084Z" fill="#323232" /></g><g id="Frame 1414"><circle id="Oval Copy 83_2" opacity="0.8" cx="347" cy="28" r="8" fill="#5A325F" /><path id="Multiple Types" d="M369.516 26.084C369.516 26.78 369.276 27.36 368.796 27.824C368.324 28.28 367.6 28.508 366.624 28.508H365.016V32H363.924V23.636H366.624C367.568 23.636 368.284 23.864 368.772 24.32C369.268 24.776 369.516 25.364 369.516 26.084ZM366.624 27.608C367.232 27.608 367.68 27.476 367.968 27.212C368.256 26.948 368.4 26.572 368.4 26.084C368.4 25.052 367.808 24.536 366.624 24.536H365.016V27.608H366.624ZM371.941 23.636V28.928C371.941 29.672 372.121 30.224 372.481 30.584C372.849 30.944 373.357 31.124 374.005 31.124C374.645 31.124 375.145 30.944 375.505 30.584C375.873 30.224 376.057 29.672 376.057 28.928V23.636H377.149V28.916C377.149 29.612 377.009 30.2 376.729 30.68C376.449 31.152 376.069 31.504 375.589 31.736C375.117 31.968 374.585 32.084 373.993 32.084C373.401 32.084 372.865 31.968 372.385 31.736C371.913 31.504 371.537 31.152 371.257 30.68C370.985 30.2 370.849 29.612 370.849 28.916V23.636H371.941ZM385.547 32H384.455L380.063 25.34V32H378.971V23.624H380.063L384.455 30.272V23.624H385.547V32ZM387 27.812C387 26.996 387.184 26.264 387.552 25.616C387.92 24.96 388.42 24.448 389.052 24.08C389.692 23.712 390.4 23.528 391.176 23.528C392.088 23.528 392.884 23.748 393.564 24.188C394.244 24.628 394.74 25.252 395.052 26.06H393.744C393.512 25.556 393.176 25.168 392.736 24.896C392.304 24.624 391.784 24.488 391.176 24.488C390.592 24.488 390.068 24.624 389.604 24.896C389.14 25.168 388.776 25.556 388.512 26.06C388.248 26.556 388.116 27.14 388.116 27.812C388.116 28.476 388.248 29.06 388.512 29.564C388.776 30.06 389.14 30.444 389.604 30.716C390.068 30.988 390.592 31.124 391.176 31.124C391.784 31.124 392.304 30.992 392.736 30.728C393.176 30.456 393.512 30.068 393.744 29.564H395.052C394.74 30.364 394.244 30.984 393.564 31.424C392.884 31.856 392.088 32.072 391.176 32.072C390.4 32.072 389.692 31.892 389.052 31.532C388.42 31.164 387.92 30.656 387.552 30.008C387.184 29.36 387 28.628 387 27.812ZM401.826 23.636V24.524H399.546V32H398.454V24.524H396.162V23.636H401.826ZM404.238 23.636V28.928C404.238 29.672 404.418 30.224 404.778 30.584C405.146 30.944 405.654 31.124 406.302 31.124C406.942 31.124 407.442 30.944 407.802 30.584C408.17 30.224 408.354 29.672 408.354 28.928V23.636H409.446V28.916C409.446 29.612 409.306 30.2 409.026 30.68C408.746 31.152 408.366 31.504 407.886 31.736C407.414 31.968 406.882 32.084 406.29 32.084C405.698 32.084 405.162 31.968 404.682 31.736C404.21 31.504 403.834 31.152 403.554 30.68C403.282 30.2 403.146 29.612 403.146 28.916V23.636H404.238ZM416.212 30.14H412.564L411.892 32H410.74L413.764 23.684H415.024L418.036 32H416.884L416.212 30.14ZM415.9 29.252L414.388 25.028L412.876 29.252H415.9ZM420.446 31.112H423.374V32H419.354V23.636H420.446V31.112ZM432.881 23.636V24.524H430.601V32H429.509V24.524H427.217V23.636H432.881ZM439.169 30.14H435.521L434.849 32H433.697L436.721 23.684H437.981L440.993 32H439.841L439.169 30.14ZM438.857 29.252L437.345 25.028L435.833 29.252H438.857ZM444.963 32.084C444.411 32.084 443.915 31.988 443.475 31.796C443.043 31.596 442.703 31.324 442.455 30.98C442.207 30.628 442.079 30.224 442.071 29.768H443.235C443.275 30.16 443.435 30.492 443.715 30.764C444.003 31.028 444.419 31.16 444.963 31.16C445.483 31.16 445.891 31.032 446.187 30.776C446.491 30.512 446.643 30.176 446.643 29.768C446.643 29.448 446.555 29.188 446.379 28.988C446.203 28.788 445.983 28.636 445.719 28.532C445.455 28.428 445.099 28.316 444.651 28.196C444.099 28.052 443.655 27.908 443.319 27.764C442.991 27.62 442.707 27.396 442.467 27.092C442.235 26.78 442.119 26.364 442.119 25.844C442.119 25.388 442.235 24.984 442.467 24.632C442.699 24.28 443.023 24.008 443.439 23.816C443.863 23.624 444.347 23.528 444.891 23.528C445.675 23.528 446.315 23.724 446.811 24.116C447.315 24.508 447.599 25.028 447.663 25.676H446.463C446.423 25.356 446.255 25.076 445.959 24.836C445.663 24.588 445.271 24.464 444.783 24.464C444.327 24.464 443.955 24.584 443.667 24.824C443.379 25.056 443.235 25.384 443.235 25.808C443.235 26.112 443.319 26.36 443.487 26.552C443.663 26.744 443.875 26.892 444.123 26.996C444.379 27.092 444.735 27.204 445.191 27.332C445.743 27.484 446.187 27.636 446.523 27.788C446.859 27.932 447.147 28.16 447.387 28.472C447.627 28.776 447.747 29.192 447.747 29.72C447.747 30.128 447.639 30.512 447.423 30.872C447.207 31.232 446.887 31.524 446.463 31.748C446.039 31.972 445.539 32.084 444.963 32.084ZM453.89 32L450.446 28.184V32H449.354V23.636H450.446V27.512L453.902 23.636H455.282L451.49 27.824L455.318 32H453.89ZM459.189 32.084C458.637 32.084 458.141 31.988 457.701 31.796C457.269 31.596 456.929 31.324 456.681 30.98C456.433 30.628 456.305 30.224 456.297 29.768H457.461C457.501 30.16 457.661 30.492 457.941 30.764C458.229 31.028 458.645 31.16 459.189 31.16C459.709 31.16 460.117 31.032 460.413 30.776C460.717 30.512 460.869 30.176 460.869 29.768C460.869 29.448 460.781 29.188 460.605 28.988C460.429 28.788 460.209 28.636 459.945 28.532C459.681 28.428 459.325 28.316 458.877 28.196C458.325 28.052 457.881 27.908 457.545 27.764C457.217 27.62 456.933 27.396 456.693 27.092C456.461 26.78 456.345 26.364 456.345 25.844C456.345 25.388 456.461 24.984 456.693 24.632C456.925 24.28 457.249 24.008 457.665 23.816C458.089 23.624 458.573 23.528 459.117 23.528C459.901 23.528 460.541 23.724 461.037 24.116C461.541 24.508 461.825 25.028 461.889 25.676H460.689C460.649 25.356 460.481 25.076 460.185 24.836C459.889 24.588 459.497 24.464 459.009 24.464C458.553 24.464 458.181 24.584 457.893 24.824C457.605 25.056 457.461 25.384 457.461 25.808C457.461 26.112 457.545 26.36 457.713 26.552C457.889 26.744 458.101 26.892 458.349 26.996C458.605 27.092 458.961 27.204 459.417 27.332C459.969 27.484 460.413 27.636 460.749 27.788C461.085 27.932 461.373 28.16 461.613 28.472C461.853 28.776 461.973 29.192 461.973 29.72C461.973 30.128 461.865 30.512 461.649 30.872C461.433 31.232 461.113 31.524 460.689 31.748C460.265 31.972 459.765 32.084 459.189 32.084Z" fill="#323232" /></g></g></g></g></svg>