<svg viewBox="0 0 1280 80" fill="none" xmlns="http://www.w3.org/2000/svg">
<g id="surge_table/title">
<g id="Frame 1730">
<g id="surge_table/title_2">
<rect id="Rectangle 35" opacity="0.8" x="264" y="16" width="580" height="32" fill="#FFAB8E"/>
<path id="Sign up for Surge No" d="M532.339 27.27V37H530.743V30.336L527.775 37H526.669L523.687 30.336V37H522.091V27.27H523.813L527.229 34.9L530.631 27.27H532.339ZM539.574 37.098C538.669 37.098 537.834 36.888 537.068 36.468C536.312 36.0387 535.71 35.446 535.262 34.69C534.824 33.9247 534.604 33.066 534.604 32.114C534.604 31.162 534.824 30.308 535.262 29.552C535.71 28.796 536.312 28.208 537.068 27.788C537.834 27.3587 538.669 27.144 539.574 27.144C540.489 27.144 541.324 27.3587 542.08 27.788C542.846 28.208 543.448 28.796 543.886 29.552C544.325 30.308 544.544 31.162 544.544 32.114C544.544 33.066 544.325 33.9247 543.886 34.69C543.448 35.446 542.846 36.0387 542.08 36.468C541.324 36.888 540.489 37.098 539.574 37.098ZM539.574 35.712C540.218 35.712 540.792 35.5673 541.296 35.278C541.8 34.9793 542.192 34.5593 542.472 34.018C542.762 33.4673 542.906 32.8327 542.906 32.114C542.906 31.3953 542.762 30.7653 542.472 30.224C542.192 29.6827 541.8 29.2673 541.296 28.978C540.792 28.6887 540.218 28.544 539.574 28.544C538.93 28.544 538.356 28.6887 537.852 28.978C537.348 29.2673 536.952 29.6827 536.662 30.224C536.382 30.7653 536.242 31.3953 536.242 32.114C536.242 32.8327 536.382 33.4673 536.662 34.018C536.952 34.5593 537.348 34.9793 537.852 35.278C538.356 35.5673 538.93 35.712 539.574 35.712ZM554.809 37H553.213L548.411 29.734V37H546.815V27.256H548.411L553.213 34.508V27.256H554.809V37ZM563.891 27.27V28.572H561.301V37H559.705V28.572H557.101V27.27H563.891ZM573.977 27.27V37H572.381V32.744H567.803V37H566.207V27.27H567.803V31.442H572.381V27.27H573.977ZM580.695 28.25V26.794H583.607V37H581.997V28.25H580.695Z" fill="#323232"/>
</g>
<g id="surge_table/title_3">
<rect id="Rectangle 35_2" opacity="0.6" x="844" y="16" width="145" height="32" fill="#FFAB8E"/>
<path id="Sign up for Surge No_2" d="M893.746 27.27V37H892.15V30.336L889.182 37H888.076L885.094 30.336V37H883.498V27.27H885.22L888.636 34.9L892.038 27.27H893.746ZM900.982 37.098C900.076 37.098 899.241 36.888 898.476 36.468C897.72 36.0387 897.118 35.446 896.67 34.69C896.231 33.9247 896.012 33.066 896.012 32.114C896.012 31.162 896.231 30.308 896.67 29.552C897.118 28.796 897.72 28.208 898.476 27.788C899.241 27.3587 900.076 27.144 900.982 27.144C901.896 27.144 902.732 27.3587 903.488 27.788C904.253 28.208 904.855 28.796 905.294 29.552C905.732 30.308 905.952 31.162 905.952 32.114C905.952 33.066 905.732 33.9247 905.294 34.69C904.855 35.446 904.253 36.0387 903.488 36.468C902.732 36.888 901.896 37.098 900.982 37.098ZM900.982 35.712C901.626 35.712 902.2 35.5673 902.704 35.278C903.208 34.9793 903.6 34.5593 903.88 34.018C904.169 33.4673 904.314 32.8327 904.314 32.114C904.314 31.3953 904.169 30.7653 903.88 30.224C903.6 29.6827 903.208 29.2673 902.704 28.978C902.2 28.6887 901.626 28.544 900.982 28.544C900.338 28.544 899.764 28.6887 899.26 28.978C898.756 29.2673 898.359 29.6827 898.07 30.224C897.79 30.7653 897.65 31.3953 897.65 32.114C897.65 32.8327 897.79 33.4673 898.07 34.018C898.359 34.5593 898.756 34.9793 899.26 35.278C899.764 35.5673 900.338 35.712 900.982 35.712ZM916.216 37H914.62L909.818 29.734V37H908.222V27.256H909.818L914.62 34.508V27.256H916.216V37ZM925.298 27.27V28.572H922.708V37H921.112V28.572H918.508V27.27H925.298ZM935.384 27.27V37H933.788V32.744H929.21V37H927.614V27.27H929.21V31.442H933.788V27.27H935.384ZM943.194 34.83C944.09 34.0553 944.795 33.4207 945.308 32.926C945.831 32.422 946.265 31.8993 946.61 31.358C946.955 30.8167 947.128 30.2753 947.128 29.734C947.128 29.174 946.993 28.7353 946.722 28.418C946.461 28.1007 946.045 27.942 945.476 27.942C944.925 27.942 944.496 28.1193 944.188 28.474C943.889 28.8193 943.731 29.286 943.712 29.874H942.172C942.2 28.81 942.517 27.998 943.124 27.438C943.74 26.8687 944.519 26.584 945.462 26.584C946.479 26.584 947.273 26.864 947.842 27.424C948.421 27.984 948.71 28.7307 948.71 29.664C948.71 30.336 948.537 30.9847 948.192 31.61C947.856 32.226 947.45 32.7813 946.974 33.276C946.507 33.7613 945.91 34.326 945.182 34.97L944.552 35.53H948.99V36.86H942.186V35.698L943.194 34.83Z" fill="#323232"/>
</g>
<g id="surge_table/title_4">
<rect id="Rectangle 35_3" opacity="0.4" x="989" y="16" width="145" height="32" fill="#FFAB8E"/>
<path id="Sign up for Surge No_3" d="M1038.63 27.27V37H1037.03V30.336L1034.07 37H1032.96L1029.98 30.336V37H1028.38V27.27H1030.1L1033.52 34.9L1036.92 27.27H1038.63ZM1045.87 37.098C1044.96 37.098 1044.12 36.888 1043.36 36.468C1042.6 36.0387 1042 35.446 1041.55 34.69C1041.11 33.9247 1040.9 33.066 1040.9 32.114C1040.9 31.162 1041.11 30.308 1041.55 29.552C1042 28.796 1042.6 28.208 1043.36 27.788C1044.12 27.3587 1044.96 27.144 1045.87 27.144C1046.78 27.144 1047.62 27.3587 1048.37 27.788C1049.14 28.208 1049.74 28.796 1050.18 29.552C1050.62 30.308 1050.84 31.162 1050.84 32.114C1050.84 33.066 1050.62 33.9247 1050.18 34.69C1049.74 35.446 1049.14 36.0387 1048.37 36.468C1047.62 36.888 1046.78 37.098 1045.87 37.098ZM1045.87 35.712C1046.51 35.712 1047.08 35.5673 1047.59 35.278C1048.09 34.9793 1048.48 34.5593 1048.76 34.018C1049.05 33.4673 1049.2 32.8327 1049.2 32.114C1049.2 31.3953 1049.05 30.7653 1048.76 30.224C1048.48 29.6827 1048.09 29.2673 1047.59 28.978C1047.08 28.6887 1046.51 28.544 1045.87 28.544C1045.22 28.544 1044.65 28.6887 1044.14 28.978C1043.64 29.2673 1043.24 29.6827 1042.95 30.224C1042.67 30.7653 1042.53 31.3953 1042.53 32.114C1042.53 32.8327 1042.67 33.4673 1042.95 34.018C1043.24 34.5593 1043.64 34.9793 1044.14 35.278C1044.65 35.5673 1045.22 35.712 1045.87 35.712ZM1061.1 37H1059.5L1054.7 29.734V37H1053.11V27.256H1054.7L1059.5 34.508V27.256H1061.1V37ZM1070.18 27.27V28.572H1067.59V37H1066V28.572H1063.39V27.27H1070.18ZM1080.27 27.27V37H1078.67V32.744H1074.09V37H1072.5V27.27H1074.09V31.442H1078.67V27.27H1080.27ZM1087.17 29.314C1087.22 28.446 1087.56 27.7693 1088.16 27.284C1088.78 26.7987 1089.56 26.556 1090.51 26.556C1091.17 26.556 1091.73 26.6727 1092.21 26.906C1092.68 27.1393 1093.04 27.4567 1093.29 27.858C1093.53 28.2593 1093.65 28.712 1093.65 29.216C1093.65 29.7947 1093.5 30.2893 1093.19 30.7C1092.88 31.1107 1092.51 31.386 1092.08 31.526V31.582C1092.63 31.75 1093.06 32.058 1093.37 32.506C1093.68 32.9447 1093.83 33.5093 1093.83 34.2C1093.83 34.7507 1093.71 35.2407 1093.45 35.67C1093.2 36.0993 1092.83 36.44 1092.33 36.692C1091.84 36.9347 1091.25 37.056 1090.56 37.056C1089.55 37.056 1088.72 36.7993 1088.06 36.286C1087.42 35.7633 1087.07 35.0167 1087.03 34.046H1088.57C1088.61 34.5407 1088.8 34.9467 1089.14 35.264C1089.49 35.572 1089.95 35.726 1090.54 35.726C1091.11 35.726 1091.55 35.572 1091.86 35.264C1092.17 34.9467 1092.32 34.5407 1092.32 34.046C1092.32 33.3927 1092.11 32.9307 1091.69 32.66C1091.28 32.38 1090.64 32.24 1089.79 32.24H1089.42V30.924H1089.8C1090.56 30.9147 1091.13 30.7887 1091.52 30.546C1091.92 30.3033 1092.12 29.9207 1092.12 29.398C1092.12 28.95 1091.98 28.5953 1091.69 28.334C1091.4 28.0633 1090.99 27.928 1090.46 27.928C1089.94 27.928 1089.53 28.0633 1089.24 28.334C1088.95 28.5953 1088.78 28.922 1088.72 29.314H1087.17Z" fill="#323232"/>
</g>
<g id="surge_table/title_5">
<path id="Rectangle 35_4" opacity="0.2" d="M1134 16H1272C1276.42 16 1280 19.5817 1280 24V48H1134V16Z" fill="#FFAB8E"/>
<path id="Sign up for Surge No_4" d="M1183.75 27.27V37H1182.16V30.336L1179.19 37H1178.08L1175.1 30.336V37H1173.51V27.27H1175.23L1178.64 34.9L1182.05 27.27H1183.75ZM1190.99 37.098C1190.08 37.098 1189.25 36.888 1188.48 36.468C1187.73 36.0387 1187.13 35.446 1186.68 34.69C1186.24 33.9247 1186.02 33.066 1186.02 32.114C1186.02 31.162 1186.24 30.308 1186.68 29.552C1187.13 28.796 1187.73 28.208 1188.48 27.788C1189.25 27.3587 1190.08 27.144 1190.99 27.144C1191.9 27.144 1192.74 27.3587 1193.5 27.788C1194.26 28.208 1194.86 28.796 1195.3 29.552C1195.74 30.308 1195.96 31.162 1195.96 32.114C1195.96 33.066 1195.74 33.9247 1195.3 34.69C1194.86 35.446 1194.26 36.0387 1193.5 36.468C1192.74 36.888 1191.9 37.098 1190.99 37.098ZM1190.99 35.712C1191.63 35.712 1192.21 35.5673 1192.71 35.278C1193.22 34.9793 1193.61 34.5593 1193.89 34.018C1194.18 33.4673 1194.32 32.8327 1194.32 32.114C1194.32 31.3953 1194.18 30.7653 1193.89 30.224C1193.61 29.6827 1193.22 29.2673 1192.71 28.978C1192.21 28.6887 1191.63 28.544 1190.99 28.544C1190.35 28.544 1189.77 28.6887 1189.27 28.978C1188.76 29.2673 1188.37 29.6827 1188.08 30.224C1187.8 30.7653 1187.66 31.3953 1187.66 32.114C1187.66 32.8327 1187.8 33.4673 1188.08 34.018C1188.37 34.5593 1188.76 34.9793 1189.27 35.278C1189.77 35.5673 1190.35 35.712 1190.99 35.712ZM1206.22 37H1204.63L1199.83 29.734V37H1198.23V27.256H1199.83L1204.63 34.508V27.256H1206.22V37ZM1215.31 27.27V28.572H1212.72V37H1211.12V28.572H1208.52V27.27H1215.31ZM1225.39 27.27V37H1223.8V32.744H1219.22V37H1217.62V27.27H1219.22V31.442H1223.8V27.27H1225.39ZM1232.12 34.872V33.668L1236.83 26.92H1238.76V33.486H1240.06V34.872H1238.76V37H1237.19V34.872H1232.12ZM1237.26 28.544L1233.96 33.486H1237.26V28.544Z" fill="#323232"/>
</g>
</g>
<g id="Frame 1730_2">
<g id="surge_table/subtitle">
<rect id="Rectangle 35_5" x="264" y="48" width="145" height="32" fill="#F7F7F7"/>
<path id="Sign up for Surge No_5" d="M326.62 59.242L323.792 69H322.364L320.096 61.146L317.744 69L316.33 69.014L313.6 59.242H314.958L317.086 67.516L319.438 59.242H320.866L323.106 67.488L325.248 59.242H326.62ZM335.014 64.87C335.014 65.1127 335 65.3693 334.972 65.64H328.84C328.887 66.396 329.144 66.9887 329.61 67.418C330.086 67.838 330.66 68.048 331.332 68.048C331.883 68.048 332.34 67.922 332.704 67.67C333.078 67.4087 333.339 67.0633 333.488 66.634H334.86C334.655 67.3713 334.244 67.9733 333.628 68.44C333.012 68.8973 332.247 69.126 331.332 69.126C330.604 69.126 329.951 68.9627 329.372 68.636C328.803 68.3093 328.355 67.8473 328.028 67.25C327.702 66.6433 327.538 65.9433 327.538 65.15C327.538 64.3567 327.697 63.6613 328.014 63.064C328.332 62.4667 328.775 62.0093 329.344 61.692C329.923 61.3653 330.586 61.202 331.332 61.202C332.06 61.202 332.704 61.3607 333.264 61.678C333.824 61.9953 334.254 62.434 334.552 62.994C334.86 63.5447 335.014 64.17 335.014 64.87ZM333.698 64.604C333.698 64.1187 333.591 63.7033 333.376 63.358C333.162 63.0033 332.868 62.7373 332.494 62.56C332.13 62.3733 331.724 62.28 331.276 62.28C330.632 62.28 330.082 62.4853 329.624 62.896C329.176 63.3067 328.92 63.876 328.854 64.604H333.698ZM343.696 64.87C343.696 65.1127 343.682 65.3693 343.654 65.64H337.522C337.569 66.396 337.825 66.9887 338.292 67.418C338.768 67.838 339.342 68.048 340.014 68.048C340.565 68.048 341.022 67.922 341.386 67.67C341.759 67.4087 342.021 67.0633 342.17 66.634H343.542C343.337 67.3713 342.926 67.9733 342.31 68.44C341.694 68.8973 340.929 69.126 340.014 69.126C339.286 69.126 338.633 68.9627 338.054 68.636C337.485 68.3093 337.037 67.8473 336.71 67.25C336.383 66.6433 336.22 65.9433 336.22 65.15C336.22 64.3567 336.379 63.6613 336.696 63.064C337.013 62.4667 337.457 62.0093 338.026 61.692C338.605 61.3653 339.267 61.202 340.014 61.202C340.742 61.202 341.386 61.3607 341.946 61.678C342.506 61.9953 342.935 62.434 343.234 62.994C343.542 63.5447 343.696 64.17 343.696 64.87ZM342.38 64.604C342.38 64.1187 342.273 63.7033 342.058 63.358C341.843 63.0033 341.549 62.7373 341.176 62.56C340.812 62.3733 340.406 62.28 339.958 62.28C339.314 62.28 338.763 62.4853 338.306 62.896C337.858 63.3067 337.601 63.876 337.536 64.604H342.38ZM349.662 69L346.652 65.612V69H345.378V58.64H346.652V64.73L349.606 61.328H351.384L347.772 65.15L351.398 69H349.662ZM355.769 60.04V58.878H358.401V69H357.113V60.04H355.769Z" fill="#323232"/>
</g>
<g id="surge_table/subtitle_2">
<rect id="Rectangle 35_6" x="409" y="48" width="145" height="32" fill="#F7F7F7"/>
<path id="Sign up for Surge No_6" d="M469.836 59.242L467.008 69H465.58L463.312 61.146L460.96 69L459.546 69.014L456.816 59.242H458.174L460.302 67.516L462.654 59.242H464.082L466.322 67.488L468.464 59.242H469.836ZM478.23 64.87C478.23 65.1127 478.216 65.3693 478.188 65.64H472.056C472.103 66.396 472.359 66.9887 472.826 67.418C473.302 67.838 473.876 68.048 474.548 68.048C475.099 68.048 475.556 67.922 475.92 67.67C476.293 67.4087 476.555 67.0633 476.704 66.634H478.076C477.871 67.3713 477.46 67.9733 476.844 68.44C476.228 68.8973 475.463 69.126 474.548 69.126C473.82 69.126 473.167 68.9627 472.588 68.636C472.019 68.3093 471.571 67.8473 471.244 67.25C470.917 66.6433 470.754 65.9433 470.754 65.15C470.754 64.3567 470.913 63.6613 471.23 63.064C471.547 62.4667 471.991 62.0093 472.56 61.692C473.139 61.3653 473.801 61.202 474.548 61.202C475.276 61.202 475.92 61.3607 476.48 61.678C477.04 61.9953 477.469 62.434 477.768 62.994C478.076 63.5447 478.23 64.17 478.23 64.87ZM476.914 64.604C476.914 64.1187 476.807 63.7033 476.592 63.358C476.377 63.0033 476.083 62.7373 475.71 62.56C475.346 62.3733 474.94 62.28 474.492 62.28C473.848 62.28 473.297 62.4853 472.84 62.896C472.392 63.3067 472.135 63.876 472.07 64.604H476.914ZM486.912 64.87C486.912 65.1127 486.898 65.3693 486.87 65.64H480.738C480.784 66.396 481.041 66.9887 481.508 67.418C481.984 67.838 482.558 68.048 483.23 68.048C483.78 68.048 484.238 67.922 484.602 67.67C484.975 67.4087 485.236 67.0633 485.386 66.634H486.758C486.552 67.3713 486.142 67.9733 485.526 68.44C484.91 68.8973 484.144 69.126 483.23 69.126C482.502 69.126 481.848 68.9627 481.27 68.636C480.7 68.3093 480.252 67.8473 479.926 67.25C479.599 66.6433 479.436 65.9433 479.436 65.15C479.436 64.3567 479.594 63.6613 479.912 63.064C480.229 62.4667 480.672 62.0093 481.242 61.692C481.82 61.3653 482.483 61.202 483.23 61.202C483.958 61.202 484.602 61.3607 485.162 61.678C485.722 61.9953 486.151 62.434 486.45 62.994C486.758 63.5447 486.912 64.17 486.912 64.87ZM485.596 64.604C485.596 64.1187 485.488 63.7033 485.274 63.358C485.059 63.0033 484.765 62.7373 484.392 62.56C484.028 62.3733 483.622 62.28 483.174 62.28C482.53 62.28 481.979 62.4853 481.522 62.896C481.074 63.3067 480.817 63.876 480.752 64.604H485.596ZM492.877 69L489.867 65.612V69H488.593V58.64H489.867V64.73L492.821 61.328H494.599L490.987 65.15L494.613 69H492.877ZM499.167 67.978C500.352 67.026 501.281 66.2467 501.953 65.64C502.625 65.024 503.19 64.3847 503.647 63.722C504.114 63.05 504.347 62.392 504.347 61.748C504.347 61.1413 504.198 60.6653 503.899 60.32C503.61 59.9653 503.138 59.788 502.485 59.788C501.85 59.788 501.356 59.9887 501.001 60.39C500.656 60.782 500.469 61.3093 500.441 61.972H499.209C499.246 60.9267 499.564 60.1193 500.161 59.55C500.758 58.9807 501.528 58.696 502.471 58.696C503.432 58.696 504.193 58.962 504.753 59.494C505.322 60.026 505.607 60.7587 505.607 61.692C505.607 62.4667 505.374 63.2227 504.907 63.96C504.45 64.688 503.927 65.332 503.339 65.892C502.751 66.4427 502 67.0867 501.085 67.824H505.901V68.888H499.167V67.978Z" fill="#323232"/>
</g>
<g id="surge_table/subtitle_3">
<rect id="Rectangle 35_7" x="554" y="48" width="145" height="32" fill="#F7F7F7"/>
<path id="Sign up for Surge No_7" d="M614.74 59.242L611.912 69H610.484L608.216 61.146L605.864 69L604.45 69.014L601.72 59.242H603.078L605.206 67.516L607.558 59.242H608.986L611.226 67.488L613.368 59.242H614.74ZM623.134 64.87C623.134 65.1127 623.12 65.3693 623.092 65.64H616.96C617.007 66.396 617.264 66.9887 617.73 67.418C618.206 67.838 618.78 68.048 619.452 68.048C620.003 68.048 620.46 67.922 620.824 67.67C621.198 67.4087 621.459 67.0633 621.608 66.634H622.98C622.775 67.3713 622.364 67.9733 621.748 68.44C621.132 68.8973 620.367 69.126 619.452 69.126C618.724 69.126 618.071 68.9627 617.492 68.636C616.923 68.3093 616.475 67.8473 616.148 67.25C615.822 66.6433 615.658 65.9433 615.658 65.15C615.658 64.3567 615.817 63.6613 616.134 63.064C616.452 62.4667 616.895 62.0093 617.464 61.692C618.043 61.3653 618.706 61.202 619.452 61.202C620.18 61.202 620.824 61.3607 621.384 61.678C621.944 61.9953 622.374 62.434 622.672 62.994C622.98 63.5447 623.134 64.17 623.134 64.87ZM621.818 64.604C621.818 64.1187 621.711 63.7033 621.496 63.358C621.282 63.0033 620.988 62.7373 620.614 62.56C620.25 62.3733 619.844 62.28 619.396 62.28C618.752 62.28 618.202 62.4853 617.744 62.896C617.296 63.3067 617.04 63.876 616.974 64.604H621.818ZM631.816 64.87C631.816 65.1127 631.802 65.3693 631.774 65.64H625.642C625.689 66.396 625.945 66.9887 626.412 67.418C626.888 67.838 627.462 68.048 628.134 68.048C628.685 68.048 629.142 67.922 629.506 67.67C629.879 67.4087 630.141 67.0633 630.29 66.634H631.662C631.457 67.3713 631.046 67.9733 630.43 68.44C629.814 68.8973 629.049 69.126 628.134 69.126C627.406 69.126 626.753 68.9627 626.174 68.636C625.605 68.3093 625.157 67.8473 624.83 67.25C624.503 66.6433 624.34 65.9433 624.34 65.15C624.34 64.3567 624.499 63.6613 624.816 63.064C625.133 62.4667 625.577 62.0093 626.146 61.692C626.725 61.3653 627.387 61.202 628.134 61.202C628.862 61.202 629.506 61.3607 630.066 61.678C630.626 61.9953 631.055 62.434 631.354 62.994C631.662 63.5447 631.816 64.17 631.816 64.87ZM630.5 64.604C630.5 64.1187 630.393 63.7033 630.178 63.358C629.963 63.0033 629.669 62.7373 629.296 62.56C628.932 62.3733 628.526 62.28 628.078 62.28C627.434 62.28 626.883 62.4853 626.426 62.896C625.978 63.3067 625.721 63.876 625.656 64.604H630.5ZM637.782 69L634.772 65.612V69H633.498V58.64H634.772V64.73L637.726 61.328H639.504L635.892 65.15L639.518 69H637.782ZM644.197 61.426C644.263 60.5673 644.594 59.8953 645.191 59.41C645.789 58.9247 646.563 58.682 647.515 58.682C648.15 58.682 648.696 58.7987 649.153 59.032C649.62 59.256 649.97 59.564 650.203 59.956C650.446 60.348 650.567 60.7913 650.567 61.286C650.567 61.8647 650.399 62.364 650.063 62.784C649.737 63.204 649.307 63.4747 648.775 63.596V63.666C649.382 63.8153 649.863 64.1093 650.217 64.548C650.572 64.9867 650.749 65.5607 650.749 66.27C650.749 66.802 650.628 67.2827 650.385 67.712C650.143 68.132 649.779 68.4633 649.293 68.706C648.808 68.9487 648.225 69.07 647.543 69.07C646.554 69.07 645.742 68.8133 645.107 68.3C644.473 67.7773 644.118 67.04 644.043 66.088H645.275C645.341 66.648 645.569 67.1053 645.961 67.46C646.353 67.8147 646.876 67.992 647.529 67.992C648.183 67.992 648.677 67.824 649.013 67.488C649.359 67.1427 649.531 66.6993 649.531 66.158C649.531 65.458 649.298 64.954 648.831 64.646C648.365 64.338 647.66 64.184 646.717 64.184H646.395V63.12H646.731C647.59 63.1107 648.239 62.9707 648.677 62.7C649.116 62.42 649.335 61.9907 649.335 61.412C649.335 60.9173 649.172 60.5207 648.845 60.222C648.528 59.9233 648.071 59.774 647.473 59.774C646.895 59.774 646.428 59.9233 646.073 60.222C645.719 60.5207 645.509 60.922 645.443 61.426H644.197Z" fill="#323232"/>
</g>
<g id="surge_table/subtitle_4">
<rect id="Rectangle 35_8" x="699" y="48" width="145" height="32" fill="#F7F7F7"/>
<path id="Sign up for Surge No_8" d="M759.46 59.242L756.632 69H755.204L752.936 61.146L750.584 69L749.17 69.014L746.44 59.242H747.798L749.926 67.516L752.278 59.242H753.706L755.946 67.488L758.088 59.242H759.46ZM767.854 64.87C767.854 65.1127 767.84 65.3693 767.812 65.64H761.68C761.727 66.396 761.983 66.9887 762.45 67.418C762.926 67.838 763.5 68.048 764.172 68.048C764.723 68.048 765.18 67.922 765.544 67.67C765.917 67.4087 766.179 67.0633 766.328 66.634H767.7C767.495 67.3713 767.084 67.9733 766.468 68.44C765.852 68.8973 765.087 69.126 764.172 69.126C763.444 69.126 762.791 68.9627 762.212 68.636C761.643 68.3093 761.195 67.8473 760.868 67.25C760.541 66.6433 760.378 65.9433 760.378 65.15C760.378 64.3567 760.537 63.6613 760.854 63.064C761.171 62.4667 761.615 62.0093 762.184 61.692C762.763 61.3653 763.425 61.202 764.172 61.202C764.9 61.202 765.544 61.3607 766.104 61.678C766.664 61.9953 767.093 62.434 767.392 62.994C767.7 63.5447 767.854 64.17 767.854 64.87ZM766.538 64.604C766.538 64.1187 766.431 63.7033 766.216 63.358C766.001 63.0033 765.707 62.7373 765.334 62.56C764.97 62.3733 764.564 62.28 764.116 62.28C763.472 62.28 762.921 62.4853 762.464 62.896C762.016 63.3067 761.759 63.876 761.694 64.604H766.538ZM776.536 64.87C776.536 65.1127 776.522 65.3693 776.494 65.64H770.362C770.408 66.396 770.665 66.9887 771.132 67.418C771.608 67.838 772.182 68.048 772.854 68.048C773.404 68.048 773.862 67.922 774.226 67.67C774.599 67.4087 774.86 67.0633 775.01 66.634H776.382C776.176 67.3713 775.766 67.9733 775.15 68.44C774.534 68.8973 773.768 69.126 772.854 69.126C772.126 69.126 771.472 68.9627 770.894 68.636C770.324 68.3093 769.876 67.8473 769.55 67.25C769.223 66.6433 769.06 65.9433 769.06 65.15C769.06 64.3567 769.218 63.6613 769.536 63.064C769.853 62.4667 770.296 62.0093 770.866 61.692C771.444 61.3653 772.107 61.202 772.854 61.202C773.582 61.202 774.226 61.3607 774.786 61.678C775.346 61.9953 775.775 62.434 776.074 62.994C776.382 63.5447 776.536 64.17 776.536 64.87ZM775.22 64.604C775.22 64.1187 775.112 63.7033 774.898 63.358C774.683 63.0033 774.389 62.7373 774.016 62.56C773.652 62.3733 773.246 62.28 772.798 62.28C772.154 62.28 771.603 62.4853 771.146 62.896C770.698 63.3067 770.441 63.876 770.376 64.604H775.22ZM782.501 69L779.491 65.612V69H778.217V58.64H779.491V64.73L782.445 61.328H784.223L780.611 65.15L784.237 69H782.501ZM788.637 66.746V65.78L793.551 58.976H795.077V65.64H796.477V66.746H795.077V69H793.817V66.746H788.637ZM793.873 60.306L790.107 65.64H793.873V60.306Z" fill="#323232"/>
</g>
<g id="surge_table/subtitle_5">
<rect id="Rectangle 35_9" x="844" y="48" width="145" height="32" fill="#F7F7F7"/>
</g>
<g id="surge_table/subtitle_6">
<rect id="Rectangle 35_10" x="989" y="48" width="145" height="32" fill="#F7F7F7"/>
</g>
<g id="surge_table/subtitle_7">
<rect id="Rectangle 35_11" x="1134" y="48" width="146" height="32" fill="#F7F7F7"/>
</g>
</g>
<g id="surge_table/title_6">
<path id="Rectangle 35_12" d="M0 24C0 19.5817 3.58172 16 8 16H260V80H0V24Z" fill="#E0E0E0"/>
<path id="Sign up for Surge No_9" d="M84.9688 30.168C84.9688 30.6627 84.8522 31.1293 84.6188 31.568C84.3855 32.0067 84.0122 32.366 83.4988 32.646C82.9855 32.9167 82.3275 33.052 81.5248 33.052H79.7608V37H78.1648V27.27H81.5248C82.2715 27.27 82.9015 27.4007 83.4148 27.662C83.9375 27.914 84.3248 28.2593 84.5768 28.698C84.8382 29.1367 84.9688 29.6267 84.9688 30.168ZM81.5248 31.75C82.1315 31.75 82.5842 31.6147 82.8828 31.344C83.1815 31.064 83.3308 30.672 83.3308 30.168C83.3308 29.104 82.7288 28.572 81.5248 28.572H79.7608V31.75H81.5248ZM92.245 37L90.005 33.108H88.787V37H87.191V27.27H90.551C91.2977 27.27 91.9277 27.4007 92.441 27.662C92.9637 27.9233 93.351 28.2733 93.603 28.712C93.8644 29.1507 93.995 29.6407 93.995 30.182C93.995 30.8167 93.8084 31.3953 93.435 31.918C93.071 32.4313 92.5064 32.7813 91.741 32.968L94.149 37H92.245ZM88.787 31.834H90.551C91.1484 31.834 91.5964 31.6847 91.895 31.386C92.203 31.0873 92.357 30.686 92.357 30.182C92.357 29.678 92.2077 29.286 91.909 29.006C91.6104 28.7167 91.1577 28.572 90.551 28.572H88.787V31.834ZM98.3327 28.558V31.414H101.693V32.716H98.3327V35.698H102.113V37H96.7367V27.256H102.113V28.558H98.3327ZM110.701 31.26V32.604H104.947V31.26H110.701ZM116.846 27.27C117.882 27.27 118.787 27.4707 119.562 27.872C120.346 28.264 120.948 28.8333 121.368 29.58C121.797 30.3173 122.012 31.1807 122.012 32.17C122.012 33.1593 121.797 34.018 121.368 34.746C120.948 35.474 120.346 36.034 119.562 36.426C118.787 36.8087 117.882 37 116.846 37H113.668V27.27H116.846ZM116.846 35.698C117.985 35.698 118.857 35.39 119.464 34.774C120.071 34.158 120.374 33.29 120.374 32.17C120.374 31.0407 120.071 30.1587 119.464 29.524C118.857 28.8893 117.985 28.572 116.846 28.572H115.264V35.698H116.846ZM125.89 27.27V37H124.294V27.27H125.89ZM131.891 37.098C131.238 37.098 130.65 36.986 130.127 36.762C129.604 36.5287 129.194 36.202 128.895 35.782C128.596 35.362 128.447 34.872 128.447 34.312H130.155C130.192 34.732 130.356 35.0773 130.645 35.348C130.944 35.6187 131.359 35.754 131.891 35.754C132.442 35.754 132.871 35.6233 133.179 35.362C133.487 35.0913 133.641 34.746 133.641 34.326C133.641 33.9993 133.543 33.7333 133.347 33.528C133.16 33.3227 132.922 33.164 132.633 33.052C132.353 32.94 131.961 32.8187 131.457 32.688C130.822 32.52 130.304 32.352 129.903 32.184C129.511 32.0067 129.175 31.736 128.895 31.372C128.615 31.008 128.475 30.5227 128.475 29.916C128.475 29.356 128.615 28.866 128.895 28.446C129.175 28.026 129.567 27.704 130.071 27.48C130.575 27.256 131.158 27.144 131.821 27.144C132.764 27.144 133.534 27.382 134.131 27.858C134.738 28.3247 135.074 28.9687 135.139 29.79H133.375C133.347 29.4353 133.179 29.132 132.871 28.88C132.563 28.628 132.157 28.502 131.653 28.502C131.196 28.502 130.822 28.6187 130.533 28.852C130.244 29.0853 130.099 29.4213 130.099 29.86C130.099 30.1587 130.188 30.406 130.365 30.602C130.552 30.7887 130.785 30.938 131.065 31.05C131.345 31.162 131.728 31.2833 132.213 31.414C132.857 31.5913 133.38 31.7687 133.781 31.946C134.192 32.1233 134.537 32.3987 134.817 32.772C135.106 33.136 135.251 33.626 135.251 34.242C135.251 34.7367 135.116 35.2033 134.845 35.642C134.584 36.0807 134.196 36.4353 133.683 36.706C133.179 36.9673 132.582 37.098 131.891 37.098ZM143.7 35.012H139.626L138.926 37H137.26L140.746 27.256H142.594L146.08 37H144.4L143.7 35.012ZM143.252 33.71L141.67 29.188L140.074 33.71H143.252ZM151.502 37.098C150.849 37.098 150.261 36.986 149.738 36.762C149.215 36.5287 148.805 36.202 148.506 35.782C148.207 35.362 148.058 34.872 148.058 34.312H149.766C149.803 34.732 149.967 35.0773 150.256 35.348C150.555 35.6187 150.97 35.754 151.502 35.754C152.053 35.754 152.482 35.6233 152.79 35.362C153.098 35.0913 153.252 34.746 153.252 34.326C153.252 33.9993 153.154 33.7333 152.958 33.528C152.771 33.3227 152.533 33.164 152.244 33.052C151.964 32.94 151.572 32.8187 151.068 32.688C150.433 32.52 149.915 32.352 149.514 32.184C149.122 32.0067 148.786 31.736 148.506 31.372C148.226 31.008 148.086 30.5227 148.086 29.916C148.086 29.356 148.226 28.866 148.506 28.446C148.786 28.026 149.178 27.704 149.682 27.48C150.186 27.256 150.769 27.144 151.432 27.144C152.375 27.144 153.145 27.382 153.742 27.858C154.349 28.3247 154.685 28.9687 154.75 29.79H152.986C152.958 29.4353 152.79 29.132 152.482 28.88C152.174 28.628 151.768 28.502 151.264 28.502C150.807 28.502 150.433 28.6187 150.144 28.852C149.855 29.0853 149.71 29.4213 149.71 29.86C149.71 30.1587 149.799 30.406 149.976 30.602C150.163 30.7887 150.396 30.938 150.676 31.05C150.956 31.162 151.339 31.2833 151.824 31.414C152.468 31.5913 152.991 31.7687 153.392 31.946C153.803 32.1233 154.148 32.3987 154.428 32.772C154.717 33.136 154.862 33.626 154.862 34.242C154.862 34.7367 154.727 35.2033 154.456 35.642C154.195 36.0807 153.807 36.4353 153.294 36.706C152.79 36.9673 152.193 37.098 151.502 37.098ZM163.731 27.27V28.572H161.141V37H159.545V28.572H156.941V27.27H163.731ZM167.644 28.558V31.414H171.004V32.716H167.644V35.698H171.424V37H166.048V27.256H171.424V28.558H167.644ZM179.143 37L176.903 33.108H175.685V37H174.089V27.27H177.449C178.196 27.27 178.826 27.4007 179.339 27.662C179.862 27.9233 180.249 28.2733 180.501 28.712C180.763 29.1507 180.893 29.6407 180.893 30.182C180.893 30.8167 180.707 31.3953 180.333 31.918C179.969 32.4313 179.405 32.7813 178.639 32.968L181.047 37H179.143ZM175.685 31.834H177.449C178.047 31.834 178.495 31.6847 178.793 31.386C179.101 31.0873 179.255 30.686 179.255 30.182C179.255 29.678 179.106 29.286 178.807 29.006C178.509 28.7167 178.056 28.572 177.449 28.572H175.685V31.834Z" fill="#323232"/>
</g>
<g id="Group 1859">
<rect id="Rectangle 500" x="260" y="28" width="4" height="52" fill="#F5333F"/>
<g id="icons/surge/main_icon">
<circle id="Ellipse 25" cx="262" cy="16" r="16" fill="#F5333F"/>
<g id="icons/surge/emergency">
<path id="Vector" d="M268.633 19.4285C268.621 22.3465 267.161 24.3091 265.2 25.3164C265.182 25.3288 265.16 25.3348 265.138 25.3335C265.115 25.3321 265.094 25.3235 265.077 25.3089C265.06 25.2943 265.049 25.2746 265.044 25.2527C265.039 25.2308 265.042 25.2081 265.052 25.1879C265.168 24.8199 265.226 24.4361 265.225 24.0501C265.189 21.3422 262.444 20.4073 262.579 17.8156C262.582 17.7965 262.579 17.7769 262.572 17.7592C262.564 17.7415 262.551 17.7264 262.535 17.7157C262.519 17.705 262.5 17.6991 262.48 17.6988C262.461 17.6984 262.442 17.7036 262.425 17.7137C261.692 18.0813 261.079 18.6509 260.659 19.3554C260.238 20.0599 260.028 20.8699 260.053 21.6899C260.057 21.7128 260.054 21.7367 260.043 21.7574C260.032 21.7782 260.015 21.7945 259.993 21.8037C259.971 21.8129 259.947 21.8144 259.925 21.808C259.902 21.8016 259.883 21.7876 259.869 21.7684C259.685 21.5716 259.551 21.3325 259.481 21.072C259.477 21.0521 259.467 21.0338 259.452 21.0196C259.437 21.0055 259.419 20.996 259.399 20.9925C259.379 20.989 259.358 20.9916 259.339 20.9999C259.321 21.0083 259.305 21.0221 259.294 21.0394C258.897 21.5828 258.408 22.4127 258.408 24.0511C258.407 24.4363 258.465 24.8194 258.581 25.1869C258.59 25.2072 258.593 25.23 258.588 25.2518C258.583 25.2737 258.571 25.2934 258.554 25.3079C258.537 25.3224 258.516 25.3308 258.494 25.332C258.471 25.3332 258.449 25.327 258.431 25.3143C256.472 24.306 255.014 22.3434 255 19.4285C255.071 13.9526 260.684 12.1042 260.279 6.78625C260.276 6.76741 260.278 6.74803 260.285 6.73034C260.293 6.71264 260.305 6.69734 260.32 6.68617C260.336 6.67501 260.354 6.66844 260.373 6.6672C260.392 6.66597 260.411 6.67013 260.428 6.6792C263.567 8.11573 265.589 11.5322 265.329 14.9803C265.325 15.0022 265.328 15.0249 265.338 15.0448C265.348 15.0648 265.364 15.0809 265.384 15.0907C265.404 15.1006 265.427 15.1036 265.449 15.0993C265.471 15.095 265.491 15.0836 265.505 15.067C266.034 14.5944 266.396 13.9635 266.536 13.2685C266.538 13.2473 266.547 13.2273 266.561 13.2113C266.575 13.1953 266.593 13.184 266.614 13.1791C266.635 13.1741 266.656 13.1758 266.676 13.1837C266.696 13.1917 266.712 13.2057 266.724 13.2236C267.539 14.3064 268.633 15.9621 268.633 19.4336V19.4285Z" fill="white"/>
</g>
</g>
</g>
</g>
</svg>
