<svg xmlns="http://www.w3.org/2000/svg" xmlns:xlink="http://www.w3.org/1999/xlink" viewBox="0 0 374.53 81.17"><defs><style>.cls-1{fill:none;}.cls-2,.cls-6{fill:#0068ff;}.cls-3{fill:#a5acaf;}.cls-4{clip-path:url(#clip-path);}.cls-5{clip-path:url(#clip-path-2);}.cls-6{opacity:0.3;}</style><clipPath id="clip-path" transform="translate(0)"><path class="cls-1" d="M80.91,40.7A40.33,40.33,0,1,1,40.58.37,40.33,40.33,0,0,1,80.91,40.7Z"/></clipPath><clipPath id="clip-path-2" transform="translate(0)"><path class="cls-1" d="M75.67,20.27a39.48,39.48,0,1,0,5.5,20.32,40.5,40.5,0,0,0-5.5-20.32"/></clipPath></defs><title>Asset 12</title><g id="Layer_2" data-name="Layer 2"><g id="Layer_1-2" data-name="Layer 1"><path class="cls-2" d="M120.08,43.72c-3.17,2.77-6.59,3.17-10.71,3.17h-4.06v11.5h-9V21.7h12c3.77,0,8.28.15,11.31,2.67A12.51,12.51,0,0,1,124,34.1c0,3.37-1.29,7.34-3.87,9.62m-11.3-13.79h-3.47v8.73h3.81c3.08,0,5.85-.7,5.85-4.42s-3.12-4.31-6.19-4.31" transform="translate(0)"/><path class="cls-2" d="M141.22,58.39H128.38V21.7h12.15c6.64,0,12.05,1.09,16.21,6.84A19.39,19.39,0,0,1,160.12,40c0,12-6.9,18.44-18.9,18.44m.59-28.46h-4.06V50.16h4c6.39,0,9-4.12,9-10.07s-2.68-10.16-8.93-10.16" transform="translate(0)"/><path class="cls-2" d="M183.52,59.09a19,19,0,1,1,16.07-29.46,15.52,15.52,0,0,1,2.48,6h-9.82a9.5,9.5,0,0,0-8.88-6.4c-5.94,0-9.81,5.06-9.81,10.72s3.87,10.9,9.87,10.9c4.11,0,7.19-2.57,8.82-6.19h9.82a18.82,18.82,0,0,1-18.55,14.43" transform="translate(0)"/><rect class="cls-2" x="217.98" y="16.09" width="3.95" height="47.67"/><path class="cls-3" d="M250.76,51.4a11.48,11.48,0,1,1-.12-23c4.36,0,9.19,2.68,10.71,6.92h-4.89a7.07,7.07,0,0,0-5.91-3.1A7.59,7.59,0,0,0,243,40a7.8,7.8,0,0,0,.63,3,7.45,7.45,0,0,0,7.15,4.66,7.27,7.27,0,0,0,6.54-4.06h-9.25V39.71h14.4v.48c0,6.29-5.51,11.21-11.69,11.21" transform="translate(0)"/><polygon class="cls-3" points="269.47 50.95 269.47 28.89 273.55 28.89 273.55 47.14 280.29 47.14 280.29 50.95 269.47 50.95"/><path class="cls-3" d="M326.49,38.91A4.52,4.52,0,0,0,329,34.7a5.75,5.75,0,0,0-1.87-4.11c-1.8-1.61-4.12-1.7-6.39-1.7h-4.77V51h5.9a10.4,10.4,0,0,0,5.7-1.32,6.21,6.21,0,0,0,2.74-5.25,5.29,5.29,0,0,0-3.78-5.48M320,32.71h1.7c1.58,0,3.16.53,3.16,2.38s-1.73,2.39-3.31,2.39H320Zm2.05,14.43H320V41.29h2.14c1.91,0,4,.72,4,3s-2.18,2.89-4.12,2.89" transform="translate(0)"/><path class="cls-3" d="M347.9,28.89h-3.19L335.52,51H340l2.36-5.7h7.9l2.36,5.7h4.5Zm-4.15,12.52,2.51-6.77h.05l2.51,6.77Z" transform="translate(0)"/><polygon class="cls-3" points="363.71 50.95 363.71 28.89 367.79 28.89 367.79 47.14 374.53 47.14 374.53 50.95 363.71 50.95"/><path class="cls-3" d="M297.14,28.44A11.48,11.48,0,1,0,308.68,40a11.51,11.51,0,0,0-11.54-11.54m0,19.15A7.67,7.67,0,1,1,304.59,40a7.57,7.57,0,0,1-7.45,7.64" transform="translate(0)"/><g class="cls-4"><g class="cls-5"><path class="cls-1" d="M59.86,29.91A86.09,86.09,0,0,0,44.77,11.08L40.58,7.31,36.4,11.08A86.09,86.09,0,0,0,21.31,29.91a86.14,86.14,0,0,0-8.76,22.48L11.38,57.9l5.35,1.74a86,86,0,0,0,23.85,3.65,85.92,85.92,0,0,0,23.85-3.65l5.36-1.74-1.17-5.51A86.14,86.14,0,0,0,59.86,29.91Zm-16,20.77c-1.07.07-2.16.11-3.27.11a70.51,70.51,0,0,1-14.16-1.58,72,72,0,0,1,4.94-11.64c.26-.47.51-.94.79-1.41a71.3,71.3,0,0,1,8.43-11.48A70.7,70.7,0,0,1,49,36.16a71.21,71.21,0,0,1,5.72,13.06A72.21,72.21,0,0,1,43.85,50.68Z" transform="translate(0)"/><path class="cls-2" d="M40.58,24.68a71.3,71.3,0,0,0-8.43,11.48c-.28.47-.53.94-.79,1.41a72,72,0,0,0-4.94,11.64,70.51,70.51,0,0,0,14.16,1.58c1.11,0,2.2,0,3.27-.11a72.21,72.21,0,0,0,10.9-1.46A71.21,71.21,0,0,0,49,36.16,70.7,70.7,0,0,0,40.58,24.68Z" transform="translate(0)"/><rect class="cls-1" x="3.29" y="30.83" width="46.71" height="46.54"/><path class="cls-1" d="M40.58,50.79c1.11,0,2.2,0,3.27-.11A91.64,91.64,0,0,0,31.36,37.57a72,72,0,0,0-4.94,11.64A70.51,70.51,0,0,0,40.58,50.79Z" transform="translate(0)"/><path class="cls-1" d="M26.42,49.21a70.51,70.51,0,0,0,14.16,1.58c1.11,0,2.2,0,3.27-.11a91,91,0,0,1,7.8,11.78,84.62,84.62,0,0,0,12.78-2.82l5.36-1.74-1.17-5.51a86.14,86.14,0,0,0-8.76-22.48A86.09,86.09,0,0,0,44.77,11.08L40.58,7.31,36.4,11.08A86.09,86.09,0,0,0,21.31,29.91l-.06.1a90.15,90.15,0,0,1,10.11,7.56A72,72,0,0,0,26.42,49.21Z" transform="translate(0)"/><path class="cls-2" d="M75.67,20.27a40.51,40.51,0,0,0-70.22.06c-.24.41-.45.84-.67,1.26A90.93,90.93,0,0,1,21.25,30l.06-.1A86.09,86.09,0,0,1,36.4,11.08l4.18-3.77,4.19,3.77A86.09,86.09,0,0,1,59.86,29.91a86.14,86.14,0,0,1,8.76,22.48l1.17,5.51-5.36,1.74a84.62,84.62,0,0,1-12.78,2.82,90.78,90.78,0,0,1,6.57,14.67,41.1,41.1,0,0,0,23-36.54A40.21,40.21,0,0,0,75.67,20.27Z" transform="translate(0)"/><path class="cls-6" d="M11.38,57.9l5.35,1.74a86,86,0,0,0,23.85,3.65,78.57,78.57,0,0,0,11.07-.83,91,91,0,0,0-7.8-11.78c-1.07.07-2.16.11-3.27.11a70.51,70.51,0,0,1-14.16-1.58,72,72,0,0,1,4.94-11.64A90.15,90.15,0,0,0,21.25,30a86.16,86.16,0,0,0-8.7,22.38Z" transform="translate(0)"/><path class="cls-2" d="M40.58,63.29a86,86,0,0,1-23.85-3.65L11.38,57.9l1.17-5.51A86.16,86.16,0,0,1,21.25,30,90.93,90.93,0,0,0,4.78,21.59,40.54,40.54,0,0,0,58.22,77.13a90.78,90.78,0,0,0-6.57-14.67A78.57,78.57,0,0,1,40.58,63.29Z" transform="translate(0)"/><path class="cls-6" d="M40.58,63.29a86,86,0,0,1-23.85-3.65L11.38,57.9l1.17-5.51A86.16,86.16,0,0,1,21.25,30,90.93,90.93,0,0,0,4.78,21.59,40.54,40.54,0,0,0,58.22,77.13a90.78,90.78,0,0,0-6.57-14.67A78.57,78.57,0,0,1,40.58,63.29Z" transform="translate(0)"/></g></g></g></g></svg>