<svg width="32" height="32" viewBox="0 0 32 32" fill="none" xmlns="http://www.w3.org/2000/svg">
<rect opacity="0.1" width="32" height="32" rx="16" fill="#011E41"/>
<path fill-rule="evenodd" clip-rule="evenodd" d="M16 11.9818C14.9224 11.9818 14.0473 12.8289 14.0473 13.872H12C12 11.7343 13.7916 10 16 10C18.2084 10 20 11.7343 20 13.872C20 15.2777 19.2248 16.5097 18.07 17.1851L18.035 17.2055L18.0046 17.2202C18.0025 17.2214 17.9995 17.2232 17.9948 17.2259C17.9894 17.2291 17.9835 17.2326 17.9748 17.2378L17.9721 17.2394L17.9695 17.2409C17.4016 17.5747 17.0262 18.1749 17.0262 18.8588H14.9789C14.9789 17.4531 15.7538 16.226 16.904 15.5487L16.9074 15.5466C16.9316 15.5322 16.9783 15.5043 17.0349 15.4747C17.5867 15.1415 17.9527 14.5476 17.9527 13.872C17.9527 12.8289 17.0776 11.9818 16 11.9818ZM17.0237 20.142V22H14.9763V20.142H17.0237Z" fill="#011E41"/>
</svg>
