<?xml version="1.0" encoding="UTF-8" standalone="no"?>
<svg
   aria-hidden="true"
   role="img"
   class="iconify iconify--logos"
   width="31.88"
   height="32"
   preserveAspectRatio="xMidYMid meet"
   viewBox="0 0 256 257"
   version="1.1"
   id="svg74"
   sodipodi:docname="vite.svg"
   inkscape:version="1.2.2 (b0a8486541, 2022-12-01)"
   xmlns:inkscape="http://www.inkscape.org/namespaces/inkscape"
   xmlns:sodipodi="http://sodipodi.sourceforge.net/DTD/sodipodi-0.dtd"
   xmlns="http://www.w3.org/2000/svg"
   xmlns:svg="http://www.w3.org/2000/svg">
  <sodipodi:namedview
     id="namedview76"
     pagecolor="#ffffff"
     bordercolor="#666666"
     borderopacity="1.0"
     inkscape:showpageshadow="2"
     inkscape:pageopacity="0.0"
     inkscape:pagecheckerboard="0"
     inkscape:deskcolor="#d1d1d1"
     showgrid="false"
     inkscape:zoom="13.609375"
     inkscape:cx="9.6991963"
     inkscape:cy="16.56946"
     inkscape:window-width="946"
     inkscape:window-height="1036"
     inkscape:window-x="0"
     inkscape:window-y="0"
     inkscape:window-maximized="1"
     inkscape:current-layer="svg74" />
  <defs
     id="defs68">
    <linearGradient
       id="IconifyId1813088fe1fbc01fb466"
       x1="-.828%"
       x2="57.636%"
       y1="7.652%"
       y2="78.411%">
      <stop
         offset="0%"
         stop-color="#41D1FF"
         id="stop56" />
      <stop
         offset="100%"
         stop-color="#BD34FE"
         id="stop58" />
    </linearGradient>
    <linearGradient
       id="IconifyId1813088fe1fbc01fb467"
       x1="43.376%"
       x2="50.316%"
       y1="2.242%"
       y2="89.03%">
      <stop
         offset="0%"
         stop-color="#FFEA83"
         id="stop61" />
      <stop
         offset="8.333%"
         stop-color="#FFDD35"
         id="stop63" />
      <stop
         offset="100%"
         stop-color="#FFA800"
         id="stop65" />
    </linearGradient>
  </defs>
  <path
     id="path343"
     style="stroke-width:0.327876;fill:#ffb600;fill-opacity:1"
     d="M 92.764776 68.72052 L 92.764776 88.861389 L 112.90565 88.861389 L 112.90565 68.72052 L 92.764776 68.72052 z M 112.90565 88.861389 L 112.90565 108.34344 L 92.764776 108.34344 L 92.764776 88.861389 L 72.623907 88.861389 L 72.623907 108.34344 L 53.141852 108.34344 L 53.141852 128.48431 L 72.623907 128.48431 L 72.623907 148.62518 L 53.141852 148.62518 L 53.141852 168.78174 L 72.623907 168.78174 L 72.623907 188.24811 L 53.141852 188.24811 L 53.141852 208.38898 L 72.623907 208.38898 L 72.623907 228.54553 L 92.764776 228.54553 L 92.764776 248.0119 L 112.90565 248.0119 L 112.90565 228.54553 L 133.0622 228.54553 L 152.52857 228.54553 L 152.52857 248.0119 L 172.66944 248.0119 L 172.66944 228.54553 L 192.82599 228.54553 L 192.82599 208.38898 L 212.29236 208.38898 L 212.29236 188.24811 L 192.82599 188.24811 L 192.82599 168.78174 L 212.29236 168.78174 L 212.29236 148.62518 L 192.82599 148.62518 L 192.82599 128.48431 L 212.29236 128.48431 L 212.29236 108.34344 L 192.82599 108.34344 L 192.82599 88.861389 L 172.66944 88.861389 L 172.66944 108.34344 L 152.52857 108.34344 L 152.52857 88.861389 L 133.0622 88.861389 L 112.90565 88.861389 z M 152.52857 88.861389 L 172.66944 88.861389 L 172.66944 68.72052 L 152.52857 68.72052 L 152.52857 88.861389 z M 73.298407 109.01794 L 92.764776 109.01794 L 92.764776 128.48431 L 112.90565 128.48431 L 112.90565 109.01794 L 133.0622 109.01794 L 152.52857 109.01794 L 152.52857 128.48431 L 172.66944 128.48431 L 172.66944 109.01794 L 192.1515 109.01794 L 192.1515 128.48431 L 172.66944 128.48431 L 172.66944 148.62518 L 192.1515 148.62518 L 192.1515 168.10724 L 172.66944 168.10724 L 172.66944 148.62518 L 152.52857 148.62518 L 152.52857 168.10724 L 133.0622 168.10724 L 112.90565 168.10724 L 112.90565 148.62518 L 92.764776 148.62518 L 92.764776 168.10724 L 73.298407 168.10724 L 73.298407 148.62518 L 92.764776 148.62518 L 92.764776 128.48431 L 73.298407 128.48431 L 73.298407 109.01794 z M 112.90565 148.62518 L 133.0622 148.62518 L 152.52857 148.62518 L 152.52857 128.48431 L 133.0622 128.48431 L 112.90565 128.48431 L 112.90565 148.62518 z M 92.764776 168.78174 L 112.90565 168.78174 L 112.90565 188.24811 L 133.0622 188.24811 L 152.52857 188.24811 L 152.52857 168.78174 L 172.66944 168.78174 L 172.66944 188.24811 L 192.1515 188.24811 L 192.1515 208.38898 L 172.66944 208.38898 L 172.66944 227.87103 L 152.52857 227.87103 L 152.52857 208.38898 L 133.0622 208.38898 L 112.90565 208.38898 L 112.90565 227.87103 L 92.764776 227.87103 L 92.764776 208.38898 L 73.298407 208.38898 L 73.298407 188.24811 L 92.764776 188.24811 L 92.764776 168.78174 z M 92.764776 188.24811 L 92.764776 208.38898 L 112.90565 208.38898 L 112.90565 188.24811 L 92.764776 188.24811 z M 152.52857 208.38898 L 172.66944 208.38898 L 172.66944 188.24811 L 152.52857 188.24811 L 152.52857 208.38898 z " />
  <path
     id="path345"
     style="stroke-width:0.32928125;stroke-dasharray:none;fill:#009944;fill-opacity:1"
     d="M 72.623907 9.6312256 L 72.623907 29.772095 L 92.764776 29.772095 L 92.764776 9.6312256 L 72.623907 9.6312256 z M 92.764776 29.772095 L 92.764776 49.92865 L 112.90565 49.92865 L 112.90565 68.72052 L 133.0622 68.72052 L 152.52857 68.72052 L 152.52857 49.92865 L 172.66944 49.92865 L 172.66944 29.772095 L 152.52857 29.772095 L 152.52857 48.579651 L 133.0622 48.579651 L 112.90565 48.579651 L 112.90565 29.772095 L 92.764776 29.772095 z M 112.90565 29.772095 L 132.3877 29.772095 L 133.0622 29.772095 L 152.52857 29.772095 L 152.52857 9.6312256 L 133.0622 9.6312256 L 132.3877 9.6312256 L 112.90565 9.6312256 L 112.90565 29.772095 z M 172.66944 29.772095 L 192.82599 29.772095 L 192.82599 9.6312256 L 172.66944 9.6312256 L 172.66944 29.772095 z " />
  <path
     id="path347"
     style="stroke-width:0.327876;fill:#ffc933;fill-opacity:1"
     d="M 112.90565 68.72052 L 112.90565 88.861389 L 133.0622 88.861389 L 152.52857 88.861389 L 152.52857 68.72052 L 133.0622 68.72052 L 112.90565 68.72052 z M 152.52857 88.861389 L 152.52857 108.34344 L 133.0622 108.34344 L 112.90565 108.34344 L 112.90565 88.861389 L 92.764776 88.861389 L 92.764776 108.34344 L 72.623907 108.34344 L 72.623907 128.48431 L 53.141852 128.48431 L 53.141852 148.62518 L 72.623907 148.62518 L 72.623907 168.10724 L 53.141852 168.10724 L 53.141852 188.24811 L 72.623907 188.24811 L 72.623907 208.38898 L 92.764776 208.38898 L 92.764776 188.24811 L 73.298407 188.24811 L 73.298407 168.78174 L 92.764776 168.78174 L 92.764776 188.24811 L 112.90565 188.24811 L 112.90565 168.78174 L 133.0622 168.78174 L 152.52857 168.78174 L 152.52857 188.24811 L 172.66944 188.24811 L 172.66944 168.78174 L 192.1515 168.78174 L 192.1515 188.24811 L 172.66944 188.24811 L 172.66944 208.38898 L 192.82599 208.38898 L 192.82599 188.24811 L 212.29236 188.24811 L 212.29236 168.10724 L 192.82599 168.10724 L 192.82599 148.62518 L 212.29236 148.62518 L 212.29236 128.48431 L 192.82599 128.48431 L 192.82599 108.34344 L 172.66944 108.34344 L 172.66944 88.861389 L 152.52857 88.861389 z M 172.66944 208.38898 L 152.52857 208.38898 L 152.52857 227.87103 L 133.0622 227.87103 L 132.3877 227.87103 L 112.90565 227.87103 L 112.90565 208.38898 L 92.764776 208.38898 L 92.764776 228.54553 L 112.90565 228.54553 L 112.90565 248.0119 L 132.3877 248.0119 L 133.0622 248.0119 L 152.52857 248.0119 L 152.52857 228.54553 L 172.66944 228.54553 L 172.66944 208.38898 z M 112.90565 208.38898 L 133.0622 208.38898 L 152.52857 208.38898 L 152.52857 188.24811 L 133.0622 188.24811 L 112.90565 188.24811 L 112.90565 208.38898 z M 92.764776 109.01794 L 112.90565 109.01794 L 112.90565 128.48431 L 133.0622 128.48431 L 152.52857 128.48431 L 152.52857 109.01794 L 172.66944 109.01794 L 172.66944 128.48431 L 192.1515 128.48431 L 192.1515 148.62518 L 172.66944 148.62518 L 172.66944 168.10724 L 152.52857 168.10724 L 152.52857 148.62518 L 133.0622 148.62518 L 112.90565 148.62518 L 112.90565 168.10724 L 92.764776 168.10724 L 92.764776 148.62518 L 73.298407 148.62518 L 73.298407 128.48431 L 92.764776 128.48431 L 92.764776 109.01794 z M 92.764776 128.48431 L 92.764776 148.62518 L 112.90565 148.62518 L 112.90565 128.48431 L 92.764776 128.48431 z M 152.52857 148.62518 L 172.66944 148.62518 L 172.66944 128.48431 L 152.52857 128.48431 L 152.52857 148.62518 z " />
</svg>
