<svg xmlns:osb="http://www.openswatchbook.org/uri/2009/osb" xmlns="http://www.w3.org/2000/svg" viewBox="0 0 33.98 35.689" height="29.902" width="28.317"><path d="M13.07 33.367c.017-.99.018-3.153.003-4.805-.027-2.966-.03-3.006-.304-3.192-.325-.221-.236-.266-5.286 2.69l-3.11 1.822-.253-.388c-.318-.488-2.83-4.93-3.28-5.8-.206-.4-.288-.68-.212-.73.068-.043 1.866-1.126 3.996-2.406 3.654-2.196 3.873-2.347 3.879-2.682.007-.426.244-.263-4.302-2.969C2.325 13.79.723 12.821.64 12.753c-.117-.096.024-.44.617-1.515C2.54 8.914 4.244 5.964 4.336 5.91c.048-.028 1.81.955 3.916 2.185s3.956 2.271 4.11 2.314c.193.053.348.007.487-.146.186-.203.207-.668.227-4.97l.022-4.746 2.611.045c1.436.025 3.184.02 3.884-.01l1.273-.055.023 4.82.023 4.82.302.177c.342.2.071.34 5.564-2.875l2.824-1.653 1.175 2.034c1.882 3.261 2.633 4.67 2.569 4.82-.033.078-1.702 1.113-3.708 2.301-2.006 1.189-3.772 2.27-3.924 2.402-.376.328-.36.733.043 1.024.18.13 1.956 1.201 3.945 2.38 1.99 1.18 3.644 2.189 3.676 2.243.033.054-.36.86-.872 1.79-.934 1.695-2.793 4.949-2.877 5.034-.024.026-1.676-.908-3.67-2.073-4.69-2.743-4.372-2.58-4.737-2.421l-.3.13-.042 4.833-.041 4.834-1.814-.031c-.997-.018-2.752-.012-3.9.011l-2.087.043.031-1.802z" fill="#f5333f" stroke="#f5333f" stroke-width="1.2" fill-rule="evenodd"/></svg>