<?xml version="1.0" encoding="UTF-8"?>
<svg width="57px" height="50px" viewBox="0 0 57 50" version="1.1" xmlns="http://www.w3.org/2000/svg" xmlns:xlink="http://www.w3.org/1999/xlink">
    <!-- Generator: Sketch 47.1 (45422) - http://www.bohemiancoding.com/sketch -->
    <title>Page 1</title>
    <desc>Created with Sketch.</desc>
    <defs>
        <polygon id="path-1" points="56.7593333 20.7318537 56.7593333 41 0 41 0 20.7318537 0 0.463707405 56.7593333 0.463707405"></polygon>
        <polygon id="path-3" points="0 50 57 50 57 0 0 0"></polygon>
    </defs>
    <g id="Page-1" stroke="none" stroke-width="1" fill="none" fill-rule="evenodd">
        <g id="deloyments-page--table" transform="translate(-115.000000, -350.000000)">
            <g id="Page-1" transform="translate(115.000000, 350.000000)">
                <g id="Group-3" transform="translate(0.000000, 9.000000)">
                    <mask id="mask-2" fill="white">
                        <use xlink:href="#path-1"></use>
                    </mask>
                    <g id="Clip-2"></g>
                    <path d="M40.8753333,39.7666687 C38.1399667,39.7666687 35.9226667,37.5238406 35.9226667,34.7569812 C35.9226667,31.9901219 38.1399667,29.7472938 40.8753333,29.7472938 C43.6107,29.7472938 45.828,31.9901219 45.828,34.7569812 C45.8242,37.5225594 43.6094333,39.762825 40.8753333,39.7666687 L40.8753333,39.7666687 Z M12.8313333,39.7666687 C10.0959667,39.7666687 7.87866667,37.5238406 7.87866667,34.7569812 C7.87866667,31.9901219 10.0959667,29.7472938 12.8313333,29.7472938 C15.5667,29.7472938 17.784,31.9901219 17.784,34.7569812 C17.7808333,37.5225594 15.5654333,39.762825 12.8313333,39.7666687 L12.8313333,39.7666687 Z M1.596,8.15823125 L32.3,8.15823125 L32.3,18.8182312 C32.3,19.1718562 32.5837333,19.4588562 32.9333333,19.4588562 L50.5463333,19.4588562 L55.4926667,23.9816687 L55.4926667,34.0010437 L47.044,34.0010437 C46.6203,30.5532 43.5138,28.1053719 40.1052,28.53395 C37.2786333,28.8894969 35.0518333,31.1419344 34.7003333,34.0010437 L19,34.0010437 C18.5763,30.5532 15.4698,28.1053719 12.0612,28.53395 C9.23463333,28.8894969 7.00783333,31.1419344 6.65633333,34.0010437 L1.27933333,34.0010437 L1.596,8.15823125 Z M30.951,1.75198125 L34.751,1.75198125 L36.271,6.87698125 L29.9376667,6.87698125 L30.951,1.75198125 Z M49.5456667,18.1776063 L33.5666667,18.1776063 L33.5666667,8.15823125 L42.3573333,8.15823125 L49.5456667,18.1776063 Z M56.126,35.2822937 C56.4756,35.2822937 56.7593333,34.9952937 56.7593333,34.6416687 L56.7593333,23.6933875 C56.7587,23.5127312 56.6827,23.3404031 56.5503333,23.219325 L51.262,18.4082312 L43.1933333,7.12041875 C43.0736333,6.9551375 42.883,6.85712187 42.6803333,6.8577625 L37.5693333,6.8577625 L35.8023333,0.91916875 C35.7187333,0.639215625 35.4578,0.4515125 35.169,0.464325 L30.4316667,0.464325 C30.1257667,0.45791875 29.8591333,0.673809375 29.7983333,0.976825 L28.6456667,6.87698125 L0.969,6.87698125 C0.6194,6.87698125 0.335666667,7.16398125 0.335666667,7.51760625 L0,34.6352625 C0,34.9888875 0.283733333,35.2758875 0.633333333,35.2758875 L6.631,35.2758875 C6.9407,38.7359031 9.96486667,41.2875125 13.3855,40.9742469 C16.3773667,40.7000594 18.7479333,38.3022 19.019,35.2758875 L34.675,35.2758875 C34.9847,38.7359031 38.0088667,41.2875125 41.4295,40.9742469 C44.4213667,40.7000594 46.7919333,38.3022 47.063,35.2758875 L56.126,35.2822937 Z" id="Fill-1" fill="#323232" mask="url(#mask-2)"></path>
                </g>
                <polygon id="Fill-4" fill="#323232" points="17.8723849 33 19.1276151 33 19.1276151 29.1276151 23 29.1276151 23 27.8723849 19.1276151 27.8723849 19.1276151 24 17.8723849 24 17.8723849 27.8723849 14 27.8723849 14 29.1276151 17.8723849 29.1276151"></polygon>
                <mask id="mask-4" fill="white">
                    <use xlink:href="#path-3"></use>
                </mask>
                <g id="Clip-7"></g>
                <polygon id="Fill-6" fill="#323232" mask="url(#mask-4)" points="32 5 33 5 33 0 32 0"></polygon>
                <polygon id="Fill-8" fill="#323232" mask="url(#mask-4)" points="39 7.08348457 43.0829553 3 44 3.91651543 39.9163966 8"></polygon>
                <polygon id="Fill-9" fill="#323232" mask="url(#mask-4)" points="22 3.91651543 22.9163966 3 27 7.08348457 26.0829553 8"></polygon>
            </g>
        </g>
    </g>
</svg>