<svg xmlns="http://www.w3.org/2000/svg" height="51" width="41"><g fill="#fff" fill-rule="evenodd"><path d="M14.843 0v3.29H10.36v3.18H0V51h41V6.47H30.641V3.29h-4.484V0H14.843zm-3.202 4.555h4.484V1.272h8.75v3.29l4.485-.007v6.896H11.64V4.555zm19 8.162V7.736h9.078V49.72H1.281V7.736h9.079v4.98H30.64z"/><path d="M8 32h26v-1H8zM8 23h17v-1H8zM8 39h26v-1H8z"/></g><path d="M1.351 28.723V7.773h9.006v5.024h20.286V7.773h9.006v41.9H1.35zm32.705 9.764v-.569H7.987v1.138H34.056zm0-6.967v-.522H7.987v1.042H34.056zm-9.006-9.006v-.521H7.987v1.042H25.05z" fill="#f5333f"/><path d="M11.684 8.01V4.645h4.455V1.327h8.721V4.645h4.456v6.73H11.684z" fill="#f5333f"/><path d="M.024 28.77V6.54h10.428V3.319h4.455V0h11.186v3.318H30.544l.026 1.588.026 1.587 5.19.025 5.19.025V51H.024zm39.72-.047V7.678h-9.196v5.025H10.452V7.678H1.257v42.09h38.486zM29.41 8.01V4.55h-4.456V1.232h-8.91V4.55h-4.456v6.92H29.41z" fill="#fff"/><path d="M12.276 22.964c2.334-.014 6.152-.014 8.485 0 2.333.014.424.026-4.242.026-4.667 0-6.576-.012-4.243-.026zM8.082 22.514v-.427H24.955v.854H8.082zM8.082 31.52v-.427H33.96v.853H8.081zM8.082 38.487v-.474H33.96v.948H8.081z" fill="#fff"/></svg>