<svg width="24" height="24" viewBox="0 0 24 24" fill="none" xmlns="http://www.w3.org/2000/svg">
<path d="M18.0777 4.35351L18.9313 3.49996H17.7242H12.6668C12.575 3.49996 12.5002 3.42515 12.5002 3.33329C12.5002 3.24144 12.575 3.16663 12.6668 3.16663H19.3335H19.3335H19.3335H19.3335H19.3335H19.3336H19.3336H19.3336H19.3336H19.3336H19.3336H19.3336H19.3336H19.3337H19.3337H19.3337H19.3337H19.3337H19.3337H19.3337H19.3337H19.3337H19.3338H19.3338H19.3338H19.3338H19.3338H19.3338H19.3338H19.3338H19.3339H19.3339H19.3339H19.3339H19.3339H19.3339H19.3339H19.3339H19.3339H19.334H19.334H19.334H19.334H19.334H19.334H19.334H19.334H19.3341H19.3341H19.3341H19.3341H19.3341H19.3341H19.3341H19.3341H19.3341H19.3342H19.3342H19.3342H19.3342H19.3342H19.3342H19.3342H19.3342H19.3342H19.3343H19.3343H19.3343H19.3343H19.3343H19.3343H19.3343H19.3343H19.3344H19.3344H19.3344H19.3344H19.3344H19.3344H19.3344H19.3344H19.3344H19.3345H19.3345H19.3345H19.3345H19.3345H19.3345H19.3345H19.3345H19.3346H19.3346H19.3346H19.3346H19.3346H19.3346H19.3346H19.3346H19.3346H19.3347H19.3347H19.3347H19.3347H19.3347H19.3347H19.3347H19.3347H19.3348H19.3348H19.3348H19.3348H19.3348H19.3348H19.3348H19.3348H19.3348H19.3349H19.3349H19.3349H19.3349H19.3349H19.3349H19.3349H19.3349H19.335H19.335H19.335H19.335H19.335H19.335H19.335H19.335H19.335H19.3351H19.3351H19.3351H19.3351H19.3351H19.3351H19.3351H19.3351H19.3352H19.3352H19.3352H19.3352H19.3352H19.3352H19.3352H19.3352H19.3352H19.3353H19.3353H19.3353H19.3353H19.3353H19.3353H19.3353H19.3353H19.3354H19.3354H19.3354H19.3354H19.3354H19.3354H19.3354H19.3354H19.3354H19.3355H19.3355H19.3355H19.3355H19.3355H19.3355H19.3355H19.3355H19.3356H19.3356H19.3356H19.3356H19.3356H19.3356H19.3356H19.3356H19.3356H19.3357H19.3357H19.3357H19.3357H19.3357H19.3357H19.3357H19.3357H19.3358H19.3358H19.3358H19.3358H19.3358H19.3358H19.3358H19.3358H19.3358H19.3359H19.3359H19.3359H19.3359H19.3359H19.3359H19.3359H19.3359H19.3359H19.336H19.336H19.336H19.336H19.336H19.336H19.336H19.336H19.3361H19.3361H19.3361H19.3361H19.3361H19.3361H19.3361H19.3361H19.3361H19.3362H19.3362H19.3362H19.3362H19.3362H19.3362H19.3362H19.3362H19.3363H19.3363H19.3363H19.3363H19.3363H19.3363H19.3363H19.3363H19.3363H19.3364H19.3364H19.3364H19.3364H19.3364H19.3364H19.3364H19.3364H19.3365H19.3365H19.3365H19.3365H19.3365H19.3365H19.3365H19.3365H19.3365H19.3366H19.3366H19.3366H19.3366H19.3366H19.3366H19.3366H19.3366H19.3367H19.3367H19.3367H19.3367H19.3367H19.3367H19.3367H19.3367H19.3367H19.3368H19.3368H19.3368H19.3368H19.3368H19.3368H19.3368H19.3368H19.3369H19.3369H19.3369H19.3369H19.3369H19.3369H19.3369H19.3369H19.3369H19.337H19.337H19.337C19.3579 3.16694 19.3783 3.17117 19.3978 3.17898C19.4389 3.19636 19.4711 3.22913 19.4875 3.26814C19.4958 3.28909 19.5002 3.31087 19.5002 3.33329V9.99996C19.5002 10.0918 19.4254 10.1666 19.3335 10.1666C19.2416 10.1666 19.1668 10.0918 19.1668 9.99996V4.94263V3.73552L18.3133 4.58907L12.7846 10.1177L12.7842 10.1182C12.7203 10.1822 12.6149 10.1835 12.5486 10.1173C12.4841 10.0529 12.4834 9.94783 12.5491 9.88218L18.0777 4.35351Z" fill="black" stroke="black"/>
<rect x="0.5" y="0.5" width="23" height="23" stroke="black"/>
</svg>
