<?xml version="1.0" encoding="UTF-8"?>
<svg width="60px" height="38px" viewBox="0 0 60 38" version="1.1" xmlns="http://www.w3.org/2000/svg" xmlns:xlink="http://www.w3.org/1999/xlink">
    <!-- Generator: Sketch 47.1 (45422) - http://www.bohemiancoding.com/sketch -->
    <title>noun_1093532_cc</title>
    <desc>Created with Sketch.</desc>
    <defs></defs>
    <g id="Page-1" stroke="none" stroke-width="1" fill="none" fill-rule="evenodd">
        <g id="Emergency-Page" transform="translate(-476.000000, -380.000000)" fill-rule="nonzero" fill="#323232">
            <g id="noun_1093532_cc" transform="translate(476.000000, 380.000000)">
                <path d="M48.8207958,14.1097046 C49.0299158,14.1097046 49.1693291,14.0295359 49.3087424,13.8691983 L59.7647401,2.7257384 C59.97386,2.48523207 60.0435667,2.16455696 59.97386,1.84388186 C59.9041534,1.52320675 59.6253267,1.3628692 59.3465001,1.3628692 L45.4051699,1.3628692 L45.4051699,1.3628692 C45.6142899,1.12236287 45.6839965,0.801687764 45.5445832,0.481012658 C45.4051699,0.160337553 45.19605,0 44.9172234,0 L26.3055475,0 C26.0964275,0 25.9570142,0.0801687764 25.8176009,0.240506329 L24.7022945,1.44303797 C24.6325879,1.44303797 24.6325879,1.44303797 24.5628812,1.44303797 L11.1792042,1.44303797 C10.9700842,1.44303797 10.8306709,1.52320675 10.6912576,1.6835443 L0.235259948,12.8270042 C0.0261399942,13.0675105 -0.043566657,13.3881857 0.0261399942,13.7088608 C0.0958466454,14.0295359 0.37467325,14.1898734 0.653499855,14.1898734 L14.2462968,14.1898734 L14.2462968,20.5232068 L0.723206506,20.5232068 C0.304966599,20.5232068 0.0261399942,20.8438819 0.0261399942,21.3248945 C0.0261399942,21.8059072 0.304966599,22.1265823 0.723206506,22.1265823 L14.3160035,22.1265823 L14.3160035,28.4599156 L0.723206506,28.4599156 C0.304966599,28.4599156 0.0261399942,28.7805907 0.0261399942,29.2616034 C0.0261399942,29.742616 0.304966599,30.0632911 0.723206506,30.0632911 L14.3160035,30.0632911 L14.3160035,36.3966245 L0.723206506,36.3966245 C0.304966599,36.3966245 0.0261399942,36.7172996 0.0261399942,37.1983122 C0.0261399942,37.6793249 0.304966599,38 0.723206506,38 L48.8207958,38 C48.9602091,38 49.0996224,37.9198312 49.1693291,37.8396624 L59.6253267,29.9029536 C59.97386,29.6624473 60.0435667,29.1814346 59.8344467,28.7805907 C59.6253267,28.3797468 59.2070868,28.2995781 58.8585536,28.5400844 L48.5419692,36.3164557 L34.391519,36.3164557 L34.391519,29.9831224 L48.8207958,29.9831224 C48.9602091,29.9831224 49.0996224,29.9029536 49.2390357,29.8227848 L59.6950334,21.0843882 C59.97386,20.8438819 60.0435667,20.3628692 59.8344467,19.9620253 C59.6253267,19.6413502 59.2070868,19.5611814 58.8585536,19.8016878 L48.6116759,28.4599156 L34.391519,28.4599156 L34.391519,22.1265823 L48.8207958,22.1265823 C48.9602091,22.1265823 49.0996224,22.0464135 49.2390357,21.9662447 L59.6950334,12.4261603 C59.97386,12.185654 60.0435667,11.6244726 59.8344467,11.3037975 C59.6253267,10.9831224 59.1373802,10.9029536 58.8585536,11.1434599 L48.5419692,20.5232068 L34.391519,20.5232068 L34.391519,14.1898734 L48.8207958,14.1898734 L48.8207958,14.1097046 Z M44.2898635,3.0464135 L57.4644206,3.0464135 L48.5419692,12.5063291 L35.0188789,12.5063291 L44.0110369,2.88607595 C44.0807435,2.96624473 44.2201568,3.0464135 44.2898635,3.0464135 Z M11.4580308,3.0464135 L23.2384548,3.0464135 L14.5948301,12.2658228 C14.5251234,12.3459916 14.4554168,12.4261603 14.4554168,12.5063291 L2.53557944,12.5063291 L11.4580308,3.0464135 Z M15.7101365,36.3966245 L15.7101365,13.2278481 L26.5843741,1.60337553 L43.1745571,1.60337553 L33.206506,12.2658228 C33.0670927,12.4261603 32.997386,12.6666667 32.997386,12.8270042 L32.997386,36.3164557 L15.7101365,36.3164557 L15.7101365,36.3966245 Z" id="Shape"></path>
            </g>
        </g>
    </g>
</svg>