<?xml version="1.0" encoding="utf-8"?>
<!-- Generator: Adobe Illustrator 24.1.0, SVG Export Plug-In . SVG Version: 6.00 Build 0)  -->
<svg version="1.1" id="Layer_1" xmlns="http://www.w3.org/2000/svg" xmlns:xlink="http://www.w3.org/1999/xlink" x="0px" y="0px"
	 viewBox="0 0 1080 530" style="enable-background:new 0 0 1080 530;" xml:space="preserve">
<style type="text/css">
	.st0{fill:#EFEFEF;}
	.st1{fill:#F5333F;}
	.st2{fill:#BCBEC0;}
	.st3{fill:#FFFFFF;}
	.st4{fill:#333132;}
</style>
<g>
	<rect x="78.5" y="94.99" class="st3" width="355.12" height="338.93"/>
	<polygon class="st1" points="177.65,228.93 137.05,228.93 137.05,194.12 177.65,194.12 177.65,194.1 177.65,153.49 212.45,153.49 
		212.45,194.1 212.45,194.12 253.06,194.12 253.06,228.92 212.45,228.92 212.45,228.91 212.45,269.52 177.65,269.52 177.65,228.91 
				"/>
	<path class="st1" d="M306.9,210.89c0-27.04,21.92-48.97,48.97-48.97c6.02,0,11.79,1.09,17.11,3.08
		c-10.02-7.93-22.67-12.66-36.44-12.66c-32.45,0-58.76,26.31-58.76,58.76c0,32.45,26.3,58.76,58.76,58.76
		c14.23,0,27.27-5.05,37.43-13.46c-5.61,2.23-11.71,3.46-18.11,3.46C328.83,259.85,306.9,237.93,306.9,210.89"/>
	<path class="st4" d="M345.64,375.91c6.06,0,11.56-1.07,16.49-3.2c4.93-2.14,9.06-5.23,12.39-9.3l-10.39-9.6
		c-4.73,5.53-10.6,8.3-17.59,8.3c-4.33,0-8.19-0.95-11.6-2.85c-3.4-1.9-6.04-4.55-7.94-7.94c-1.9-3.4-2.85-7.26-2.85-11.6
		s0.95-8.2,2.85-11.6c1.9-3.4,4.55-6.04,7.94-7.94c3.4-1.9,7.26-2.85,11.6-2.85c7,0,12.86,2.73,17.59,8.19l10.39-9.59
		c-3.33-4-7.45-7.06-12.34-9.2c-4.9-2.13-10.38-3.2-16.44-3.2c-7.2,0-13.68,1.55-19.44,4.65c-5.76,3.1-10.3,7.4-13.59,12.9
		c-3.29,5.49-4.95,11.71-4.95,18.64c0,6.93,1.65,13.14,4.95,18.64c3.3,5.5,7.83,9.79,13.59,12.9
		C332.06,374.36,338.51,375.91,345.64,375.91 M280.97,330.13c0,3.87-1.27,6.87-3.8,9c-2.53,2.14-6.23,3.2-11.09,3.2h-13.2v-24.39
		h13.2c4.86,0,8.56,1.05,11.09,3.15C279.7,323.19,280.97,326.2,280.97,330.13 M298.66,374.71l-15.69-22.49
		c4.6-2,8.15-4.88,10.65-8.64c2.5-3.76,3.74-8.24,3.74-13.44c0-5.19-1.23-9.69-3.7-13.49c-2.46-3.8-5.98-6.73-10.54-8.8
		c-4.57-2.06-9.94-3.1-16.14-3.1H236.7v69.97h16.19v-19.49h14.09h0.8l13.49,19.49H298.66z M222.7,317.74v-12.99h-52.87v69.97h16.19
		v-25.49h32.38v-12.99h-32.38v-18.49H222.7z M137.05,374.71h16.19v-69.96h-16.19V374.71z"/>
</g>
</svg>
