<svg xmlns="http://www.w3.org/2000/svg" height="42" width="39"><path d="M19.486.11c-.966 0-1.894.15-2.787.413-4.823 1.39-8.396 6.278-8.396 12.105 0 3.64 1.409 6.908 3.632 9.199C5.229 25.147.815 32.631.815 40.939c0 .525.375.955.845.955h35.662a.787.787 0 00.333-.08c.3-.144.513-.478.513-.875 0-8.313-4.41-15.797-11.12-19.112 2.222-2.29 3.631-5.56 3.631-9.199 0-5.606-3.314-10.368-7.866-11.954a10.122 10.122 0 00-3.326-.563zm.01 1.901c.193 0 .381.014.575.032 4.961.334 8.918 4.95 8.918 10.586 0 5.632-3.952 10.237-8.918 10.577-.194.009-.382.031-.576.031-.198 0-.391-.022-.584-.031-4.962-.34-8.909-4.945-8.909-10.577 0-5.636 3.943-10.247 8.909-10.586.193-.014.386-.032.584-.032zm-5.997 21.153a10.572 10.572 0 002.814 1.448c.115.036.244.054.36.09a9.764 9.764 0 002.202.382c.207.01.404.052.611.052.207 0 .409-.036.611-.052a9.66 9.66 0 002.05-.341c.17-.047.342-.075.513-.131a10.582 10.582 0 002.813-1.448c6.32 2.672 10.637 9.3 10.968 16.82H2.53c.332-7.515 4.648-14.148 10.968-16.82z" fill="#f5333f" fill-rule="nonzero"/><path d="M17.787 23.001c-3.22-.688-5.886-3.154-7.085-6.553-.453-1.284-.607-2.22-.615-3.726-.007-1.508.13-2.455.538-3.71 1.039-3.198 3.545-5.733 6.519-6.595a8.255 8.255 0 014.665-.013c3.464 1.005 6.076 4.018 6.92 7.979.228 1.076.25 3.144.046 4.26-.806 4.394-4.027 7.801-7.97 8.432-.811.13-2.228.095-3.018-.074z" fill="#f5333f"/><path d="M2.637 39.125c.084-1.09.4-2.81.721-3.93 1.473-5.128 4.881-9.384 9.254-11.558l.836-.415.713.43c1.377.832 2.78 1.285 4.503 1.454 2.058.202 4.52-.41 6.344-1.576l.464-.297.337.133c.186.073.705.337 1.153.586 5.13 2.846 8.63 8.375 9.337 14.745.045.404.082.853.082 1v.264H2.573z" fill="#f5333f" stroke-width=".626" stroke="#f5333f"/><path d="M1.204 41.67c-.338-.267-.394-.644-.3-2.036.237-3.538 1.103-6.606 2.694-9.54 1.735-3.202 4.46-6.032 7.428-7.712l.962-.545-.497-.577c-4.34-5.043-4.15-12.957.424-17.701.992-1.03 1.931-1.733 3.059-2.29C17.65-.056 20.442-.185 23.21.886c1.415.548 2.663 1.412 3.895 2.695 4.108 4.28 4.69 11.376 1.345 16.4-.38.57-.558.802-1.197 1.562l-.25.299.631.344c6.04 3.297 10.131 10.189 10.433 17.58.056 1.389.026 1.595-.274 1.874l-.213.197H1.417zm35.26-1.987c0-.198-.058-.812-.129-1.366-.822-6.49-4.546-12.062-9.833-14.713-.862-.432-1.155-.519-1.248-.369-.083.134-1.303.813-1.923 1.07-1.362.565-3.253.86-4.626.724-1.677-.168-3.09-.623-4.423-1.427-.402-.243-.77-.44-.817-.44-.16 0-1.135.475-1.914.934-3.408 2.005-6.267 5.49-7.738 9.433-.744 1.994-1.078 3.566-1.304 6.126l-.034.388h33.988zM21.614 22.998a9.343 9.343 0 004.222-2.46c1.319-1.34 2.055-2.557 2.626-4.338.408-1.275.526-2.07.528-3.56.002-2.485-.566-4.414-1.885-6.396C24.103 1.732 18.377.647 14.18 3.796c-2.016 1.513-3.405 3.777-3.993 6.505-.236 1.1-.257 3.388-.04 4.482.734 3.696 3.041 6.634 6.19 7.88 1.115.442 1.974.582 3.366.547.932-.023 1.387-.073 1.911-.212z" fill="#f5333f" stroke-width=".626" stroke="#f5333f"/></svg>