<svg xmlns="http://www.w3.org/2000/svg" xmlns:xlink="http://www.w3.org/1999/xlink" width="35" height="36" viewBox="0 0 35 36">
    <defs>
        <path id="prefix__a" d="M0 0.237L8.683 0.237 8.683 8.4 0 8.4z"/>
        <path id="prefix__c" d="M0.249 0.359L8.641 0.359 8.641 8.691 0.249 8.691z"/>
    </defs>
    <g fill="none" fill-rule="evenodd">
        <g transform="translate(0 27)">
            <mask id="prefix__b" fill="#fff">
                <use xlink:href="#prefix__a"/>
            </mask>
            <path fill="#F63440" d="M6.008.672L.453 5.915c-.607.571-.604 1.495.009 2.062.612.567 1.601.563 2.21-.008l.003-.004L8.23 2.723c.608-.572.604-1.495-.008-2.062C7.609.093 6.62.097 6.012.668l-.004.004" mask="url(#prefix__b)"/>
        </g>
        <g transform="translate(26)">
            <mask id="prefix__d" fill="#fff">
                <use xlink:href="#prefix__c"/>
            </mask>
            <path fill="#F63440" d="M1.748 8.691c.396 0 .774-.155 1.055-.433l5.393-5.333c.59-.582.595-1.532.012-2.12C7.625.214 6.676.208 6.087.791L.694 6.124C.105 6.707.1 7.657.682 8.246c.282.285.666.445 1.066.445" mask="url(#prefix__d)"/>
        </g>
        <path fill="#F5333F" d="M28.459 27.421c-.562-.56-1.473-.561-2.036-.003-.56.555-.564 1.458-.008 2.019l5.124 5.14c.56.56 1.471.565 2.035.008.565-.557.568-1.463.009-2.025l-5.124-5.139zM5.561 8.583c.561.56 1.467.556 2.024-.008.557-.565.553-1.476-.008-2.035L2.439 1.417C1.878.857.97.861.415 1.425c-.557.565-.553 1.476.008 2.035l5.138 5.123zM17.5 8C12.084 8 8 11.801 8 16.842c0 .814.654 1.474 1.461 1.474.808 0 1.462-.66 1.462-1.474-.04-2.082 1.093-4.006 2.923-4.97v22.654c0 .814.655 1.474 1.462 1.474.807 0 1.461-.66 1.461-1.474V23.474h1.462v11.052c0 .814.654 1.474 1.461 1.474s1.462-.66 1.462-1.474V11.872c1.83.964 2.962 2.888 2.923 4.97 0 .814.654 1.474 1.461 1.474.808 0 1.462-.66 1.462-1.474C27 11.802 22.916 8 17.5 8M18 0c1.657 0 3 1.343 3 3s-1.343 3-3 3-3-1.343-3-3 1.343-3 3-3"/>
    </g>
</svg>
