<svg xmlns="http://www.w3.org/2000/svg" width="27" height="35" viewBox="0 0 27 35">
    <path fill="#000" fill-rule="evenodd" d="M13.852 27.708a3.327 3.327 0 0 0 2.917-3.303c0-1.794-1.488-3.26-3.319-3.26h-.648c-.628 0-1.137-.488-1.137-1.086 0-.605.51-1.1 1.137-1.1h2.144c.605 0 1.094-.49 1.094-1.094 0-.606-.489-1.094-1.094-1.094h-1.094v-1.094c0-.605-.488-1.094-1.094-1.094-.605 0-1.093.489-1.093 1.094v1.29c-1.27.46-2.188 1.67-2.188 3.092 0 1.809 1.495 3.274 3.325 3.274h.648c.635 0 1.131.474 1.131 1.116 0 .598-.496 1.072-1.13 1.072H11.3c-.605 0-1.094.488-1.094 1.094 0 .605.489 1.093 1.094 1.093h.365v1.094a1.092 1.092 0 1 0 2.188 0v-1.094zm11.557-6.934c1.729 4.032.649 8.342-2.063 11.142A10.075 10.075 0 0 1 16.04 35h-5.834A10.075 10.075 0 0 1 2.9 31.916c-2.711-2.8-3.791-7.11-2.063-11.142L6.56 9.479h13.125l5.724 11.295zM6.558 8.021L5.116 2.346a.73.73 0 0 1 .712-.888h3.937c.684 0 1.275.475 1.424 1.142l1.202 5.42H6.558zm10.21 0H13.85L12.405.86A.732.732 0 0 1 13.127 0h2.188c.798 0 1.438.663 1.45 1.458C16.779.663 17.43 0 18.228 0h2.18c.46 0 .802.416.722.86l-1.446 7.16h-2.914z"/>
</svg>
