<svg xmlns="http://www.w3.org/2000/svg" width="50" height="43" viewBox="0 0 50 43">
    <g fill="none" fill-rule="evenodd">
        <path fill="#000" fill-rule="nonzero" d="M1.985 38.986h2.93l-1.439-3.818-1.491 3.818zm1.126-4.528h.793l2.92 7.448h-.76l-.908-2.315h-3.39l-.898 2.315h-.75l2.993-7.448zm5.764 3.651h2.44c.494 0 .894-.125 1.2-.375.306-.25.46-.633.46-1.148 0-.514-.154-.897-.46-1.147-.306-.25-.706-.376-1.2-.376h-2.44v3.046zm-.71-3.65h3.307c.334 0 .636.046.908.14.27.094.504.233.699.417.194.185.344.409.448.673.104.264.157.564.157.897 0 .334-.053.633-.157.897a1.845 1.845 0 0 1-.448.673 1.912 1.912 0 0 1-.7.418c-.27.093-.573.14-.907.14H8.875v3.192h-.71v-7.448zm7.944 3.65h2.44c.495 0 .894-.125 1.2-.375.306-.25.46-.633.46-1.148 0-.514-.154-.897-.46-1.147-.306-.25-.705-.376-1.2-.376h-2.44v3.046zm-.71-3.65h3.307c.334 0 .637.046.908.14.271.094.504.233.699.417.195.185.344.409.448.673.105.264.157.564.157.897 0 .334-.052.633-.157.897a1.845 1.845 0 0 1-.448.673 1.912 1.912 0 0 1-.7.418c-.27.093-.573.14-.907.14H16.11v3.192h-.71v-7.448zm7.235 0h5.143v.604h-4.434v2.692h4.152v.605h-4.152V41.3h4.486v.605h-5.195v-7.448zm7.902 4.527h2.93l-1.439-3.818-1.491 3.818zm1.126-4.528h.793l2.92 7.448h-.76l-.908-2.315h-3.39l-.898 2.315h-.75l2.993-7.448zm5.054 0h.71v6.843h4.172v.605h-4.882v-7.448zm6.598 4.997c-.007.383.052.702.178.96.125.257.297.462.516.615.219.153.478.263.777.329.3.066.62.099.96.099.195 0 .407-.028.636-.084.23-.055.444-.144.642-.266.198-.121.363-.278.495-.469a1.19 1.19 0 0 0 .198-.694c0-.208-.047-.39-.14-.542a1.288 1.288 0 0 0-.366-.386 2.152 2.152 0 0 0-.495-.256 4.848 4.848 0 0 0-.532-.161l-1.659-.407a4.967 4.967 0 0 1-.63-.209 1.797 1.797 0 0 1-.538-.334 1.585 1.585 0 0 1-.37-.51 1.748 1.748 0 0 1-.141-.741c0-.181.035-.393.104-.637.07-.243.2-.473.391-.688.192-.216.454-.398.788-.548.334-.15.761-.224 1.283-.224.369 0 .72.048 1.054.146.333.097.626.243.876.438s.45.436.6.725c.15.289.224.624.224 1.007h-.71a1.725 1.725 0 0 0-.192-.746 1.665 1.665 0 0 0-.449-.532 1.963 1.963 0 0 0-.636-.324 2.583 2.583 0 0 0-.757-.11c-.243 0-.478.027-.704.08a1.763 1.763 0 0 0-.594.25c-.17.114-.308.265-.412.453-.105.188-.157.421-.157.7 0 .173.03.324.089.453s.14.238.245.329c.104.09.224.163.36.219.135.055.28.1.433.135l1.815.449c.264.07.513.154.746.255.233.101.438.226.615.376.178.15.317.332.418.548.1.215.15.476.15.782 0 .083-.008.195-.025.334-.018.139-.06.287-.125.443-.067.157-.16.315-.282.475-.122.16-.289.304-.5.433a2.905 2.905 0 0 1-.788.313c-.313.08-.689.12-1.127.12-.438 0-.845-.05-1.22-.152a2.628 2.628 0 0 1-.96-.464 2.045 2.045 0 0 1-.61-.803c-.143-.327-.204-.72-.183-1.179h.71z"/>
        <path fill="#DC281E" d="M4.676 17.562v-6.019h6.967V4.515h5.968v7.024l6.967.004v6.018H17.61v7.023h-5.968v-7.023l-6.967.001zm37.54-11.589c-4.639 0-8.4 3.792-8.4 8.47 0 4.676 3.761 8.468 8.4 8.468a8.304 8.304 0 0 0 3.108-.599 9.986 9.986 0 0 1-6.422 2.328c-5.567 0-10.081-4.548-10.081-10.162 0-5.613 4.514-10.161 10.081-10.161 2.362 0 4.531.817 6.251 2.188a8.347 8.347 0 0 0-2.937-.532zM3.058.72A2.158 2.158 0 0 0 .899 2.878V25.54c0 1.192.967 2.158 2.159 2.158h44.064a2.158 2.158 0 0 0 2.159-2.158V2.878A2.158 2.158 0 0 0 47.122.719H3.058zm0-.719h44.064A2.878 2.878 0 0 1 50 2.878V25.54a2.878 2.878 0 0 1-2.878 2.877H3.058A2.878 2.878 0 0 1 .18 25.54V2.878A2.878 2.878 0 0 1 3.058 0z"/>
    </g>
</svg>
