<?xml version="1.0" encoding="utf-8"?>
<svg version="1.1" xmlns="http://www.w3.org/2000/svg" xmlns:xlink="http://www.w3.org/1999/xlink" x="0px" y="0px"
	 width="512px" height="512px" viewBox="0 0 512 512" enable-background="new 0 0 512 512" xml:space="preserve">
	<g id="svgGrid">
		<line fill="none" stroke="#B35047" x1="32" y1="0" x2="32" y2="512"/>
		<line fill="none" stroke="#B35047" x1="64" y1="0" x2="64" y2="512"/>
		<line fill="none" stroke="#B35047" x1="96" y1="0" x2="96" y2="512"/>
		<line fill="none" stroke="#B35047" x1="128" y1="0" x2="128" y2="512"/>
		<line fill="none" stroke="#B35047" x1="160" y1="0" x2="160" y2="512"/>
		<line fill="none" stroke="#B35047" x1="192" y1="0" x2="192" y2="512"/>
		<line fill="none" stroke="#B35047" x1="224" y1="0" x2="224" y2="512"/>
		<line fill="none" stroke="#B35047" x1="256" y1="0" x2="256" y2="512"/>
		<line fill="none" stroke="#B35047" x1="288" y1="0" x2="288" y2="512"/>
		<line fill="none" stroke="#B35047" x1="320" y1="0" x2="320" y2="512"/>
		<line fill="none" stroke="#B35047" x1="352" y1="0" x2="352" y2="512"/>
		<line fill="none" stroke="#B35047" x1="384" y1="0" x2="384" y2="512"/>
		<line fill="none" stroke="#B35047" x1="416" y1="0" x2="416" y2="512"/>
		<line fill="none" stroke="#B35047" x1="448" y1="0" x2="448" y2="512"/>
		<line fill="none" stroke="#B35047" x1="480" y1="0" x2="480" y2="512"/>
		<line fill="none" stroke="#B35047" x1="0" y1="32" x2="512" y2="32"/>
		<line fill="none" stroke="#B35047" x1="0" y1="64" x2="512" y2="64"/>
		<line fill="none" stroke="#B35047" x1="0" y1="96" x2="512" y2="96"/>
		<line fill="none" stroke="#B35047" x1="0" y1="128" x2="512" y2="128"/>
		<line fill="none" stroke="#B35047" x1="0" y1="160" x2="512" y2="160"/>
		<line fill="none" stroke="#B35047" x1="0" y1="192" x2="512" y2="192"/>
		<line fill="none" stroke="#B35047" x1="0" y1="224" x2="512" y2="224"/>
		<line fill="none" stroke="#B35047" x1="0" y1="256" x2="512" y2="256"/>
		<line fill="none" stroke="#B35047" x1="0" y1="288" x2="512" y2="288"/>
		<line fill="none" stroke="#B35047" x1="0" y1="320" x2="512" y2="320"/>
		<line fill="none" stroke="#B35047" x1="0" y1="352" x2="512" y2="352"/>
		<line fill="none" stroke="#B35047" x1="0" y1="384" x2="512" y2="384"/>
		<line fill="none" stroke="#B35047" x1="0" y1="416" x2="512" y2="416"/>
		<line fill="none" stroke="#B35047" x1="0" y1="448" x2="512" y2="448"/>
		<line fill="none" stroke="#B35047" x1="0" y1="480" x2="512" y2="480"/>
		<rect fill="none" stroke="#B35047" width="512" height="512"/>
	</g>
	<path d="M510.3,270.1l-0.6-1.8c-6-17.7-22.9-29.5-42.3-29.4c-4.9,0-9.7,0.8-14.4,2.4l-50.3,17l-32.5-96.4l0,0l0,0
		c47.4-16.2,48.3-16.5,48.4-16.5c20.2-6.8,37-27.9,30.3-51.6l-0.5-1.8c-6.1-18.1-22.7-29.8-42.4-29.6c-4.4,0-8.8,0.7-13.2,1.9
		l-49.7,16.7l-16.5-49.1c-3.8-11.3-11.8-20.4-22.4-25.7c-6.4-3.1-13.1-4.7-20.1-4.7c-4.7,0-9.4,0.8-13.9,2.4
		c-22.6,7.6-35.2,31.5-28.6,54.4l0.6,2l16.5,49l-95.4,32l-16.4-48.8c-6.2-18.3-23.3-30.5-42.6-30.3c-4.7,0-9.4,0.8-13.9,2.3
		C67.8,72,55.2,95.9,61.7,118.8c0.2,0.7,0.4,1.3,0.6,2l16.4,48.7l-48.3,16.2c-22.6,7.6-35.2,31.4-28.7,54.2c0.2,0.7,0.4,1.3,0.6,2
		c6,17.8,22.1,29.2,41.3,29c5,0,9.9-0.9,14.7-2.5c16.8-5.7,32.9-11.2,48.2-16.5l0,0l0,0l32.2,95.6l-48,16.2
		C68,371.5,55.4,395.6,62,418.6c0.2,0.7,0.4,1.3,0.6,2c5.9,17.5,22.1,28.7,41.4,28.6v0c5.2,0,10.3-0.9,15.4-2.6l47.2-16.1l16.7,49.7
		c6.2,18.3,23.3,30.5,42.6,30.4v0h0c4.7,0,9.3-0.8,13.8-2.3c22.6-7.6,35.2-31.5,28.6-54.5c-0.2-0.7-0.4-1.4-0.6-2l-16.9-50.1
		l95.2-32.6l17,50.6c6.2,18.3,23.3,30.5,42.6,30.3c4.7,0,9.4-0.8,13.8-2.3c22.6-7.6,35.2-31.5,28.4-55.3l-0.4-1.2l-17.2-51l52.8-18.1
		c0,0,16.4-7.1,21.6-15.2C511.8,296.1,513.8,282.4,510.3,270.1z M223.1,319.1L223.1,319.1L223.1,319.1l-32.3-95.9l0,0l0,0
		c37.6-12.8,69-23.6,95.2-32.5l32.4,96.2L223.1,319.1z"/>
</svg>