<?xml version="1.0" encoding="UTF-8"?>
<svg xmlns="http://www.w3.org/2000/svg" viewBox="0 0 48 36.856"><g fill="#ffffff" data-name="Layer 2"><path d="M47 22.856H1a1 1 0 0 0-1 1 13 13 0 0 0 13 13h22a13 13 0 0 0 13-13 1 1 0 0 0-1-1zM20.888 12.08l-2.487-.667a5 5 0 0 0-6.124 3.535l-.176.658 2.487.667a5 5 0 0 0 6.124-3.536zM20.333 17.812l2.487.666a5 5 0 0 0 6.124-3.535l.176-.658-2.487-.667a5 5 0 0 0-6.124 3.536zM28.564 20.018l2.488.666a5 5 0 0 0 6.124-3.535l.176-.659-2.488-.666a5 5 0 0 0-6.123 3.536zM19.136 8.669l2.488.666.176-.658a5 5 0 0 0-3.535-6.124l-2.488-.666-.176.658a5 5 0 0 0 3.535 6.124zM27.368 10.874l2.487.667.177-.658a5 5 0 0 0-3.536-6.124l-2.487-.667-.177.659a5 5 0 0 0 3.536 6.123zM35.6 13.08l2.487.667.176-.659a5 5 0 0 0-3.535-6.123l-2.487-.667-.177.658A5 5 0 0 0 35.6 13.08zM45.951 17.324a1.42 1.42 0 0 0-1.004-1.74l-5.03-1.347-.736 2.744 5.03 1.348a1.42 1.42 0 0 0 1.74-1.005zM5.976 11.024a1.42 1.42 0 0 0-.735 2.744l3.659.98a1.42 1.42 0 1 0 .735-2.743zM8.182 2.793l3.659.98a1.42 1.42 0 0 0 .735-2.744L8.917.05a1.42 1.42 0 1 0-.735 2.744zM3.053 7.3l10.061 2.696a1.42 1.42 0 1 0 .735-2.744L3.79 4.556A1.42 1.42 0 0 0 3.052 7.3z" style="fill: #ffffff;"/></g></svg>
