<svg xmlns="http://www.w3.org/2000/svg" width="51" height="40" viewBox="0 0 51 40">
    <g fill="none" fill-rule="evenodd">
        <g fill="#F5333F">
            <g>
                <g>
                    <path d="M14.131 14.139V.759h23.083v13.38H50.68v25.804H.666V14.139h13.465zm0 2.116H2.858v21.572H14.13V16.255zm17.313 21.54h3.625V2.907H16.276v34.888h4.588V25.607h10.58v12.188zm5.77-21.54v21.572h11.274V16.255H37.214zm-14.13 21.49h6.139v-9.94h-6.139v9.94zm16.054-20.74h8.656v5.735h-8.656v-5.734zm2.236 3.504h4.184v-1.272h-4.184v1.272zm-2.236 3.187h8.656v5.734h-8.656v-5.734zm2.236 3.503h4.184v-1.273h-4.184V27.2zm-2.236 3.187h8.656v5.734h-8.656v-5.734zm2.236 3.503h4.184v-1.273h-4.184v1.273zm-28.66-10.94H4.306v-5.521h8.408v5.521zm-2.172-2.148v-1.225H6.477V20.8h4.065zm2.172 8.86H4.306V24.14h8.408v5.522zm-2.172-3.373H6.477v1.226h4.065v-1.226zm2.172 10.086H4.306v-5.522h8.408v5.522zM10.542 33H6.477v1.226h4.065V33zm7.436-16.755v-6.117l4.615-.003V5.537h6.158v4.588l4.616.003v6.115H28.75l.001 4.586h-6.158v-4.586l-4.615.002zm2.2-2.186l4.615-.003v4.587h1.758l-.002-4.585h4.619v-1.746l-4.617-.003V7.723h-1.758v4.586l-4.615.003v1.747z" transform="translate(-627 -719) translate(301 646) translate(326 73)"/>
                </g>
            </g>
        </g>
    </g>
</svg>
