<?xml version="1.0" encoding="utf-8"?>
<!-- Generator: Adobe Illustrator 24.1.0, SVG Export Plug-In . SVG Version: 6.00 Build 0)  -->
<svg version="1.1" xmlns="http://www.w3.org/2000/svg" xmlns:xlink="http://www.w3.org/1999/xlink" x="0px" y="0px"
	 viewBox="0 0 500 500" style="enable-background:new 0 0 500 500;" xml:space="preserve">
<style type="text/css">
	.st0{fill:#F5333F;}
	.st1{fill:none;stroke:#011E41;stroke-width:16;stroke-miterlimit:10;}
	.st2{display:none;}
	.st3{display:inline;}
	.st4{fill:none;stroke:#D1D3D4;stroke-width:2;stroke-miterlimit:10;}
	.st5{display:inline;fill:none;stroke:#BCBEC0;stroke-width:4;stroke-miterlimit:10;}
	.st6{fill:none;stroke:#BCBEC0;stroke-width:4;stroke-miterlimit:10;}
	.st7{display:inline;fill:none;stroke:#D1D3D4;stroke-width:2;stroke-miterlimit:10;}
	.st8{display:none;opacity:0.35;fill:none;stroke:#000000;stroke-width:16;stroke-miterlimit:10;}
	.st9{fill:none;stroke:#011E41;stroke-width:16;stroke-linejoin:bevel;stroke-miterlimit:10;}
	.st10{fill:none;stroke:#F5333F;stroke-width:16;stroke-miterlimit:10;}
	.st11{fill:#011E41;}
	.st12{fill:none;stroke:#011E41;stroke-width:16;stroke-linecap:square;stroke-miterlimit:10;}
	.st13{fill:none;stroke:#011E41;stroke-width:16;stroke-linecap:round;stroke-miterlimit:10;}
	.st14{fill:none;stroke:#EF3741;stroke-width:16;stroke-miterlimit:10;}
	.st15{fill:#F5333F;stroke:#011E41;stroke-width:16;stroke-miterlimit:10;}
	.st16{fill:#F9F9F9;}
	.st17{fill:#EF3741;}
	.st18{fill:none;stroke:#011E41;stroke-width:8;stroke-miterlimit:10;}
</style>
<g id="Icons">
</g>
<g id="Text">
	<g>
		<polygon class="st0" points="145.73,58.81 145.77,99.15 357.26,99.15 357.26,395.36 389.44,395.36 389.44,58.81 		"/>
		<polygon class="st0" points="125.71,387.33 164.1,425.72 125.71,425.72 		"/>
		<rect x="110.56" y="93.36" class="st1" width="251.88" height="347.83"/>
		<polygon class="st1" points="176.24,415.19 136.56,375.52 176.24,375.52 		"/>
		<g>
			<line class="st1" x1="244.27" y1="159.46" x2="336.67" y2="159.46"/>
		</g>
		<g>
			<line class="st1" x1="244.27" y1="192.16" x2="336.67" y2="192.16"/>
		</g>
		<g>
			<line class="st1" x1="244.27" y1="126.77" x2="336.67" y2="126.77"/>
		</g>
		<g>
			<line class="st1" x1="134.55" y1="346.73" x2="336.67" y2="346.73"/>
		</g>
		<g>
			<line class="st1" x1="199.2" y1="375.52" x2="336.67" y2="375.52"/>
		</g>
		<g>
			<line class="st1" x1="134.55" y1="221.57" x2="336.67" y2="221.57"/>
		</g>
		<g>
			<line class="st1" x1="134.55" y1="316.7" x2="336.67" y2="316.7"/>
		</g>
		<rect x="142.28" y="252.69" class="st1" width="187.12" height="32.44"/>
		<g>
			<path class="st10" d="M177.6,126.88c18.74,0,33.94,15.2,33.94,33.94"/>
			<path class="st1" d="M211.54,160.82c0,18.74-15.2,33.94-33.94,33.94s-33.94-15.2-33.94-33.94s15.2-33.94,33.94-33.94"/>
		</g>
	</g>
</g>
</svg>
