<svg xmlns="http://www.w3.org/2000/svg" xmlns:xlink="http://www.w3.org/1999/xlink" width="54.09" height="37.917"><defs><path d="M56.76 20.732V41H0V.464h56.76z" id="a"/><path d="M0 50h57V0H0z" id="c"/></defs><g transform="translate(-1.362 -10.781)" fill="#fff" fill-rule="evenodd"><g transform="translate(0 9)"><mask id="b"><use height="100%" width="100%" xlink:href="#a"/></mask><path d="M40.875 39.767c-2.735 0-4.952-2.243-4.952-5.01s2.217-5.01 4.952-5.01c2.736 0 4.953 2.243 4.953 5.01-.004 2.766-2.219 5.006-4.953 5.01zm-28.044 0c-2.735 0-4.952-2.243-4.952-5.01s2.217-5.01 4.952-5.01c2.736 0 4.953 2.243 4.953 5.01-.003 2.766-2.219 5.006-4.953 5.01zM1.596 8.158H32.3v10.66c0 .354.284.64.633.64h17.613l4.947 4.524V34h-8.449c-.424-3.448-3.53-5.896-6.939-5.467-2.826.355-5.053 2.608-5.405 5.467H19c-.424-3.448-3.53-5.896-6.939-5.467-2.826.355-5.053 2.608-5.405 5.467H1.28l.317-25.843zm29.355-6.406h3.8l1.52 5.125h-6.333zm18.595 16.426h-15.98V8.158h8.791zm6.58 17.104c.35 0 .633-.287.633-.64V23.693a.646.646 0 00-.209-.474l-5.288-4.81L43.193 7.12a.632.632 0 00-.513-.262h-5.11L35.801.919a.634.634 0 00-.633-.455h-4.737a.635.635 0 00-.634.513l-1.152 5.9H.969a.637.637 0 00-.633.64L0 34.636c0 .354.284.64.633.64h5.998c.31 3.46 3.334 6.013 6.755 5.7 2.991-.275 5.362-2.673 5.633-5.7h15.656c.31 3.46 3.334 6.013 6.755 5.7 2.991-.275 5.362-2.673 5.633-5.7l9.063.007z" mask="url(#b)"/></g><path d="M17.872 33h1.256v-3.872H23v-1.256h-3.872V24h-1.256v3.872H14v1.256h3.872z"/><mask id="d"><use height="100%" width="100%" xlink:href="#c"/></mask><path d="M32 5h1V0h-1zm7 2.083L43.083 3l.917.917L39.916 8zM22 3.917L22.916 3 27 7.083 26.083 8z" mask="url(#d)"/></g><g fill="#f5333f"><path d="M.002 30.041c.002-1.162.063-6.672.138-12.244C.214 12.226.276 7.385.277 7.04l.002-.628h30.576v5.349c0 5.77.003 5.801.485 5.93.117.031 4.186.06 9.041.063l8.83.007L51.651 20l2.439 2.239v9.917h-8.356l-.064-.349c-.089-.492-.487-1.59-.716-1.975-1.426-2.4-4.097-3.586-6.803-3.02-1.72.36-3.445 1.716-4.22 3.318-.214.441-.443 1.067-.509 1.39l-.12.59-7.802.023-7.803.024-.157-.674c-.306-1.313-1.15-2.651-2.179-3.459-2.115-1.66-5.065-1.797-7.3-.337a7.54 7.54 0 00-1.214 1.036c-.646.714-1.324 2.018-1.482 2.852l-.11.58H0zm17.842-9.688v-1.952h3.811v-1.394h-3.811v-3.81H16.45v3.806l-1.928.025-1.929.026-.027.673-.027.674h3.911v3.904h1.394z"/><path d="M32.25 11.384V6.412h8.7l3.48 4.847a750.274 750.274 0 013.554 4.972c.062.105-1.206.126-7.83.126H32.25zm-3.59-6.528c.025-.09.24-1.146.476-2.347s.45-2.257.477-2.347C29.656.014 29.828 0 31.506 0s1.85.014 1.893.162a577.139 577.139 0 001.359 4.6l.084.256h-3.114c-2.922 0-3.112-.01-3.067-.162zM10.177 37.744a4.8 4.8 0 01-2.136-1.267c-2.228-2.223-1.844-5.894.802-7.661 1.955-1.306 4.684-.93 6.266.864 2.136 2.42 1.386 6.318-1.484 7.714-1.12.545-2.34.669-3.448.35zm28.139.031c-1.691-.456-3.082-1.853-3.561-3.577-.182-.653-.139-1.986.087-2.7.228-.722.757-1.562 1.322-2.098 2.51-2.383 6.526-1.515 7.872 1.701 1.14 2.726-.48 5.931-3.372 6.675-.68.174-1.699.174-2.348-.001z"/></g></svg>