<svg xmlns="http://www.w3.org/2000/svg" width="42" height="39" viewBox="0 0 42 39">
    <g fill="none" fill-rule="evenodd">
        <path fill="#F5333F" d="M.513 13.626v-6.04h6.991V.53h5.99v7.05l6.992.004v6.04h-6.992v7.048h-5.99v-7.049l-6.991.002zM38.188 1.995c-4.656 0-8.43 3.805-8.43 8.5 0 4.693 3.774 8.499 8.43 8.499 1.101 0 2.155-.213 3.119-.601-1.75 1.46-3.996 2.336-6.445 2.336-5.587 0-10.118-4.564-10.118-10.198S29.275.332 34.862.332c2.37 0 4.548.82 6.274 2.197-.918-.344-1.91-.534-2.948-.534z"/>
        <path fill="#000" fill-rule="nonzero" stroke="#000" stroke-width=".3" d="M8 30h2.62c.717 0 1.312.112 1.786.336.474.224.853.523 1.137.896.284.374.483.8.599 1.278.116.478.174.97.174 1.479 0 .567-.073 1.096-.219 1.585-.145.49-.371.913-.677 1.272-.306.358-.693.64-1.16.846-.466.205-1.02.308-1.662.308H8v-8zm2.643 7.574c.373 0 .748-.058 1.125-.173.377-.116.719-.31 1.025-.583.306-.273.554-.639.744-1.098.19-.46.286-1.037.286-1.731 0-.545-.054-1.012-.163-1.4-.108-.39-.25-.716-.425-.981s-.377-.474-.605-.628c-.227-.153-.463-.27-.705-.353-.243-.082-.485-.136-.728-.162-.243-.026-.461-.04-.655-.04h-2.05v7.15h2.15zM15.865 30h3.337c.351 0 .68.035.986.106.306.071.574.187.806.348.231.16.412.371.543.633.13.261.196.586.196.975 0 .537-.151.991-.454 1.361-.302.37-.722.6-1.26.689v.022c.366.045.656.142.868.292.213.15.372.332.476.549.105.216.172.455.202.717.03.261.045.523.045.784v.46c0 .149.007.289.022.42.015.13.04.252.073.364.034.112.08.205.14.28h-.549c-.104-.187-.162-.405-.173-.655-.012-.25-.017-.51-.017-.78 0-.268-.011-.535-.034-.8-.022-.265-.093-.503-.213-.712-.119-.209-.307-.377-.565-.504-.258-.127-.621-.19-1.092-.19h-2.844V38h-.493v-8zm3.337 3.933c.291 0 .562-.036.812-.107.25-.07.465-.18.644-.33.18-.15.32-.34.425-.572.105-.231.157-.508.157-.829 0-.299-.056-.554-.168-.767-.112-.213-.261-.387-.448-.521-.186-.135-.403-.232-.65-.292-.245-.06-.503-.09-.772-.09h-2.844v3.508h2.844zM23.316 30h5.375v.426H23.81v3.204H28.4v.426H23.81v3.518h4.938V38h-5.43v-8zm6.667 0H35v.426h-4.524v3.204h4.076v.426h-4.076V38h-.493v-8z"/>
    </g>
</svg>
