<?xml version="1.0" encoding="UTF-8"?>
<svg width="65px" height="42px" viewBox="0 0 65 42" version="1.1" xmlns="http://www.w3.org/2000/svg" xmlns:xlink="http://www.w3.org/1999/xlink">
    <!-- Generator: Sketch 47.1 (45422) - http://www.bohemiancoding.com/sketch -->
    <title>noun_942654_cc</title>
    <desc>Created with Sketch.</desc>
    <defs></defs>
    <g id="Page-1" stroke="none" stroke-width="1" fill="none" fill-rule="evenodd">
        <g id="Emergency-Page" transform="translate(-115.000000, -379.000000)" fill-rule="nonzero" fill="#323232">
            <g id="noun_942654_cc" transform="translate(147.500000, 400.000000) rotate(-360.000000) translate(-147.500000, -400.000000) translate(115.000000, 379.000000)">
                <g id="Group">
                    <path d="M18.7319133,0.101830118 C12.5595689,0.101830118 7.54856889,5.70588515 7.54856889,12.6086721 C7.54856889,16.2479349 8.95264667,19.5223319 11.1804578,21.8078029 C4.46955778,25.1279153 0.0600691111,32.6118307 0.0600691111,40.919878 C0.0600691111,41.4449278 0.431191333,41.8749928 0.905091333,41.8749928 L10.2006022,41.8749928 C10.6746356,41.8749928 11.0456244,41.4446047 11.0456244,40.919878 C11.0456244,40.3948408 10.6745022,39.9647757 10.2006022,39.9647757 L1.77718,39.9647757 C2.10849111,32.4648556 6.42073556,25.8365721 12.7356689,23.1650366 C14.4709244,24.4055775 16.5226356,25.1355698 18.7319133,25.1355698 C19.20148,25.1355698 19.58588,24.7056289 19.58588,24.1805171 C19.58588,23.6554301 19.20148,23.2354177 18.7319133,23.2354177 C13.4985578,23.2354177 9.24769111,18.4713999 9.24769111,12.6186751 C9.24769111,6.76599994 13.4985578,2.00199462 18.7319133,2.00199462 C19.8090244,2.00199462 20.8749689,2.1940887 21.8783467,2.58514846 C22.32018,2.76546266 22.8006467,2.50633012 22.9571689,2.01204728 C23.10908,1.51791355 22.8729244,0.96542716 22.4356911,0.795588107 C21.2481911,0.332295799 20.0023467,0.101830118 18.7319133,0.101830118 Z M32.4863467,0.110901124 C31.5197578,0.110901124 30.5924689,0.260846095 29.6994689,0.523159704 C24.8757467,1.91298692 21.3029911,6.80089225 21.3029911,12.6278828 C21.3029911,16.2671579 22.7118022,19.5363857 24.9348911,21.827026 C18.22858,25.1471757 13.8144911,32.6310538 13.8144911,40.9391011 C13.8144911,41.4641881 14.19008,41.8941662 14.6595133,41.8941662 L50.3221022,41.8941662 C50.4372244,41.8941662 50.5535356,41.8624425 50.6551244,41.813981 C50.9541022,41.6699136 51.1675244,41.3357899 51.1675244,40.9393248 C51.1675244,32.6261082 46.7580244,25.1421928 40.0472578,21.8272124 C42.2703356,19.5365597 43.6791467,16.2673319 43.6791467,12.6280567 C43.6791467,7.02242361 40.3651578,2.25959876 35.8129467,0.674160888 C34.7589689,0.308562071 33.6420356,0.111224201 32.4867356,0.111224201 L32.4863467,0.110901124 Z M46.2498356,0.110901124 C44.9840022,0.110901124 43.7334244,0.346038994 42.5459244,0.814612367 C42.1040911,0.989496391 41.8726689,1.52693485 42.0245911,2.02108101 C42.1809689,2.51526444 42.67498,2.78436266 43.1123356,2.60418515 C44.1203244,2.21276503 45.1681244,2.0110532 46.2498356,2.0110532 C51.4831911,2.0110532 55.7430022,6.76990172 55.7430022,12.6277958 C55.7430022,18.4804709 51.4831911,23.2444763 46.2498356,23.2444763 C45.7802689,23.2444763 45.3957356,23.6744047 45.3957356,24.1995414 C45.3957356,24.7245786 45.7802689,25.1546562 46.2498356,25.1546562 C48.4545133,25.1546562 50.5106911,24.4247136 52.2459467,23.1841727 C58.5656133,25.8556958 62.8685244,32.473442 63.2045689,39.9939147 L54.79008,39.9939147 C54.3160578,39.9939147 53.9361244,40.4243029 53.9361244,40.9490668 C53.9361244,41.4741041 54.3156578,41.9041692 54.79008,41.9041692 L64.0855911,41.9041692 C64.5550244,41.9041692 64.9306244,41.473781 64.9306244,40.9490668 C64.9267356,32.6255242 60.5165244,25.1419195 53.8102244,21.8268893 C56.0334356,19.5414183 57.43318,16.2670709 57.43318,12.6277958 C57.43318,5.72494669 52.4220467,0.110901124 46.2498356,0.110901124 L46.2498356,0.110901124 Z M32.49528,2.0110532 C32.6885911,2.0110532 32.8773133,2.02458515 33.0707578,2.04277686 C38.03248,2.3771242 41.98858,6.99279994 41.98858,12.6292993 C41.98858,18.2606544 38.03708,22.8660538 33.0707578,23.205794 C32.8774467,23.214865 32.6887244,23.2374928 32.49528,23.2374928 C32.2972244,23.2374928 32.1040467,23.2148402 31.9109911,23.205794 C26.9491467,22.8660041 23.0021133,18.2606544 23.0021133,12.6292993 C23.0021133,6.99279994 26.9446689,2.3824674 31.9109911,2.04277686 C32.10418,2.02925734 32.2971022,2.0110532 32.49528,2.0110532 L32.49528,2.0110532 Z M26.4991689,23.1640177 C27.3644244,23.7868603 28.3140578,24.2772041 29.3129689,24.6117627 C29.4279578,24.6480094 29.55728,24.6661266 29.6722689,24.7023857 C30.3811467,24.9134917 31.1152467,25.0380875 31.8748467,25.0842875 C32.0818356,25.0933585 32.2787022,25.1359425 32.48608,25.1359425 C32.6930578,25.1359425 32.8947911,25.0996958 33.0974356,25.0842875 C33.7971133,25.0435177 34.4889022,24.9280053 35.1470467,24.7426958 C35.3172356,24.6964958 35.4890022,24.6684005 35.65958,24.6117627 C36.6675578,24.2774153 37.6079911,23.7817408 38.4733911,23.1640177 C44.7929244,25.835578 49.1095022,32.4633893 49.4409467,39.9838869 L15.5313467,39.9838869 C15.8626467,32.4685461 20.1792356,25.835578 26.4989022,23.1640177 L26.4991689,23.1640177 Z" id="Shape"></path>
                </g>
            </g>
        </g>
    </g>
</svg>