<?xml version="1.0" encoding="utf-8"?>
<!-- Generator: Adobe Illustrator 24.1.0, SVG Export Plug-In . SVG Version: 6.00 Build 0)  -->
<svg version="1.1" xmlns="http://www.w3.org/2000/svg" xmlns:xlink="http://www.w3.org/1999/xlink" x="0px" y="0px"
	 viewBox="0 0 500 500" style="enable-background:new 0 0 500 500;" xml:space="preserve">
<style type="text/css">
	.st0{fill:#F5333F;}
	.st1{fill:none;stroke:#011E41;stroke-width:16;stroke-miterlimit:10;}
	.st2{display:none;}
	.st3{display:inline;}
	.st4{fill:none;stroke:#D1D3D4;stroke-width:2;stroke-miterlimit:10;}
	.st5{display:inline;fill:none;stroke:#BCBEC0;stroke-width:4;stroke-miterlimit:10;}
	.st6{fill:none;stroke:#BCBEC0;stroke-width:4;stroke-miterlimit:10;}
	.st7{display:inline;fill:none;stroke:#D1D3D4;stroke-width:2;stroke-miterlimit:10;}
	.st8{display:none;opacity:0.35;fill:none;stroke:#000000;stroke-width:16;stroke-miterlimit:10;}
	.st9{fill:none;stroke:#011E41;stroke-width:16;stroke-linejoin:bevel;stroke-miterlimit:10;}
	.st10{fill:none;stroke:#F5333F;stroke-width:16;stroke-miterlimit:10;}
	.st11{fill:#011E41;}
	.st12{fill:none;stroke:#011E41;stroke-width:16;stroke-linecap:square;stroke-miterlimit:10;}
	.st13{fill:none;stroke:#011E41;stroke-width:16;stroke-linecap:round;stroke-miterlimit:10;}
	.st14{fill:none;stroke:#EF3741;stroke-width:16;stroke-miterlimit:10;}
	.st15{fill:#F5333F;stroke:#011E41;stroke-width:16;stroke-miterlimit:10;}
	.st16{fill:#F9F9F9;}
	.st17{fill:#EF3741;}
	.st18{fill:none;stroke:#011E41;stroke-width:8;stroke-miterlimit:10;}
</style>
<g id="Icons">
	<g>
		<circle class="st0" cx="298.46" cy="243.92" r="38.3"/>
		<g>
			<g>
				<g>
					<rect x="91.09" y="193.03" class="st1" width="153.1" height="244.67"/>
					<rect x="114.06" y="259.67" class="st1" width="20.41" height="20.41"/>
					<rect x="157.43" y="259.67" class="st1" width="20.41" height="20.41"/>
					<rect x="114.06" y="303.9" class="st1" width="20.41" height="20.41"/>
					<rect x="157.43" y="303.9" class="st1" width="20.41" height="20.41"/>
					<rect x="199.96" y="259.67" class="st1" width="20.41" height="20.41"/>
					<rect x="114.06" y="348.13" class="st1" width="20.41" height="20.41"/>
					<rect x="114.06" y="393.03" class="st1" width="20.41" height="20.41"/>
					<rect x="157.43" y="348.13" class="st1" width="20.41" height="20.41"/>
					<rect x="157.43" y="393.03" class="st1" width="62.29" height="20.41"/>
					<rect x="199.96" y="304.12" class="st1" width="20.41" height="20.41"/>
					<rect x="199.96" y="348.58" class="st1" width="20.41" height="20.41"/>
					<line class="st1" x1="91.09" y1="235.86" x2="244.19" y2="235.86"/>
					<g>
						<rect x="202.04" y="210.02" class="st11" width="8.84" height="8.84"/>
						<rect x="219.72" y="210.02" class="st11" width="8.84" height="8.84"/>
						<rect x="184.37" y="210.02" class="st11" width="8.84" height="8.84"/>
					</g>
				</g>
			</g>
			<g>
				<rect x="246.92" y="138.92" class="st1" width="73.35" height="23.7"/>
				<path class="st1" d="M188.73,193.07c18.81-18.81,44.8-30.44,73.5-30.44h42.73c57.41,0,103.94,46.54,103.94,103.94v120.96
					c0,27.71-22.46,50.17-50.17,50.17H244.19"/>
				<g>
					<path class="st1" d="M270.57,138.92c-7.69,0-13.93-12.49-13.93-27.89l-0.22-29.58"/>
					<path class="st1" d="M310.07,81.44l0.77,29.58c0,15.41-6.24,27.89-13.93,27.89"/>
				</g>
				<g>
					<path class="st1" d="M218.89,70.93c11.5-11.5,115.55-11.5,127.06,0l1.83,34.99c0,18.22-14.77,33-33,33h-62.38
						c-18.22,0-33-14.77-33-33L218.89,70.93z"/>
				</g>
			</g>
			<rect x="280.15" y="410.45" class="st1" width="76.61" height="26.59"/>
			<rect x="280.15" y="304.64" class="st1" width="76.61" height="26.59"/>
			<rect x="280.15" y="331.09" class="st1" width="76.61" height="26.59"/>
			<rect x="280.15" y="357.55" class="st1" width="76.61" height="26.59"/>
			<rect x="280.15" y="384" class="st1" width="76.61" height="26.59"/>
			<circle class="st1" cx="318.46" cy="263.92" r="38.3"/>
		</g>
	</g>
</g>
<g id="Text">
</g>
</svg>
