<?xml version="1.0" encoding="utf-8"?>
<!-- Designed by Vexels.com - 2016 All Rights Reserved - https://vexels.com/terms-and-conditions/  -->

<svg version="1.1" id="Layer_1" xmlns="http://www.w3.org/2000/svg" xmlns:xlink="http://www.w3.org/1999/xlink" x="0px" y="0px"
	 width="1200px" height="1200px" viewBox="0 0 1200 1200" enable-background="new 0 0 1200 1200" xml:space="preserve">
<g>
	<g>
		<path fill="#575756" d="M672.35,879.18c0,35.665-35.392,64.559-78.927,64.559c-43.695,0-79.088-28.894-79.088-64.559V544.083
			c0-35.669,35.392-64.563,79.088-64.563c43.535,0,78.927,28.894,78.927,64.563V879.18z"/>
		<path fill="#575756" d="M649.41,385.126c-15.74,16.385-34.691,24.608-56.693,24.608c-22.002,0-40.64-8.223-55.987-24.608
			c-15.423-16.365-23.02-36.29-23.02-59.764c0-23.469,7.597-43.479,23.02-60.097c15.347-16.658,33.985-24.921,55.987-24.921
			c22.475,0,41.502,8.263,57.082,24.921c15.507,16.618,23.337,36.627,23.337,60.097C673.136,348.835,665.226,368.761,649.41,385.126
			z"/>
	</g>
	<path fill="#575756" d="M600.002,50.008C296.263,50.008,50,296.252,50,600.07c0,303.694,246.263,549.921,550.002,549.921
		c303.814,0,549.998-246.227,549.998-549.921C1150,296.252,903.816,50.008,600.002,50.008z M600.002,1041.561
		c-243.838,0-441.551-197.717-441.551-441.491c0-243.954,197.713-441.591,441.551-441.591c243.91,0,441.547,197.637,441.547,441.591
		C1041.549,843.844,843.912,1041.561,600.002,1041.561z"/>
</g>
</svg>
