<?xml version="1.0" encoding="UTF-8"?>
<svg width="12px" height="12px" viewBox="0 0 12 12" version="1.1" xmlns="http://www.w3.org/2000/svg" xmlns:xlink="http://www.w3.org/1999/xlink">
    <!-- Generator: Sketch 53.2 (72643) - https://sketchapp.com -->
    <title>Combined Shape</title>
    <desc>Created with Sketch.</desc>
    <g id="Updated-Designs" stroke="none" stroke-width="1" fill="none" fill-rule="evenodd">
        <g id="Main-Stats-&amp;-Tooltip" transform="translate(-808.000000, -592.000000)" fill="#323232" fill-rule="nonzero">
            <g id="Group-20-Copy" transform="translate(154.000000, 444.000000)">
                <g id="Group-15" transform="translate(407.000000, 0.000000)">
                    <path d="M253,159.075 C250.201638,159.075 247.925,156.798362 247.925,154 C247.925,151.201638 250.201638,148.925 253,148.925 C255.798362,148.925 258.075,151.201638 258.075,154 C258.075,156.798362 255.798362,159.075 253,159.075 Z M252.525,151.384 C252.525,151.516871 252.572378,151.627965 252.665934,151.711843 C252.757707,151.794122 252.875625,151.835 253.016,151.835 C253.156725,151.835 253.273721,151.793893 253.363034,151.71096 C253.453412,151.627037 253.499,151.516324 253.499,151.384 C253.499,151.246582 253.453636,151.133171 253.363034,151.04904 C253.273721,150.966107 253.156725,150.925 253.016,150.925 C252.875625,150.925 252.757707,150.965878 252.665934,151.048157 C252.572149,151.132241 252.525,151.246048 252.525,151.384 Z M253.371,152.68 L253.371,152.605 L252.653,152.605 L252.653,152.68 L252.653,157.048 L252.653,157.123 L253.371,157.123 L253.371,157.048 L253.371,152.68 Z" id="Combined-Shape"></path>
                </g>
            </g>
        </g>
    </g>
</svg>