<?xml version="1.0" encoding="UTF-8"?>
<svg width="15px" height="15px" viewBox="0 0 15 15" version="1.1" xmlns="http://www.w3.org/2000/svg" xmlns:xlink="http://www.w3.org/1999/xlink">
    <!-- Generator: Sketch 53.2 (72643) - https://sketchapp.com -->
    <title>exclamation</title>
    <desc>Created with Sketch.</desc>
    <g id="Visual-Exploration" stroke="none" stroke-width="1" fill="none" fill-rule="evenodd">
        <g id="1.0.0---Home" transform="translate(-519.000000, -629.000000)" fill="#4A4A4A">
            <g id="exclamation" transform="translate(526.500000, 636.500000) rotate(-180.000000) translate(-526.500000, -636.500000) translate(519.000000, 629.000000)">
                <path d="M7.5,15 C3.36458949,15 0,11.6354105 0,7.5 C0,3.36458949 3.36458949,0 7.5,0 C11.6354105,0 15,3.36458949 15,7.5 C15,11.6354105 11.6354105,15 7.5,15 L7.5,15 Z M7.5,0.882352941 C3.85085288,0.882352941 0.882352941,3.85085288 0.882352941,7.5 C0.882352941,11.1491471 3.85085288,14.1176471 7.5,14.1176471 C11.1491471,14.1176471 14.1176471,11.1491471 14.1176471,7.5 C14.1176471,3.85085288 11.1491471,0.882352941 7.5,0.882352941 L7.5,0.882352941 Z" id="Fill-49"></path>
                <polygon id="Fill-50" points="7 10 8 10 8 11 7 11"></polygon>
                <polygon id="Fill-51" points="7 9 7 5.57142857 7 3 8 3 8 5.57142857 8 9"></polygon>
            </g>
        </g>
    </g>
</svg>