<?xml version="1.0" encoding="utf-8"?>
<!DOCTYPE svg PUBLIC "-//W3C//DTD SVG 1.1//EN" "http://www.w3.org/Graphics/SVG/1.1/DTD/svg11.dtd">
<svg version="1.1" xmlns="http://www.w3.org/2000/svg" xmlns:xlink="http://www.w3.org/1999/xlink" x="0px" y="0px" viewBox="0 0 1000 1000" enable-background="new 0 0 1000 1000" xml:space="preserve">
<g><g transform="matrix(1 0 0 -1 0 1536)"><path fill="#AAAAAA" d="M663.3,729.8v102.1c0,6-1.9,10.8-5.7,14.7c-3.8,3.8-8.7,5.7-14.7,5.7h-61.3v326.7c0,6-1.9,10.8-5.7,14.7c-3.8,3.8-8.7,5.7-14.7,5.7H357.1c-6,0-10.8-1.9-14.7-5.7c-3.8-3.8-5.7-8.7-5.7-14.7v-102.1c0-6,1.9-10.8,5.7-14.7c3.8-3.8,8.7-5.7,14.7-5.7h61.2V852.3h-61.2c-6,0-10.8-1.9-14.7-5.7c-3.8-3.8-5.7-8.7-5.7-14.7V729.8c0-6,1.9-10.8,5.7-14.7c3.8-3.8,8.7-5.7,14.7-5.7h285.8c6,0,10.8,1.9,14.7,5.7C661.4,718.9,663.3,723.8,663.3,729.8z M581.7,1301.4v102.1c0,6-1.9,10.8-5.7,14.7c-3.8,3.8-8.7,5.7-14.7,5.7H438.8c-6,0-10.8-1.9-14.7-5.7c-3.8-3.8-5.7-8.7-5.7-14.7v-102.1c0-6,1.9-10.8,5.7-14.7c3.8-3.8,8.7-5.7,14.7-5.7h122.5c6,0,10.8,1.9,14.7,5.7C579.8,1290.6,581.7,1295.5,581.7,1301.4z M990,1036c0-88.9-21.9-170.9-65.7-246C880.5,715,821,655.5,746,611.7C670.9,567.9,588.9,546,500,546s-170.9,21.9-246,65.7S119.5,715,75.7,790C31.9,865.1,10,947.1,10,1036c0,88.9,21.9,170.9,65.7,246C119.5,1357,179,1416.5,254,1460.3c75.1,43.8,157.1,65.7,246,65.7s170.9-21.9,246-65.7C821,1416.5,880.5,1357,924.3,1282S990,1124.9,990,1036z"/></g></g>
</svg>