<?xml version="1.0" encoding="UTF-8"?>
<svg width="30px" height="31px" viewBox="0 0 36 37" version="1.1" xmlns="http://www.w3.org/2000/svg" xmlns:xlink="http://www.w3.org/1999/xlink">
    <!-- Generator: Sketch 47.1 (45422) - http://www.bohemiancoding.com/sketch -->
    <title>Page 1</title>
    <desc>Created with Sketch.</desc>
    <defs>
        <polygon id="path-1" points="18 37 0 37 0 0 18 0 36 0 36 37"></polygon>
    </defs>
    <g id="Page-1" stroke="none" stroke-width="1" fill="none" fill-rule="evenodd">
        <g id="Emergencies-Page" transform="translate(-100.000000, -340.000000)">
            <g id="Page-1" transform="translate(100.000000, 340.000000)">
                <mask id="mask-2" fill="white">
                    <use xlink:href="#path-1"></use>
                </mask>
                <g id="Clip-2"></g>
                <path d="M14.0388656,35.8229919 L21.9604645,35.8229919 L21.9604645,26.5400356 C21.9604645,26.3298862 22.0700337,26.1355728 22.2481881,26.0302841 C22.4263425,25.9254234 22.6450626,25.9254234 22.823217,26.0302841 L30.6787399,30.6719762 L34.6395393,23.6510156 L26.7844347,19.0093235 C26.6062803,18.9040348 26.4967111,18.7097215 26.4967111,18.499572 C26.4967111,18.2894225 26.6062803,18.0951092 26.7844347,17.9898205 L34.6395393,13.3481284 L30.6787399,6.32759578 L22.823217,10.9688599 C22.6450626,11.0737206 22.4263425,11.0737206 22.2481881,10.9688599 C22.0700337,10.8635712 21.9604645,10.6692578 21.9604645,10.4591084 L21.9604645,1.17700814 L14.0388656,1.17700814 L14.0388656,10.4591084 C14.0388656,10.6692578 13.9292965,10.8635712 13.751142,10.9688599 C13.5729876,11.0737206 13.3542675,11.0737206 13.1761131,10.9688599 L5.32142664,6.32759578 L1.3606272,13.3485564 L9.21573183,17.9902485 C9.39388626,18.0955372 9.50345541,18.2898505 9.50345541,18.5 C9.50345541,18.7101495 9.39388626,18.9044628 9.21573183,19.0097515 L1.3606272,23.6505876 L5.32142664,30.6715482 L13.1765313,26.0302841 C13.3546857,25.9254234 13.5734058,25.9254234 13.7515602,26.0302841 C13.9297147,26.1355728 14.0392838,26.3298862 14.0392838,26.5400356 L14.0392838,35.8229919 L14.0388656,35.8229919 Z M22.5359117,37 L13.4638367,37 C13.1460025,37 12.8888077,36.7363502 12.8888077,36.4114959 L12.8888077,27.5595387 L5.39837597,31.9855173 C5.26622386,32.0634138 5.10856138,32.083958 4.96219037,32.0441537 C4.81456476,32.0039214 4.68910389,31.9050527 4.61299097,31.7698038 L0.0775807693,23.7293402 C0.00104964286,23.5940912 -0.0194422981,23.4335901 0.0198687723,23.2829331 C0.0595980456,23.1322761 0.155784707,23.0038752 0.287936816,22.9255506 L7.77836854,18.5 L0.287518614,14.0735934 C0.0127593234,13.9109522 -0.0817545268,13.5510018 0.0771625665,13.2698038 L4.61299097,5.22934018 C4.77107166,4.94814224 5.12319848,4.85184157 5.39837597,5.01405469 L12.8888077,9.44003331 L12.8888077,0.588504072 C12.8888077,0.263649824 13.1460025,0 13.4638367,0 L22.5354935,0 C22.8533276,0 23.1105224,0.263649824 23.1105224,0.588504072 L23.1105224,9.44003331 L30.6013723,5.01405469 C30.8765498,4.85184157 31.2282585,4.94814224 31.3867574,5.22934018 L35.9225858,13.2698038 C36.0815028,13.5514298 35.986989,13.9113803 35.7122297,14.0735934 L28.221798,18.5 L35.7122297,22.9255506 C35.8439636,23.0038752 35.9405685,23.1322761 35.9802978,23.2829331 C36.020027,23.4340181 35.9991169,23.5945192 35.9225858,23.7293402 L31.3871756,31.7698038 C31.3110626,31.9050527 31.1856018,32.0034934 31.0379762,32.0441537 C30.8916051,32.083958 30.7339427,32.0634138 30.6017906,31.9855173 L23.1109406,27.5591107 L23.1109406,36.4114959 C23.1109406,36.7363502 22.8533276,37 22.5359117,37 L22.5359117,37 Z" id="Fill-1" fill="#323232" mask="url(#mask-2)"></path>
            </g>
        </g>
    </g>
</svg>