<?xml version="1.0" encoding="UTF-8" standalone="no"?>
<!-- Generator: Adobe Illustrator 24.0.3, SVG Export Plug-In . SVG Version: 6.00 Build 0)  -->

<svg
   xmlns:dc="http://purl.org/dc/elements/1.1/"
   xmlns:cc="http://creativecommons.org/ns#"
   xmlns:rdf="http://www.w3.org/1999/02/22-rdf-syntax-ns#"
   xmlns:svg="http://www.w3.org/2000/svg"
   xmlns="http://www.w3.org/2000/svg"
   xmlns:sodipodi="http://sodipodi.sourceforge.net/DTD/sodipodi-0.dtd"
   xmlns:inkscape="http://www.inkscape.org/namespaces/inkscape"
   version="1.1"
   id="Layer_1"
   x="0px"
   y="0px"
   viewBox="0 0 1798.6 800"
   style="enable-background:new 0 0 1798.6 800;"
   xml:space="preserve"
   sodipodi:docname="go-logo-2020.svg"
   inkscape:version="0.92.4 (f8dce91, 2019-08-02)"><metadata
   id="metadata3863"><rdf:RDF><cc:Work
       rdf:about=""><dc:format>image/svg+xml</dc:format><dc:type
         rdf:resource="http://purl.org/dc/dcmitype/StillImage" /><dc:title></dc:title></cc:Work></rdf:RDF></metadata><defs
   id="defs3861" /><sodipodi:namedview
   pagecolor="#ffffff"
   bordercolor="#666666"
   borderopacity="1"
   objecttolerance="10"
   gridtolerance="10"
   guidetolerance="10"
   inkscape:pageopacity="0"
   inkscape:pageshadow="2"
   inkscape:window-width="834"
   inkscape:window-height="443"
   id="namedview3859"
   showgrid="false"
   inkscape:zoom="0.33692873"
   inkscape:cx="913.40079"
   inkscape:cy="400"
   inkscape:window-x="100"
   inkscape:window-y="49"
   inkscape:window-maximized="0"
   inkscape:current-layer="Layer_1" />
<style
   type="text/css"
   id="style3832">
	.st0{fill:none;stroke:#231F20;stroke-width:4;stroke-miterlimit:10;}
	.st1{fill:#F5333F;}
	.st2{fill:#333132;}
</style>
<g
   id="g3836"
   transform="translate(56.664456)">
	<line
   class="st0"
   x1="862.79999"
   y1="132.39999"
   x2="862.79999"
   y2="668"
   id="line3834"
   style="fill:none;stroke:#231f20;stroke-width:4;stroke-miterlimit:10" />
</g>
<g
   id="g3844">
	<polygon
   class="st1"
   points="238.6,322.8 142.5,322.8 142.5,240.4 238.6,240.4 238.6,240.4 238.6,144.3 321,144.3 321,240.4    321,240.4 417.1,240.4 417.1,322.8 321,322.8 321,322.7 321,418.8 238.6,418.8 238.6,322.7  "
   id="polygon3838" />
	<path
   class="st1"
   d="M544.5,280.1c0-64,51.9-115.9,115.9-115.9c14.3,0,27.9,2.6,40.5,7.3c-23.7-18.8-53.6-30-86.2-30   c-76.8,0-139,62.3-139,139c0,76.8,62.2,139,139,139c33.6,0,64.5-12,88.6-31.9c-13.3,5.3-27.7,8.2-42.8,8.2   C596.3,396,544.5,344.1,544.5,280.1"
   id="path3840" />
	<path
   class="st2"
   d="M636.1,670.6c14.3,0,27.3-2.5,39-7.6c11.7-5,21.4-12.4,29.3-22l-24.6-22.7c-11.2,13.1-25.1,19.6-41.6,19.6   c-10.2,0-19.4-2.3-27.4-6.7c-8-4.5-14.3-10.8-18.8-18.8c-4.5-8-6.7-17.2-6.7-27.4s2.3-19.4,6.7-27.4c4.5-8,10.8-14.3,18.8-18.8   c8-4.5,17.2-6.7,27.4-6.7c16.6,0,30.4,6.5,41.6,19.4l24.6-22.7c-7.9-9.5-17.6-16.7-29.2-21.8c-11.6-5-24.6-7.6-38.9-7.6   c-17,0-32.4,3.7-46,11c-13.6,7.3-24.4,17.5-32.2,30.5c-7.8,13-11.7,27.7-11.7,44.1c0,16.4,3.9,31.1,11.7,44.1   c7.8,13,18.5,23.2,32.2,30.5C604,666.9,619.3,670.6,636.1,670.6 M483.1,562.3c0,9.2-3,16.2-9,21.3s-14.8,7.6-26.3,7.6h-31.2v-57.7   h31.2c11.5,0,20.3,2.5,26.3,7.4C480.1,545.8,483.1,553,483.1,562.3 M525,667.7l-37.1-53.2c10.9-4.7,19.3-11.5,25.2-20.5   c5.9-8.9,8.9-19.5,8.9-31.8c0-12.3-2.9-22.9-8.7-31.9c-5.8-9-14.2-15.9-25-20.8c-10.8-4.9-23.5-7.3-38.2-7.3h-71.7v165.6h38.3   v-46.1H450h1.9l31.9,46.1H525z M345.2,532.9v-30.7H220.1v165.6h38.3v-60.3h76.6v-30.7h-76.6v-43.8L345.2,532.9L345.2,532.9z    M142.5,667.7h38.3V502.2h-38.3V667.7z"
   id="path3842" />
</g>
<g
   id="g3856">
	<path
   class="st1"
   d="M1416,245.1c0-17.1-13.9-31.1-31.1-31.1s-31.1,13.9-31.1,31.1c0,17.1,13.9,31.1,31.1,31.1   S1416,262.2,1416,245.1z"
   id="path3846" />
	<circle
   class="st1"
   cx="1384.9"
   cy="380.8"
   r="42.5"
   id="circle3848" />
	<path
   class="st1"
   d="M1283.7,513.6c-17.1,0-31.1,13.9-31.1,31.1s13.9,31.1,31.1,31.1s31.1-13.9,31.1-31.1   S1300.8,513.6,1283.7,513.6z"
   id="path3850" />
	<path
   class="st1"
   d="M1486.1,513.6c-17.1,0-31.1,13.9-31.1,31.1s13.9,31.1,31.1,31.1c17.1,0,31.1-13.9,31.1-31.1   S1503.2,513.6,1486.1,513.6z"
   id="path3852" />
	<path
   class="st1"
   d="M1384.9,132.4c-149.7,0-271.1,121.4-271.1,271.1s121.4,271.1,271.1,271.1S1656,553.2,1656,403.5   S1534.6,132.4,1384.9,132.4z M1188,381.2c0-33.2,20.8-60.8,55.6-60.8c25.4,0,46.7,13.5,49.8,39.7h-19.8   c-1.9-15.3-15.3-23.1-29.9-23.1c-24.9,0-35.3,22-35.3,44.2s10.4,44.2,35.3,44.2c20.8,0.3,32.2-12.2,32.5-31.9h-30.9v-15.4h49.4   v61.1h-13l-3.1-13.7c-10.9,12.4-20.8,16.4-35,16.4C1208.8,442,1188,414.4,1188,381.2z M1486.1,590.6c-25.3,0-46-20.6-46-46   c0-14,6.3-26.6,16.3-35l-43.9-73.3c-8.3,4.2-17.7,6.6-27.7,6.6c-10,0-19.3-2.4-27.7-6.6l-43.9,73.3c10,8.4,16.3,21,16.3,35   c0,25.3-20.6,46-46,46s-46-20.6-46-46c0-25.3,20.6-46,46-46c6,0,11.7,1.2,16.9,3.3l44.2-73.8c-13.4-11.4-22-28.4-22-47.3   c0-31.8,23.9-57.9,54.7-61.6v-28.8c-21.8-3.6-38.5-22.5-38.5-45.3c0-25.3,20.6-46,46-46s46,20.6,46,46c0,22.8-16.7,41.7-38.5,45.3   v28.8c30.8,3.7,54.7,29.8,54.7,61.6c0,19-8.5,36-22,47.3l44.2,73.8c5.2-2.1,10.9-3.3,16.9-3.3c25.3,0,46,20.6,46,46   C1532.1,570,1511.5,590.6,1486.1,590.6z"
   id="path3854" />
</g>
</svg>