<?xml version="1.0" encoding="UTF-8" standalone="no"?>
<!-- Generator: Adobe Illustrator 24.1.0, SVG Export Plug-In . SVG Version: 6.00 Build 0)  -->

<svg
   xmlns:dc="http://purl.org/dc/elements/1.1/"
   xmlns:cc="http://creativecommons.org/ns#"
   xmlns:rdf="http://www.w3.org/1999/02/22-rdf-syntax-ns#"
   xmlns:svg="http://www.w3.org/2000/svg"
   xmlns="http://www.w3.org/2000/svg"
   xmlns:sodipodi="http://sodipodi.sourceforge.net/DTD/sodipodi-0.dtd"
   xmlns:inkscape="http://www.inkscape.org/namespaces/inkscape"
   version="1.1"
   id="Layer_1"
   x="0px"
   y="0px"
   viewBox="0 0 1080 380"
   xml:space="preserve"
   sodipodi:docname="go-logo-2020.svg"
   width="1080"
   height="380"
   inkscape:version="0.92.4 (f8dce91, 2019-08-02)"><metadata
   id="metadata3829"><rdf:RDF><cc:Work
       rdf:about=""><dc:format>image/svg+xml</dc:format><dc:type
         rdf:resource="http://purl.org/dc/dcmitype/StillImage" /><dc:title></dc:title></cc:Work></rdf:RDF></metadata><defs
   id="defs3827" /><sodipodi:namedview
   pagecolor="#ffffff"
   bordercolor="#666666"
   borderopacity="1"
   objecttolerance="10"
   gridtolerance="10"
   guidetolerance="10"
   inkscape:pageopacity="0"
   inkscape:pageshadow="2"
   inkscape:window-width="1856"
   inkscape:window-height="1024"
   id="namedview3825"
   showgrid="false"
   inkscape:zoom="0.7712963"
   inkscape:cx="699.83754"
   inkscape:cy="264.30742"
   inkscape:window-x="64"
   inkscape:window-y="28"
   inkscape:window-maximized="1"
   inkscape:current-layer="Layer_1" />
<style
   type="text/css"
   id="style3796">
	.st0{fill:#EFEFEF;}
	.st1{fill:#F5333F;}
	.st2{fill:#BCBEC0;}
	.st3{fill:#FFFFFF;}
	.st4{fill:#333132;}
</style>
<g
   id="g3822"
   transform="translate(0,-73.030241)">
	<rect
   x="490.28"
   y="95.949997"
   class="st2"
   width="1.85"
   height="338.92999"
   id="rect3798"
   style="fill:#bcbec0" />
	<g
   id="g3820">
		<g
   id="g3810">
			<path
   class="st1"
   d="m 795.44,165.56 c 0,-10.71 -8.71,-19.41 -19.41,-19.41 -10.71,0 -19.41,8.7 -19.41,19.41 0,10.71 8.7,19.42 19.41,19.42 10.7,-0.01 19.41,-8.72 19.41,-19.42"
   id="path3800"
   inkscape:connector-curvature="0"
   style="fill:#f5333f" />
			<path
   class="st1"
   d="m 712.79,333.35 c -10.71,0 -19.42,8.71 -19.42,19.42 0,10.7 8.71,19.4 19.42,19.4 10.7,0 19.41,-8.7 19.41,-19.4 0,-10.71 -8.71,-19.42 -19.41,-19.42"
   id="path3802"
   inkscape:connector-curvature="0"
   style="fill:#f5333f" />
			<path
   class="st1"
   d="m 776.04,223.84 c -14.66,0 -26.53,11.89 -26.53,26.55 0,14.65 11.88,26.53 26.53,26.53 14.65,0 26.53,-11.89 26.53,-26.53 0,-14.67 -11.88,-26.55 -26.53,-26.55"
   id="path3804"
   inkscape:connector-curvature="0"
   style="fill:#f5333f" />
			<path
   class="st1"
   d="m 839.28,333.35 c -10.7,0 -19.41,8.71 -19.41,19.42 0,10.7 8.7,19.4 19.41,19.4 10.7,0 19.41,-8.7 19.41,-19.4 0,-10.71 -8.71,-19.42 -19.41,-19.42"
   id="path3806"
   inkscape:connector-curvature="0"
   style="fill:#f5333f" />
			<path
   class="st1"
   d="m 839.28,381.49 c -15.84,0 -28.73,-12.89 -28.73,-28.73 0,-8.77 3.97,-16.63 10.19,-21.9 l -27.41,-45.78 c -5.21,2.6 -11.06,4.1 -17.29,4.1 -6.23,0 -12.08,-1.5 -17.3,-4.1 l -27.41,45.78 c 6.23,5.27 10.18,13.13 10.18,21.9 0,15.84 -12.88,28.73 -28.72,28.73 -15.84,0 -28.73,-12.89 -28.73,-28.73 0,-15.84 12.89,-28.73 28.73,-28.73 3.72,0 7.28,0.74 10.55,2.04 l 27.6,-46.11 c -8.39,-7.12 -13.72,-17.72 -13.72,-29.58 0,-19.86 14.92,-36.21 34.16,-38.51 v -18 c -13.63,-2.23 -24.07,-14.06 -24.07,-28.31 0,-15.84 12.89,-28.73 28.73,-28.73 15.84,0 28.72,12.89 28.72,28.73 0,14.25 -10.44,26.08 -24.06,28.31 v 18 c 19.25,2.31 34.16,18.65 34.16,38.51 0,11.87 -5.34,22.47 -13.73,29.58 l 27.61,46.11 c 3.27,-1.3 6.83,-2.04 10.55,-2.04 15.84,0 28.72,12.89 28.72,28.73 0,15.84 -12.89,28.73 -28.73,28.73 M 653,250.53 c 0,-20.73 13,-38.01 34.75,-38.01 15.85,0 29.16,8.45 31.09,24.8 h -12.4 c -1.21,-9.54 -9.54,-14.43 -18.69,-14.43 -15.56,0 -22.05,13.71 -22.05,27.64 0,13.93 6.49,27.64 22.05,27.64 13,0.21 20.11,-7.62 20.32,-19.91 h -19.3 v -9.66 h 30.89 v 38.21 h -8.13 l -1.93,-8.53 c -6.81,7.72 -13,10.26 -21.84,10.26 -21.75,0 -34.76,-17.27 -34.76,-38.01 M 774.81,95.12 c -93.56,0 -169.42,75.85 -169.42,169.43 0,93.56 75.86,169.42 169.42,169.42 93.57,0 169.42,-75.86 169.42,-169.42 0,-93.58 -75.85,-169.43 -169.42,-169.43"
   id="path3808"
   inkscape:connector-curvature="0"
   style="fill:#f5333f" />
		</g>
		<g
   id="g3818">
			<polygon
   class="st1"
   points="211.18,228.78 211.18,269.39 176.38,269.39 176.38,228.78 176.38,228.8 135.78,228.8 135.78,193.99 176.38,193.99 176.38,193.97 176.38,153.37 211.18,153.37 211.18,193.97 211.18,193.99 251.78,193.99 251.78,228.79 211.18,228.79 "
   id="polygon3812"
   style="fill:#f5333f" />
			<path
   class="st1"
   d="m 305.63,210.76 c 0,-27.04 21.92,-48.97 48.97,-48.97 6.02,0 11.79,1.09 17.11,3.08 -10.02,-7.93 -22.67,-12.66 -36.44,-12.66 -32.45,0 -58.76,26.31 -58.76,58.76 0,32.45 26.3,58.76 58.76,58.76 14.23,0 27.27,-5.05 37.43,-13.46 -5.61,2.23 -11.71,3.46 -18.11,3.46 -27.04,0 -48.96,-21.93 -48.96,-48.97"
   id="path3814"
   inkscape:connector-curvature="0"
   style="fill:#f5333f" />
			<path
   class="st4"
   d="m 344.36,375.78 c 6.06,0 11.56,-1.07 16.49,-3.2 4.93,-2.14 9.06,-5.23 12.39,-9.3 l -10.39,-9.6 c -4.73,5.53 -10.6,8.3 -17.59,8.3 -4.33,0 -8.19,-0.95 -11.6,-2.85 -3.4,-1.9 -6.04,-4.55 -7.94,-7.94 -1.9,-3.4 -2.85,-7.26 -2.85,-11.6 0,-4.34 0.95,-8.2 2.85,-11.6 1.9,-3.4 4.55,-6.04 7.94,-7.94 3.4,-1.9 7.26,-2.85 11.6,-2.85 7,0 12.86,2.73 17.59,8.19 l 10.39,-9.59 c -3.33,-4 -7.45,-7.06 -12.34,-9.2 -4.9,-2.13 -10.38,-3.2 -16.44,-3.2 -7.2,0 -13.68,1.55 -19.44,4.65 -5.76,3.1 -10.3,7.4 -13.59,12.9 -3.29,5.49 -4.95,11.71 -4.95,18.64 0,6.93 1.65,13.14 4.95,18.64 3.3,5.5 7.83,9.79 13.59,12.9 5.76,3.1 12.21,4.65 19.34,4.65 M 279.7,330 c 0,3.87 -1.27,6.87 -3.8,9 -2.53,2.14 -6.23,3.2 -11.09,3.2 h -13.2 v -24.39 h 13.2 c 4.86,0 8.56,1.05 11.09,3.15 2.53,2.1 3.8,5.11 3.8,9.04 m 17.69,44.58 -15.69,-22.49 c 4.6,-2 8.15,-4.88 10.65,-8.64 2.5,-3.76 3.74,-8.24 3.74,-13.44 0,-5.19 -1.23,-9.69 -3.7,-13.49 -2.46,-3.8 -5.98,-6.73 -10.54,-8.8 -4.57,-2.06 -9.94,-3.1 -16.14,-3.1 h -30.28 v 69.97 h 16.19 V 355.1 h 14.09 0.8 L 280,374.58 Z m -75.96,-56.97 v -12.99 h -52.87 v 69.97 h 16.19 V 349.1 h 32.38 v -13 h -32.38 v -18.49 z m -85.66,56.97 h 16.19 v -69.96 h -16.19 z"
   id="path3816"
   inkscape:connector-curvature="0"
   style="fill:#333132" />
		</g>
	</g>
</g>
</svg>