<?xml version="1.0" encoding="utf-8"?>
<!-- Generator: Adobe Illustrator 24.1.0, SVG Export Plug-In . SVG Version: 6.00 Build 0)  -->
<svg version="1.1" id="Layer_1" xmlns="http://www.w3.org/2000/svg" xmlns:xlink="http://www.w3.org/1999/xlink" x="0px" y="0px"
	 viewBox="0 0 1080 530" style="enable-background:new 0 0 1080 530;" xml:space="preserve">
<style type="text/css">
	.st0{fill:#EFEFEF;}
	.st1{fill:#F5333F;}
	.st2{fill:#BCBEC0;}
	.st3{fill:#FFFFFF;}
	.st4{fill:#333132;}
</style>
<g>
	<rect x="490.28" y="95.95" class="st2" width="1.85" height="338.93"/>
	<g>
		<g>
			<path class="st1" d="M795.44,165.56c0-10.71-8.71-19.41-19.41-19.41c-10.71,0-19.41,8.7-19.41,19.41s8.7,19.42,19.41,19.42
				C786.73,184.97,795.44,176.26,795.44,165.56"/>
			<path class="st1" d="M712.79,333.35c-10.71,0-19.42,8.71-19.42,19.42c0,10.7,8.71,19.4,19.42,19.4c10.7,0,19.41-8.7,19.41-19.4
				C732.2,342.06,723.49,333.35,712.79,333.35"/>
			<path class="st1" d="M776.04,223.84c-14.66,0-26.53,11.89-26.53,26.55c0,14.65,11.88,26.53,26.53,26.53s26.53-11.89,26.53-26.53
				C802.57,235.72,790.69,223.84,776.04,223.84"/>
			<path class="st1" d="M839.28,333.35c-10.7,0-19.41,8.71-19.41,19.42c0,10.7,8.7,19.4,19.41,19.4c10.7,0,19.41-8.7,19.41-19.4
				C858.69,342.06,849.98,333.35,839.28,333.35"/>
			<path class="st1" d="M839.28,381.49c-15.84,0-28.73-12.89-28.73-28.73c0-8.77,3.97-16.63,10.19-21.9l-27.41-45.78
				c-5.21,2.6-11.06,4.1-17.29,4.1c-6.23,0-12.08-1.5-17.3-4.1l-27.41,45.78c6.23,5.27,10.18,13.13,10.18,21.9
				c0,15.84-12.88,28.73-28.72,28.73s-28.73-12.89-28.73-28.73s12.89-28.73,28.73-28.73c3.72,0,7.28,0.74,10.55,2.04l27.6-46.11
				c-8.39-7.12-13.72-17.72-13.72-29.58c0-19.86,14.92-36.21,34.16-38.51v-18c-13.63-2.23-24.07-14.06-24.07-28.31
				c0-15.84,12.89-28.73,28.73-28.73c15.84,0,28.72,12.89,28.72,28.73c0,14.25-10.44,26.08-24.06,28.31v18
				c19.25,2.31,34.16,18.65,34.16,38.51c0,11.87-5.34,22.47-13.73,29.58l27.61,46.11c3.27-1.3,6.83-2.04,10.55-2.04
				c15.84,0,28.72,12.89,28.72,28.73S855.12,381.49,839.28,381.49 M653,250.53c0-20.73,13-38.01,34.75-38.01
				c15.85,0,29.16,8.45,31.09,24.8h-12.4c-1.21-9.54-9.54-14.43-18.69-14.43c-15.56,0-22.05,13.71-22.05,27.64
				s6.49,27.64,22.05,27.64c13,0.21,20.11-7.62,20.32-19.91h-19.3v-9.66h30.89v38.21h-8.13l-1.93-8.53
				c-6.81,7.72-13,10.26-21.84,10.26C666.01,288.54,653,271.27,653,250.53 M774.81,95.12c-93.56,0-169.42,75.85-169.42,169.43
				c0,93.56,75.86,169.42,169.42,169.42c93.57,0,169.42-75.86,169.42-169.42C944.23,170.97,868.38,95.12,774.81,95.12"/>
		</g>
		<g>
			<polygon class="st1" points="176.38,228.8 135.78,228.8 135.78,193.99 176.38,193.99 176.38,193.97 176.38,153.37 211.18,153.37 
				211.18,193.97 211.18,193.99 251.78,193.99 251.78,228.79 211.18,228.79 211.18,228.78 211.18,269.39 176.38,269.39 
				176.38,228.78 			"/>
			<path class="st1" d="M305.63,210.76c0-27.04,21.92-48.97,48.97-48.97c6.02,0,11.79,1.09,17.11,3.08
				c-10.02-7.93-22.67-12.66-36.44-12.66c-32.45,0-58.76,26.31-58.76,58.76c0,32.45,26.3,58.76,58.76,58.76
				c14.23,0,27.27-5.05,37.43-13.46c-5.61,2.23-11.71,3.46-18.11,3.46C327.55,259.73,305.63,237.8,305.63,210.76"/>
			<path class="st4" d="M344.36,375.78c6.06,0,11.56-1.07,16.49-3.2c4.93-2.14,9.06-5.23,12.39-9.3l-10.39-9.6
				c-4.73,5.53-10.6,8.3-17.59,8.3c-4.33,0-8.19-0.95-11.6-2.85c-3.4-1.9-6.04-4.55-7.94-7.94c-1.9-3.4-2.85-7.26-2.85-11.6
				s0.95-8.2,2.85-11.6c1.9-3.4,4.55-6.04,7.94-7.94c3.4-1.9,7.26-2.85,11.6-2.85c7,0,12.86,2.73,17.59,8.19l10.39-9.59
				c-3.33-4-7.45-7.06-12.34-9.2c-4.9-2.13-10.38-3.2-16.44-3.2c-7.2,0-13.68,1.55-19.44,4.65c-5.76,3.1-10.3,7.4-13.59,12.9
				c-3.29,5.49-4.95,11.71-4.95,18.64c0,6.93,1.65,13.14,4.95,18.64c3.3,5.5,7.83,9.79,13.59,12.9
				C330.78,374.23,337.23,375.78,344.36,375.78 M279.7,330c0,3.87-1.27,6.87-3.8,9c-2.53,2.14-6.23,3.2-11.09,3.2h-13.2v-24.39h13.2
				c4.86,0,8.56,1.05,11.09,3.15C278.43,323.06,279.7,326.07,279.7,330 M297.39,374.58l-15.69-22.49c4.6-2,8.15-4.88,10.65-8.64
				c2.5-3.76,3.74-8.24,3.74-13.44c0-5.19-1.23-9.69-3.7-13.49c-2.46-3.8-5.98-6.73-10.54-8.8c-4.57-2.06-9.94-3.1-16.14-3.1h-30.28
				v69.97h16.19v-19.49h14.09h0.8L280,374.58H297.39z M221.43,317.61v-12.99h-52.87v69.97h16.19v-25.49h32.38V336.1h-32.38v-18.49
				H221.43z M135.77,374.58h16.19v-69.96h-16.19V374.58z"/>
		</g>
	</g>
</g>
</svg>
