<?xml version="1.0" encoding="UTF-8"?>
<svg width="29px" height="20px" viewBox="0 0 29 20" version="1.1" xmlns="http://www.w3.org/2000/svg" xmlns:xlink="http://www.w3.org/1999/xlink">
    <!-- Generator: Sketch 52.2 (67145) - http://www.bohemiancoding.com/sketch -->
    <title>icon-population-blue@1.5x</title>
    <desc>Created with Sketch.</desc>
    <g id="Visual-Exploration" stroke="none" stroke-width="1" fill="none" fill-rule="evenodd">
        <g id="1.0.0---Home" transform="translate(-127.000000, -890.000000)">
            <g id="Group-5" transform="translate(100.000000, 804.000000)">
                <g id="icon-population-blue" transform="translate(27.000000, 86.000000)">
                    <path d="M9.2453125,19.4164062 C9.25390625,18.8226562 9.31484375,18.2765625 9.40546875,17.7679687 L1.74296875,17.7695312 C1.615625,17.7695312 1.49296875,17.71875 1.403125,17.6273437 C1.3140625,17.5367187 1.2640625,17.4132812 1.26640625,17.2859375 C1.32421875,13.2 3.65859375,11.125 3.7578125,11.0390625 C3.93359375,10.8867187 4.1921875,10.8828125 4.37265625,11.0289062 C6.99765625,13.1671875 9.81796875,11.0484375 9.84609375,11.0265625 C10.0296875,10.8851562 10.2882813,10.8960937 10.4585938,11.053125 C11.1046875,11.6445312 11.5695313,12.3523437 11.9070313,13.0765625 C12.05625,13.0296875 12.2242188,13.05625 12.3515625,13.1601562 C14.9640625,15.2875 17.7109375,13.2453125 17.8265625,13.1570312 C17.9664063,13.05 18.1507813,13.0328125 18.30625,13.0992187 C18.9757813,11.7742187 19.7476563,11.0875 19.803125,11.0390625 C19.9789063,10.8867187 20.2375,10.8828125 20.4179688,11.0289062 C23.0429688,13.1671875 25.8625,11.0484375 25.8914063,11.0265625 C26.075,10.8851562 26.3328125,10.8960937 26.5039063,11.053125 C28.9289063,13.2742187 28.8304688,17.1421875 28.825,17.30625 C28.8171875,17.5632812 28.60625,17.7671875 28.3484375,17.7671875 L20.6375,17.76875 C20.7789063,18.6960937 20.7617188,19.3710937 20.759375,19.4375 C20.7507813,19.69375 20.5398438,19.8984375 20.2828125,19.8984375 L9.72265625,19.9007812 C9.5953125,19.9007812 9.47265625,19.8492187 9.3828125,19.7585937 C9.29296875,19.6671875 9.24453125,19.5445312 9.2453125,19.4164062 Z M2.5078125,6.13125 C2.5078125,4.9265625 2.97734375,3.7921875 3.83125,2.93828125 C4.684375,2.084375 5.81875,1.6140625 7.0234375,1.6140625 C9.278125,1.6140625 11.146875,3.27734375 11.4804688,5.440625 C11.584375,5.3125 11.6929688,5.1875 11.8109375,5.06953125 C12.6648438,4.215625 13.7984375,3.74453125 15.003125,3.74453125 C16.4695313,3.74453125 17.7710938,4.45078125 18.596875,5.5375 C18.725,4.5578125 19.1648438,3.65 19.8765625,2.93828125 C20.7296875,2.084375 21.8640625,1.6140625 23.06875,1.6140625 C25.5570313,1.6140625 27.5835938,3.6390625 27.584375,6.128125 C27.584375,7.33203125 27.1140625,8.465625 26.2609375,9.3203125 C25.4078125,10.1734375 24.2742188,10.64375 23.0695313,10.64375 L23.06875,10.64375 C21.6023438,10.64375 20.3007813,9.93828125 19.4757813,8.8515625 C19.3476563,9.83125 18.9070313,10.7390625 18.1945313,11.4507812 C17.3421875,12.3046875 16.209375,12.775 15.0046875,12.775 L15.003125,12.775 C12.7484375,12.775 10.8789063,11.1117187 10.5453125,8.9484375 C10.4429688,9.07734375 10.3335938,9.2015625 10.215625,9.3203125 C9.3625,10.1734375 8.2296875,10.64375 7.025,10.64375 L7.0234375,10.64375 C4.534375,10.64375 2.509375,8.61953125 2.5078125,6.13125 Z" id="Combined-Shape" fill="#8190A1"></path>
                    <path d="M0.9890625,15.565625 L8.3734375,15.5640625 C8.78515625,14.1289062 9.44453125,13.1203125 9.91953125,12.5328125 C9.665625,11.9085937 9.3140625,11.290625 8.825,10.7648437 C7.91171875,11.3148437 5.365625,12.5242187 2.86953125,10.7835937 C2.33359375,11.390625 1.15703125,12.9992187 0.9890625,15.565625 Z M10.8492188,12.9140625 C10.3132813,13.521875 9.1375,15.1304687 8.96875,17.6960937 L18.5460938,17.6945312 C18.4953125,16.7203125 18.2234375,14.4195312 16.8039063,12.8960937 C15.890625,13.4453125 13.3453125,14.6546875 10.8492188,12.9140625 Z M18.915625,10.7835937 C18.6335938,11.1023437 18.1757813,11.7007812 17.7796875,12.5664062 C18.5289063,13.4953125 18.9554688,14.5898437 19.1976563,15.5648437 L26.6117188,15.5632812 C26.5617188,14.5890625 26.2890625,12.2882812 24.8703125,10.7648437 C23.9570313,11.3148437 21.4109375,12.5242187 18.915625,10.7835937 Z M7.9953125,18.1664062 C8.00390625,17.5726562 8.06484375,17.0265625 8.15546875,16.5179687 L0.49296875,16.5195312 C0.365625,16.5195312 0.24296875,16.46875 0.153125,16.3773437 C0.0640625,16.2867187 0.0140625,16.1632812 0.01640625,16.0359375 C0.07421875,11.95 2.40859375,9.875 2.5078125,9.7890625 C2.68359375,9.63671875 2.9421875,9.6328125 3.12265625,9.77890625 C5.74765625,11.9171875 8.56796875,9.7984375 8.59609375,9.7765625 C8.7796875,9.63515625 9.03828125,9.64609375 9.20859375,9.803125 C9.8546875,10.3945312 10.3195313,11.1023437 10.6570313,11.8265625 C10.80625,11.7796875 10.9742188,11.80625 11.1015625,11.9101562 C13.7140625,14.0375 16.4609375,11.9953125 16.5765625,11.9070312 C16.7164063,11.8 16.9007813,11.7828125 17.05625,11.8492187 C17.7257813,10.5242187 18.4976563,9.8375 18.553125,9.7890625 C18.7289063,9.63671875 18.9875,9.6328125 19.1679688,9.77890625 C21.7929688,11.9171875 24.6125,9.7984375 24.6414063,9.7765625 C24.825,9.63515625 25.0828125,9.64609375 25.2539063,9.803125 C27.6789063,12.0242187 27.5804688,15.8921875 27.575,16.05625 C27.5671875,16.3132812 27.35625,16.5171875 27.0984375,16.5171875 L19.3875,16.51875 C19.5289063,17.4460937 19.5117188,18.1210937 19.509375,18.1875 C19.5007813,18.44375 19.2898438,18.6484375 19.0328125,18.6484375 L8.47265625,18.6507812 C8.3453125,18.6507812 8.22265625,18.5992187 8.1328125,18.5085937 C8.04296875,18.4171875 7.99453125,18.2945312 7.9953125,18.1664062 Z M5.7734375,1.31796875 C4.8234375,1.31796875 3.92890625,1.6890625 3.25546875,2.3625 C2.5828125,3.03671875 2.21171875,3.93046875 2.21171875,4.88125 C2.21328125,6.84375 3.81015625,8.440625 5.7734375,8.440625 L5.775,8.440625 C6.72421875,8.440625 7.6171875,8.06953125 8.290625,7.3953125 C8.96484375,6.721875 9.3359375,5.82734375 9.3359375,4.878125 C9.334375,2.91484375 7.7359375,1.31796875 5.7734375,1.31796875 Z M11.2351563,4.49375 C10.5625,5.16796875 10.190625,6.06171875 10.1914063,7.01171875 C10.1921875,8.97421875 11.7898438,10.5710938 13.753125,10.5710938 L13.7546875,10.5710938 C14.7039063,10.5710938 15.596875,10.2007813 16.2703125,9.5265625 C16.9445313,8.85234375 17.315625,7.95859375 17.3148438,7.009375 C17.3140625,5.04609375 15.7164063,3.44921875 13.753125,3.44921875 C12.803125,3.44921875 11.909375,3.8203125 11.2351563,4.49375 Z M19.3007813,2.3625 C18.628125,3.03671875 18.2570313,3.93046875 18.2570313,4.88125 C18.2578125,6.84375 19.85625,8.440625 21.81875,8.440625 L21.8195313,8.440625 C22.7695313,8.440625 23.6632813,8.06953125 24.3359375,7.3953125 C25.0101563,6.721875 25.38125,5.82734375 25.38125,4.878125 C25.3796875,2.91484375 23.78125,1.31796875 21.81875,1.31796875 C20.86875,1.31796875 19.975,1.6890625 19.3007813,2.3625 Z M1.2578125,4.88125 C1.2578125,3.6765625 1.72734375,2.5421875 2.58125,1.68828125 C3.434375,0.834375 4.56875,0.3640625 5.7734375,0.3640625 C8.028125,0.3640625 9.896875,2.02734375 10.2304688,4.190625 C10.334375,4.0625 10.4429688,3.9375 10.5609375,3.81953125 C11.4148438,2.965625 12.5484375,2.49453125 13.753125,2.49453125 C15.2195313,2.49453125 16.5210938,3.20078125 17.346875,4.2875 C17.475,3.3078125 17.9148438,2.4 18.6265625,1.68828125 C19.4796875,0.834375 20.6140625,0.3640625 21.81875,0.3640625 C24.3070313,0.3640625 26.3335938,2.3890625 26.334375,4.878125 C26.334375,6.08203125 25.8640625,7.215625 25.0109375,8.0703125 C24.1578125,8.9234375 23.0242188,9.39375 21.8195313,9.39375 L21.81875,9.39375 C20.3523438,9.39375 19.0507813,8.68828125 18.2257813,7.6015625 C18.0976563,8.58125 17.6570313,9.4890625 16.9445313,10.2007813 C16.0921875,11.0546875 14.959375,11.525 13.7546875,11.525 L13.753125,11.525 C11.4984375,11.525 9.62890625,9.86171875 9.2953125,7.6984375 C9.19296875,7.82734375 9.08359375,7.9515625 8.965625,8.0703125 C8.1125,8.9234375 6.9796875,9.39375 5.775,9.39375 L5.7734375,9.39375 C3.284375,9.39375 1.259375,7.36953125 1.2578125,4.88125 Z" id="Combined-Shape" fill="#24334C"></path>
                </g>
            </g>
        </g>
    </g>
</svg>