<?xml version="1.0" encoding="UTF-8"?>
<svg width="28px" height="21px" viewBox="0 0 28 21" version="1.1" xmlns="http://www.w3.org/2000/svg" xmlns:xlink="http://www.w3.org/1999/xlink">
    <!-- Generator: Sketch 52.2 (67145) - http://www.bohemiancoding.com/sketch -->
    <title>icon-personnel@1.5x</title>
    <desc>Created with Sketch.</desc>
    <g id="Visual-Exploration" stroke="none" stroke-width="1" fill="none" fill-rule="evenodd">
        <g id="1.0.0---Home" transform="translate(-333.000000, -890.000000)">
            <g id="Group-5" transform="translate(100.000000, 804.000000)">
                <g id="icon-personnel" transform="translate(233.000000, 86.000000)">
                    <path d="M23.7151252,1.59244949 C25.8434356,1.59244949 27.5732915,3.32311036 27.5732915,5.45142075 L27.5732915,13.9099251 C27.5732915,15.4522257 26.6620784,16.7828222 25.3508009,17.3994204 C25.36851,17.5338485 25.3805844,17.6698865 25.3805844,17.8091443 C25.3805844,19.5679787 23.9485631,21 22.1889238,21 C20.4300894,21 18.9980681,19.5679787 18.9980681,17.8091443 C18.9980681,17.79546 19.000483,17.7825807 19.000483,17.7688964 L10.6852612,17.7688964 C10.6852612,17.7825807 10.6876761,17.79546 10.6876761,17.8091443 C10.6876761,19.5679787 9.25565483,21 7.49682041,21 C5.73637608,21 4.30515978,19.5679787 4.30515978,17.8091443 C4.30515978,17.79546 4.30757466,17.7825807 4.30757466,17.7688964 L2.7709088,17.7688964 C1.79449408,17.7688964 1,16.9744023 1,15.9971826 L1,14.5377928 C1,13.7924012 1.46365612,13.1540691 2.11728246,12.8932625 L2.11728246,1 L15.6639298,1 L15.6639298,2.1728246 C16.0736537,1.81300813 16.6089511,1.59244949 17.1957659,1.59244949 L23.7151252,1.59244949 Z M7.49682041,18.553731 C7.90734927,18.553731 8.24140707,18.2196732 8.24140707,17.8091443 C8.24140707,17.3978105 7.90734927,17.0637527 7.49682041,17.0637527 C7.0854866,17.0637527 6.7514288,17.3978105 6.7514288,17.8091443 C6.7514288,18.2196732 7.0854866,18.553731 7.49682041,18.553731 Z M22.1889238,18.553731 C22.6002576,18.553731 22.9343154,18.2196732 22.9343154,17.8091443 C22.9343154,17.3978105 22.6002576,17.0637527 22.1889238,17.0637527 C21.7783949,17.0637527 21.4443371,17.3978105 21.4443371,17.8091443 C21.4443371,18.2196732 21.7783949,18.553731 22.1889238,18.553731 Z M24.5868953,8.44023183 L24.5868953,6.98003703 C24.5868953,6.27086855 24.010545,5.69371327 23.3013765,5.69371327 L20.651453,5.69371327 L20.651453,5.67036948 L17.7882154,5.67036948 L17.7882154,9.72575062 L23.3013765,9.72575062 C24.010545,9.72575062 24.5868953,9.14940031 24.5868953,8.44023183 Z" id="Combined-Shape" fill="#8190A1"></path>
                    <path d="M25.7804073,12.9099251 L25.7804073,4.45142075 C25.7804073,2.76100781 24.4047332,1.38613861 22.7151252,1.38613861 L16.1957659,1.38613861 C15.3513644,1.38613861 14.6639298,2.07357321 14.6639298,2.91797472 L14.6639298,12.5597682 L1.7709088,12.5597682 C1.23158657,12.5597682 0.793689125,12.9984706 0.793689125,13.5377928 L0.793689125,14.9971826 C0.793689125,15.5365049 1.23158657,15.9760122 1.7709088,15.9760122 L3.4194639,15.9760122 C3.78652499,14.6196571 5.02455124,13.6174837 6.49682041,13.6174837 C7.96747967,13.6174837 9.20550592,14.6196571 9.57337197,15.9760122 L18.1123722,15.9760122 C18.4802383,14.6196571 19.7182645,13.6174837 21.1889238,13.6174837 C22.5283748,13.6174837 23.6746358,14.447396 24.1479514,15.6178057 C25.1179264,15.1026322 25.7804073,14.0827497 25.7804073,12.9099251 Z M21.1889238,19.2063109 C22.5114707,19.2063109 23.5868953,18.1308863 23.5868953,16.8091443 C23.5868953,15.4865974 22.5114707,14.4111728 21.1889238,14.4111728 C19.8671818,14.4111728 18.7917572,15.4865974 18.7917572,16.8091443 C18.7917572,18.1308863 19.8671818,19.2063109 21.1889238,19.2063109 Z M6.49682041,19.2063109 C7.81856234,19.2063109 8.89398696,18.1308863 8.89398696,16.8091443 C8.89398696,15.4865974 7.81856234,14.4111728 6.49682041,14.4111728 C5.17427352,14.4111728 4.09804395,15.4865974 4.09804395,16.8091443 C4.09804395,18.1308863 5.17427352,19.2063109 6.49682041,19.2063109 Z M1.91097158,11.766884 L13.8702407,11.766884 L13.8702407,0.793689125 L1.91097158,0.793689125 L1.91097158,11.766884 Z M22.7151252,0.592449489 C24.8434356,0.592449489 26.5732915,2.32311036 26.5732915,4.45142075 L26.5732915,12.9099251 C26.5732915,14.4522257 25.6620784,15.7828222 24.3508009,16.3994204 C24.36851,16.5338485 24.3805844,16.6698865 24.3805844,16.8091443 C24.3805844,18.5679787 22.9485631,20 21.1889238,20 C19.4300894,20 17.9980681,18.5679787 17.9980681,16.8091443 C17.9980681,16.79546 18.000483,16.7825807 18.000483,16.7688964 L9.68526121,16.7688964 C9.68526121,16.7825807 9.68767608,16.79546 9.68767608,16.8091443 C9.68767608,18.5679787 8.25565483,20 6.49682041,20 C4.73637608,20 3.30515978,18.5679787 3.30515978,16.8091443 C3.30515978,16.79546 3.30757466,16.7825807 3.30757466,16.7688964 L1.7709088,16.7688964 C0.794494084,16.7688964 4.19220214e-13,15.9744023 4.19220214e-13,14.9971826 L4.19220214e-13,13.5377928 C4.19220214e-13,12.7924012 0.463656122,12.1540691 1.11728246,11.8932625 L1.11728246,0 L14.6639298,0 L14.6639298,1.1728246 C15.0736537,0.81300813 15.6089511,0.592449489 16.1957659,0.592449489 L22.7151252,0.592449489 Z M6.49682041,17.553731 C6.90734927,17.553731 7.24140707,17.2196732 7.24140707,16.8091443 C7.24140707,16.3978105 6.90734927,16.0637527 6.49682041,16.0637527 C6.0854866,16.0637527 5.7514288,16.3978105 5.7514288,16.8091443 C5.7514288,17.2196732 6.0854866,17.553731 6.49682041,17.553731 Z M6.49682041,15.2700636 C7.34444176,15.2700636 8.03509619,15.960718 8.03509619,16.8091443 C8.03509619,17.6567657 7.34444176,18.3474201 6.49682041,18.3474201 C5.64758915,18.3474201 4.95773968,17.6567657 4.95773968,16.8091443 C4.95773968,15.960718 5.64758915,15.2700636 6.49682041,15.2700636 Z M21.1889238,17.553731 C21.6002576,17.553731 21.9343154,17.2196732 21.9343154,16.8091443 C21.9343154,16.3978105 21.6002576,16.0637527 21.1889238,16.0637527 C20.7783949,16.0637527 20.4443371,16.3978105 20.4443371,16.8091443 C20.4443371,17.2196732 20.7783949,17.553731 21.1889238,17.553731 Z M21.1889238,15.2700636 C22.038155,15.2700636 22.7280045,15.960718 22.7280045,16.8091443 C22.7280045,17.6567657 22.038155,18.3474201 21.1889238,18.3474201 C20.3413024,18.3474201 19.651453,17.6567657 19.651453,16.8091443 C19.651453,15.960718 20.3413024,15.2700636 21.1889238,15.2700636 Z M8.86259358,3.28906061 L8.86259358,5.32399581 L10.8975288,5.32399581 L10.8975288,7.77348467 L8.86259358,7.77348467 L8.86259358,9.80841987 L6.41390968,9.80841987 L6.41390968,7.77348467 L4.37816952,7.77348467 L4.37816952,5.32399581 L6.41390968,5.32399581 L6.41390968,3.28906061 L8.86259358,3.28906061 Z M23.5868953,7.44023183 L23.5868953,5.98003703 C23.5868953,5.27086855 23.010545,4.69371327 22.3013765,4.69371327 L19.651453,4.69371327 L19.651453,4.67036948 L16.7882154,4.67036948 L16.7882154,8.72575062 L22.3013765,8.72575062 C23.010545,8.72575062 23.5868953,8.14940031 23.5868953,7.44023183 Z M22.3013765,3.90082911 C23.4484424,3.90082911 24.3805844,4.8329711 24.3805844,5.98003703 L24.3805844,7.44023183 C24.3805844,8.5864928 23.4484424,9.51943975 22.3013765,9.51943975 L15.9945263,9.51943975 L15.9945263,3.87668035 L20.4443371,3.87668035 L20.4443371,3.90082911 L22.3013765,3.90082911 Z" id="Combined-Shape" fill="#24334C"></path>
                </g>
            </g>
        </g>
    </g>
</svg>