<?xml version="1.0" encoding="utf-8"?>
<!-- Generator: Adobe Illustrator 24.0.1, SVG Export Plug-In . SVG Version: 6.00 Build 0)  -->
<svg version="1.1" id="Layer_1" xmlns="http://www.w3.org/2000/svg" xmlns:xlink="http://www.w3.org/1999/xlink" x="0px" y="0px"
	 viewBox="0 0 841.89 380.21" style="enable-background:new 0 0 841.89 380.21;" xml:space="preserve">
<style type="text/css">
	.st0{fill:#FFFFFF;}
	.st1{fill:#F5333F;}
	.st2{fill:#333132;}
</style>
<rect x="94.73" y="93.38" class="st0" width="652.43" height="193.44"/>
<polygon class="st1" points="175.8,204.95 141.75,204.95 141.75,175.76 175.8,175.76 175.8,175.74 175.8,141.69 204.98,141.69 
	204.98,175.74 204.97,175.76 239.03,175.76 239.03,204.94 204.97,204.94 204.98,204.93 204.98,238.98 175.8,238.98 175.8,204.93 "/>
<path class="st1" d="M284.17,189.82c0-22.67,18.38-41.06,41.06-41.06c5.05,0,9.89,0.91,14.35,2.58
	c-8.4-6.65-19.01-10.62-30.55-10.62c-27.21,0-49.27,22.06-49.27,49.27s22.06,49.27,49.27,49.27c11.92,0,22.86-4.24,31.39-11.29
	c-4.7,1.87-9.82,2.9-15.18,2.9C302.56,230.88,284.17,212.49,284.17,189.82"/>
<path class="st2" d="M657.92,239.28c8.26,0,15.75-1.46,22.46-4.36c6.72-2.91,12.34-7.12,16.88-12.66l-14.16-13.07
	c-6.45,7.54-14.43,11.3-23.96,11.3c-5.9,0-11.17-1.29-15.79-3.88c-4.63-2.59-8.24-6.19-10.82-10.82c-2.59-4.63-3.88-9.89-3.88-15.79
	c0-5.9,1.3-11.17,3.88-15.8c2.58-4.63,6.19-8.24,10.82-10.82c4.63-2.59,9.89-3.88,15.79-3.88c9.53,0,17.52,3.72,23.96,11.17
	l14.16-13.07c-4.54-5.45-10.14-9.62-16.82-12.52c-6.67-2.91-14.13-4.36-22.39-4.36c-9.8,0-18.63,2.11-26.48,6.33
	c-7.86,4.22-14.03,10.08-18.52,17.56c-4.49,7.49-6.74,15.96-6.74,25.39c0,9.44,2.25,17.9,6.74,25.39
	c4.49,7.49,10.66,13.34,18.52,17.56C639.42,237.17,648.2,239.28,657.92,239.28 M569.83,176.93c0,5.27-1.72,9.35-5.17,12.26
	c-3.45,2.91-8.49,4.36-15.11,4.36h-17.97v-33.22h17.97c6.63,0,11.66,1.43,15.11,4.29C568.11,167.46,569.83,171.57,569.83,176.93
	 M593.93,237.65l-21.37-30.63c6.26-2.72,11.1-6.65,14.5-11.78c3.4-5.13,5.1-11.23,5.1-18.31c0-7.08-1.68-13.2-5.03-18.38
	c-3.36-5.17-8.15-9.17-14.36-11.98c-6.22-2.81-13.55-4.22-21.99-4.22h-41.25v95.3h22.06V211.1h19.2h1.09l18.38,26.55H593.93z
	 M490.46,160.04v-17.7h-72.02v95.3h22.06v-34.72h44.11v-17.7h-44.11v-25.19H490.46z M373.78,237.65h22.06v-95.3h-22.06V237.65z"/>
</svg>
